G04 #@! TF.GenerationSoftware,KiCad,Pcbnew,6.0.10-86aedd382b~118~ubuntu18.04.1*
G04 #@! TF.CreationDate,2025-05-01T16:39:21+01:00*
G04 #@! TF.ProjectId,tangnano20k_dock,74616e67-6e61-46e6-9f32-306b5f646f63,rev?*
G04 #@! TF.SameCoordinates,Original*
G04 #@! TF.FileFunction,Legend,Top*
G04 #@! TF.FilePolarity,Positive*
%FSLAX46Y46*%
G04 Gerber Fmt 4.6, Leading zero omitted, Abs format (unit mm)*
G04 Created by KiCad (PCBNEW 6.0.10-86aedd382b~118~ubuntu18.04.1) date 2025-05-01 16:39:21*
%MOMM*%
%LPD*%
G01*
G04 APERTURE LIST*
G04 Aperture macros list*
%AMRoundRect*
0 Rectangle with rounded corners*
0 $1 Rounding radius*
0 $2 $3 $4 $5 $6 $7 $8 $9 X,Y pos of 4 corners*
0 Add a 4 corners polygon primitive as box body*
4,1,4,$2,$3,$4,$5,$6,$7,$8,$9,$2,$3,0*
0 Add four circle primitives for the rounded corners*
1,1,$1+$1,$2,$3*
1,1,$1+$1,$4,$5*
1,1,$1+$1,$6,$7*
1,1,$1+$1,$8,$9*
0 Add four rect primitives between the rounded corners*
20,1,$1+$1,$2,$3,$4,$5,0*
20,1,$1+$1,$4,$5,$6,$7,0*
20,1,$1+$1,$6,$7,$8,$9,0*
20,1,$1+$1,$8,$9,$2,$3,0*%
G04 Aperture macros list end*
%ADD10C,0.150000*%
%ADD11C,0.200000*%
%ADD12C,0.120000*%
%ADD13RoundRect,0.288000X0.650000X-0.412500X0.650000X0.412500X-0.650000X0.412500X-0.650000X-0.412500X0*%
%ADD14RoundRect,0.188000X-0.150000X0.825000X-0.150000X-0.825000X0.150000X-0.825000X0.150000X0.825000X0*%
%ADD15RoundRect,0.288001X-0.462499X-0.624999X0.462499X-0.624999X0.462499X0.624999X-0.462499X0.624999X0*%
%ADD16RoundRect,0.288000X0.412500X0.650000X-0.412500X0.650000X-0.412500X-0.650000X0.412500X-0.650000X0*%
%ADD17O,1.426000X2.276000*%
%ADD18O,2.276000X1.426000*%
%ADD19RoundRect,0.288000X0.400000X0.625000X-0.400000X0.625000X-0.400000X-0.625000X0.400000X-0.625000X0*%
%ADD20RoundRect,0.288000X0.625000X-0.400000X0.625000X0.400000X-0.625000X0.400000X-0.625000X-0.400000X0*%
%ADD21RoundRect,0.288000X-0.400000X-0.625000X0.400000X-0.625000X0.400000X0.625000X-0.400000X0.625000X0*%
%ADD22RoundRect,0.038000X-0.850000X-0.850000X0.850000X-0.850000X0.850000X0.850000X-0.850000X0.850000X0*%
%ADD23O,1.776000X1.776000*%
%ADD24RoundRect,0.038000X0.850000X0.850000X-0.850000X0.850000X-0.850000X-0.850000X0.850000X-0.850000X0*%
%ADD25C,4.076000*%
%ADD26RoundRect,0.038000X-0.800000X-0.800000X0.800000X-0.800000X0.800000X0.800000X-0.800000X0.800000X0*%
%ADD27C,1.676000*%
%ADD28RoundRect,0.288000X-0.412500X-0.650000X0.412500X-0.650000X0.412500X0.650000X-0.412500X0.650000X0*%
%ADD29C,2.000000*%
%ADD30C,1.776000*%
%ADD31C,6.800000*%
%ADD32C,6.000000*%
%ADD33RoundRect,0.952000X1.300000X0.000000X-1.300000X0.000000X-1.300000X0.000000X1.300000X0.000000X0*%
%ADD34RoundRect,0.952000X0.000000X1.300000X0.000000X-1.300000X0.000000X-1.300000X0.000000X1.300000X0*%
%ADD35RoundRect,0.952000X-1.300000X0.000000X1.300000X0.000000X1.300000X0.000000X-1.300000X0.000000X0*%
%ADD36RoundRect,0.038000X0.700000X1.050000X-0.700000X1.050000X-0.700000X-1.050000X0.700000X-1.050000X0*%
%ADD37O,1.676000X1.676000*%
%ADD38RoundRect,0.038000X-0.850000X0.850000X-0.850000X-0.850000X0.850000X-0.850000X0.850000X0.850000X0*%
%ADD39RoundRect,0.038000X0.850000X-0.850000X0.850000X0.850000X-0.850000X0.850000X-0.850000X-0.850000X0*%
%ADD40C,1.600000*%
%ADD41RoundRect,0.038000X0.800000X0.800000X-0.800000X0.800000X-0.800000X-0.800000X0.800000X-0.800000X0*%
%ADD42O,2.076000X4.076000*%
%ADD43O,4.076000X2.276000*%
%ADD44O,2.362000X3.900000*%
%ADD45O,3.900000X2.362000*%
%ADD46RoundRect,0.288000X-0.625000X0.400000X-0.625000X-0.400000X0.625000X-0.400000X0.625000X0.400000X0*%
G04 APERTURE END LIST*
D10*
X129540000Y-109850000D02*
X109855000Y-109850000D01*
G36*
X213360000Y-62860000D02*
G01*
X211455000Y-62225000D01*
X213360000Y-61590000D01*
X213360000Y-62860000D01*
G37*
X213360000Y-62860000D02*
X211455000Y-62225000D01*
X213360000Y-61590000D01*
X213360000Y-62860000D01*
X109855000Y-109850000D02*
X109855000Y-121280000D01*
X109855000Y-121280000D02*
X129540000Y-121280000D01*
X129540000Y-121280000D02*
X129540000Y-109850000D01*
D11*
X76331428Y-87731071D02*
X75617142Y-87731071D01*
X75617142Y-86231071D01*
X76831428Y-87731071D02*
X76831428Y-86731071D01*
X76831428Y-86231071D02*
X76760000Y-86302500D01*
X76831428Y-86373928D01*
X76902857Y-86302500D01*
X76831428Y-86231071D01*
X76831428Y-86373928D01*
X77545714Y-86731071D02*
X77545714Y-87731071D01*
X77545714Y-86873928D02*
X77617142Y-86802500D01*
X77760000Y-86731071D01*
X77974285Y-86731071D01*
X78117142Y-86802500D01*
X78188571Y-86945357D01*
X78188571Y-87731071D01*
X79474285Y-87659642D02*
X79331428Y-87731071D01*
X79045714Y-87731071D01*
X78902857Y-87659642D01*
X78831428Y-87516785D01*
X78831428Y-86945357D01*
X78902857Y-86802500D01*
X79045714Y-86731071D01*
X79331428Y-86731071D01*
X79474285Y-86802500D01*
X79545714Y-86945357D01*
X79545714Y-87088214D01*
X78831428Y-87231071D01*
X81617142Y-86231071D02*
X81902857Y-86231071D01*
X82045714Y-86302500D01*
X82188571Y-86445357D01*
X82260000Y-86731071D01*
X82260000Y-87231071D01*
X82188571Y-87516785D01*
X82045714Y-87659642D01*
X81902857Y-87731071D01*
X81617142Y-87731071D01*
X81474285Y-87659642D01*
X81331428Y-87516785D01*
X81260000Y-87231071D01*
X81260000Y-86731071D01*
X81331428Y-86445357D01*
X81474285Y-86302500D01*
X81617142Y-86231071D01*
X83545714Y-86731071D02*
X83545714Y-87731071D01*
X82902857Y-86731071D02*
X82902857Y-87516785D01*
X82974285Y-87659642D01*
X83117142Y-87731071D01*
X83331428Y-87731071D01*
X83474285Y-87659642D01*
X83545714Y-87588214D01*
X84045714Y-86731071D02*
X84617142Y-86731071D01*
X84260000Y-86231071D02*
X84260000Y-87516785D01*
X84331428Y-87659642D01*
X84474285Y-87731071D01*
X84617142Y-87731071D01*
X76474285Y-90074642D02*
X76688571Y-90146071D01*
X77045714Y-90146071D01*
X77188571Y-90074642D01*
X77260000Y-90003214D01*
X77331428Y-89860357D01*
X77331428Y-89717500D01*
X77260000Y-89574642D01*
X77188571Y-89503214D01*
X77045714Y-89431785D01*
X76760000Y-89360357D01*
X76617142Y-89288928D01*
X76545714Y-89217500D01*
X76474285Y-89074642D01*
X76474285Y-88931785D01*
X76545714Y-88788928D01*
X76617142Y-88717500D01*
X76760000Y-88646071D01*
X77117142Y-88646071D01*
X77331428Y-88717500D01*
X78188571Y-90146071D02*
X78045714Y-90074642D01*
X77974285Y-90003214D01*
X77902857Y-89860357D01*
X77902857Y-89431785D01*
X77974285Y-89288928D01*
X78045714Y-89217500D01*
X78188571Y-89146071D01*
X78402857Y-89146071D01*
X78545714Y-89217500D01*
X78617142Y-89288928D01*
X78688571Y-89431785D01*
X78688571Y-89860357D01*
X78617142Y-90003214D01*
X78545714Y-90074642D01*
X78402857Y-90146071D01*
X78188571Y-90146071D01*
X79974285Y-89146071D02*
X79974285Y-90146071D01*
X79331428Y-89146071D02*
X79331428Y-89931785D01*
X79402857Y-90074642D01*
X79545714Y-90146071D01*
X79760000Y-90146071D01*
X79902857Y-90074642D01*
X79974285Y-90003214D01*
X80688571Y-90146071D02*
X80688571Y-89146071D01*
X80688571Y-89431785D02*
X80760000Y-89288928D01*
X80831428Y-89217500D01*
X80974285Y-89146071D01*
X81117142Y-89146071D01*
X82260000Y-90074642D02*
X82117142Y-90146071D01*
X81831428Y-90146071D01*
X81688571Y-90074642D01*
X81617142Y-90003214D01*
X81545714Y-89860357D01*
X81545714Y-89431785D01*
X81617142Y-89288928D01*
X81688571Y-89217500D01*
X81831428Y-89146071D01*
X82117142Y-89146071D01*
X82260000Y-89217500D01*
X83474285Y-90074642D02*
X83331428Y-90146071D01*
X83045714Y-90146071D01*
X82902857Y-90074642D01*
X82831428Y-89931785D01*
X82831428Y-89360357D01*
X82902857Y-89217500D01*
X83045714Y-89146071D01*
X83331428Y-89146071D01*
X83474285Y-89217500D01*
X83545714Y-89360357D01*
X83545714Y-89503214D01*
X82831428Y-89646071D01*
X104759285Y-107526857D02*
X104759285Y-106326857D01*
X105445000Y-107526857D02*
X104930714Y-106841142D01*
X105445000Y-106326857D02*
X104759285Y-107012571D01*
X106416428Y-107469714D02*
X106302142Y-107526857D01*
X106073571Y-107526857D01*
X105959285Y-107469714D01*
X105902142Y-107355428D01*
X105902142Y-106898285D01*
X105959285Y-106784000D01*
X106073571Y-106726857D01*
X106302142Y-106726857D01*
X106416428Y-106784000D01*
X106473571Y-106898285D01*
X106473571Y-107012571D01*
X105902142Y-107126857D01*
X106873571Y-106726857D02*
X107159285Y-107526857D01*
X107445000Y-106726857D02*
X107159285Y-107526857D01*
X107045000Y-107812571D01*
X106987857Y-107869714D01*
X106873571Y-107926857D01*
X104159285Y-109344571D02*
X104102142Y-109401714D01*
X103930714Y-109458857D01*
X103816428Y-109458857D01*
X103645000Y-109401714D01*
X103530714Y-109287428D01*
X103473571Y-109173142D01*
X103416428Y-108944571D01*
X103416428Y-108773142D01*
X103473571Y-108544571D01*
X103530714Y-108430285D01*
X103645000Y-108316000D01*
X103816428Y-108258857D01*
X103930714Y-108258857D01*
X104102142Y-108316000D01*
X104159285Y-108373142D01*
X104845000Y-109458857D02*
X104730714Y-109401714D01*
X104673571Y-109344571D01*
X104616428Y-109230285D01*
X104616428Y-108887428D01*
X104673571Y-108773142D01*
X104730714Y-108716000D01*
X104845000Y-108658857D01*
X105016428Y-108658857D01*
X105130714Y-108716000D01*
X105187857Y-108773142D01*
X105245000Y-108887428D01*
X105245000Y-109230285D01*
X105187857Y-109344571D01*
X105130714Y-109401714D01*
X105016428Y-109458857D01*
X104845000Y-109458857D01*
X105759285Y-108658857D02*
X105759285Y-109458857D01*
X105759285Y-108773142D02*
X105816428Y-108716000D01*
X105930714Y-108658857D01*
X106102142Y-108658857D01*
X106216428Y-108716000D01*
X106273571Y-108830285D01*
X106273571Y-109458857D01*
X106673571Y-108658857D02*
X107130714Y-108658857D01*
X106845000Y-109458857D02*
X106845000Y-108430285D01*
X106902142Y-108316000D01*
X107016428Y-108258857D01*
X107130714Y-108258857D01*
X107530714Y-109458857D02*
X107530714Y-108658857D01*
X107530714Y-108258857D02*
X107473571Y-108316000D01*
X107530714Y-108373142D01*
X107587857Y-108316000D01*
X107530714Y-108258857D01*
X107530714Y-108373142D01*
X108616428Y-108658857D02*
X108616428Y-109630285D01*
X108559285Y-109744571D01*
X108502142Y-109801714D01*
X108387857Y-109858857D01*
X108216428Y-109858857D01*
X108102142Y-109801714D01*
X108616428Y-109401714D02*
X108502142Y-109458857D01*
X108273571Y-109458857D01*
X108159285Y-109401714D01*
X108102142Y-109344571D01*
X108045000Y-109230285D01*
X108045000Y-108887428D01*
X108102142Y-108773142D01*
X108159285Y-108716000D01*
X108273571Y-108658857D01*
X108502142Y-108658857D01*
X108616428Y-108716000D01*
X132818571Y-105448571D02*
X132818571Y-103948571D01*
X133175714Y-103948571D01*
X133390000Y-104020000D01*
X133532857Y-104162857D01*
X133604285Y-104305714D01*
X133675714Y-104591428D01*
X133675714Y-104805714D01*
X133604285Y-105091428D01*
X133532857Y-105234285D01*
X133390000Y-105377142D01*
X133175714Y-105448571D01*
X132818571Y-105448571D01*
X134890000Y-105377142D02*
X134747142Y-105448571D01*
X134461428Y-105448571D01*
X134318571Y-105377142D01*
X134247142Y-105234285D01*
X134247142Y-104662857D01*
X134318571Y-104520000D01*
X134461428Y-104448571D01*
X134747142Y-104448571D01*
X134890000Y-104520000D01*
X134961428Y-104662857D01*
X134961428Y-104805714D01*
X134247142Y-104948571D01*
X135604285Y-105448571D02*
X135604285Y-103948571D01*
X135604285Y-104520000D02*
X135747142Y-104448571D01*
X136032857Y-104448571D01*
X136175714Y-104520000D01*
X136247142Y-104591428D01*
X136318571Y-104734285D01*
X136318571Y-105162857D01*
X136247142Y-105305714D01*
X136175714Y-105377142D01*
X136032857Y-105448571D01*
X135747142Y-105448571D01*
X135604285Y-105377142D01*
X137604285Y-104448571D02*
X137604285Y-105448571D01*
X136961428Y-104448571D02*
X136961428Y-105234285D01*
X137032857Y-105377142D01*
X137175714Y-105448571D01*
X137390000Y-105448571D01*
X137532857Y-105377142D01*
X137604285Y-105305714D01*
X138961428Y-104448571D02*
X138961428Y-105662857D01*
X138890000Y-105805714D01*
X138818571Y-105877142D01*
X138675714Y-105948571D01*
X138461428Y-105948571D01*
X138318571Y-105877142D01*
X138961428Y-105377142D02*
X138818571Y-105448571D01*
X138532857Y-105448571D01*
X138390000Y-105377142D01*
X138318571Y-105305714D01*
X138247142Y-105162857D01*
X138247142Y-104734285D01*
X138318571Y-104591428D01*
X138390000Y-104520000D01*
X138532857Y-104448571D01*
X138818571Y-104448571D01*
X138961428Y-104520000D01*
X216277857Y-85826071D02*
X216277857Y-84326071D01*
X216849285Y-84326071D01*
X216992142Y-84397500D01*
X217063571Y-84468928D01*
X217135000Y-84611785D01*
X217135000Y-84826071D01*
X217063571Y-84968928D01*
X216992142Y-85040357D01*
X216849285Y-85111785D01*
X216277857Y-85111785D01*
X217777857Y-85826071D02*
X217777857Y-84826071D01*
X217777857Y-84326071D02*
X217706428Y-84397500D01*
X217777857Y-84468928D01*
X217849285Y-84397500D01*
X217777857Y-84326071D01*
X217777857Y-84468928D01*
X218277857Y-84326071D02*
X219135000Y-84326071D01*
X218706428Y-85826071D02*
X218706428Y-84326071D01*
X220277857Y-84826071D02*
X220277857Y-85826071D01*
X219635000Y-84826071D02*
X219635000Y-85611785D01*
X219706428Y-85754642D01*
X219849285Y-85826071D01*
X220063571Y-85826071D01*
X220206428Y-85754642D01*
X220277857Y-85683214D01*
X220992142Y-85826071D02*
X220992142Y-84326071D01*
X220992142Y-84897500D02*
X221135000Y-84826071D01*
X221420714Y-84826071D01*
X221563571Y-84897500D01*
X221635000Y-84968928D01*
X221706428Y-85111785D01*
X221706428Y-85540357D01*
X221635000Y-85683214D01*
X221563571Y-85754642D01*
X221420714Y-85826071D01*
X221135000Y-85826071D01*
X220992142Y-85754642D01*
X222920714Y-85754642D02*
X222777857Y-85826071D01*
X222492142Y-85826071D01*
X222349285Y-85754642D01*
X222277857Y-85611785D01*
X222277857Y-85040357D01*
X222349285Y-84897500D01*
X222492142Y-84826071D01*
X222777857Y-84826071D01*
X222920714Y-84897500D01*
X222992142Y-85040357D01*
X222992142Y-85183214D01*
X222277857Y-85326071D01*
X223635000Y-85826071D02*
X223635000Y-84326071D01*
X223992142Y-84326071D01*
X224206428Y-84397500D01*
X224349285Y-84540357D01*
X224420714Y-84683214D01*
X224492142Y-84968928D01*
X224492142Y-85183214D01*
X224420714Y-85468928D01*
X224349285Y-85611785D01*
X224206428Y-85754642D01*
X223992142Y-85826071D01*
X223635000Y-85826071D01*
X225135000Y-85826071D02*
X225135000Y-84826071D01*
X225135000Y-84326071D02*
X225063571Y-84397500D01*
X225135000Y-84468928D01*
X225206428Y-84397500D01*
X225135000Y-84326071D01*
X225135000Y-84468928D01*
X225849285Y-85826071D02*
X225849285Y-84826071D01*
X225849285Y-85111785D02*
X225920714Y-84968928D01*
X225992142Y-84897500D01*
X226135000Y-84826071D01*
X226277857Y-84826071D01*
X227349285Y-85754642D02*
X227206428Y-85826071D01*
X226920714Y-85826071D01*
X226777857Y-85754642D01*
X226706428Y-85611785D01*
X226706428Y-85040357D01*
X226777857Y-84897500D01*
X226920714Y-84826071D01*
X227206428Y-84826071D01*
X227349285Y-84897500D01*
X227420714Y-85040357D01*
X227420714Y-85183214D01*
X226706428Y-85326071D01*
X228706428Y-85754642D02*
X228563571Y-85826071D01*
X228277857Y-85826071D01*
X228135000Y-85754642D01*
X228063571Y-85683214D01*
X227992142Y-85540357D01*
X227992142Y-85111785D01*
X228063571Y-84968928D01*
X228135000Y-84897500D01*
X228277857Y-84826071D01*
X228563571Y-84826071D01*
X228706428Y-84897500D01*
X229135000Y-84826071D02*
X229706428Y-84826071D01*
X229349285Y-84326071D02*
X229349285Y-85611785D01*
X229420714Y-85754642D01*
X229563571Y-85826071D01*
X229706428Y-85826071D01*
X216563571Y-88098214D02*
X216492142Y-88169642D01*
X216277857Y-88241071D01*
X216135000Y-88241071D01*
X215920714Y-88169642D01*
X215777857Y-88026785D01*
X215706428Y-87883928D01*
X215635000Y-87598214D01*
X215635000Y-87383928D01*
X215706428Y-87098214D01*
X215777857Y-86955357D01*
X215920714Y-86812500D01*
X216135000Y-86741071D01*
X216277857Y-86741071D01*
X216492142Y-86812500D01*
X216563571Y-86883928D01*
X217420714Y-88241071D02*
X217277857Y-88169642D01*
X217206428Y-88098214D01*
X217135000Y-87955357D01*
X217135000Y-87526785D01*
X217206428Y-87383928D01*
X217277857Y-87312500D01*
X217420714Y-87241071D01*
X217635000Y-87241071D01*
X217777857Y-87312500D01*
X217849285Y-87383928D01*
X217920714Y-87526785D01*
X217920714Y-87955357D01*
X217849285Y-88098214D01*
X217777857Y-88169642D01*
X217635000Y-88241071D01*
X217420714Y-88241071D01*
X219706428Y-88241071D02*
X219706428Y-86741071D01*
X220277857Y-86741071D01*
X220420714Y-86812500D01*
X220492142Y-86883928D01*
X220563571Y-87026785D01*
X220563571Y-87241071D01*
X220492142Y-87383928D01*
X220420714Y-87455357D01*
X220277857Y-87526785D01*
X219706428Y-87526785D01*
X221206428Y-88241071D02*
X221206428Y-87241071D01*
X221206428Y-87526785D02*
X221277857Y-87383928D01*
X221349285Y-87312500D01*
X221492142Y-87241071D01*
X221635000Y-87241071D01*
X222349285Y-88241071D02*
X222206428Y-88169642D01*
X222135000Y-88098214D01*
X222063571Y-87955357D01*
X222063571Y-87526785D01*
X222135000Y-87383928D01*
X222206428Y-87312500D01*
X222349285Y-87241071D01*
X222563571Y-87241071D01*
X222706428Y-87312500D01*
X222777857Y-87383928D01*
X222849285Y-87526785D01*
X222849285Y-87955357D01*
X222777857Y-88098214D01*
X222706428Y-88169642D01*
X222563571Y-88241071D01*
X222349285Y-88241071D01*
X224135000Y-88169642D02*
X223992142Y-88241071D01*
X223706428Y-88241071D01*
X223563571Y-88169642D01*
X223492142Y-88098214D01*
X223420714Y-87955357D01*
X223420714Y-87526785D01*
X223492142Y-87383928D01*
X223563571Y-87312500D01*
X223706428Y-87241071D01*
X223992142Y-87241071D01*
X224135000Y-87312500D01*
X225349285Y-88169642D02*
X225206428Y-88241071D01*
X224920714Y-88241071D01*
X224777857Y-88169642D01*
X224706428Y-88026785D01*
X224706428Y-87455357D01*
X224777857Y-87312500D01*
X224920714Y-87241071D01*
X225206428Y-87241071D01*
X225349285Y-87312500D01*
X225420714Y-87455357D01*
X225420714Y-87598214D01*
X224706428Y-87741071D01*
X225992142Y-88169642D02*
X226135000Y-88241071D01*
X226420714Y-88241071D01*
X226563571Y-88169642D01*
X226635000Y-88026785D01*
X226635000Y-87955357D01*
X226563571Y-87812500D01*
X226420714Y-87741071D01*
X226206428Y-87741071D01*
X226063571Y-87669642D01*
X225992142Y-87526785D01*
X225992142Y-87455357D01*
X226063571Y-87312500D01*
X226206428Y-87241071D01*
X226420714Y-87241071D01*
X226563571Y-87312500D01*
X227206428Y-88169642D02*
X227349285Y-88241071D01*
X227635000Y-88241071D01*
X227777857Y-88169642D01*
X227849285Y-88026785D01*
X227849285Y-87955357D01*
X227777857Y-87812500D01*
X227635000Y-87741071D01*
X227420714Y-87741071D01*
X227277857Y-87669642D01*
X227206428Y-87526785D01*
X227206428Y-87455357D01*
X227277857Y-87312500D01*
X227420714Y-87241071D01*
X227635000Y-87241071D01*
X227777857Y-87312500D01*
X228706428Y-88241071D02*
X228563571Y-88169642D01*
X228492142Y-88098214D01*
X228420714Y-87955357D01*
X228420714Y-87526785D01*
X228492142Y-87383928D01*
X228563571Y-87312500D01*
X228706428Y-87241071D01*
X228920714Y-87241071D01*
X229063571Y-87312500D01*
X229135000Y-87383928D01*
X229206428Y-87526785D01*
X229206428Y-87955357D01*
X229135000Y-88098214D01*
X229063571Y-88169642D01*
X228920714Y-88241071D01*
X228706428Y-88241071D01*
X229849285Y-88241071D02*
X229849285Y-87241071D01*
X229849285Y-87526785D02*
X229920714Y-87383928D01*
X229992142Y-87312500D01*
X230135000Y-87241071D01*
X230277857Y-87241071D01*
D10*
X137930000Y-102991904D02*
X137882380Y-103087142D01*
X137882380Y-103230000D01*
X137930000Y-103372857D01*
X138025238Y-103468095D01*
X138120476Y-103515714D01*
X138310952Y-103563333D01*
X138453809Y-103563333D01*
X138644285Y-103515714D01*
X138739523Y-103468095D01*
X138834761Y-103372857D01*
X138882380Y-103230000D01*
X138882380Y-103134761D01*
X138834761Y-102991904D01*
X138787142Y-102944285D01*
X138453809Y-102944285D01*
X138453809Y-103134761D01*
X138882380Y-102515714D02*
X137882380Y-102515714D01*
X138882380Y-101944285D01*
X137882380Y-101944285D01*
X138882380Y-101468095D02*
X137882380Y-101468095D01*
X137882380Y-101230000D01*
X137930000Y-101087142D01*
X138025238Y-100991904D01*
X138120476Y-100944285D01*
X138310952Y-100896666D01*
X138453809Y-100896666D01*
X138644285Y-100944285D01*
X138739523Y-100991904D01*
X138834761Y-101087142D01*
X138882380Y-101230000D01*
X138882380Y-101468095D01*
X80081380Y-76750476D02*
X79081380Y-76750476D01*
X79081380Y-76512380D01*
X79129000Y-76369523D01*
X79224238Y-76274285D01*
X79319476Y-76226666D01*
X79509952Y-76179047D01*
X79652809Y-76179047D01*
X79843285Y-76226666D01*
X79938523Y-76274285D01*
X80033761Y-76369523D01*
X80081380Y-76512380D01*
X80081380Y-76750476D01*
X79795666Y-75798095D02*
X79795666Y-75321904D01*
X80081380Y-75893333D02*
X79081380Y-75560000D01*
X80081380Y-75226666D01*
X79986142Y-74321904D02*
X80033761Y-74369523D01*
X80081380Y-74512380D01*
X80081380Y-74607619D01*
X80033761Y-74750476D01*
X79938523Y-74845714D01*
X79843285Y-74893333D01*
X79652809Y-74940952D01*
X79509952Y-74940952D01*
X79319476Y-74893333D01*
X79224238Y-74845714D01*
X79129000Y-74750476D01*
X79081380Y-74607619D01*
X79081380Y-74512380D01*
X79129000Y-74369523D01*
X79176619Y-74321904D01*
X199525000Y-67431904D02*
X199477380Y-67527142D01*
X199477380Y-67670000D01*
X199525000Y-67812857D01*
X199620238Y-67908095D01*
X199715476Y-67955714D01*
X199905952Y-68003333D01*
X200048809Y-68003333D01*
X200239285Y-67955714D01*
X200334523Y-67908095D01*
X200429761Y-67812857D01*
X200477380Y-67670000D01*
X200477380Y-67574761D01*
X200429761Y-67431904D01*
X200382142Y-67384285D01*
X200048809Y-67384285D01*
X200048809Y-67574761D01*
X200477380Y-66955714D02*
X199477380Y-66955714D01*
X200477380Y-66384285D01*
X199477380Y-66384285D01*
X200477380Y-65908095D02*
X199477380Y-65908095D01*
X199477380Y-65670000D01*
X199525000Y-65527142D01*
X199620238Y-65431904D01*
X199715476Y-65384285D01*
X199905952Y-65336666D01*
X200048809Y-65336666D01*
X200239285Y-65384285D01*
X200334523Y-65431904D01*
X200429761Y-65527142D01*
X200477380Y-65670000D01*
X200477380Y-65908095D01*
D11*
X198330714Y-76167142D02*
X198545000Y-76238571D01*
X198902142Y-76238571D01*
X199045000Y-76167142D01*
X199116428Y-76095714D01*
X199187857Y-75952857D01*
X199187857Y-75810000D01*
X199116428Y-75667142D01*
X199045000Y-75595714D01*
X198902142Y-75524285D01*
X198616428Y-75452857D01*
X198473571Y-75381428D01*
X198402142Y-75310000D01*
X198330714Y-75167142D01*
X198330714Y-75024285D01*
X198402142Y-74881428D01*
X198473571Y-74810000D01*
X198616428Y-74738571D01*
X198973571Y-74738571D01*
X199187857Y-74810000D01*
X200402142Y-76167142D02*
X200259285Y-76238571D01*
X199973571Y-76238571D01*
X199830714Y-76167142D01*
X199759285Y-76024285D01*
X199759285Y-75452857D01*
X199830714Y-75310000D01*
X199973571Y-75238571D01*
X200259285Y-75238571D01*
X200402142Y-75310000D01*
X200473571Y-75452857D01*
X200473571Y-75595714D01*
X199759285Y-75738571D01*
X201116428Y-76238571D02*
X201116428Y-75238571D01*
X201116428Y-75524285D02*
X201187857Y-75381428D01*
X201259285Y-75310000D01*
X201402142Y-75238571D01*
X201545000Y-75238571D01*
X202045000Y-76238571D02*
X202045000Y-75238571D01*
X202045000Y-74738571D02*
X201973571Y-74810000D01*
X202045000Y-74881428D01*
X202116428Y-74810000D01*
X202045000Y-74738571D01*
X202045000Y-74881428D01*
X203402142Y-76238571D02*
X203402142Y-75452857D01*
X203330714Y-75310000D01*
X203187857Y-75238571D01*
X202902142Y-75238571D01*
X202759285Y-75310000D01*
X203402142Y-76167142D02*
X203259285Y-76238571D01*
X202902142Y-76238571D01*
X202759285Y-76167142D01*
X202687857Y-76024285D01*
X202687857Y-75881428D01*
X202759285Y-75738571D01*
X202902142Y-75667142D01*
X203259285Y-75667142D01*
X203402142Y-75595714D01*
X204330714Y-76238571D02*
X204187857Y-76167142D01*
X204116428Y-76024285D01*
X204116428Y-74738571D01*
X186666428Y-52234642D02*
X187809285Y-52234642D01*
X187237857Y-52806071D02*
X187237857Y-51663214D01*
X189237857Y-51306071D02*
X188523571Y-51306071D01*
X188452142Y-52020357D01*
X188523571Y-51948928D01*
X188666428Y-51877500D01*
X189023571Y-51877500D01*
X189166428Y-51948928D01*
X189237857Y-52020357D01*
X189309285Y-52163214D01*
X189309285Y-52520357D01*
X189237857Y-52663214D01*
X189166428Y-52734642D01*
X189023571Y-52806071D01*
X188666428Y-52806071D01*
X188523571Y-52734642D01*
X188452142Y-52663214D01*
X189737857Y-51306071D02*
X190237857Y-52806071D01*
X190737857Y-51306071D01*
X187452142Y-55221071D02*
X187452142Y-53721071D01*
X187809285Y-53721071D01*
X188023571Y-53792500D01*
X188166428Y-53935357D01*
X188237857Y-54078214D01*
X188309285Y-54363928D01*
X188309285Y-54578214D01*
X188237857Y-54863928D01*
X188166428Y-55006785D01*
X188023571Y-55149642D01*
X187809285Y-55221071D01*
X187452142Y-55221071D01*
X189809285Y-55078214D02*
X189737857Y-55149642D01*
X189523571Y-55221071D01*
X189380714Y-55221071D01*
X189166428Y-55149642D01*
X189023571Y-55006785D01*
X188952142Y-54863928D01*
X188880714Y-54578214D01*
X188880714Y-54363928D01*
X188952142Y-54078214D01*
X189023571Y-53935357D01*
X189166428Y-53792500D01*
X189380714Y-53721071D01*
X189523571Y-53721071D01*
X189737857Y-53792500D01*
X189809285Y-53863928D01*
X194140714Y-107128571D02*
X194140714Y-108200000D01*
X194069285Y-108414285D01*
X193926428Y-108557142D01*
X193712142Y-108628571D01*
X193569285Y-108628571D01*
X195069285Y-108628571D02*
X194926428Y-108557142D01*
X194855000Y-108485714D01*
X194783571Y-108342857D01*
X194783571Y-107914285D01*
X194855000Y-107771428D01*
X194926428Y-107700000D01*
X195069285Y-107628571D01*
X195283571Y-107628571D01*
X195426428Y-107700000D01*
X195497857Y-107771428D01*
X195569285Y-107914285D01*
X195569285Y-108342857D01*
X195497857Y-108485714D01*
X195426428Y-108557142D01*
X195283571Y-108628571D01*
X195069285Y-108628571D01*
X196069285Y-107628571D02*
X196426428Y-108628571D01*
X196783571Y-107628571D02*
X196426428Y-108628571D01*
X196283571Y-108985714D01*
X196212142Y-109057142D01*
X196069285Y-109128571D01*
X197283571Y-108557142D02*
X197426428Y-108628571D01*
X197712142Y-108628571D01*
X197855000Y-108557142D01*
X197926428Y-108414285D01*
X197926428Y-108342857D01*
X197855000Y-108200000D01*
X197712142Y-108128571D01*
X197497857Y-108128571D01*
X197355000Y-108057142D01*
X197283571Y-107914285D01*
X197283571Y-107842857D01*
X197355000Y-107700000D01*
X197497857Y-107628571D01*
X197712142Y-107628571D01*
X197855000Y-107700000D01*
X198355000Y-107628571D02*
X198926428Y-107628571D01*
X198569285Y-107128571D02*
X198569285Y-108414285D01*
X198640714Y-108557142D01*
X198783571Y-108628571D01*
X198926428Y-108628571D01*
X199426428Y-108628571D02*
X199426428Y-107628571D01*
X199426428Y-107128571D02*
X199355000Y-107200000D01*
X199426428Y-107271428D01*
X199497857Y-107200000D01*
X199426428Y-107128571D01*
X199426428Y-107271428D01*
X200783571Y-108557142D02*
X200640714Y-108628571D01*
X200355000Y-108628571D01*
X200212142Y-108557142D01*
X200140714Y-108485714D01*
X200069285Y-108342857D01*
X200069285Y-107914285D01*
X200140714Y-107771428D01*
X200212142Y-107700000D01*
X200355000Y-107628571D01*
X200640714Y-107628571D01*
X200783571Y-107700000D01*
X201426428Y-108628571D02*
X201426428Y-107128571D01*
X201569285Y-108057142D02*
X201997857Y-108628571D01*
X201997857Y-107628571D02*
X201426428Y-108200000D01*
X202569285Y-107271428D02*
X202640714Y-107200000D01*
X202783571Y-107128571D01*
X203140714Y-107128571D01*
X203283571Y-107200000D01*
X203355000Y-107271428D01*
X203426428Y-107414285D01*
X203426428Y-107557142D01*
X203355000Y-107771428D01*
X202497857Y-108628571D01*
X203426428Y-108628571D01*
D10*
X81430952Y-85537380D02*
X81097619Y-85061190D01*
X80859523Y-85537380D02*
X80859523Y-84537380D01*
X81240476Y-84537380D01*
X81335714Y-84585000D01*
X81383333Y-84632619D01*
X81430952Y-84727857D01*
X81430952Y-84870714D01*
X81383333Y-84965952D01*
X81335714Y-85013571D01*
X81240476Y-85061190D01*
X80859523Y-85061190D01*
X81859523Y-85537380D02*
X81859523Y-84870714D01*
X81859523Y-84537380D02*
X81811904Y-84585000D01*
X81859523Y-84632619D01*
X81907142Y-84585000D01*
X81859523Y-84537380D01*
X81859523Y-84632619D01*
X82764285Y-84870714D02*
X82764285Y-85680238D01*
X82716666Y-85775476D01*
X82669047Y-85823095D01*
X82573809Y-85870714D01*
X82430952Y-85870714D01*
X82335714Y-85823095D01*
X82764285Y-85489761D02*
X82669047Y-85537380D01*
X82478571Y-85537380D01*
X82383333Y-85489761D01*
X82335714Y-85442142D01*
X82288095Y-85346904D01*
X82288095Y-85061190D01*
X82335714Y-84965952D01*
X82383333Y-84918333D01*
X82478571Y-84870714D01*
X82669047Y-84870714D01*
X82764285Y-84918333D01*
X83240476Y-85537380D02*
X83240476Y-84537380D01*
X83669047Y-85537380D02*
X83669047Y-85013571D01*
X83621428Y-84918333D01*
X83526190Y-84870714D01*
X83383333Y-84870714D01*
X83288095Y-84918333D01*
X83240476Y-84965952D01*
X84002380Y-84870714D02*
X84383333Y-84870714D01*
X84145238Y-84537380D02*
X84145238Y-85394523D01*
X84192857Y-85489761D01*
X84288095Y-85537380D01*
X84383333Y-85537380D01*
D11*
X138260000Y-89343571D02*
X138760000Y-90843571D01*
X139260000Y-89343571D01*
X140545714Y-89415000D02*
X140402857Y-89343571D01*
X140188571Y-89343571D01*
X139974285Y-89415000D01*
X139831428Y-89557857D01*
X139760000Y-89700714D01*
X139688571Y-89986428D01*
X139688571Y-90200714D01*
X139760000Y-90486428D01*
X139831428Y-90629285D01*
X139974285Y-90772142D01*
X140188571Y-90843571D01*
X140331428Y-90843571D01*
X140545714Y-90772142D01*
X140617142Y-90700714D01*
X140617142Y-90200714D01*
X140331428Y-90200714D01*
X141188571Y-90415000D02*
X141902857Y-90415000D01*
X141045714Y-90843571D02*
X141545714Y-89343571D01*
X142045714Y-90843571D01*
X143617142Y-89272142D02*
X142331428Y-91200714D01*
X143902857Y-89343571D02*
X144760000Y-89343571D01*
X144331428Y-90843571D02*
X144331428Y-89343571D01*
X145902857Y-89843571D02*
X145902857Y-90843571D01*
X145260000Y-89843571D02*
X145260000Y-90629285D01*
X145331428Y-90772142D01*
X145474285Y-90843571D01*
X145688571Y-90843571D01*
X145831428Y-90772142D01*
X145902857Y-90700714D01*
X146617142Y-90843571D02*
X146617142Y-89343571D01*
X146617142Y-89915000D02*
X146760000Y-89843571D01*
X147045714Y-89843571D01*
X147188571Y-89915000D01*
X147260000Y-89986428D01*
X147331428Y-90129285D01*
X147331428Y-90557857D01*
X147260000Y-90700714D01*
X147188571Y-90772142D01*
X147045714Y-90843571D01*
X146760000Y-90843571D01*
X146617142Y-90772142D01*
X148545714Y-90772142D02*
X148402857Y-90843571D01*
X148117142Y-90843571D01*
X147974285Y-90772142D01*
X147902857Y-90629285D01*
X147902857Y-90057857D01*
X147974285Y-89915000D01*
X148117142Y-89843571D01*
X148402857Y-89843571D01*
X148545714Y-89915000D01*
X148617142Y-90057857D01*
X148617142Y-90200714D01*
X147902857Y-90343571D01*
X161425714Y-95693571D02*
X161568571Y-95693571D01*
X161711428Y-95765000D01*
X161782857Y-95836428D01*
X161854285Y-95979285D01*
X161925714Y-96265000D01*
X161925714Y-96622142D01*
X161854285Y-96907857D01*
X161782857Y-97050714D01*
X161711428Y-97122142D01*
X161568571Y-97193571D01*
X161425714Y-97193571D01*
X161282857Y-97122142D01*
X161211428Y-97050714D01*
X161140000Y-96907857D01*
X161068571Y-96622142D01*
X161068571Y-96265000D01*
X161140000Y-95979285D01*
X161211428Y-95836428D01*
X161282857Y-95765000D01*
X161425714Y-95693571D01*
X162568571Y-96622142D02*
X163711428Y-96622142D01*
X165282857Y-97050714D02*
X165211428Y-97122142D01*
X164997142Y-97193571D01*
X164854285Y-97193571D01*
X164640000Y-97122142D01*
X164497142Y-96979285D01*
X164425714Y-96836428D01*
X164354285Y-96550714D01*
X164354285Y-96336428D01*
X164425714Y-96050714D01*
X164497142Y-95907857D01*
X164640000Y-95765000D01*
X164854285Y-95693571D01*
X164997142Y-95693571D01*
X165211428Y-95765000D01*
X165282857Y-95836428D01*
X166140000Y-97193571D02*
X165997142Y-97122142D01*
X165925714Y-97050714D01*
X165854285Y-96907857D01*
X165854285Y-96479285D01*
X165925714Y-96336428D01*
X165997142Y-96265000D01*
X166140000Y-96193571D01*
X166354285Y-96193571D01*
X166497142Y-96265000D01*
X166568571Y-96336428D01*
X166640000Y-96479285D01*
X166640000Y-96907857D01*
X166568571Y-97050714D01*
X166497142Y-97122142D01*
X166354285Y-97193571D01*
X166140000Y-97193571D01*
X167282857Y-96193571D02*
X167282857Y-97193571D01*
X167282857Y-96336428D02*
X167354285Y-96265000D01*
X167497142Y-96193571D01*
X167711428Y-96193571D01*
X167854285Y-96265000D01*
X167925714Y-96407857D01*
X167925714Y-97193571D01*
X168425714Y-96193571D02*
X168997142Y-96193571D01*
X168640000Y-97193571D02*
X168640000Y-95907857D01*
X168711428Y-95765000D01*
X168854285Y-95693571D01*
X168997142Y-95693571D01*
X169497142Y-97193571D02*
X169497142Y-96193571D01*
X169497142Y-95693571D02*
X169425714Y-95765000D01*
X169497142Y-95836428D01*
X169568571Y-95765000D01*
X169497142Y-95693571D01*
X169497142Y-95836428D01*
X170854285Y-96193571D02*
X170854285Y-97407857D01*
X170782857Y-97550714D01*
X170711428Y-97622142D01*
X170568571Y-97693571D01*
X170354285Y-97693571D01*
X170211428Y-97622142D01*
X170854285Y-97122142D02*
X170711428Y-97193571D01*
X170425714Y-97193571D01*
X170282857Y-97122142D01*
X170211428Y-97050714D01*
X170140000Y-96907857D01*
X170140000Y-96479285D01*
X170211428Y-96336428D01*
X170282857Y-96265000D01*
X170425714Y-96193571D01*
X170711428Y-96193571D01*
X170854285Y-96265000D01*
X171568571Y-96622142D02*
X172711428Y-96622142D01*
X174140000Y-95693571D02*
X173425714Y-95693571D01*
X173354285Y-96407857D01*
X173425714Y-96336428D01*
X173568571Y-96265000D01*
X173925714Y-96265000D01*
X174068571Y-96336428D01*
X174140000Y-96407857D01*
X174211428Y-96550714D01*
X174211428Y-96907857D01*
X174140000Y-97050714D01*
X174068571Y-97122142D01*
X173925714Y-97193571D01*
X173568571Y-97193571D01*
X173425714Y-97122142D01*
X173354285Y-97050714D01*
D10*
X199477380Y-71035476D02*
X199477380Y-70464047D01*
X200477380Y-70749761D02*
X199477380Y-70749761D01*
X200477380Y-70225952D02*
X199810714Y-69702142D01*
X199810714Y-70225952D02*
X200477380Y-69702142D01*
X200477380Y-69321190D02*
X199477380Y-69321190D01*
X199477380Y-69083095D01*
X199525000Y-68940238D01*
X199620238Y-68845000D01*
X199715476Y-68797380D01*
X199905952Y-68749761D01*
X200048809Y-68749761D01*
X200239285Y-68797380D01*
X200334523Y-68845000D01*
X200429761Y-68940238D01*
X200477380Y-69083095D01*
X200477380Y-69321190D01*
D11*
X96615714Y-64102142D02*
X96830000Y-64173571D01*
X97187142Y-64173571D01*
X97330000Y-64102142D01*
X97401428Y-64030714D01*
X97472857Y-63887857D01*
X97472857Y-63745000D01*
X97401428Y-63602142D01*
X97330000Y-63530714D01*
X97187142Y-63459285D01*
X96901428Y-63387857D01*
X96758571Y-63316428D01*
X96687142Y-63245000D01*
X96615714Y-63102142D01*
X96615714Y-62959285D01*
X96687142Y-62816428D01*
X96758571Y-62745000D01*
X96901428Y-62673571D01*
X97258571Y-62673571D01*
X97472857Y-62745000D01*
X99187142Y-62602142D02*
X97901428Y-64530714D01*
X99687142Y-64173571D02*
X99687142Y-62673571D01*
X100258571Y-62673571D01*
X100401428Y-62745000D01*
X100472857Y-62816428D01*
X100544285Y-62959285D01*
X100544285Y-63173571D01*
X100472857Y-63316428D01*
X100401428Y-63387857D01*
X100258571Y-63459285D01*
X99687142Y-63459285D01*
X101187142Y-64173571D02*
X101187142Y-62673571D01*
X101544285Y-62673571D01*
X101758571Y-62745000D01*
X101901428Y-62887857D01*
X101972857Y-63030714D01*
X102044285Y-63316428D01*
X102044285Y-63530714D01*
X101972857Y-63816428D01*
X101901428Y-63959285D01*
X101758571Y-64102142D01*
X101544285Y-64173571D01*
X101187142Y-64173571D01*
X102687142Y-64173571D02*
X102687142Y-62673571D01*
X103901428Y-63387857D02*
X103401428Y-63387857D01*
X103401428Y-64173571D02*
X103401428Y-62673571D01*
X104115714Y-62673571D01*
D10*
X113065714Y-111615285D02*
X113237142Y-111672428D01*
X113294285Y-111729571D01*
X113351428Y-111843857D01*
X113351428Y-112015285D01*
X113294285Y-112129571D01*
X113237142Y-112186714D01*
X113122857Y-112243857D01*
X112665714Y-112243857D01*
X112665714Y-111043857D01*
X113065714Y-111043857D01*
X113180000Y-111101000D01*
X113237142Y-111158142D01*
X113294285Y-111272428D01*
X113294285Y-111386714D01*
X113237142Y-111501000D01*
X113180000Y-111558142D01*
X113065714Y-111615285D01*
X112665714Y-111615285D01*
X114322857Y-112186714D02*
X114208571Y-112243857D01*
X113980000Y-112243857D01*
X113865714Y-112186714D01*
X113808571Y-112072428D01*
X113808571Y-111615285D01*
X113865714Y-111501000D01*
X113980000Y-111443857D01*
X114208571Y-111443857D01*
X114322857Y-111501000D01*
X114380000Y-111615285D01*
X114380000Y-111729571D01*
X113808571Y-111843857D01*
X115351428Y-112186714D02*
X115237142Y-112243857D01*
X115008571Y-112243857D01*
X114894285Y-112186714D01*
X114837142Y-112072428D01*
X114837142Y-111615285D01*
X114894285Y-111501000D01*
X115008571Y-111443857D01*
X115237142Y-111443857D01*
X115351428Y-111501000D01*
X115408571Y-111615285D01*
X115408571Y-111729571D01*
X114837142Y-111843857D01*
X115922857Y-112243857D02*
X115922857Y-111043857D01*
X115922857Y-111501000D02*
X116037142Y-111443857D01*
X116265714Y-111443857D01*
X116380000Y-111501000D01*
X116437142Y-111558142D01*
X116494285Y-111672428D01*
X116494285Y-112015285D01*
X116437142Y-112129571D01*
X116380000Y-112186714D01*
X116265714Y-112243857D01*
X116037142Y-112243857D01*
X115922857Y-112186714D01*
X117408571Y-111615285D02*
X117008571Y-111615285D01*
X117008571Y-112243857D02*
X117008571Y-111043857D01*
X117580000Y-111043857D01*
X118037142Y-112243857D02*
X118037142Y-111043857D01*
X118494285Y-111043857D01*
X118608571Y-111101000D01*
X118665714Y-111158142D01*
X118722857Y-111272428D01*
X118722857Y-111443857D01*
X118665714Y-111558142D01*
X118608571Y-111615285D01*
X118494285Y-111672428D01*
X118037142Y-111672428D01*
X119865714Y-111101000D02*
X119751428Y-111043857D01*
X119580000Y-111043857D01*
X119408571Y-111101000D01*
X119294285Y-111215285D01*
X119237142Y-111329571D01*
X119180000Y-111558142D01*
X119180000Y-111729571D01*
X119237142Y-111958142D01*
X119294285Y-112072428D01*
X119408571Y-112186714D01*
X119580000Y-112243857D01*
X119694285Y-112243857D01*
X119865714Y-112186714D01*
X119922857Y-112129571D01*
X119922857Y-111729571D01*
X119694285Y-111729571D01*
X120380000Y-111901000D02*
X120951428Y-111901000D01*
X120265714Y-112243857D02*
X120665714Y-111043857D01*
X121065714Y-112243857D01*
X122380000Y-112243857D02*
X122380000Y-111043857D01*
X122665714Y-111043857D01*
X122837142Y-111101000D01*
X122951428Y-111215285D01*
X123008571Y-111329571D01*
X123065714Y-111558142D01*
X123065714Y-111729571D01*
X123008571Y-111958142D01*
X122951428Y-112072428D01*
X122837142Y-112186714D01*
X122665714Y-112243857D01*
X122380000Y-112243857D01*
X123751428Y-112243857D02*
X123637142Y-112186714D01*
X123580000Y-112129571D01*
X123522857Y-112015285D01*
X123522857Y-111672428D01*
X123580000Y-111558142D01*
X123637142Y-111501000D01*
X123751428Y-111443857D01*
X123922857Y-111443857D01*
X124037142Y-111501000D01*
X124094285Y-111558142D01*
X124151428Y-111672428D01*
X124151428Y-112015285D01*
X124094285Y-112129571D01*
X124037142Y-112186714D01*
X123922857Y-112243857D01*
X123751428Y-112243857D01*
X125180000Y-112186714D02*
X125065714Y-112243857D01*
X124837142Y-112243857D01*
X124722857Y-112186714D01*
X124665714Y-112129571D01*
X124608571Y-112015285D01*
X124608571Y-111672428D01*
X124665714Y-111558142D01*
X124722857Y-111501000D01*
X124837142Y-111443857D01*
X125065714Y-111443857D01*
X125180000Y-111501000D01*
X125694285Y-112243857D02*
X125694285Y-111043857D01*
X125808571Y-111786714D02*
X126151428Y-112243857D01*
X126151428Y-111443857D02*
X125694285Y-111901000D01*
X116380000Y-113375857D02*
X116837142Y-113375857D01*
X116551428Y-114175857D02*
X116551428Y-113147285D01*
X116608571Y-113033000D01*
X116722857Y-112975857D01*
X116837142Y-112975857D01*
X117408571Y-114175857D02*
X117294285Y-114118714D01*
X117237142Y-114061571D01*
X117180000Y-113947285D01*
X117180000Y-113604428D01*
X117237142Y-113490142D01*
X117294285Y-113433000D01*
X117408571Y-113375857D01*
X117580000Y-113375857D01*
X117694285Y-113433000D01*
X117751428Y-113490142D01*
X117808571Y-113604428D01*
X117808571Y-113947285D01*
X117751428Y-114061571D01*
X117694285Y-114118714D01*
X117580000Y-114175857D01*
X117408571Y-114175857D01*
X118322857Y-114175857D02*
X118322857Y-113375857D01*
X118322857Y-113604428D02*
X118380000Y-113490142D01*
X118437142Y-113433000D01*
X118551428Y-113375857D01*
X118665714Y-113375857D01*
X119808571Y-113375857D02*
X120265714Y-113375857D01*
X119980000Y-112975857D02*
X119980000Y-114004428D01*
X120037142Y-114118714D01*
X120151428Y-114175857D01*
X120265714Y-114175857D01*
X120665714Y-114175857D02*
X120665714Y-112975857D01*
X121180000Y-114175857D02*
X121180000Y-113547285D01*
X121122857Y-113433000D01*
X121008571Y-113375857D01*
X120837142Y-113375857D01*
X120722857Y-113433000D01*
X120665714Y-113490142D01*
X122208571Y-114118714D02*
X122094285Y-114175857D01*
X121865714Y-114175857D01*
X121751428Y-114118714D01*
X121694285Y-114004428D01*
X121694285Y-113547285D01*
X121751428Y-113433000D01*
X121865714Y-113375857D01*
X122094285Y-113375857D01*
X122208571Y-113433000D01*
X122265714Y-113547285D01*
X122265714Y-113661571D01*
X121694285Y-113775857D01*
X112494285Y-114907857D02*
X113180000Y-114907857D01*
X112837142Y-116107857D02*
X112837142Y-114907857D01*
X114094285Y-116107857D02*
X114094285Y-115479285D01*
X114037142Y-115365000D01*
X113922857Y-115307857D01*
X113694285Y-115307857D01*
X113580000Y-115365000D01*
X114094285Y-116050714D02*
X113980000Y-116107857D01*
X113694285Y-116107857D01*
X113580000Y-116050714D01*
X113522857Y-115936428D01*
X113522857Y-115822142D01*
X113580000Y-115707857D01*
X113694285Y-115650714D01*
X113980000Y-115650714D01*
X114094285Y-115593571D01*
X114665714Y-115307857D02*
X114665714Y-116107857D01*
X114665714Y-115422142D02*
X114722857Y-115365000D01*
X114837142Y-115307857D01*
X115008571Y-115307857D01*
X115122857Y-115365000D01*
X115180000Y-115479285D01*
X115180000Y-116107857D01*
X116265714Y-115307857D02*
X116265714Y-116279285D01*
X116208571Y-116393571D01*
X116151428Y-116450714D01*
X116037142Y-116507857D01*
X115865714Y-116507857D01*
X115751428Y-116450714D01*
X116265714Y-116050714D02*
X116151428Y-116107857D01*
X115922857Y-116107857D01*
X115808571Y-116050714D01*
X115751428Y-115993571D01*
X115694285Y-115879285D01*
X115694285Y-115536428D01*
X115751428Y-115422142D01*
X115808571Y-115365000D01*
X115922857Y-115307857D01*
X116151428Y-115307857D01*
X116265714Y-115365000D01*
X117751428Y-116107857D02*
X117751428Y-114907857D01*
X118437142Y-116107857D01*
X118437142Y-114907857D01*
X119522857Y-116107857D02*
X119522857Y-115479285D01*
X119465714Y-115365000D01*
X119351428Y-115307857D01*
X119122857Y-115307857D01*
X119008571Y-115365000D01*
X119522857Y-116050714D02*
X119408571Y-116107857D01*
X119122857Y-116107857D01*
X119008571Y-116050714D01*
X118951428Y-115936428D01*
X118951428Y-115822142D01*
X119008571Y-115707857D01*
X119122857Y-115650714D01*
X119408571Y-115650714D01*
X119522857Y-115593571D01*
X120094285Y-115307857D02*
X120094285Y-116107857D01*
X120094285Y-115422142D02*
X120151428Y-115365000D01*
X120265714Y-115307857D01*
X120437142Y-115307857D01*
X120551428Y-115365000D01*
X120608571Y-115479285D01*
X120608571Y-116107857D01*
X121351428Y-116107857D02*
X121237142Y-116050714D01*
X121180000Y-115993571D01*
X121122857Y-115879285D01*
X121122857Y-115536428D01*
X121180000Y-115422142D01*
X121237142Y-115365000D01*
X121351428Y-115307857D01*
X121522857Y-115307857D01*
X121637142Y-115365000D01*
X121694285Y-115422142D01*
X121751428Y-115536428D01*
X121751428Y-115879285D01*
X121694285Y-115993571D01*
X121637142Y-116050714D01*
X121522857Y-116107857D01*
X121351428Y-116107857D01*
X123122857Y-115022142D02*
X123180000Y-114965000D01*
X123294285Y-114907857D01*
X123580000Y-114907857D01*
X123694285Y-114965000D01*
X123751428Y-115022142D01*
X123808571Y-115136428D01*
X123808571Y-115250714D01*
X123751428Y-115422142D01*
X123065714Y-116107857D01*
X123808571Y-116107857D01*
X124551428Y-114907857D02*
X124665714Y-114907857D01*
X124780000Y-114965000D01*
X124837142Y-115022142D01*
X124894285Y-115136428D01*
X124951428Y-115365000D01*
X124951428Y-115650714D01*
X124894285Y-115879285D01*
X124837142Y-115993571D01*
X124780000Y-116050714D01*
X124665714Y-116107857D01*
X124551428Y-116107857D01*
X124437142Y-116050714D01*
X124380000Y-115993571D01*
X124322857Y-115879285D01*
X124265714Y-115650714D01*
X124265714Y-115365000D01*
X124322857Y-115136428D01*
X124380000Y-115022142D01*
X124437142Y-114965000D01*
X124551428Y-114907857D01*
X125465714Y-116107857D02*
X125465714Y-114907857D01*
X126151428Y-116107857D02*
X125637142Y-115422142D01*
X126151428Y-114907857D02*
X125465714Y-115593571D01*
X113780000Y-116839857D02*
X114180000Y-118039857D01*
X114580000Y-116839857D01*
X115437142Y-117982714D02*
X115322857Y-118039857D01*
X115094285Y-118039857D01*
X114980000Y-117982714D01*
X114922857Y-117868428D01*
X114922857Y-117411285D01*
X114980000Y-117297000D01*
X115094285Y-117239857D01*
X115322857Y-117239857D01*
X115437142Y-117297000D01*
X115494285Y-117411285D01*
X115494285Y-117525571D01*
X114922857Y-117639857D01*
X116008571Y-118039857D02*
X116008571Y-117239857D01*
X116008571Y-117468428D02*
X116065714Y-117354142D01*
X116122857Y-117297000D01*
X116237142Y-117239857D01*
X116351428Y-117239857D01*
X116694285Y-117982714D02*
X116808571Y-118039857D01*
X117037142Y-118039857D01*
X117151428Y-117982714D01*
X117208571Y-117868428D01*
X117208571Y-117811285D01*
X117151428Y-117697000D01*
X117037142Y-117639857D01*
X116865714Y-117639857D01*
X116751428Y-117582714D01*
X116694285Y-117468428D01*
X116694285Y-117411285D01*
X116751428Y-117297000D01*
X116865714Y-117239857D01*
X117037142Y-117239857D01*
X117151428Y-117297000D01*
X117722857Y-118039857D02*
X117722857Y-117239857D01*
X117722857Y-116839857D02*
X117665714Y-116897000D01*
X117722857Y-116954142D01*
X117780000Y-116897000D01*
X117722857Y-116839857D01*
X117722857Y-116954142D01*
X118465714Y-118039857D02*
X118351428Y-117982714D01*
X118294285Y-117925571D01*
X118237142Y-117811285D01*
X118237142Y-117468428D01*
X118294285Y-117354142D01*
X118351428Y-117297000D01*
X118465714Y-117239857D01*
X118637142Y-117239857D01*
X118751428Y-117297000D01*
X118808571Y-117354142D01*
X118865714Y-117468428D01*
X118865714Y-117811285D01*
X118808571Y-117925571D01*
X118751428Y-117982714D01*
X118637142Y-118039857D01*
X118465714Y-118039857D01*
X119380000Y-117239857D02*
X119380000Y-118039857D01*
X119380000Y-117354142D02*
X119437142Y-117297000D01*
X119551428Y-117239857D01*
X119722857Y-117239857D01*
X119837142Y-117297000D01*
X119894285Y-117411285D01*
X119894285Y-118039857D01*
X122008571Y-118039857D02*
X121322857Y-118039857D01*
X121665714Y-118039857D02*
X121665714Y-116839857D01*
X121551428Y-117011285D01*
X121437142Y-117125571D01*
X121322857Y-117182714D01*
X122522857Y-117925571D02*
X122580000Y-117982714D01*
X122522857Y-118039857D01*
X122465714Y-117982714D01*
X122522857Y-117925571D01*
X122522857Y-118039857D01*
X123322857Y-116839857D02*
X123437142Y-116839857D01*
X123551428Y-116897000D01*
X123608571Y-116954142D01*
X123665714Y-117068428D01*
X123722857Y-117297000D01*
X123722857Y-117582714D01*
X123665714Y-117811285D01*
X123608571Y-117925571D01*
X123551428Y-117982714D01*
X123437142Y-118039857D01*
X123322857Y-118039857D01*
X123208571Y-117982714D01*
X123151428Y-117925571D01*
X123094285Y-117811285D01*
X123037142Y-117582714D01*
X123037142Y-117297000D01*
X123094285Y-117068428D01*
X123151428Y-116954142D01*
X123208571Y-116897000D01*
X123322857Y-116839857D01*
X124465714Y-116839857D02*
X124580000Y-116839857D01*
X124694285Y-116897000D01*
X124751428Y-116954142D01*
X124808571Y-117068428D01*
X124865714Y-117297000D01*
X124865714Y-117582714D01*
X124808571Y-117811285D01*
X124751428Y-117925571D01*
X124694285Y-117982714D01*
X124580000Y-118039857D01*
X124465714Y-118039857D01*
X124351428Y-117982714D01*
X124294285Y-117925571D01*
X124237142Y-117811285D01*
X124180000Y-117582714D01*
X124180000Y-117297000D01*
X124237142Y-117068428D01*
X124294285Y-116954142D01*
X124351428Y-116897000D01*
X124465714Y-116839857D01*
X112608571Y-120429000D02*
X112551428Y-120371857D01*
X112437142Y-120200428D01*
X112380000Y-120086142D01*
X112322857Y-119914714D01*
X112265714Y-119629000D01*
X112265714Y-119400428D01*
X112322857Y-119114714D01*
X112380000Y-118943285D01*
X112437142Y-118829000D01*
X112551428Y-118657571D01*
X112608571Y-118600428D01*
X113580000Y-119914714D02*
X113465714Y-119971857D01*
X113237142Y-119971857D01*
X113122857Y-119914714D01*
X113065714Y-119857571D01*
X113008571Y-119743285D01*
X113008571Y-119400428D01*
X113065714Y-119286142D01*
X113122857Y-119229000D01*
X113237142Y-119171857D01*
X113465714Y-119171857D01*
X113580000Y-119229000D01*
X113980000Y-120429000D02*
X114037142Y-120371857D01*
X114151428Y-120200428D01*
X114208571Y-120086142D01*
X114265714Y-119914714D01*
X114322857Y-119629000D01*
X114322857Y-119400428D01*
X114265714Y-119114714D01*
X114208571Y-118943285D01*
X114151428Y-118829000D01*
X114037142Y-118657571D01*
X113980000Y-118600428D01*
X115751428Y-118886142D02*
X115808571Y-118829000D01*
X115922857Y-118771857D01*
X116208571Y-118771857D01*
X116322857Y-118829000D01*
X116380000Y-118886142D01*
X116437142Y-119000428D01*
X116437142Y-119114714D01*
X116380000Y-119286142D01*
X115694285Y-119971857D01*
X116437142Y-119971857D01*
X117180000Y-118771857D02*
X117294285Y-118771857D01*
X117408571Y-118829000D01*
X117465714Y-118886142D01*
X117522857Y-119000428D01*
X117580000Y-119229000D01*
X117580000Y-119514714D01*
X117522857Y-119743285D01*
X117465714Y-119857571D01*
X117408571Y-119914714D01*
X117294285Y-119971857D01*
X117180000Y-119971857D01*
X117065714Y-119914714D01*
X117008571Y-119857571D01*
X116951428Y-119743285D01*
X116894285Y-119514714D01*
X116894285Y-119229000D01*
X116951428Y-119000428D01*
X117008571Y-118886142D01*
X117065714Y-118829000D01*
X117180000Y-118771857D01*
X118037142Y-118886142D02*
X118094285Y-118829000D01*
X118208571Y-118771857D01*
X118494285Y-118771857D01*
X118608571Y-118829000D01*
X118665714Y-118886142D01*
X118722857Y-119000428D01*
X118722857Y-119114714D01*
X118665714Y-119286142D01*
X117980000Y-119971857D01*
X118722857Y-119971857D01*
X119808571Y-118771857D02*
X119237142Y-118771857D01*
X119180000Y-119343285D01*
X119237142Y-119286142D01*
X119351428Y-119229000D01*
X119637142Y-119229000D01*
X119751428Y-119286142D01*
X119808571Y-119343285D01*
X119865714Y-119457571D01*
X119865714Y-119743285D01*
X119808571Y-119857571D01*
X119751428Y-119914714D01*
X119637142Y-119971857D01*
X119351428Y-119971857D01*
X119237142Y-119914714D01*
X119180000Y-119857571D01*
X121294285Y-119971857D02*
X121294285Y-118771857D01*
X121294285Y-119343285D02*
X121980000Y-119343285D01*
X121980000Y-119971857D02*
X121980000Y-118771857D01*
X122722857Y-119971857D02*
X122608571Y-119914714D01*
X122551428Y-119857571D01*
X122494285Y-119743285D01*
X122494285Y-119400428D01*
X122551428Y-119286142D01*
X122608571Y-119229000D01*
X122722857Y-119171857D01*
X122894285Y-119171857D01*
X123008571Y-119229000D01*
X123065714Y-119286142D01*
X123122857Y-119400428D01*
X123122857Y-119743285D01*
X123065714Y-119857571D01*
X123008571Y-119914714D01*
X122894285Y-119971857D01*
X122722857Y-119971857D01*
X124151428Y-119171857D02*
X124151428Y-120143285D01*
X124094285Y-120257571D01*
X124037142Y-120314714D01*
X123922857Y-120371857D01*
X123751428Y-120371857D01*
X123637142Y-120314714D01*
X124151428Y-119914714D02*
X124037142Y-119971857D01*
X123808571Y-119971857D01*
X123694285Y-119914714D01*
X123637142Y-119857571D01*
X123580000Y-119743285D01*
X123580000Y-119400428D01*
X123637142Y-119286142D01*
X123694285Y-119229000D01*
X123808571Y-119171857D01*
X124037142Y-119171857D01*
X124151428Y-119229000D01*
X124894285Y-119971857D02*
X124780000Y-119914714D01*
X124722857Y-119800428D01*
X124722857Y-118771857D01*
X125808571Y-119914714D02*
X125694285Y-119971857D01*
X125465714Y-119971857D01*
X125351428Y-119914714D01*
X125294285Y-119800428D01*
X125294285Y-119343285D01*
X125351428Y-119229000D01*
X125465714Y-119171857D01*
X125694285Y-119171857D01*
X125808571Y-119229000D01*
X125865714Y-119343285D01*
X125865714Y-119457571D01*
X125294285Y-119571857D01*
X126208571Y-119171857D02*
X126665714Y-119171857D01*
X126380000Y-118771857D02*
X126380000Y-119800428D01*
X126437142Y-119914714D01*
X126551428Y-119971857D01*
X126665714Y-119971857D01*
X137612500Y-54731904D02*
X137564880Y-54827142D01*
X137564880Y-54970000D01*
X137612500Y-55112857D01*
X137707738Y-55208095D01*
X137802976Y-55255714D01*
X137993452Y-55303333D01*
X138136309Y-55303333D01*
X138326785Y-55255714D01*
X138422023Y-55208095D01*
X138517261Y-55112857D01*
X138564880Y-54970000D01*
X138564880Y-54874761D01*
X138517261Y-54731904D01*
X138469642Y-54684285D01*
X138136309Y-54684285D01*
X138136309Y-54874761D01*
X138564880Y-54255714D02*
X137564880Y-54255714D01*
X138564880Y-53684285D01*
X137564880Y-53684285D01*
X138564880Y-53208095D02*
X137564880Y-53208095D01*
X137564880Y-52970000D01*
X137612500Y-52827142D01*
X137707738Y-52731904D01*
X137802976Y-52684285D01*
X137993452Y-52636666D01*
X138136309Y-52636666D01*
X138326785Y-52684285D01*
X138422023Y-52731904D01*
X138517261Y-52827142D01*
X138564880Y-52970000D01*
X138564880Y-53208095D01*
X76144523Y-85537380D02*
X75668333Y-85537380D01*
X75668333Y-84537380D01*
X76858809Y-85489761D02*
X76763571Y-85537380D01*
X76573095Y-85537380D01*
X76477857Y-85489761D01*
X76430238Y-85394523D01*
X76430238Y-85013571D01*
X76477857Y-84918333D01*
X76573095Y-84870714D01*
X76763571Y-84870714D01*
X76858809Y-84918333D01*
X76906428Y-85013571D01*
X76906428Y-85108809D01*
X76430238Y-85204047D01*
X77192142Y-84870714D02*
X77573095Y-84870714D01*
X77335000Y-85537380D02*
X77335000Y-84680238D01*
X77382619Y-84585000D01*
X77477857Y-84537380D01*
X77573095Y-84537380D01*
X77763571Y-84870714D02*
X78144523Y-84870714D01*
X77906428Y-84537380D02*
X77906428Y-85394523D01*
X77954047Y-85489761D01*
X78049285Y-85537380D01*
X78144523Y-85537380D01*
X217734285Y-63083571D02*
X217400952Y-63083571D01*
X217400952Y-63607380D02*
X217400952Y-62607380D01*
X217877142Y-62607380D01*
X218258095Y-63607380D02*
X218258095Y-62940714D01*
X218258095Y-62607380D02*
X218210476Y-62655000D01*
X218258095Y-62702619D01*
X218305714Y-62655000D01*
X218258095Y-62607380D01*
X218258095Y-62702619D01*
X218591428Y-62940714D02*
X218972380Y-62940714D01*
X218734285Y-62607380D02*
X218734285Y-63464523D01*
X218781904Y-63559761D01*
X218877142Y-63607380D01*
X218972380Y-63607380D01*
X220353333Y-62607380D02*
X220353333Y-63321666D01*
X220305714Y-63464523D01*
X220210476Y-63559761D01*
X220067619Y-63607380D01*
X219972380Y-63607380D01*
X220829523Y-63607380D02*
X220829523Y-62607380D01*
X221210476Y-62607380D01*
X221305714Y-62655000D01*
X221353333Y-62702619D01*
X221400952Y-62797857D01*
X221400952Y-62940714D01*
X221353333Y-63035952D01*
X221305714Y-63083571D01*
X221210476Y-63131190D01*
X220829523Y-63131190D01*
X222258095Y-62607380D02*
X222067619Y-62607380D01*
X221972380Y-62655000D01*
X221924761Y-62702619D01*
X221829523Y-62845476D01*
X221781904Y-63035952D01*
X221781904Y-63416904D01*
X221829523Y-63512142D01*
X221877142Y-63559761D01*
X221972380Y-63607380D01*
X222162857Y-63607380D01*
X222258095Y-63559761D01*
X222305714Y-63512142D01*
X222353333Y-63416904D01*
X222353333Y-63178809D01*
X222305714Y-63083571D01*
X222258095Y-63035952D01*
X222162857Y-62988333D01*
X221972380Y-62988333D01*
X221877142Y-63035952D01*
X221829523Y-63083571D01*
X221781904Y-63178809D01*
X223400952Y-62940714D02*
X223781904Y-62940714D01*
X223543809Y-62607380D02*
X223543809Y-63464523D01*
X223591428Y-63559761D01*
X223686666Y-63607380D01*
X223781904Y-63607380D01*
X224258095Y-63607380D02*
X224162857Y-63559761D01*
X224115238Y-63512142D01*
X224067619Y-63416904D01*
X224067619Y-63131190D01*
X224115238Y-63035952D01*
X224162857Y-62988333D01*
X224258095Y-62940714D01*
X224400952Y-62940714D01*
X224496190Y-62988333D01*
X224543809Y-63035952D01*
X224591428Y-63131190D01*
X224591428Y-63416904D01*
X224543809Y-63512142D01*
X224496190Y-63559761D01*
X224400952Y-63607380D01*
X224258095Y-63607380D01*
X225781904Y-62940714D02*
X225781904Y-63940714D01*
X225781904Y-62988333D02*
X225877142Y-62940714D01*
X226067619Y-62940714D01*
X226162857Y-62988333D01*
X226210476Y-63035952D01*
X226258095Y-63131190D01*
X226258095Y-63416904D01*
X226210476Y-63512142D01*
X226162857Y-63559761D01*
X226067619Y-63607380D01*
X225877142Y-63607380D01*
X225781904Y-63559761D01*
X226829523Y-63607380D02*
X226734285Y-63559761D01*
X226686666Y-63512142D01*
X226639047Y-63416904D01*
X226639047Y-63131190D01*
X226686666Y-63035952D01*
X226734285Y-62988333D01*
X226829523Y-62940714D01*
X226972380Y-62940714D01*
X227067619Y-62988333D01*
X227115238Y-63035952D01*
X227162857Y-63131190D01*
X227162857Y-63416904D01*
X227115238Y-63512142D01*
X227067619Y-63559761D01*
X226972380Y-63607380D01*
X226829523Y-63607380D01*
X227496190Y-62940714D02*
X227686666Y-63607380D01*
X227877142Y-63131190D01*
X228067619Y-63607380D01*
X228258095Y-62940714D01*
X229020000Y-63559761D02*
X228924761Y-63607380D01*
X228734285Y-63607380D01*
X228639047Y-63559761D01*
X228591428Y-63464523D01*
X228591428Y-63083571D01*
X228639047Y-62988333D01*
X228734285Y-62940714D01*
X228924761Y-62940714D01*
X229020000Y-62988333D01*
X229067619Y-63083571D01*
X229067619Y-63178809D01*
X228591428Y-63274047D01*
X229496190Y-63607380D02*
X229496190Y-62940714D01*
X229496190Y-63131190D02*
X229543809Y-63035952D01*
X229591428Y-62988333D01*
X229686666Y-62940714D01*
X229781904Y-62940714D01*
X217258095Y-64550714D02*
X217639047Y-64550714D01*
X217400952Y-64217380D02*
X217400952Y-65074523D01*
X217448571Y-65169761D01*
X217543809Y-65217380D01*
X217639047Y-65217380D01*
X217972380Y-65217380D02*
X217972380Y-64217380D01*
X218400952Y-65217380D02*
X218400952Y-64693571D01*
X218353333Y-64598333D01*
X218258095Y-64550714D01*
X218115238Y-64550714D01*
X218020000Y-64598333D01*
X217972380Y-64645952D01*
X219258095Y-65169761D02*
X219162857Y-65217380D01*
X218972380Y-65217380D01*
X218877142Y-65169761D01*
X218829523Y-65074523D01*
X218829523Y-64693571D01*
X218877142Y-64598333D01*
X218972380Y-64550714D01*
X219162857Y-64550714D01*
X219258095Y-64598333D01*
X219305714Y-64693571D01*
X219305714Y-64788809D01*
X218829523Y-64884047D01*
X221067619Y-65217380D02*
X220734285Y-64741190D01*
X220496190Y-65217380D02*
X220496190Y-64217380D01*
X220877142Y-64217380D01*
X220972380Y-64265000D01*
X221020000Y-64312619D01*
X221067619Y-64407857D01*
X221067619Y-64550714D01*
X221020000Y-64645952D01*
X220972380Y-64693571D01*
X220877142Y-64741190D01*
X220496190Y-64741190D01*
X221924761Y-65217380D02*
X221924761Y-64693571D01*
X221877142Y-64598333D01*
X221781904Y-64550714D01*
X221591428Y-64550714D01*
X221496190Y-64598333D01*
X221924761Y-65169761D02*
X221829523Y-65217380D01*
X221591428Y-65217380D01*
X221496190Y-65169761D01*
X221448571Y-65074523D01*
X221448571Y-64979285D01*
X221496190Y-64884047D01*
X221591428Y-64836428D01*
X221829523Y-64836428D01*
X221924761Y-64788809D01*
X222353333Y-65169761D02*
X222448571Y-65217380D01*
X222639047Y-65217380D01*
X222734285Y-65169761D01*
X222781904Y-65074523D01*
X222781904Y-65026904D01*
X222734285Y-64931666D01*
X222639047Y-64884047D01*
X222496190Y-64884047D01*
X222400952Y-64836428D01*
X222353333Y-64741190D01*
X222353333Y-64693571D01*
X222400952Y-64598333D01*
X222496190Y-64550714D01*
X222639047Y-64550714D01*
X222734285Y-64598333D01*
X223210476Y-64550714D02*
X223210476Y-65550714D01*
X223210476Y-64598333D02*
X223305714Y-64550714D01*
X223496190Y-64550714D01*
X223591428Y-64598333D01*
X223639047Y-64645952D01*
X223686666Y-64741190D01*
X223686666Y-65026904D01*
X223639047Y-65122142D01*
X223591428Y-65169761D01*
X223496190Y-65217380D01*
X223305714Y-65217380D01*
X223210476Y-65169761D01*
X224115238Y-65217380D02*
X224115238Y-64217380D01*
X224115238Y-64598333D02*
X224210476Y-64550714D01*
X224400952Y-64550714D01*
X224496190Y-64598333D01*
X224543809Y-64645952D01*
X224591428Y-64741190D01*
X224591428Y-65026904D01*
X224543809Y-65122142D01*
X224496190Y-65169761D01*
X224400952Y-65217380D01*
X224210476Y-65217380D01*
X224115238Y-65169761D01*
X225400952Y-65169761D02*
X225305714Y-65217380D01*
X225115238Y-65217380D01*
X225020000Y-65169761D01*
X224972380Y-65074523D01*
X224972380Y-64693571D01*
X225020000Y-64598333D01*
X225115238Y-64550714D01*
X225305714Y-64550714D01*
X225400952Y-64598333D01*
X225448571Y-64693571D01*
X225448571Y-64788809D01*
X224972380Y-64884047D01*
X225877142Y-65217380D02*
X225877142Y-64550714D01*
X225877142Y-64741190D02*
X225924761Y-64645952D01*
X225972380Y-64598333D01*
X226067619Y-64550714D01*
X226162857Y-64550714D01*
X226496190Y-65217380D02*
X226496190Y-64550714D01*
X226496190Y-64741190D02*
X226543809Y-64645952D01*
X226591428Y-64598333D01*
X226686666Y-64550714D01*
X226781904Y-64550714D01*
X227020000Y-64550714D02*
X227258095Y-65217380D01*
X227496190Y-64550714D02*
X227258095Y-65217380D01*
X227162857Y-65455476D01*
X227115238Y-65503095D01*
X227020000Y-65550714D01*
X228639047Y-65217380D02*
X228639047Y-64217380D01*
X229020000Y-64217380D01*
X229115238Y-64265000D01*
X229162857Y-64312619D01*
X229210476Y-64407857D01*
X229210476Y-64550714D01*
X229162857Y-64645952D01*
X229115238Y-64693571D01*
X229020000Y-64741190D01*
X228639047Y-64741190D01*
X229639047Y-65217380D02*
X229639047Y-64550714D01*
X229639047Y-64217380D02*
X229591428Y-64265000D01*
X229639047Y-64312619D01*
X229686666Y-64265000D01*
X229639047Y-64217380D01*
X229639047Y-64312619D01*
X215662857Y-66160714D02*
X216043809Y-66160714D01*
X215805714Y-66827380D02*
X215805714Y-65970238D01*
X215853333Y-65875000D01*
X215948571Y-65827380D01*
X216043809Y-65827380D01*
X216377142Y-66827380D02*
X216377142Y-66160714D01*
X216377142Y-66351190D02*
X216424761Y-66255952D01*
X216472380Y-66208333D01*
X216567619Y-66160714D01*
X216662857Y-66160714D01*
X217139047Y-66827380D02*
X217043809Y-66779761D01*
X216996190Y-66732142D01*
X216948571Y-66636904D01*
X216948571Y-66351190D01*
X216996190Y-66255952D01*
X217043809Y-66208333D01*
X217139047Y-66160714D01*
X217281904Y-66160714D01*
X217377142Y-66208333D01*
X217424761Y-66255952D01*
X217472380Y-66351190D01*
X217472380Y-66636904D01*
X217424761Y-66732142D01*
X217377142Y-66779761D01*
X217281904Y-66827380D01*
X217139047Y-66827380D01*
X217900952Y-66827380D02*
X217900952Y-66160714D01*
X217900952Y-66255952D02*
X217948571Y-66208333D01*
X218043809Y-66160714D01*
X218186666Y-66160714D01*
X218281904Y-66208333D01*
X218329523Y-66303571D01*
X218329523Y-66827380D01*
X218329523Y-66303571D02*
X218377142Y-66208333D01*
X218472380Y-66160714D01*
X218615238Y-66160714D01*
X218710476Y-66208333D01*
X218758095Y-66303571D01*
X218758095Y-66827380D01*
X219853333Y-66160714D02*
X220234285Y-66160714D01*
X219996190Y-65827380D02*
X219996190Y-66684523D01*
X220043809Y-66779761D01*
X220139047Y-66827380D01*
X220234285Y-66827380D01*
X220567619Y-66827380D02*
X220567619Y-65827380D01*
X220996190Y-66827380D02*
X220996190Y-66303571D01*
X220948571Y-66208333D01*
X220853333Y-66160714D01*
X220710476Y-66160714D01*
X220615238Y-66208333D01*
X220567619Y-66255952D01*
X221853333Y-66779761D02*
X221758095Y-66827380D01*
X221567619Y-66827380D01*
X221472380Y-66779761D01*
X221424761Y-66684523D01*
X221424761Y-66303571D01*
X221472380Y-66208333D01*
X221567619Y-66160714D01*
X221758095Y-66160714D01*
X221853333Y-66208333D01*
X221900952Y-66303571D01*
X221900952Y-66398809D01*
X221424761Y-66494047D01*
X223091428Y-66827380D02*
X223091428Y-66160714D01*
X223091428Y-66255952D02*
X223139047Y-66208333D01*
X223234285Y-66160714D01*
X223377142Y-66160714D01*
X223472380Y-66208333D01*
X223520000Y-66303571D01*
X223520000Y-66827380D01*
X223520000Y-66303571D02*
X223567619Y-66208333D01*
X223662857Y-66160714D01*
X223805714Y-66160714D01*
X223900952Y-66208333D01*
X223948571Y-66303571D01*
X223948571Y-66827380D01*
X224853333Y-66827380D02*
X224853333Y-66303571D01*
X224805714Y-66208333D01*
X224710476Y-66160714D01*
X224520000Y-66160714D01*
X224424761Y-66208333D01*
X224853333Y-66779761D02*
X224758095Y-66827380D01*
X224520000Y-66827380D01*
X224424761Y-66779761D01*
X224377142Y-66684523D01*
X224377142Y-66589285D01*
X224424761Y-66494047D01*
X224520000Y-66446428D01*
X224758095Y-66446428D01*
X224853333Y-66398809D01*
X225329523Y-66827380D02*
X225329523Y-66160714D01*
X225329523Y-65827380D02*
X225281904Y-65875000D01*
X225329523Y-65922619D01*
X225377142Y-65875000D01*
X225329523Y-65827380D01*
X225329523Y-65922619D01*
X225805714Y-66160714D02*
X225805714Y-66827380D01*
X225805714Y-66255952D02*
X225853333Y-66208333D01*
X225948571Y-66160714D01*
X226091428Y-66160714D01*
X226186666Y-66208333D01*
X226234285Y-66303571D01*
X226234285Y-66827380D01*
X227472380Y-66827380D02*
X227472380Y-65827380D01*
X227472380Y-66208333D02*
X227567619Y-66160714D01*
X227758095Y-66160714D01*
X227853333Y-66208333D01*
X227900952Y-66255952D01*
X227948571Y-66351190D01*
X227948571Y-66636904D01*
X227900952Y-66732142D01*
X227853333Y-66779761D01*
X227758095Y-66827380D01*
X227567619Y-66827380D01*
X227472380Y-66779761D01*
X228520000Y-66827380D02*
X228424761Y-66779761D01*
X228377142Y-66732142D01*
X228329523Y-66636904D01*
X228329523Y-66351190D01*
X228377142Y-66255952D01*
X228424761Y-66208333D01*
X228520000Y-66160714D01*
X228662857Y-66160714D01*
X228758095Y-66208333D01*
X228805714Y-66255952D01*
X228853333Y-66351190D01*
X228853333Y-66636904D01*
X228805714Y-66732142D01*
X228758095Y-66779761D01*
X228662857Y-66827380D01*
X228520000Y-66827380D01*
X229710476Y-66827380D02*
X229710476Y-66303571D01*
X229662857Y-66208333D01*
X229567619Y-66160714D01*
X229377142Y-66160714D01*
X229281904Y-66208333D01*
X229710476Y-66779761D02*
X229615238Y-66827380D01*
X229377142Y-66827380D01*
X229281904Y-66779761D01*
X229234285Y-66684523D01*
X229234285Y-66589285D01*
X229281904Y-66494047D01*
X229377142Y-66446428D01*
X229615238Y-66446428D01*
X229710476Y-66398809D01*
X230186666Y-66827380D02*
X230186666Y-66160714D01*
X230186666Y-66351190D02*
X230234285Y-66255952D01*
X230281904Y-66208333D01*
X230377142Y-66160714D01*
X230472380Y-66160714D01*
X231234285Y-66827380D02*
X231234285Y-65827380D01*
X231234285Y-66779761D02*
X231139047Y-66827380D01*
X230948571Y-66827380D01*
X230853333Y-66779761D01*
X230805714Y-66732142D01*
X230758095Y-66636904D01*
X230758095Y-66351190D01*
X230805714Y-66255952D01*
X230853333Y-66208333D01*
X230948571Y-66160714D01*
X231139047Y-66160714D01*
X231234285Y-66208333D01*
X200477380Y-73615238D02*
X200001190Y-73948571D01*
X200477380Y-74186666D02*
X199477380Y-74186666D01*
X199477380Y-73805714D01*
X199525000Y-73710476D01*
X199572619Y-73662857D01*
X199667857Y-73615238D01*
X199810714Y-73615238D01*
X199905952Y-73662857D01*
X199953571Y-73710476D01*
X200001190Y-73805714D01*
X200001190Y-74186666D01*
X200477380Y-73281904D02*
X199810714Y-72758095D01*
X199810714Y-73281904D02*
X200477380Y-72758095D01*
X200477380Y-72377142D02*
X199477380Y-72377142D01*
X199477380Y-72139047D01*
X199525000Y-71996190D01*
X199620238Y-71900952D01*
X199715476Y-71853333D01*
X199905952Y-71805714D01*
X200048809Y-71805714D01*
X200239285Y-71853333D01*
X200334523Y-71900952D01*
X200429761Y-71996190D01*
X200477380Y-72139047D01*
X200477380Y-72377142D01*
D11*
X132360714Y-107123571D02*
X132360714Y-108195000D01*
X132289285Y-108409285D01*
X132146428Y-108552142D01*
X131932142Y-108623571D01*
X131789285Y-108623571D01*
X133289285Y-108623571D02*
X133146428Y-108552142D01*
X133075000Y-108480714D01*
X133003571Y-108337857D01*
X133003571Y-107909285D01*
X133075000Y-107766428D01*
X133146428Y-107695000D01*
X133289285Y-107623571D01*
X133503571Y-107623571D01*
X133646428Y-107695000D01*
X133717857Y-107766428D01*
X133789285Y-107909285D01*
X133789285Y-108337857D01*
X133717857Y-108480714D01*
X133646428Y-108552142D01*
X133503571Y-108623571D01*
X133289285Y-108623571D01*
X134289285Y-107623571D02*
X134646428Y-108623571D01*
X135003571Y-107623571D02*
X134646428Y-108623571D01*
X134503571Y-108980714D01*
X134432142Y-109052142D01*
X134289285Y-109123571D01*
X135503571Y-108552142D02*
X135646428Y-108623571D01*
X135932142Y-108623571D01*
X136075000Y-108552142D01*
X136146428Y-108409285D01*
X136146428Y-108337857D01*
X136075000Y-108195000D01*
X135932142Y-108123571D01*
X135717857Y-108123571D01*
X135575000Y-108052142D01*
X135503571Y-107909285D01*
X135503571Y-107837857D01*
X135575000Y-107695000D01*
X135717857Y-107623571D01*
X135932142Y-107623571D01*
X136075000Y-107695000D01*
X136575000Y-107623571D02*
X137146428Y-107623571D01*
X136789285Y-107123571D02*
X136789285Y-108409285D01*
X136860714Y-108552142D01*
X137003571Y-108623571D01*
X137146428Y-108623571D01*
X137646428Y-108623571D02*
X137646428Y-107623571D01*
X137646428Y-107123571D02*
X137575000Y-107195000D01*
X137646428Y-107266428D01*
X137717857Y-107195000D01*
X137646428Y-107123571D01*
X137646428Y-107266428D01*
X139003571Y-108552142D02*
X138860714Y-108623571D01*
X138575000Y-108623571D01*
X138432142Y-108552142D01*
X138360714Y-108480714D01*
X138289285Y-108337857D01*
X138289285Y-107909285D01*
X138360714Y-107766428D01*
X138432142Y-107695000D01*
X138575000Y-107623571D01*
X138860714Y-107623571D01*
X139003571Y-107695000D01*
X139646428Y-108623571D02*
X139646428Y-107123571D01*
X139789285Y-108052142D02*
X140217857Y-108623571D01*
X140217857Y-107623571D02*
X139646428Y-108195000D01*
X141646428Y-108623571D02*
X140789285Y-108623571D01*
X141217857Y-108623571D02*
X141217857Y-107123571D01*
X141075000Y-107337857D01*
X140932142Y-107480714D01*
X140789285Y-107552142D01*
D10*
X76335476Y-91817380D02*
X76335476Y-92531666D01*
X76287857Y-92674523D01*
X76192619Y-92769761D01*
X76049761Y-92817380D01*
X75954523Y-92817380D01*
X76811666Y-92817380D02*
X76811666Y-91817380D01*
X77192619Y-91817380D01*
X77287857Y-91865000D01*
X77335476Y-91912619D01*
X77383095Y-92007857D01*
X77383095Y-92150714D01*
X77335476Y-92245952D01*
X77287857Y-92293571D01*
X77192619Y-92341190D01*
X76811666Y-92341190D01*
X77764047Y-91912619D02*
X77811666Y-91865000D01*
X77906904Y-91817380D01*
X78145000Y-91817380D01*
X78240238Y-91865000D01*
X78287857Y-91912619D01*
X78335476Y-92007857D01*
X78335476Y-92103095D01*
X78287857Y-92245952D01*
X77716428Y-92817380D01*
X78335476Y-92817380D01*
X79954523Y-92817380D02*
X79954523Y-91817380D01*
X79954523Y-92769761D02*
X79859285Y-92817380D01*
X79668809Y-92817380D01*
X79573571Y-92769761D01*
X79525952Y-92722142D01*
X79478333Y-92626904D01*
X79478333Y-92341190D01*
X79525952Y-92245952D01*
X79573571Y-92198333D01*
X79668809Y-92150714D01*
X79859285Y-92150714D01*
X79954523Y-92198333D01*
X80430714Y-92817380D02*
X80430714Y-92150714D01*
X80430714Y-91817380D02*
X80383095Y-91865000D01*
X80430714Y-91912619D01*
X80478333Y-91865000D01*
X80430714Y-91817380D01*
X80430714Y-91912619D01*
X80859285Y-92769761D02*
X80954523Y-92817380D01*
X81145000Y-92817380D01*
X81240238Y-92769761D01*
X81287857Y-92674523D01*
X81287857Y-92626904D01*
X81240238Y-92531666D01*
X81145000Y-92484047D01*
X81002142Y-92484047D01*
X80906904Y-92436428D01*
X80859285Y-92341190D01*
X80859285Y-92293571D01*
X80906904Y-92198333D01*
X81002142Y-92150714D01*
X81145000Y-92150714D01*
X81240238Y-92198333D01*
X82145000Y-92817380D02*
X82145000Y-92293571D01*
X82097380Y-92198333D01*
X82002142Y-92150714D01*
X81811666Y-92150714D01*
X81716428Y-92198333D01*
X82145000Y-92769761D02*
X82049761Y-92817380D01*
X81811666Y-92817380D01*
X81716428Y-92769761D01*
X81668809Y-92674523D01*
X81668809Y-92579285D01*
X81716428Y-92484047D01*
X81811666Y-92436428D01*
X82049761Y-92436428D01*
X82145000Y-92388809D01*
X82621190Y-92817380D02*
X82621190Y-91817380D01*
X82621190Y-92198333D02*
X82716428Y-92150714D01*
X82906904Y-92150714D01*
X83002142Y-92198333D01*
X83049761Y-92245952D01*
X83097380Y-92341190D01*
X83097380Y-92626904D01*
X83049761Y-92722142D01*
X83002142Y-92769761D01*
X82906904Y-92817380D01*
X82716428Y-92817380D01*
X82621190Y-92769761D01*
X83668809Y-92817380D02*
X83573571Y-92769761D01*
X83525952Y-92674523D01*
X83525952Y-91817380D01*
X84430714Y-92769761D02*
X84335476Y-92817380D01*
X84145000Y-92817380D01*
X84049761Y-92769761D01*
X84002142Y-92674523D01*
X84002142Y-92293571D01*
X84049761Y-92198333D01*
X84145000Y-92150714D01*
X84335476Y-92150714D01*
X84430714Y-92198333D01*
X84478333Y-92293571D01*
X84478333Y-92388809D01*
X84002142Y-92484047D01*
X84859285Y-92769761D02*
X84954523Y-92817380D01*
X85145000Y-92817380D01*
X85240238Y-92769761D01*
X85287857Y-92674523D01*
X85287857Y-92626904D01*
X85240238Y-92531666D01*
X85145000Y-92484047D01*
X85002142Y-92484047D01*
X84906904Y-92436428D01*
X84859285Y-92341190D01*
X84859285Y-92293571D01*
X84906904Y-92198333D01*
X85002142Y-92150714D01*
X85145000Y-92150714D01*
X85240238Y-92198333D01*
X75906904Y-94332142D02*
X75859285Y-94379761D01*
X75716428Y-94427380D01*
X75621190Y-94427380D01*
X75478333Y-94379761D01*
X75383095Y-94284523D01*
X75335476Y-94189285D01*
X75287857Y-93998809D01*
X75287857Y-93855952D01*
X75335476Y-93665476D01*
X75383095Y-93570238D01*
X75478333Y-93475000D01*
X75621190Y-93427380D01*
X75716428Y-93427380D01*
X75859285Y-93475000D01*
X75906904Y-93522619D01*
X76478333Y-94427380D02*
X76383095Y-94379761D01*
X76335476Y-94284523D01*
X76335476Y-93427380D01*
X77287857Y-94427380D02*
X77287857Y-93903571D01*
X77240238Y-93808333D01*
X77145000Y-93760714D01*
X76954523Y-93760714D01*
X76859285Y-93808333D01*
X77287857Y-94379761D02*
X77192619Y-94427380D01*
X76954523Y-94427380D01*
X76859285Y-94379761D01*
X76811666Y-94284523D01*
X76811666Y-94189285D01*
X76859285Y-94094047D01*
X76954523Y-94046428D01*
X77192619Y-94046428D01*
X77287857Y-93998809D01*
X77716428Y-94379761D02*
X77811666Y-94427380D01*
X78002142Y-94427380D01*
X78097380Y-94379761D01*
X78145000Y-94284523D01*
X78145000Y-94236904D01*
X78097380Y-94141666D01*
X78002142Y-94094047D01*
X77859285Y-94094047D01*
X77764047Y-94046428D01*
X77716428Y-93951190D01*
X77716428Y-93903571D01*
X77764047Y-93808333D01*
X77859285Y-93760714D01*
X78002142Y-93760714D01*
X78097380Y-93808333D01*
X78525952Y-94379761D02*
X78621190Y-94427380D01*
X78811666Y-94427380D01*
X78906904Y-94379761D01*
X78954523Y-94284523D01*
X78954523Y-94236904D01*
X78906904Y-94141666D01*
X78811666Y-94094047D01*
X78668809Y-94094047D01*
X78573571Y-94046428D01*
X78525952Y-93951190D01*
X78525952Y-93903571D01*
X78573571Y-93808333D01*
X78668809Y-93760714D01*
X78811666Y-93760714D01*
X78906904Y-93808333D01*
X79383095Y-94046428D02*
X80145000Y-94046428D01*
X80621190Y-94427380D02*
X80621190Y-93427380D01*
X80859285Y-93427380D01*
X81002142Y-93475000D01*
X81097380Y-93570238D01*
X81145000Y-93665476D01*
X81192619Y-93855952D01*
X81192619Y-93998809D01*
X81145000Y-94189285D01*
X81097380Y-94284523D01*
X81002142Y-94379761D01*
X80859285Y-94427380D01*
X80621190Y-94427380D01*
X82335476Y-94141666D02*
X82811666Y-94141666D01*
X82240238Y-94427380D02*
X82573571Y-93427380D01*
X82906904Y-94427380D01*
X83668809Y-93760714D02*
X83668809Y-94427380D01*
X83240238Y-93760714D02*
X83240238Y-94284523D01*
X83287857Y-94379761D01*
X83383095Y-94427380D01*
X83525952Y-94427380D01*
X83621190Y-94379761D01*
X83668809Y-94332142D01*
X84573571Y-94427380D02*
X84573571Y-93427380D01*
X84573571Y-94379761D02*
X84478333Y-94427380D01*
X84287857Y-94427380D01*
X84192619Y-94379761D01*
X84145000Y-94332142D01*
X84097380Y-94236904D01*
X84097380Y-93951190D01*
X84145000Y-93855952D01*
X84192619Y-93808333D01*
X84287857Y-93760714D01*
X84478333Y-93760714D01*
X84573571Y-93808333D01*
X85049761Y-94427380D02*
X85049761Y-93760714D01*
X85049761Y-93427380D02*
X85002142Y-93475000D01*
X85049761Y-93522619D01*
X85097380Y-93475000D01*
X85049761Y-93427380D01*
X85049761Y-93522619D01*
X85668809Y-94427380D02*
X85573571Y-94379761D01*
X85525952Y-94332142D01*
X85478333Y-94236904D01*
X85478333Y-93951190D01*
X85525952Y-93855952D01*
X85573571Y-93808333D01*
X85668809Y-93760714D01*
X85811666Y-93760714D01*
X85906904Y-93808333D01*
X85954523Y-93855952D01*
X86002142Y-93951190D01*
X86002142Y-94236904D01*
X85954523Y-94332142D01*
X85906904Y-94379761D01*
X85811666Y-94427380D01*
X85668809Y-94427380D01*
X75383095Y-96037380D02*
X75287857Y-95989761D01*
X75240238Y-95942142D01*
X75192619Y-95846904D01*
X75192619Y-95561190D01*
X75240238Y-95465952D01*
X75287857Y-95418333D01*
X75383095Y-95370714D01*
X75525952Y-95370714D01*
X75621190Y-95418333D01*
X75668809Y-95465952D01*
X75716428Y-95561190D01*
X75716428Y-95846904D01*
X75668809Y-95942142D01*
X75621190Y-95989761D01*
X75525952Y-96037380D01*
X75383095Y-96037380D01*
X76145000Y-95370714D02*
X76145000Y-96037380D01*
X76145000Y-95465952D02*
X76192619Y-95418333D01*
X76287857Y-95370714D01*
X76430714Y-95370714D01*
X76525952Y-95418333D01*
X76573571Y-95513571D01*
X76573571Y-96037380D01*
X78145000Y-95513571D02*
X77811666Y-95513571D01*
X77811666Y-96037380D02*
X77811666Y-95037380D01*
X78287857Y-95037380D01*
X78668809Y-96037380D02*
X78668809Y-95037380D01*
X79049761Y-95037380D01*
X79145000Y-95085000D01*
X79192619Y-95132619D01*
X79240238Y-95227857D01*
X79240238Y-95370714D01*
X79192619Y-95465952D01*
X79145000Y-95513571D01*
X79049761Y-95561190D01*
X78668809Y-95561190D01*
X80192619Y-95085000D02*
X80097380Y-95037380D01*
X79954523Y-95037380D01*
X79811666Y-95085000D01*
X79716428Y-95180238D01*
X79668809Y-95275476D01*
X79621190Y-95465952D01*
X79621190Y-95608809D01*
X79668809Y-95799285D01*
X79716428Y-95894523D01*
X79811666Y-95989761D01*
X79954523Y-96037380D01*
X80049761Y-96037380D01*
X80192619Y-95989761D01*
X80240238Y-95942142D01*
X80240238Y-95608809D01*
X80049761Y-95608809D01*
X80621190Y-95751666D02*
X81097380Y-95751666D01*
X80525952Y-96037380D02*
X80859285Y-95037380D01*
X81192619Y-96037380D01*
X82287857Y-96037380D02*
X82287857Y-95037380D01*
X82287857Y-95418333D02*
X82383095Y-95370714D01*
X82573571Y-95370714D01*
X82668809Y-95418333D01*
X82716428Y-95465952D01*
X82764047Y-95561190D01*
X82764047Y-95846904D01*
X82716428Y-95942142D01*
X82668809Y-95989761D01*
X82573571Y-96037380D01*
X82383095Y-96037380D01*
X82287857Y-95989761D01*
X83335476Y-96037380D02*
X83240238Y-95989761D01*
X83192619Y-95942142D01*
X83145000Y-95846904D01*
X83145000Y-95561190D01*
X83192619Y-95465952D01*
X83240238Y-95418333D01*
X83335476Y-95370714D01*
X83478333Y-95370714D01*
X83573571Y-95418333D01*
X83621190Y-95465952D01*
X83668809Y-95561190D01*
X83668809Y-95846904D01*
X83621190Y-95942142D01*
X83573571Y-95989761D01*
X83478333Y-96037380D01*
X83335476Y-96037380D01*
X84525952Y-96037380D02*
X84525952Y-95513571D01*
X84478333Y-95418333D01*
X84383095Y-95370714D01*
X84192619Y-95370714D01*
X84097380Y-95418333D01*
X84525952Y-95989761D02*
X84430714Y-96037380D01*
X84192619Y-96037380D01*
X84097380Y-95989761D01*
X84049761Y-95894523D01*
X84049761Y-95799285D01*
X84097380Y-95704047D01*
X84192619Y-95656428D01*
X84430714Y-95656428D01*
X84525952Y-95608809D01*
X85002142Y-96037380D02*
X85002142Y-95370714D01*
X85002142Y-95561190D02*
X85049761Y-95465952D01*
X85097380Y-95418333D01*
X85192619Y-95370714D01*
X85287857Y-95370714D01*
X86049761Y-96037380D02*
X86049761Y-95037380D01*
X86049761Y-95989761D02*
X85954523Y-96037380D01*
X85764047Y-96037380D01*
X85668809Y-95989761D01*
X85621190Y-95942142D01*
X85573571Y-95846904D01*
X85573571Y-95561190D01*
X85621190Y-95465952D01*
X85668809Y-95418333D01*
X85764047Y-95370714D01*
X85954523Y-95370714D01*
X86049761Y-95418333D01*
D11*
X141236428Y-62673571D02*
X142093571Y-62673571D01*
X141665000Y-64173571D02*
X141665000Y-62673571D01*
X142879285Y-62673571D02*
X143165000Y-62673571D01*
X143307857Y-62745000D01*
X143450714Y-62887857D01*
X143522142Y-63173571D01*
X143522142Y-63673571D01*
X143450714Y-63959285D01*
X143307857Y-64102142D01*
X143165000Y-64173571D01*
X142879285Y-64173571D01*
X142736428Y-64102142D01*
X142593571Y-63959285D01*
X142522142Y-63673571D01*
X142522142Y-63173571D01*
X142593571Y-62887857D01*
X142736428Y-62745000D01*
X142879285Y-62673571D01*
X144093571Y-64102142D02*
X144307857Y-64173571D01*
X144665000Y-64173571D01*
X144807857Y-64102142D01*
X144879285Y-64030714D01*
X144950714Y-63887857D01*
X144950714Y-63745000D01*
X144879285Y-63602142D01*
X144807857Y-63530714D01*
X144665000Y-63459285D01*
X144379285Y-63387857D01*
X144236428Y-63316428D01*
X144165000Y-63245000D01*
X144093571Y-63102142D01*
X144093571Y-62959285D01*
X144165000Y-62816428D01*
X144236428Y-62745000D01*
X144379285Y-62673571D01*
X144736428Y-62673571D01*
X144950714Y-62745000D01*
X146307857Y-64173571D02*
X145593571Y-64173571D01*
X145593571Y-62673571D01*
X146807857Y-64173571D02*
X146807857Y-63173571D01*
X146807857Y-62673571D02*
X146736428Y-62745000D01*
X146807857Y-62816428D01*
X146879285Y-62745000D01*
X146807857Y-62673571D01*
X146807857Y-62816428D01*
X147522142Y-63173571D02*
X147522142Y-64173571D01*
X147522142Y-63316428D02*
X147593571Y-63245000D01*
X147736428Y-63173571D01*
X147950714Y-63173571D01*
X148093571Y-63245000D01*
X148165000Y-63387857D01*
X148165000Y-64173571D01*
X148879285Y-64173571D02*
X148879285Y-62673571D01*
X149022142Y-63602142D02*
X149450714Y-64173571D01*
X149450714Y-63173571D02*
X148879285Y-63745000D01*
X81847857Y-113068571D02*
X81847857Y-111568571D01*
X82419285Y-111568571D01*
X82562142Y-111640000D01*
X82633571Y-111711428D01*
X82705000Y-111854285D01*
X82705000Y-112068571D01*
X82633571Y-112211428D01*
X82562142Y-112282857D01*
X82419285Y-112354285D01*
X81847857Y-112354285D01*
X83276428Y-112997142D02*
X83490714Y-113068571D01*
X83847857Y-113068571D01*
X83990714Y-112997142D01*
X84062142Y-112925714D01*
X84133571Y-112782857D01*
X84133571Y-112640000D01*
X84062142Y-112497142D01*
X83990714Y-112425714D01*
X83847857Y-112354285D01*
X83562142Y-112282857D01*
X83419285Y-112211428D01*
X83347857Y-112140000D01*
X83276428Y-111997142D01*
X83276428Y-111854285D01*
X83347857Y-111711428D01*
X83419285Y-111640000D01*
X83562142Y-111568571D01*
X83919285Y-111568571D01*
X84133571Y-111640000D01*
X85847857Y-111497142D02*
X84562142Y-113425714D01*
X86276428Y-111711428D02*
X86347857Y-111640000D01*
X86490714Y-111568571D01*
X86847857Y-111568571D01*
X86990714Y-111640000D01*
X87062142Y-111711428D01*
X87133571Y-111854285D01*
X87133571Y-111997142D01*
X87062142Y-112211428D01*
X86205000Y-113068571D01*
X87133571Y-113068571D01*
X83316428Y-64173571D02*
X82602142Y-64173571D01*
X82602142Y-62673571D01*
X83816428Y-64173571D02*
X83816428Y-63173571D01*
X83816428Y-62673571D02*
X83745000Y-62745000D01*
X83816428Y-62816428D01*
X83887857Y-62745000D01*
X83816428Y-62673571D01*
X83816428Y-62816428D01*
X84530714Y-63173571D02*
X84530714Y-64173571D01*
X84530714Y-63316428D02*
X84602142Y-63245000D01*
X84745000Y-63173571D01*
X84959285Y-63173571D01*
X85102142Y-63245000D01*
X85173571Y-63387857D01*
X85173571Y-64173571D01*
X86459285Y-64102142D02*
X86316428Y-64173571D01*
X86030714Y-64173571D01*
X85887857Y-64102142D01*
X85816428Y-63959285D01*
X85816428Y-63387857D01*
X85887857Y-63245000D01*
X86030714Y-63173571D01*
X86316428Y-63173571D01*
X86459285Y-63245000D01*
X86530714Y-63387857D01*
X86530714Y-63530714D01*
X85816428Y-63673571D01*
X88602142Y-62673571D02*
X88887857Y-62673571D01*
X89030714Y-62745000D01*
X89173571Y-62887857D01*
X89245000Y-63173571D01*
X89245000Y-63673571D01*
X89173571Y-63959285D01*
X89030714Y-64102142D01*
X88887857Y-64173571D01*
X88602142Y-64173571D01*
X88459285Y-64102142D01*
X88316428Y-63959285D01*
X88245000Y-63673571D01*
X88245000Y-63173571D01*
X88316428Y-62887857D01*
X88459285Y-62745000D01*
X88602142Y-62673571D01*
X90530714Y-63173571D02*
X90530714Y-64173571D01*
X89887857Y-63173571D02*
X89887857Y-63959285D01*
X89959285Y-64102142D01*
X90102142Y-64173571D01*
X90316428Y-64173571D01*
X90459285Y-64102142D01*
X90530714Y-64030714D01*
X91030714Y-63173571D02*
X91602142Y-63173571D01*
X91245000Y-62673571D02*
X91245000Y-63959285D01*
X91316428Y-64102142D01*
X91459285Y-64173571D01*
X91602142Y-64173571D01*
X168287142Y-66483571D02*
X168787142Y-67983571D01*
X169287142Y-66483571D01*
X170572857Y-66555000D02*
X170430000Y-66483571D01*
X170215714Y-66483571D01*
X170001428Y-66555000D01*
X169858571Y-66697857D01*
X169787142Y-66840714D01*
X169715714Y-67126428D01*
X169715714Y-67340714D01*
X169787142Y-67626428D01*
X169858571Y-67769285D01*
X170001428Y-67912142D01*
X170215714Y-67983571D01*
X170358571Y-67983571D01*
X170572857Y-67912142D01*
X170644285Y-67840714D01*
X170644285Y-67340714D01*
X170358571Y-67340714D01*
X171215714Y-67555000D02*
X171930000Y-67555000D01*
X171072857Y-67983571D02*
X171572857Y-66483571D01*
X172072857Y-67983571D01*
D10*
X80081380Y-82044761D02*
X79081380Y-82044761D01*
X79081380Y-81663809D01*
X79129000Y-81568571D01*
X79176619Y-81520952D01*
X79271857Y-81473333D01*
X79414714Y-81473333D01*
X79509952Y-81520952D01*
X79557571Y-81568571D01*
X79605190Y-81663809D01*
X79605190Y-82044761D01*
X79081380Y-81140000D02*
X80081380Y-80901904D01*
X79367095Y-80711428D01*
X80081380Y-80520952D01*
X79081380Y-80282857D01*
X80081380Y-79901904D02*
X79081380Y-79901904D01*
X79795666Y-79568571D01*
X79081380Y-79235238D01*
X80081380Y-79235238D01*
X116592857Y-74159857D02*
X116878571Y-75359857D01*
X117107142Y-74502714D01*
X117335714Y-75359857D01*
X117621428Y-74159857D01*
X118021428Y-75017000D02*
X118592857Y-75017000D01*
X117907142Y-75359857D02*
X118307142Y-74159857D01*
X118707142Y-75359857D01*
X119792857Y-75359857D02*
X119392857Y-74788428D01*
X119107142Y-75359857D02*
X119107142Y-74159857D01*
X119564285Y-74159857D01*
X119678571Y-74217000D01*
X119735714Y-74274142D01*
X119792857Y-74388428D01*
X119792857Y-74559857D01*
X119735714Y-74674142D01*
X119678571Y-74731285D01*
X119564285Y-74788428D01*
X119107142Y-74788428D01*
X120307142Y-75359857D02*
X120307142Y-74159857D01*
X120992857Y-75359857D01*
X120992857Y-74159857D01*
X121564285Y-75359857D02*
X121564285Y-74159857D01*
X122135714Y-75359857D02*
X122135714Y-74159857D01*
X122821428Y-75359857D01*
X122821428Y-74159857D01*
X124021428Y-74217000D02*
X123907142Y-74159857D01*
X123735714Y-74159857D01*
X123564285Y-74217000D01*
X123450000Y-74331285D01*
X123392857Y-74445571D01*
X123335714Y-74674142D01*
X123335714Y-74845571D01*
X123392857Y-75074142D01*
X123450000Y-75188428D01*
X123564285Y-75302714D01*
X123735714Y-75359857D01*
X123850000Y-75359857D01*
X124021428Y-75302714D01*
X124078571Y-75245571D01*
X124078571Y-74845571D01*
X123850000Y-74845571D01*
X124592857Y-75245571D02*
X124650000Y-75302714D01*
X124592857Y-75359857D01*
X124535714Y-75302714D01*
X124592857Y-75245571D01*
X124592857Y-75359857D01*
X124592857Y-74617000D02*
X124650000Y-74674142D01*
X124592857Y-74731285D01*
X124535714Y-74674142D01*
X124592857Y-74617000D01*
X124592857Y-74731285D01*
X115764285Y-79223857D02*
X115764285Y-78023857D01*
X116221428Y-78023857D01*
X116335714Y-78081000D01*
X116392857Y-78138142D01*
X116450000Y-78252428D01*
X116450000Y-78423857D01*
X116392857Y-78538142D01*
X116335714Y-78595285D01*
X116221428Y-78652428D01*
X115764285Y-78652428D01*
X117135714Y-79223857D02*
X117021428Y-79166714D01*
X116964285Y-79109571D01*
X116907142Y-78995285D01*
X116907142Y-78652428D01*
X116964285Y-78538142D01*
X117021428Y-78481000D01*
X117135714Y-78423857D01*
X117307142Y-78423857D01*
X117421428Y-78481000D01*
X117478571Y-78538142D01*
X117535714Y-78652428D01*
X117535714Y-78995285D01*
X117478571Y-79109571D01*
X117421428Y-79166714D01*
X117307142Y-79223857D01*
X117135714Y-79223857D01*
X117935714Y-78423857D02*
X118164285Y-79223857D01*
X118392857Y-78652428D01*
X118621428Y-79223857D01*
X118850000Y-78423857D01*
X119764285Y-79166714D02*
X119650000Y-79223857D01*
X119421428Y-79223857D01*
X119307142Y-79166714D01*
X119250000Y-79052428D01*
X119250000Y-78595285D01*
X119307142Y-78481000D01*
X119421428Y-78423857D01*
X119650000Y-78423857D01*
X119764285Y-78481000D01*
X119821428Y-78595285D01*
X119821428Y-78709571D01*
X119250000Y-78823857D01*
X120335714Y-79223857D02*
X120335714Y-78423857D01*
X120335714Y-78652428D02*
X120392857Y-78538142D01*
X120450000Y-78481000D01*
X120564285Y-78423857D01*
X120678571Y-78423857D01*
X121821428Y-78423857D02*
X122278571Y-78423857D01*
X121992857Y-79223857D02*
X121992857Y-78195285D01*
X122050000Y-78081000D01*
X122164285Y-78023857D01*
X122278571Y-78023857D01*
X122678571Y-79223857D02*
X122678571Y-78423857D01*
X122678571Y-78652428D02*
X122735714Y-78538142D01*
X122792857Y-78481000D01*
X122907142Y-78423857D01*
X123021428Y-78423857D01*
X123592857Y-79223857D02*
X123478571Y-79166714D01*
X123421428Y-79109571D01*
X123364285Y-78995285D01*
X123364285Y-78652428D01*
X123421428Y-78538142D01*
X123478571Y-78481000D01*
X123592857Y-78423857D01*
X123764285Y-78423857D01*
X123878571Y-78481000D01*
X123935714Y-78538142D01*
X123992857Y-78652428D01*
X123992857Y-78995285D01*
X123935714Y-79109571D01*
X123878571Y-79166714D01*
X123764285Y-79223857D01*
X123592857Y-79223857D01*
X124507142Y-79223857D02*
X124507142Y-78423857D01*
X124507142Y-78538142D02*
X124564285Y-78481000D01*
X124678571Y-78423857D01*
X124850000Y-78423857D01*
X124964285Y-78481000D01*
X125021428Y-78595285D01*
X125021428Y-79223857D01*
X125021428Y-78595285D02*
X125078571Y-78481000D01*
X125192857Y-78423857D01*
X125364285Y-78423857D01*
X125478571Y-78481000D01*
X125535714Y-78595285D01*
X125535714Y-79223857D01*
X114992857Y-80698714D02*
X115907142Y-80698714D01*
X115450000Y-81155857D02*
X115450000Y-80241571D01*
X117050000Y-79955857D02*
X116478571Y-79955857D01*
X116421428Y-80527285D01*
X116478571Y-80470142D01*
X116592857Y-80413000D01*
X116878571Y-80413000D01*
X116992857Y-80470142D01*
X117050000Y-80527285D01*
X117107142Y-80641571D01*
X117107142Y-80927285D01*
X117050000Y-81041571D01*
X116992857Y-81098714D01*
X116878571Y-81155857D01*
X116592857Y-81155857D01*
X116478571Y-81098714D01*
X116421428Y-81041571D01*
X117450000Y-79955857D02*
X117850000Y-81155857D01*
X118250000Y-79955857D01*
X119564285Y-81155857D02*
X119564285Y-79955857D01*
X119850000Y-79955857D01*
X120021428Y-80013000D01*
X120135714Y-80127285D01*
X120192857Y-80241571D01*
X120250000Y-80470142D01*
X120250000Y-80641571D01*
X120192857Y-80870142D01*
X120135714Y-80984428D01*
X120021428Y-81098714D01*
X119850000Y-81155857D01*
X119564285Y-81155857D01*
X121450000Y-81041571D02*
X121392857Y-81098714D01*
X121221428Y-81155857D01*
X121107142Y-81155857D01*
X120935714Y-81098714D01*
X120821428Y-80984428D01*
X120764285Y-80870142D01*
X120707142Y-80641571D01*
X120707142Y-80470142D01*
X120764285Y-80241571D01*
X120821428Y-80127285D01*
X120935714Y-80013000D01*
X121107142Y-79955857D01*
X121221428Y-79955857D01*
X121392857Y-80013000D01*
X121450000Y-80070142D01*
X123221428Y-79955857D02*
X123221428Y-80813000D01*
X123164285Y-80984428D01*
X123050000Y-81098714D01*
X122878571Y-81155857D01*
X122764285Y-81155857D01*
X124307142Y-81155857D02*
X124307142Y-80527285D01*
X124250000Y-80413000D01*
X124135714Y-80355857D01*
X123907142Y-80355857D01*
X123792857Y-80413000D01*
X124307142Y-81098714D02*
X124192857Y-81155857D01*
X123907142Y-81155857D01*
X123792857Y-81098714D01*
X123735714Y-80984428D01*
X123735714Y-80870142D01*
X123792857Y-80755857D01*
X123907142Y-80698714D01*
X124192857Y-80698714D01*
X124307142Y-80641571D01*
X125392857Y-81098714D02*
X125278571Y-81155857D01*
X125050000Y-81155857D01*
X124935714Y-81098714D01*
X124878571Y-81041571D01*
X124821428Y-80927285D01*
X124821428Y-80584428D01*
X124878571Y-80470142D01*
X124935714Y-80413000D01*
X125050000Y-80355857D01*
X125278571Y-80355857D01*
X125392857Y-80413000D01*
X125907142Y-81155857D02*
X125907142Y-79955857D01*
X126021428Y-80698714D02*
X126364285Y-81155857D01*
X126364285Y-80355857D02*
X125907142Y-80813000D01*
X120192857Y-83087857D02*
X120078571Y-83030714D01*
X120021428Y-82973571D01*
X119964285Y-82859285D01*
X119964285Y-82516428D01*
X120021428Y-82402142D01*
X120078571Y-82345000D01*
X120192857Y-82287857D01*
X120364285Y-82287857D01*
X120478571Y-82345000D01*
X120535714Y-82402142D01*
X120592857Y-82516428D01*
X120592857Y-82859285D01*
X120535714Y-82973571D01*
X120478571Y-83030714D01*
X120364285Y-83087857D01*
X120192857Y-83087857D01*
X121107142Y-83087857D02*
X121107142Y-82287857D01*
X121107142Y-82516428D02*
X121164285Y-82402142D01*
X121221428Y-82345000D01*
X121335714Y-82287857D01*
X121450000Y-82287857D01*
X115078571Y-83819857D02*
X115764285Y-83819857D01*
X115421428Y-85019857D02*
X115421428Y-83819857D01*
X116678571Y-85019857D02*
X116678571Y-84391285D01*
X116621428Y-84277000D01*
X116507142Y-84219857D01*
X116278571Y-84219857D01*
X116164285Y-84277000D01*
X116678571Y-84962714D02*
X116564285Y-85019857D01*
X116278571Y-85019857D01*
X116164285Y-84962714D01*
X116107142Y-84848428D01*
X116107142Y-84734142D01*
X116164285Y-84619857D01*
X116278571Y-84562714D01*
X116564285Y-84562714D01*
X116678571Y-84505571D01*
X117250000Y-84219857D02*
X117250000Y-85019857D01*
X117250000Y-84334142D02*
X117307142Y-84277000D01*
X117421428Y-84219857D01*
X117592857Y-84219857D01*
X117707142Y-84277000D01*
X117764285Y-84391285D01*
X117764285Y-85019857D01*
X118850000Y-84219857D02*
X118850000Y-85191285D01*
X118792857Y-85305571D01*
X118735714Y-85362714D01*
X118621428Y-85419857D01*
X118450000Y-85419857D01*
X118335714Y-85362714D01*
X118850000Y-84962714D02*
X118735714Y-85019857D01*
X118507142Y-85019857D01*
X118392857Y-84962714D01*
X118335714Y-84905571D01*
X118278571Y-84791285D01*
X118278571Y-84448428D01*
X118335714Y-84334142D01*
X118392857Y-84277000D01*
X118507142Y-84219857D01*
X118735714Y-84219857D01*
X118850000Y-84277000D01*
X120335714Y-83819857D02*
X120335714Y-84791285D01*
X120392857Y-84905571D01*
X120450000Y-84962714D01*
X120564285Y-85019857D01*
X120792857Y-85019857D01*
X120907142Y-84962714D01*
X120964285Y-84905571D01*
X121021428Y-84791285D01*
X121021428Y-83819857D01*
X121535714Y-84962714D02*
X121707142Y-85019857D01*
X121992857Y-85019857D01*
X122107142Y-84962714D01*
X122164285Y-84905571D01*
X122221428Y-84791285D01*
X122221428Y-84677000D01*
X122164285Y-84562714D01*
X122107142Y-84505571D01*
X121992857Y-84448428D01*
X121764285Y-84391285D01*
X121650000Y-84334142D01*
X121592857Y-84277000D01*
X121535714Y-84162714D01*
X121535714Y-84048428D01*
X121592857Y-83934142D01*
X121650000Y-83877000D01*
X121764285Y-83819857D01*
X122050000Y-83819857D01*
X122221428Y-83877000D01*
X123135714Y-84391285D02*
X123307142Y-84448428D01*
X123364285Y-84505571D01*
X123421428Y-84619857D01*
X123421428Y-84791285D01*
X123364285Y-84905571D01*
X123307142Y-84962714D01*
X123192857Y-85019857D01*
X122735714Y-85019857D01*
X122735714Y-83819857D01*
X123135714Y-83819857D01*
X123250000Y-83877000D01*
X123307142Y-83934142D01*
X123364285Y-84048428D01*
X123364285Y-84162714D01*
X123307142Y-84277000D01*
X123250000Y-84334142D01*
X123135714Y-84391285D01*
X122735714Y-84391285D01*
X123935714Y-84562714D02*
X124850000Y-84562714D01*
X126107142Y-84905571D02*
X126050000Y-84962714D01*
X125878571Y-85019857D01*
X125764285Y-85019857D01*
X125592857Y-84962714D01*
X125478571Y-84848428D01*
X125421428Y-84734142D01*
X125364285Y-84505571D01*
X125364285Y-84334142D01*
X125421428Y-84105571D01*
X125478571Y-83991285D01*
X125592857Y-83877000D01*
X125764285Y-83819857D01*
X125878571Y-83819857D01*
X126050000Y-83877000D01*
X126107142Y-83934142D01*
X117535714Y-88883857D02*
X117535714Y-87683857D01*
X117821428Y-87683857D01*
X117992857Y-87741000D01*
X118107142Y-87855285D01*
X118164285Y-87969571D01*
X118221428Y-88198142D01*
X118221428Y-88369571D01*
X118164285Y-88598142D01*
X118107142Y-88712428D01*
X117992857Y-88826714D01*
X117821428Y-88883857D01*
X117535714Y-88883857D01*
X118964285Y-87683857D02*
X119192857Y-87683857D01*
X119307142Y-87741000D01*
X119421428Y-87855285D01*
X119478571Y-88083857D01*
X119478571Y-88483857D01*
X119421428Y-88712428D01*
X119307142Y-88826714D01*
X119192857Y-88883857D01*
X118964285Y-88883857D01*
X118850000Y-88826714D01*
X118735714Y-88712428D01*
X118678571Y-88483857D01*
X118678571Y-88083857D01*
X118735714Y-87855285D01*
X118850000Y-87741000D01*
X118964285Y-87683857D01*
X120907142Y-88883857D02*
X120907142Y-87683857D01*
X121592857Y-88883857D01*
X121592857Y-87683857D01*
X122392857Y-87683857D02*
X122621428Y-87683857D01*
X122735714Y-87741000D01*
X122850000Y-87855285D01*
X122907142Y-88083857D01*
X122907142Y-88483857D01*
X122850000Y-88712428D01*
X122735714Y-88826714D01*
X122621428Y-88883857D01*
X122392857Y-88883857D01*
X122278571Y-88826714D01*
X122164285Y-88712428D01*
X122107142Y-88483857D01*
X122107142Y-88083857D01*
X122164285Y-87855285D01*
X122278571Y-87741000D01*
X122392857Y-87683857D01*
X123250000Y-87683857D02*
X123935714Y-87683857D01*
X123592857Y-88883857D02*
X123592857Y-87683857D01*
X115564285Y-89615857D02*
X115564285Y-90587285D01*
X115621428Y-90701571D01*
X115678571Y-90758714D01*
X115792857Y-90815857D01*
X116021428Y-90815857D01*
X116135714Y-90758714D01*
X116192857Y-90701571D01*
X116250000Y-90587285D01*
X116250000Y-89615857D01*
X116764285Y-90758714D02*
X116935714Y-90815857D01*
X117221428Y-90815857D01*
X117335714Y-90758714D01*
X117392857Y-90701571D01*
X117450000Y-90587285D01*
X117450000Y-90473000D01*
X117392857Y-90358714D01*
X117335714Y-90301571D01*
X117221428Y-90244428D01*
X116992857Y-90187285D01*
X116878571Y-90130142D01*
X116821428Y-90073000D01*
X116764285Y-89958714D01*
X116764285Y-89844428D01*
X116821428Y-89730142D01*
X116878571Y-89673000D01*
X116992857Y-89615857D01*
X117278571Y-89615857D01*
X117450000Y-89673000D01*
X117964285Y-90187285D02*
X118364285Y-90187285D01*
X118535714Y-90815857D02*
X117964285Y-90815857D01*
X117964285Y-89615857D01*
X118535714Y-89615857D01*
X120364285Y-90187285D02*
X120535714Y-90244428D01*
X120592857Y-90301571D01*
X120650000Y-90415857D01*
X120650000Y-90587285D01*
X120592857Y-90701571D01*
X120535714Y-90758714D01*
X120421428Y-90815857D01*
X119964285Y-90815857D01*
X119964285Y-89615857D01*
X120364285Y-89615857D01*
X120478571Y-89673000D01*
X120535714Y-89730142D01*
X120592857Y-89844428D01*
X120592857Y-89958714D01*
X120535714Y-90073000D01*
X120478571Y-90130142D01*
X120364285Y-90187285D01*
X119964285Y-90187285D01*
X121392857Y-89615857D02*
X121621428Y-89615857D01*
X121735714Y-89673000D01*
X121850000Y-89787285D01*
X121907142Y-90015857D01*
X121907142Y-90415857D01*
X121850000Y-90644428D01*
X121735714Y-90758714D01*
X121621428Y-90815857D01*
X121392857Y-90815857D01*
X121278571Y-90758714D01*
X121164285Y-90644428D01*
X121107142Y-90415857D01*
X121107142Y-90015857D01*
X121164285Y-89787285D01*
X121278571Y-89673000D01*
X121392857Y-89615857D01*
X122250000Y-89615857D02*
X122935714Y-89615857D01*
X122592857Y-90815857D02*
X122592857Y-89615857D01*
X123335714Y-90815857D02*
X123335714Y-89615857D01*
X123335714Y-90187285D02*
X124021428Y-90187285D01*
X124021428Y-90815857D02*
X124021428Y-89615857D01*
X124592857Y-90701571D02*
X124650000Y-90758714D01*
X124592857Y-90815857D01*
X124535714Y-90758714D01*
X124592857Y-90701571D01*
X124592857Y-90815857D01*
X124592857Y-90358714D02*
X124535714Y-89673000D01*
X124592857Y-89615857D01*
X124650000Y-89673000D01*
X124592857Y-90358714D01*
X124592857Y-89615857D01*
X125164285Y-90701571D02*
X125221428Y-90758714D01*
X125164285Y-90815857D01*
X125107142Y-90758714D01*
X125164285Y-90701571D01*
X125164285Y-90815857D01*
X125164285Y-90358714D02*
X125107142Y-89673000D01*
X125164285Y-89615857D01*
X125221428Y-89673000D01*
X125164285Y-90358714D01*
X125164285Y-89615857D01*
X125735714Y-90701571D02*
X125792857Y-90758714D01*
X125735714Y-90815857D01*
X125678571Y-90758714D01*
X125735714Y-90701571D01*
X125735714Y-90815857D01*
X125735714Y-90358714D02*
X125678571Y-89673000D01*
X125735714Y-89615857D01*
X125792857Y-89673000D01*
X125735714Y-90358714D01*
X125735714Y-89615857D01*
X158107142Y-89257142D02*
X158059523Y-89304761D01*
X157916666Y-89352380D01*
X157821428Y-89352380D01*
X157678571Y-89304761D01*
X157583333Y-89209523D01*
X157535714Y-89114285D01*
X157488095Y-88923809D01*
X157488095Y-88780952D01*
X157535714Y-88590476D01*
X157583333Y-88495238D01*
X157678571Y-88400000D01*
X157821428Y-88352380D01*
X157916666Y-88352380D01*
X158059523Y-88400000D01*
X158107142Y-88447619D01*
X159059523Y-89352380D02*
X158488095Y-89352380D01*
X158773809Y-89352380D02*
X158773809Y-88352380D01*
X158678571Y-88495238D01*
X158583333Y-88590476D01*
X158488095Y-88638095D01*
X159440476Y-88447619D02*
X159488095Y-88400000D01*
X159583333Y-88352380D01*
X159821428Y-88352380D01*
X159916666Y-88400000D01*
X159964285Y-88447619D01*
X160011904Y-88542857D01*
X160011904Y-88638095D01*
X159964285Y-88780952D01*
X159392857Y-89352380D01*
X160011904Y-89352380D01*
X95123095Y-72472380D02*
X95123095Y-73281904D01*
X95170714Y-73377142D01*
X95218333Y-73424761D01*
X95313571Y-73472380D01*
X95504047Y-73472380D01*
X95599285Y-73424761D01*
X95646904Y-73377142D01*
X95694523Y-73281904D01*
X95694523Y-72472380D01*
X96075476Y-72472380D02*
X96694523Y-72472380D01*
X96361190Y-72853333D01*
X96504047Y-72853333D01*
X96599285Y-72900952D01*
X96646904Y-72948571D01*
X96694523Y-73043809D01*
X96694523Y-73281904D01*
X96646904Y-73377142D01*
X96599285Y-73424761D01*
X96504047Y-73472380D01*
X96218333Y-73472380D01*
X96123095Y-73424761D01*
X96075476Y-73377142D01*
X166997142Y-81637142D02*
X166949523Y-81684761D01*
X166806666Y-81732380D01*
X166711428Y-81732380D01*
X166568571Y-81684761D01*
X166473333Y-81589523D01*
X166425714Y-81494285D01*
X166378095Y-81303809D01*
X166378095Y-81160952D01*
X166425714Y-80970476D01*
X166473333Y-80875238D01*
X166568571Y-80780000D01*
X166711428Y-80732380D01*
X166806666Y-80732380D01*
X166949523Y-80780000D01*
X166997142Y-80827619D01*
X167949523Y-81732380D02*
X167378095Y-81732380D01*
X167663809Y-81732380D02*
X167663809Y-80732380D01*
X167568571Y-80875238D01*
X167473333Y-80970476D01*
X167378095Y-81018095D01*
X168806666Y-80732380D02*
X168616190Y-80732380D01*
X168520952Y-80780000D01*
X168473333Y-80827619D01*
X168378095Y-80970476D01*
X168330476Y-81160952D01*
X168330476Y-81541904D01*
X168378095Y-81637142D01*
X168425714Y-81684761D01*
X168520952Y-81732380D01*
X168711428Y-81732380D01*
X168806666Y-81684761D01*
X168854285Y-81637142D01*
X168901904Y-81541904D01*
X168901904Y-81303809D01*
X168854285Y-81208571D01*
X168806666Y-81160952D01*
X168711428Y-81113333D01*
X168520952Y-81113333D01*
X168425714Y-81160952D01*
X168378095Y-81208571D01*
X168330476Y-81303809D01*
X163028333Y-74747380D02*
X162552142Y-74747380D01*
X162552142Y-73747380D01*
X163266428Y-73747380D02*
X163885476Y-73747380D01*
X163552142Y-74128333D01*
X163695000Y-74128333D01*
X163790238Y-74175952D01*
X163837857Y-74223571D01*
X163885476Y-74318809D01*
X163885476Y-74556904D01*
X163837857Y-74652142D01*
X163790238Y-74699761D01*
X163695000Y-74747380D01*
X163409285Y-74747380D01*
X163314047Y-74699761D01*
X163266428Y-74652142D01*
X85900833Y-86712142D02*
X85853214Y-86759761D01*
X85710357Y-86807380D01*
X85615119Y-86807380D01*
X85472261Y-86759761D01*
X85377023Y-86664523D01*
X85329404Y-86569285D01*
X85281785Y-86378809D01*
X85281785Y-86235952D01*
X85329404Y-86045476D01*
X85377023Y-85950238D01*
X85472261Y-85855000D01*
X85615119Y-85807380D01*
X85710357Y-85807380D01*
X85853214Y-85855000D01*
X85900833Y-85902619D01*
X86805595Y-85807380D02*
X86329404Y-85807380D01*
X86281785Y-86283571D01*
X86329404Y-86235952D01*
X86424642Y-86188333D01*
X86662738Y-86188333D01*
X86757976Y-86235952D01*
X86805595Y-86283571D01*
X86853214Y-86378809D01*
X86853214Y-86616904D01*
X86805595Y-86712142D01*
X86757976Y-86759761D01*
X86662738Y-86807380D01*
X86424642Y-86807380D01*
X86329404Y-86759761D01*
X86281785Y-86712142D01*
X79041666Y-60407380D02*
X79041666Y-61121666D01*
X78994047Y-61264523D01*
X78898809Y-61359761D01*
X78755952Y-61407380D01*
X78660714Y-61407380D01*
X79660714Y-60835952D02*
X79565476Y-60788333D01*
X79517857Y-60740714D01*
X79470238Y-60645476D01*
X79470238Y-60597857D01*
X79517857Y-60502619D01*
X79565476Y-60455000D01*
X79660714Y-60407380D01*
X79851190Y-60407380D01*
X79946428Y-60455000D01*
X79994047Y-60502619D01*
X80041666Y-60597857D01*
X80041666Y-60645476D01*
X79994047Y-60740714D01*
X79946428Y-60788333D01*
X79851190Y-60835952D01*
X79660714Y-60835952D01*
X79565476Y-60883571D01*
X79517857Y-60931190D01*
X79470238Y-61026428D01*
X79470238Y-61216904D01*
X79517857Y-61312142D01*
X79565476Y-61359761D01*
X79660714Y-61407380D01*
X79851190Y-61407380D01*
X79946428Y-61359761D01*
X79994047Y-61312142D01*
X80041666Y-61216904D01*
X80041666Y-61026428D01*
X79994047Y-60931190D01*
X79946428Y-60883571D01*
X79851190Y-60835952D01*
X76192142Y-70175380D02*
X75858809Y-69699190D01*
X75620714Y-70175380D02*
X75620714Y-69175380D01*
X76001666Y-69175380D01*
X76096904Y-69223000D01*
X76144523Y-69270619D01*
X76192142Y-69365857D01*
X76192142Y-69508714D01*
X76144523Y-69603952D01*
X76096904Y-69651571D01*
X76001666Y-69699190D01*
X75620714Y-69699190D01*
X77144523Y-70175380D02*
X76573095Y-70175380D01*
X76858809Y-70175380D02*
X76858809Y-69175380D01*
X76763571Y-69318238D01*
X76668333Y-69413476D01*
X76573095Y-69461095D01*
X77763571Y-69175380D02*
X77858809Y-69175380D01*
X77954047Y-69223000D01*
X78001666Y-69270619D01*
X78049285Y-69365857D01*
X78096904Y-69556333D01*
X78096904Y-69794428D01*
X78049285Y-69984904D01*
X78001666Y-70080142D01*
X77954047Y-70127761D01*
X77858809Y-70175380D01*
X77763571Y-70175380D01*
X77668333Y-70127761D01*
X77620714Y-70080142D01*
X77573095Y-69984904D01*
X77525476Y-69794428D01*
X77525476Y-69556333D01*
X77573095Y-69365857D01*
X77620714Y-69270619D01*
X77668333Y-69223000D01*
X77763571Y-69175380D01*
X92543333Y-103317380D02*
X92210000Y-102841190D01*
X91971904Y-103317380D02*
X91971904Y-102317380D01*
X92352857Y-102317380D01*
X92448095Y-102365000D01*
X92495714Y-102412619D01*
X92543333Y-102507857D01*
X92543333Y-102650714D01*
X92495714Y-102745952D01*
X92448095Y-102793571D01*
X92352857Y-102841190D01*
X91971904Y-102841190D01*
X92876666Y-102317380D02*
X93495714Y-102317380D01*
X93162380Y-102698333D01*
X93305238Y-102698333D01*
X93400476Y-102745952D01*
X93448095Y-102793571D01*
X93495714Y-102888809D01*
X93495714Y-103126904D01*
X93448095Y-103222142D01*
X93400476Y-103269761D01*
X93305238Y-103317380D01*
X93019523Y-103317380D01*
X92924285Y-103269761D01*
X92876666Y-103222142D01*
X166997142Y-74017142D02*
X166949523Y-74064761D01*
X166806666Y-74112380D01*
X166711428Y-74112380D01*
X166568571Y-74064761D01*
X166473333Y-73969523D01*
X166425714Y-73874285D01*
X166378095Y-73683809D01*
X166378095Y-73540952D01*
X166425714Y-73350476D01*
X166473333Y-73255238D01*
X166568571Y-73160000D01*
X166711428Y-73112380D01*
X166806666Y-73112380D01*
X166949523Y-73160000D01*
X166997142Y-73207619D01*
X167949523Y-74112380D02*
X167378095Y-74112380D01*
X167663809Y-74112380D02*
X167663809Y-73112380D01*
X167568571Y-73255238D01*
X167473333Y-73350476D01*
X167378095Y-73398095D01*
X168282857Y-73112380D02*
X168949523Y-73112380D01*
X168520952Y-74112380D01*
X153662142Y-78552380D02*
X153328809Y-78076190D01*
X153090714Y-78552380D02*
X153090714Y-77552380D01*
X153471666Y-77552380D01*
X153566904Y-77600000D01*
X153614523Y-77647619D01*
X153662142Y-77742857D01*
X153662142Y-77885714D01*
X153614523Y-77980952D01*
X153566904Y-78028571D01*
X153471666Y-78076190D01*
X153090714Y-78076190D01*
X154614523Y-78552380D02*
X154043095Y-78552380D01*
X154328809Y-78552380D02*
X154328809Y-77552380D01*
X154233571Y-77695238D01*
X154138333Y-77790476D01*
X154043095Y-77838095D01*
X154947857Y-77552380D02*
X155566904Y-77552380D01*
X155233571Y-77933333D01*
X155376428Y-77933333D01*
X155471666Y-77980952D01*
X155519285Y-78028571D01*
X155566904Y-78123809D01*
X155566904Y-78361904D01*
X155519285Y-78457142D01*
X155471666Y-78504761D01*
X155376428Y-78552380D01*
X155090714Y-78552380D01*
X154995476Y-78504761D01*
X154947857Y-78457142D01*
X96353333Y-103317380D02*
X96020000Y-102841190D01*
X95781904Y-103317380D02*
X95781904Y-102317380D01*
X96162857Y-102317380D01*
X96258095Y-102365000D01*
X96305714Y-102412619D01*
X96353333Y-102507857D01*
X96353333Y-102650714D01*
X96305714Y-102745952D01*
X96258095Y-102793571D01*
X96162857Y-102841190D01*
X95781904Y-102841190D01*
X96734285Y-102412619D02*
X96781904Y-102365000D01*
X96877142Y-102317380D01*
X97115238Y-102317380D01*
X97210476Y-102365000D01*
X97258095Y-102412619D01*
X97305714Y-102507857D01*
X97305714Y-102603095D01*
X97258095Y-102745952D01*
X96686666Y-103317380D01*
X97305714Y-103317380D01*
X131881666Y-116922380D02*
X131881666Y-117636666D01*
X131834047Y-117779523D01*
X131738809Y-117874761D01*
X131595952Y-117922380D01*
X131500714Y-117922380D01*
X132357857Y-117922380D02*
X132357857Y-116922380D01*
X132738809Y-116922380D01*
X132834047Y-116970000D01*
X132881666Y-117017619D01*
X132929285Y-117112857D01*
X132929285Y-117255714D01*
X132881666Y-117350952D01*
X132834047Y-117398571D01*
X132738809Y-117446190D01*
X132357857Y-117446190D01*
X133262619Y-116922380D02*
X133929285Y-116922380D01*
X133500714Y-117922380D01*
X105878333Y-101317142D02*
X105830714Y-101364761D01*
X105687857Y-101412380D01*
X105592619Y-101412380D01*
X105449761Y-101364761D01*
X105354523Y-101269523D01*
X105306904Y-101174285D01*
X105259285Y-100983809D01*
X105259285Y-100840952D01*
X105306904Y-100650476D01*
X105354523Y-100555238D01*
X105449761Y-100460000D01*
X105592619Y-100412380D01*
X105687857Y-100412380D01*
X105830714Y-100460000D01*
X105878333Y-100507619D01*
X106830714Y-101412380D02*
X106259285Y-101412380D01*
X106545000Y-101412380D02*
X106545000Y-100412380D01*
X106449761Y-100555238D01*
X106354523Y-100650476D01*
X106259285Y-100698095D01*
X163028333Y-82367380D02*
X162552142Y-82367380D01*
X162552142Y-81367380D01*
X163314047Y-81462619D02*
X163361666Y-81415000D01*
X163456904Y-81367380D01*
X163695000Y-81367380D01*
X163790238Y-81415000D01*
X163837857Y-81462619D01*
X163885476Y-81557857D01*
X163885476Y-81653095D01*
X163837857Y-81795952D01*
X163266428Y-82367380D01*
X163885476Y-82367380D01*
X179062142Y-81732380D02*
X178728809Y-81256190D01*
X178490714Y-81732380D02*
X178490714Y-80732380D01*
X178871666Y-80732380D01*
X178966904Y-80780000D01*
X179014523Y-80827619D01*
X179062142Y-80922857D01*
X179062142Y-81065714D01*
X179014523Y-81160952D01*
X178966904Y-81208571D01*
X178871666Y-81256190D01*
X178490714Y-81256190D01*
X179443095Y-80827619D02*
X179490714Y-80780000D01*
X179585952Y-80732380D01*
X179824047Y-80732380D01*
X179919285Y-80780000D01*
X179966904Y-80827619D01*
X180014523Y-80922857D01*
X180014523Y-81018095D01*
X179966904Y-81160952D01*
X179395476Y-81732380D01*
X180014523Y-81732380D01*
X180966904Y-81732380D02*
X180395476Y-81732380D01*
X180681190Y-81732380D02*
X180681190Y-80732380D01*
X180585952Y-80875238D01*
X180490714Y-80970476D01*
X180395476Y-81018095D01*
X81716666Y-82627380D02*
X81716666Y-83341666D01*
X81669047Y-83484523D01*
X81573809Y-83579761D01*
X81430952Y-83627380D01*
X81335714Y-83627380D01*
X82192857Y-83627380D02*
X82192857Y-82627380D01*
X82573809Y-82627380D01*
X82669047Y-82675000D01*
X82716666Y-82722619D01*
X82764285Y-82817857D01*
X82764285Y-82960714D01*
X82716666Y-83055952D01*
X82669047Y-83103571D01*
X82573809Y-83151190D01*
X82192857Y-83151190D01*
X83621428Y-82960714D02*
X83621428Y-83627380D01*
X83383333Y-82579761D02*
X83145238Y-83294047D01*
X83764285Y-83294047D01*
X201120476Y-120732380D02*
X201120476Y-121446666D01*
X201072857Y-121589523D01*
X200977619Y-121684761D01*
X200834761Y-121732380D01*
X200739523Y-121732380D01*
X202120476Y-121732380D02*
X201549047Y-121732380D01*
X201834761Y-121732380D02*
X201834761Y-120732380D01*
X201739523Y-120875238D01*
X201644285Y-120970476D01*
X201549047Y-121018095D01*
X202739523Y-120732380D02*
X202834761Y-120732380D01*
X202930000Y-120780000D01*
X202977619Y-120827619D01*
X203025238Y-120922857D01*
X203072857Y-121113333D01*
X203072857Y-121351428D01*
X203025238Y-121541904D01*
X202977619Y-121637142D01*
X202930000Y-121684761D01*
X202834761Y-121732380D01*
X202739523Y-121732380D01*
X202644285Y-121684761D01*
X202596666Y-121637142D01*
X202549047Y-121541904D01*
X202501428Y-121351428D01*
X202501428Y-121113333D01*
X202549047Y-120922857D01*
X202596666Y-120827619D01*
X202644285Y-120780000D01*
X202739523Y-120732380D01*
X105878333Y-96237142D02*
X105830714Y-96284761D01*
X105687857Y-96332380D01*
X105592619Y-96332380D01*
X105449761Y-96284761D01*
X105354523Y-96189523D01*
X105306904Y-96094285D01*
X105259285Y-95903809D01*
X105259285Y-95760952D01*
X105306904Y-95570476D01*
X105354523Y-95475238D01*
X105449761Y-95380000D01*
X105592619Y-95332380D01*
X105687857Y-95332380D01*
X105830714Y-95380000D01*
X105878333Y-95427619D01*
X106259285Y-95427619D02*
X106306904Y-95380000D01*
X106402142Y-95332380D01*
X106640238Y-95332380D01*
X106735476Y-95380000D01*
X106783095Y-95427619D01*
X106830714Y-95522857D01*
X106830714Y-95618095D01*
X106783095Y-95760952D01*
X106211666Y-96332380D01*
X106830714Y-96332380D01*
X86193333Y-82267142D02*
X86145714Y-82314761D01*
X86002857Y-82362380D01*
X85907619Y-82362380D01*
X85764761Y-82314761D01*
X85669523Y-82219523D01*
X85621904Y-82124285D01*
X85574285Y-81933809D01*
X85574285Y-81790952D01*
X85621904Y-81600476D01*
X85669523Y-81505238D01*
X85764761Y-81410000D01*
X85907619Y-81362380D01*
X86002857Y-81362380D01*
X86145714Y-81410000D01*
X86193333Y-81457619D01*
X87050476Y-81362380D02*
X86860000Y-81362380D01*
X86764761Y-81410000D01*
X86717142Y-81457619D01*
X86621904Y-81600476D01*
X86574285Y-81790952D01*
X86574285Y-82171904D01*
X86621904Y-82267142D01*
X86669523Y-82314761D01*
X86764761Y-82362380D01*
X86955238Y-82362380D01*
X87050476Y-82314761D01*
X87098095Y-82267142D01*
X87145714Y-82171904D01*
X87145714Y-81933809D01*
X87098095Y-81838571D01*
X87050476Y-81790952D01*
X86955238Y-81743333D01*
X86764761Y-81743333D01*
X86669523Y-81790952D01*
X86621904Y-81838571D01*
X86574285Y-81933809D01*
X155448095Y-95967380D02*
X155448095Y-96776904D01*
X155495714Y-96872142D01*
X155543333Y-96919761D01*
X155638571Y-96967380D01*
X155829047Y-96967380D01*
X155924285Y-96919761D01*
X155971904Y-96872142D01*
X156019523Y-96776904D01*
X156019523Y-95967380D01*
X156971904Y-95967380D02*
X156495714Y-95967380D01*
X156448095Y-96443571D01*
X156495714Y-96395952D01*
X156590952Y-96348333D01*
X156829047Y-96348333D01*
X156924285Y-96395952D01*
X156971904Y-96443571D01*
X157019523Y-96538809D01*
X157019523Y-96776904D01*
X156971904Y-96872142D01*
X156924285Y-96919761D01*
X156829047Y-96967380D01*
X156590952Y-96967380D01*
X156495714Y-96919761D01*
X156448095Y-96872142D01*
X97663095Y-93427380D02*
X97663095Y-94236904D01*
X97710714Y-94332142D01*
X97758333Y-94379761D01*
X97853571Y-94427380D01*
X98044047Y-94427380D01*
X98139285Y-94379761D01*
X98186904Y-94332142D01*
X98234523Y-94236904D01*
X98234523Y-93427380D01*
X99234523Y-94427380D02*
X98663095Y-94427380D01*
X98948809Y-94427380D02*
X98948809Y-93427380D01*
X98853571Y-93570238D01*
X98758333Y-93665476D01*
X98663095Y-93713095D01*
X201731666Y-116922380D02*
X201731666Y-117636666D01*
X201684047Y-117779523D01*
X201588809Y-117874761D01*
X201445952Y-117922380D01*
X201350714Y-117922380D01*
X202207857Y-117922380D02*
X202207857Y-116922380D01*
X202588809Y-116922380D01*
X202684047Y-116970000D01*
X202731666Y-117017619D01*
X202779285Y-117112857D01*
X202779285Y-117255714D01*
X202731666Y-117350952D01*
X202684047Y-117398571D01*
X202588809Y-117446190D01*
X202207857Y-117446190D01*
X203350714Y-117350952D02*
X203255476Y-117303333D01*
X203207857Y-117255714D01*
X203160238Y-117160476D01*
X203160238Y-117112857D01*
X203207857Y-117017619D01*
X203255476Y-116970000D01*
X203350714Y-116922380D01*
X203541190Y-116922380D01*
X203636428Y-116970000D01*
X203684047Y-117017619D01*
X203731666Y-117112857D01*
X203731666Y-117160476D01*
X203684047Y-117255714D01*
X203636428Y-117303333D01*
X203541190Y-117350952D01*
X203350714Y-117350952D01*
X203255476Y-117398571D01*
X203207857Y-117446190D01*
X203160238Y-117541428D01*
X203160238Y-117731904D01*
X203207857Y-117827142D01*
X203255476Y-117874761D01*
X203350714Y-117922380D01*
X203541190Y-117922380D01*
X203636428Y-117874761D01*
X203684047Y-117827142D01*
X203731666Y-117731904D01*
X203731666Y-117541428D01*
X203684047Y-117446190D01*
X203636428Y-117398571D01*
X203541190Y-117350952D01*
X88098333Y-70202142D02*
X88050714Y-70249761D01*
X87907857Y-70297380D01*
X87812619Y-70297380D01*
X87669761Y-70249761D01*
X87574523Y-70154523D01*
X87526904Y-70059285D01*
X87479285Y-69868809D01*
X87479285Y-69725952D01*
X87526904Y-69535476D01*
X87574523Y-69440238D01*
X87669761Y-69345000D01*
X87812619Y-69297380D01*
X87907857Y-69297380D01*
X88050714Y-69345000D01*
X88098333Y-69392619D01*
X88431666Y-69297380D02*
X89098333Y-69297380D01*
X88669761Y-70297380D01*
X179062142Y-89352380D02*
X178728809Y-88876190D01*
X178490714Y-89352380D02*
X178490714Y-88352380D01*
X178871666Y-88352380D01*
X178966904Y-88400000D01*
X179014523Y-88447619D01*
X179062142Y-88542857D01*
X179062142Y-88685714D01*
X179014523Y-88780952D01*
X178966904Y-88828571D01*
X178871666Y-88876190D01*
X178490714Y-88876190D01*
X179443095Y-88447619D02*
X179490714Y-88400000D01*
X179585952Y-88352380D01*
X179824047Y-88352380D01*
X179919285Y-88400000D01*
X179966904Y-88447619D01*
X180014523Y-88542857D01*
X180014523Y-88638095D01*
X179966904Y-88780952D01*
X179395476Y-89352380D01*
X180014523Y-89352380D01*
X180633571Y-88352380D02*
X180728809Y-88352380D01*
X180824047Y-88400000D01*
X180871666Y-88447619D01*
X180919285Y-88542857D01*
X180966904Y-88733333D01*
X180966904Y-88971428D01*
X180919285Y-89161904D01*
X180871666Y-89257142D01*
X180824047Y-89304761D01*
X180728809Y-89352380D01*
X180633571Y-89352380D01*
X180538333Y-89304761D01*
X180490714Y-89257142D01*
X180443095Y-89161904D01*
X180395476Y-88971428D01*
X180395476Y-88733333D01*
X180443095Y-88542857D01*
X180490714Y-88447619D01*
X180538333Y-88400000D01*
X180633571Y-88352380D01*
X153662142Y-82362380D02*
X153328809Y-81886190D01*
X153090714Y-82362380D02*
X153090714Y-81362380D01*
X153471666Y-81362380D01*
X153566904Y-81410000D01*
X153614523Y-81457619D01*
X153662142Y-81552857D01*
X153662142Y-81695714D01*
X153614523Y-81790952D01*
X153566904Y-81838571D01*
X153471666Y-81886190D01*
X153090714Y-81886190D01*
X154614523Y-82362380D02*
X154043095Y-82362380D01*
X154328809Y-82362380D02*
X154328809Y-81362380D01*
X154233571Y-81505238D01*
X154138333Y-81600476D01*
X154043095Y-81648095D01*
X155185952Y-81790952D02*
X155090714Y-81743333D01*
X155043095Y-81695714D01*
X154995476Y-81600476D01*
X154995476Y-81552857D01*
X155043095Y-81457619D01*
X155090714Y-81410000D01*
X155185952Y-81362380D01*
X155376428Y-81362380D01*
X155471666Y-81410000D01*
X155519285Y-81457619D01*
X155566904Y-81552857D01*
X155566904Y-81600476D01*
X155519285Y-81695714D01*
X155471666Y-81743333D01*
X155376428Y-81790952D01*
X155185952Y-81790952D01*
X155090714Y-81838571D01*
X155043095Y-81886190D01*
X154995476Y-81981428D01*
X154995476Y-82171904D01*
X155043095Y-82267142D01*
X155090714Y-82314761D01*
X155185952Y-82362380D01*
X155376428Y-82362380D01*
X155471666Y-82314761D01*
X155519285Y-82267142D01*
X155566904Y-82171904D01*
X155566904Y-81981428D01*
X155519285Y-81886190D01*
X155471666Y-81838571D01*
X155376428Y-81790952D01*
X171918333Y-74747380D02*
X171442142Y-74747380D01*
X171442142Y-73747380D01*
X172680238Y-73747380D02*
X172489761Y-73747380D01*
X172394523Y-73795000D01*
X172346904Y-73842619D01*
X172251666Y-73985476D01*
X172204047Y-74175952D01*
X172204047Y-74556904D01*
X172251666Y-74652142D01*
X172299285Y-74699761D01*
X172394523Y-74747380D01*
X172585000Y-74747380D01*
X172680238Y-74699761D01*
X172727857Y-74652142D01*
X172775476Y-74556904D01*
X172775476Y-74318809D01*
X172727857Y-74223571D01*
X172680238Y-74175952D01*
X172585000Y-74128333D01*
X172394523Y-74128333D01*
X172299285Y-74175952D01*
X172251666Y-74223571D01*
X172204047Y-74318809D01*
X152066666Y-59772380D02*
X152066666Y-60486666D01*
X152019047Y-60629523D01*
X151923809Y-60724761D01*
X151780952Y-60772380D01*
X151685714Y-60772380D01*
X152447619Y-59772380D02*
X153114285Y-59772380D01*
X152685714Y-60772380D01*
X175887142Y-81637142D02*
X175839523Y-81684761D01*
X175696666Y-81732380D01*
X175601428Y-81732380D01*
X175458571Y-81684761D01*
X175363333Y-81589523D01*
X175315714Y-81494285D01*
X175268095Y-81303809D01*
X175268095Y-81160952D01*
X175315714Y-80970476D01*
X175363333Y-80875238D01*
X175458571Y-80780000D01*
X175601428Y-80732380D01*
X175696666Y-80732380D01*
X175839523Y-80780000D01*
X175887142Y-80827619D01*
X176839523Y-81732380D02*
X176268095Y-81732380D01*
X176553809Y-81732380D02*
X176553809Y-80732380D01*
X176458571Y-80875238D01*
X176363333Y-80970476D01*
X176268095Y-81018095D01*
X177315714Y-81732380D02*
X177506190Y-81732380D01*
X177601428Y-81684761D01*
X177649047Y-81637142D01*
X177744285Y-81494285D01*
X177791904Y-81303809D01*
X177791904Y-80922857D01*
X177744285Y-80827619D01*
X177696666Y-80780000D01*
X177601428Y-80732380D01*
X177410952Y-80732380D01*
X177315714Y-80780000D01*
X177268095Y-80827619D01*
X177220476Y-80922857D01*
X177220476Y-81160952D01*
X177268095Y-81256190D01*
X177315714Y-81303809D01*
X177410952Y-81351428D01*
X177601428Y-81351428D01*
X177696666Y-81303809D01*
X177744285Y-81256190D01*
X177791904Y-81160952D01*
X81907142Y-66265142D02*
X81859523Y-66312761D01*
X81716666Y-66360380D01*
X81621428Y-66360380D01*
X81478571Y-66312761D01*
X81383333Y-66217523D01*
X81335714Y-66122285D01*
X81288095Y-65931809D01*
X81288095Y-65788952D01*
X81335714Y-65598476D01*
X81383333Y-65503238D01*
X81478571Y-65408000D01*
X81621428Y-65360380D01*
X81716666Y-65360380D01*
X81859523Y-65408000D01*
X81907142Y-65455619D01*
X82859523Y-66360380D02*
X82288095Y-66360380D01*
X82573809Y-66360380D02*
X82573809Y-65360380D01*
X82478571Y-65503238D01*
X82383333Y-65598476D01*
X82288095Y-65646095D01*
X83811904Y-66360380D02*
X83240476Y-66360380D01*
X83526190Y-66360380D02*
X83526190Y-65360380D01*
X83430952Y-65503238D01*
X83335714Y-65598476D01*
X83240476Y-65646095D01*
X99528333Y-70202142D02*
X99480714Y-70249761D01*
X99337857Y-70297380D01*
X99242619Y-70297380D01*
X99099761Y-70249761D01*
X99004523Y-70154523D01*
X98956904Y-70059285D01*
X98909285Y-69868809D01*
X98909285Y-69725952D01*
X98956904Y-69535476D01*
X99004523Y-69440238D01*
X99099761Y-69345000D01*
X99242619Y-69297380D01*
X99337857Y-69297380D01*
X99480714Y-69345000D01*
X99528333Y-69392619D01*
X99861666Y-69297380D02*
X100480714Y-69297380D01*
X100147380Y-69678333D01*
X100290238Y-69678333D01*
X100385476Y-69725952D01*
X100433095Y-69773571D01*
X100480714Y-69868809D01*
X100480714Y-70106904D01*
X100433095Y-70202142D01*
X100385476Y-70249761D01*
X100290238Y-70297380D01*
X100004523Y-70297380D01*
X99909285Y-70249761D01*
X99861666Y-70202142D01*
X202946666Y-85807380D02*
X202946666Y-86521666D01*
X202899047Y-86664523D01*
X202803809Y-86759761D01*
X202660952Y-86807380D01*
X202565714Y-86807380D01*
X203375238Y-85902619D02*
X203422857Y-85855000D01*
X203518095Y-85807380D01*
X203756190Y-85807380D01*
X203851428Y-85855000D01*
X203899047Y-85902619D01*
X203946666Y-85997857D01*
X203946666Y-86093095D01*
X203899047Y-86235952D01*
X203327619Y-86807380D01*
X203946666Y-86807380D01*
X153662142Y-86172380D02*
X153328809Y-85696190D01*
X153090714Y-86172380D02*
X153090714Y-85172380D01*
X153471666Y-85172380D01*
X153566904Y-85220000D01*
X153614523Y-85267619D01*
X153662142Y-85362857D01*
X153662142Y-85505714D01*
X153614523Y-85600952D01*
X153566904Y-85648571D01*
X153471666Y-85696190D01*
X153090714Y-85696190D01*
X154614523Y-86172380D02*
X154043095Y-86172380D01*
X154328809Y-86172380D02*
X154328809Y-85172380D01*
X154233571Y-85315238D01*
X154138333Y-85410476D01*
X154043095Y-85458095D01*
X154995476Y-85267619D02*
X155043095Y-85220000D01*
X155138333Y-85172380D01*
X155376428Y-85172380D01*
X155471666Y-85220000D01*
X155519285Y-85267619D01*
X155566904Y-85362857D01*
X155566904Y-85458095D01*
X155519285Y-85600952D01*
X154947857Y-86172380D01*
X155566904Y-86172380D01*
X95425833Y-85447142D02*
X95378214Y-85494761D01*
X95235357Y-85542380D01*
X95140119Y-85542380D01*
X94997261Y-85494761D01*
X94902023Y-85399523D01*
X94854404Y-85304285D01*
X94806785Y-85113809D01*
X94806785Y-84970952D01*
X94854404Y-84780476D01*
X94902023Y-84685238D01*
X94997261Y-84590000D01*
X95140119Y-84542380D01*
X95235357Y-84542380D01*
X95378214Y-84590000D01*
X95425833Y-84637619D01*
X95997261Y-84970952D02*
X95902023Y-84923333D01*
X95854404Y-84875714D01*
X95806785Y-84780476D01*
X95806785Y-84732857D01*
X95854404Y-84637619D01*
X95902023Y-84590000D01*
X95997261Y-84542380D01*
X96187738Y-84542380D01*
X96282976Y-84590000D01*
X96330595Y-84637619D01*
X96378214Y-84732857D01*
X96378214Y-84780476D01*
X96330595Y-84875714D01*
X96282976Y-84923333D01*
X96187738Y-84970952D01*
X95997261Y-84970952D01*
X95902023Y-85018571D01*
X95854404Y-85066190D01*
X95806785Y-85161428D01*
X95806785Y-85351904D01*
X95854404Y-85447142D01*
X95902023Y-85494761D01*
X95997261Y-85542380D01*
X96187738Y-85542380D01*
X96282976Y-85494761D01*
X96330595Y-85447142D01*
X96378214Y-85351904D01*
X96378214Y-85161428D01*
X96330595Y-85066190D01*
X96282976Y-85018571D01*
X96187738Y-84970952D01*
X93813333Y-70297380D02*
X93480000Y-69821190D01*
X93241904Y-70297380D02*
X93241904Y-69297380D01*
X93622857Y-69297380D01*
X93718095Y-69345000D01*
X93765714Y-69392619D01*
X93813333Y-69487857D01*
X93813333Y-69630714D01*
X93765714Y-69725952D01*
X93718095Y-69773571D01*
X93622857Y-69821190D01*
X93241904Y-69821190D01*
X94670476Y-69297380D02*
X94480000Y-69297380D01*
X94384761Y-69345000D01*
X94337142Y-69392619D01*
X94241904Y-69535476D01*
X94194285Y-69725952D01*
X94194285Y-70106904D01*
X94241904Y-70202142D01*
X94289523Y-70249761D01*
X94384761Y-70297380D01*
X94575238Y-70297380D01*
X94670476Y-70249761D01*
X94718095Y-70202142D01*
X94765714Y-70106904D01*
X94765714Y-69868809D01*
X94718095Y-69773571D01*
X94670476Y-69725952D01*
X94575238Y-69678333D01*
X94384761Y-69678333D01*
X94289523Y-69725952D01*
X94241904Y-69773571D01*
X94194285Y-69868809D01*
X88098333Y-66487380D02*
X87765000Y-66011190D01*
X87526904Y-66487380D02*
X87526904Y-65487380D01*
X87907857Y-65487380D01*
X88003095Y-65535000D01*
X88050714Y-65582619D01*
X88098333Y-65677857D01*
X88098333Y-65820714D01*
X88050714Y-65915952D01*
X88003095Y-65963571D01*
X87907857Y-66011190D01*
X87526904Y-66011190D01*
X88574523Y-66487380D02*
X88765000Y-66487380D01*
X88860238Y-66439761D01*
X88907857Y-66392142D01*
X89003095Y-66249285D01*
X89050714Y-66058809D01*
X89050714Y-65677857D01*
X89003095Y-65582619D01*
X88955476Y-65535000D01*
X88860238Y-65487380D01*
X88669761Y-65487380D01*
X88574523Y-65535000D01*
X88526904Y-65582619D01*
X88479285Y-65677857D01*
X88479285Y-65915952D01*
X88526904Y-66011190D01*
X88574523Y-66058809D01*
X88669761Y-66106428D01*
X88860238Y-66106428D01*
X88955476Y-66058809D01*
X89003095Y-66011190D01*
X89050714Y-65915952D01*
X122889642Y-56287142D02*
X122842023Y-56334761D01*
X122699166Y-56382380D01*
X122603928Y-56382380D01*
X122461071Y-56334761D01*
X122365833Y-56239523D01*
X122318214Y-56144285D01*
X122270595Y-55953809D01*
X122270595Y-55810952D01*
X122318214Y-55620476D01*
X122365833Y-55525238D01*
X122461071Y-55430000D01*
X122603928Y-55382380D01*
X122699166Y-55382380D01*
X122842023Y-55430000D01*
X122889642Y-55477619D01*
X123270595Y-55477619D02*
X123318214Y-55430000D01*
X123413452Y-55382380D01*
X123651547Y-55382380D01*
X123746785Y-55430000D01*
X123794404Y-55477619D01*
X123842023Y-55572857D01*
X123842023Y-55668095D01*
X123794404Y-55810952D01*
X123222976Y-56382380D01*
X123842023Y-56382380D01*
X124175357Y-55382380D02*
X124794404Y-55382380D01*
X124461071Y-55763333D01*
X124603928Y-55763333D01*
X124699166Y-55810952D01*
X124746785Y-55858571D01*
X124794404Y-55953809D01*
X124794404Y-56191904D01*
X124746785Y-56287142D01*
X124699166Y-56334761D01*
X124603928Y-56382380D01*
X124318214Y-56382380D01*
X124222976Y-56334761D01*
X124175357Y-56287142D01*
X132540476Y-120727380D02*
X132540476Y-121441666D01*
X132492857Y-121584523D01*
X132397619Y-121679761D01*
X132254761Y-121727380D01*
X132159523Y-121727380D01*
X133540476Y-121727380D02*
X132969047Y-121727380D01*
X133254761Y-121727380D02*
X133254761Y-120727380D01*
X133159523Y-120870238D01*
X133064285Y-120965476D01*
X132969047Y-121013095D01*
X134492857Y-121727380D02*
X133921428Y-121727380D01*
X134207142Y-121727380D02*
X134207142Y-120727380D01*
X134111904Y-120870238D01*
X134016666Y-120965476D01*
X133921428Y-121013095D01*
X99528333Y-82217142D02*
X99480714Y-82264761D01*
X99337857Y-82312380D01*
X99242619Y-82312380D01*
X99099761Y-82264761D01*
X99004523Y-82169523D01*
X98956904Y-82074285D01*
X98909285Y-81883809D01*
X98909285Y-81740952D01*
X98956904Y-81550476D01*
X99004523Y-81455238D01*
X99099761Y-81360000D01*
X99242619Y-81312380D01*
X99337857Y-81312380D01*
X99480714Y-81360000D01*
X99528333Y-81407619D01*
X100004523Y-82312380D02*
X100195000Y-82312380D01*
X100290238Y-82264761D01*
X100337857Y-82217142D01*
X100433095Y-82074285D01*
X100480714Y-81883809D01*
X100480714Y-81502857D01*
X100433095Y-81407619D01*
X100385476Y-81360000D01*
X100290238Y-81312380D01*
X100099761Y-81312380D01*
X100004523Y-81360000D01*
X99956904Y-81407619D01*
X99909285Y-81502857D01*
X99909285Y-81740952D01*
X99956904Y-81836190D01*
X100004523Y-81883809D01*
X100099761Y-81931428D01*
X100290238Y-81931428D01*
X100385476Y-81883809D01*
X100433095Y-81836190D01*
X100480714Y-81740952D01*
X171918333Y-89987380D02*
X171442142Y-89987380D01*
X171442142Y-88987380D01*
X172680238Y-89320714D02*
X172680238Y-89987380D01*
X172442142Y-88939761D02*
X172204047Y-89654047D01*
X172823095Y-89654047D01*
X102957380Y-84013333D02*
X103671666Y-84013333D01*
X103814523Y-84060952D01*
X103909761Y-84156190D01*
X103957380Y-84299047D01*
X103957380Y-84394285D01*
X103957380Y-83537142D02*
X102957380Y-83537142D01*
X102957380Y-83156190D01*
X103005000Y-83060952D01*
X103052619Y-83013333D01*
X103147857Y-82965714D01*
X103290714Y-82965714D01*
X103385952Y-83013333D01*
X103433571Y-83060952D01*
X103481190Y-83156190D01*
X103481190Y-83537142D01*
X103052619Y-82584761D02*
X103005000Y-82537142D01*
X102957380Y-82441904D01*
X102957380Y-82203809D01*
X103005000Y-82108571D01*
X103052619Y-82060952D01*
X103147857Y-82013333D01*
X103243095Y-82013333D01*
X103385952Y-82060952D01*
X103957380Y-82632380D01*
X103957380Y-82013333D01*
X201120476Y-52787380D02*
X201120476Y-53501666D01*
X201072857Y-53644523D01*
X200977619Y-53739761D01*
X200834761Y-53787380D01*
X200739523Y-53787380D01*
X202120476Y-53787380D02*
X201549047Y-53787380D01*
X201834761Y-53787380D02*
X201834761Y-52787380D01*
X201739523Y-52930238D01*
X201644285Y-53025476D01*
X201549047Y-53073095D01*
X202501428Y-52882619D02*
X202549047Y-52835000D01*
X202644285Y-52787380D01*
X202882380Y-52787380D01*
X202977619Y-52835000D01*
X203025238Y-52882619D01*
X203072857Y-52977857D01*
X203072857Y-53073095D01*
X203025238Y-53215952D01*
X202453809Y-53787380D01*
X203072857Y-53787380D01*
X201731666Y-57867380D02*
X201731666Y-58581666D01*
X201684047Y-58724523D01*
X201588809Y-58819761D01*
X201445952Y-58867380D01*
X201350714Y-58867380D01*
X202207857Y-58867380D02*
X202207857Y-57867380D01*
X202588809Y-57867380D01*
X202684047Y-57915000D01*
X202731666Y-57962619D01*
X202779285Y-58057857D01*
X202779285Y-58200714D01*
X202731666Y-58295952D01*
X202684047Y-58343571D01*
X202588809Y-58391190D01*
X202207857Y-58391190D01*
X203636428Y-57867380D02*
X203445952Y-57867380D01*
X203350714Y-57915000D01*
X203303095Y-57962619D01*
X203207857Y-58105476D01*
X203160238Y-58295952D01*
X203160238Y-58676904D01*
X203207857Y-58772142D01*
X203255476Y-58819761D01*
X203350714Y-58867380D01*
X203541190Y-58867380D01*
X203636428Y-58819761D01*
X203684047Y-58772142D01*
X203731666Y-58676904D01*
X203731666Y-58438809D01*
X203684047Y-58343571D01*
X203636428Y-58295952D01*
X203541190Y-58248333D01*
X203350714Y-58248333D01*
X203255476Y-58295952D01*
X203207857Y-58343571D01*
X203160238Y-58438809D01*
X81907142Y-70387380D02*
X81573809Y-69911190D01*
X81335714Y-70387380D02*
X81335714Y-69387380D01*
X81716666Y-69387380D01*
X81811904Y-69435000D01*
X81859523Y-69482619D01*
X81907142Y-69577857D01*
X81907142Y-69720714D01*
X81859523Y-69815952D01*
X81811904Y-69863571D01*
X81716666Y-69911190D01*
X81335714Y-69911190D01*
X82859523Y-70387380D02*
X82288095Y-70387380D01*
X82573809Y-70387380D02*
X82573809Y-69387380D01*
X82478571Y-69530238D01*
X82383333Y-69625476D01*
X82288095Y-69673095D01*
X83811904Y-70387380D02*
X83240476Y-70387380D01*
X83526190Y-70387380D02*
X83526190Y-69387380D01*
X83430952Y-69530238D01*
X83335714Y-69625476D01*
X83240476Y-69673095D01*
X197786666Y-69297380D02*
X197786666Y-70011666D01*
X197739047Y-70154523D01*
X197643809Y-70249761D01*
X197500952Y-70297380D01*
X197405714Y-70297380D01*
X198167619Y-69297380D02*
X198786666Y-69297380D01*
X198453333Y-69678333D01*
X198596190Y-69678333D01*
X198691428Y-69725952D01*
X198739047Y-69773571D01*
X198786666Y-69868809D01*
X198786666Y-70106904D01*
X198739047Y-70202142D01*
X198691428Y-70249761D01*
X198596190Y-70297380D01*
X198310476Y-70297380D01*
X198215238Y-70249761D01*
X198167619Y-70202142D01*
X175887142Y-74017142D02*
X175839523Y-74064761D01*
X175696666Y-74112380D01*
X175601428Y-74112380D01*
X175458571Y-74064761D01*
X175363333Y-73969523D01*
X175315714Y-73874285D01*
X175268095Y-73683809D01*
X175268095Y-73540952D01*
X175315714Y-73350476D01*
X175363333Y-73255238D01*
X175458571Y-73160000D01*
X175601428Y-73112380D01*
X175696666Y-73112380D01*
X175839523Y-73160000D01*
X175887142Y-73207619D01*
X176268095Y-73207619D02*
X176315714Y-73160000D01*
X176410952Y-73112380D01*
X176649047Y-73112380D01*
X176744285Y-73160000D01*
X176791904Y-73207619D01*
X176839523Y-73302857D01*
X176839523Y-73398095D01*
X176791904Y-73540952D01*
X176220476Y-74112380D01*
X176839523Y-74112380D01*
X177458571Y-73112380D02*
X177553809Y-73112380D01*
X177649047Y-73160000D01*
X177696666Y-73207619D01*
X177744285Y-73302857D01*
X177791904Y-73493333D01*
X177791904Y-73731428D01*
X177744285Y-73921904D01*
X177696666Y-74017142D01*
X177649047Y-74064761D01*
X177553809Y-74112380D01*
X177458571Y-74112380D01*
X177363333Y-74064761D01*
X177315714Y-74017142D01*
X177268095Y-73921904D01*
X177220476Y-73731428D01*
X177220476Y-73493333D01*
X177268095Y-73302857D01*
X177315714Y-73207619D01*
X177363333Y-73160000D01*
X177458571Y-73112380D01*
X189857142Y-105762142D02*
X189809523Y-105809761D01*
X189666666Y-105857380D01*
X189571428Y-105857380D01*
X189428571Y-105809761D01*
X189333333Y-105714523D01*
X189285714Y-105619285D01*
X189238095Y-105428809D01*
X189238095Y-105285952D01*
X189285714Y-105095476D01*
X189333333Y-105000238D01*
X189428571Y-104905000D01*
X189571428Y-104857380D01*
X189666666Y-104857380D01*
X189809523Y-104905000D01*
X189857142Y-104952619D01*
X190238095Y-104952619D02*
X190285714Y-104905000D01*
X190380952Y-104857380D01*
X190619047Y-104857380D01*
X190714285Y-104905000D01*
X190761904Y-104952619D01*
X190809523Y-105047857D01*
X190809523Y-105143095D01*
X190761904Y-105285952D01*
X190190476Y-105857380D01*
X190809523Y-105857380D01*
X191761904Y-105857380D02*
X191190476Y-105857380D01*
X191476190Y-105857380D02*
X191476190Y-104857380D01*
X191380952Y-105000238D01*
X191285714Y-105095476D01*
X191190476Y-105143095D01*
X194851904Y-69027380D02*
X194851904Y-68027380D01*
X195090000Y-68027380D01*
X195232857Y-68075000D01*
X195328095Y-68170238D01*
X195375714Y-68265476D01*
X195423333Y-68455952D01*
X195423333Y-68598809D01*
X195375714Y-68789285D01*
X195328095Y-68884523D01*
X195232857Y-68979761D01*
X195090000Y-69027380D01*
X194851904Y-69027380D01*
X196375714Y-69027380D02*
X195804285Y-69027380D01*
X196090000Y-69027380D02*
X196090000Y-68027380D01*
X195994761Y-68170238D01*
X195899523Y-68265476D01*
X195804285Y-68313095D01*
X97623333Y-91252380D02*
X97290000Y-90776190D01*
X97051904Y-91252380D02*
X97051904Y-90252380D01*
X97432857Y-90252380D01*
X97528095Y-90300000D01*
X97575714Y-90347619D01*
X97623333Y-90442857D01*
X97623333Y-90585714D01*
X97575714Y-90680952D01*
X97528095Y-90728571D01*
X97432857Y-90776190D01*
X97051904Y-90776190D01*
X97956666Y-90252380D02*
X98623333Y-90252380D01*
X98194761Y-91252380D01*
X142819523Y-105857380D02*
X142486190Y-105381190D01*
X142248095Y-105857380D02*
X142248095Y-104857380D01*
X142629047Y-104857380D01*
X142724285Y-104905000D01*
X142771904Y-104952619D01*
X142819523Y-105047857D01*
X142819523Y-105190714D01*
X142771904Y-105285952D01*
X142724285Y-105333571D01*
X142629047Y-105381190D01*
X142248095Y-105381190D01*
X143248095Y-105857380D02*
X143248095Y-104857380D01*
X143819523Y-105857380D01*
X143819523Y-104857380D01*
X144248095Y-104952619D02*
X144295714Y-104905000D01*
X144390952Y-104857380D01*
X144629047Y-104857380D01*
X144724285Y-104905000D01*
X144771904Y-104952619D01*
X144819523Y-105047857D01*
X144819523Y-105143095D01*
X144771904Y-105285952D01*
X144200476Y-105857380D01*
X144819523Y-105857380D01*
X153662142Y-74742380D02*
X153328809Y-74266190D01*
X153090714Y-74742380D02*
X153090714Y-73742380D01*
X153471666Y-73742380D01*
X153566904Y-73790000D01*
X153614523Y-73837619D01*
X153662142Y-73932857D01*
X153662142Y-74075714D01*
X153614523Y-74170952D01*
X153566904Y-74218571D01*
X153471666Y-74266190D01*
X153090714Y-74266190D01*
X154614523Y-74742380D02*
X154043095Y-74742380D01*
X154328809Y-74742380D02*
X154328809Y-73742380D01*
X154233571Y-73885238D01*
X154138333Y-73980476D01*
X154043095Y-74028095D01*
X155090714Y-74742380D02*
X155281190Y-74742380D01*
X155376428Y-74694761D01*
X155424047Y-74647142D01*
X155519285Y-74504285D01*
X155566904Y-74313809D01*
X155566904Y-73932857D01*
X155519285Y-73837619D01*
X155471666Y-73790000D01*
X155376428Y-73742380D01*
X155185952Y-73742380D01*
X155090714Y-73790000D01*
X155043095Y-73837619D01*
X154995476Y-73932857D01*
X154995476Y-74170952D01*
X155043095Y-74266190D01*
X155090714Y-74313809D01*
X155185952Y-74361428D01*
X155376428Y-74361428D01*
X155471666Y-74313809D01*
X155519285Y-74266190D01*
X155566904Y-74170952D01*
X105711666Y-113752380D02*
X105711666Y-114466666D01*
X105664047Y-114609523D01*
X105568809Y-114704761D01*
X105425952Y-114752380D01*
X105330714Y-114752380D01*
X106664047Y-113752380D02*
X106187857Y-113752380D01*
X106140238Y-114228571D01*
X106187857Y-114180952D01*
X106283095Y-114133333D01*
X106521190Y-114133333D01*
X106616428Y-114180952D01*
X106664047Y-114228571D01*
X106711666Y-114323809D01*
X106711666Y-114561904D01*
X106664047Y-114657142D01*
X106616428Y-114704761D01*
X106521190Y-114752380D01*
X106283095Y-114752380D01*
X106187857Y-114704761D01*
X106140238Y-114657142D01*
X166806666Y-94062380D02*
X166806666Y-94776666D01*
X166759047Y-94919523D01*
X166663809Y-95014761D01*
X166520952Y-95062380D01*
X166425714Y-95062380D01*
X167282857Y-95062380D02*
X167282857Y-94062380D01*
X167663809Y-94062380D01*
X167759047Y-94110000D01*
X167806666Y-94157619D01*
X167854285Y-94252857D01*
X167854285Y-94395714D01*
X167806666Y-94490952D01*
X167759047Y-94538571D01*
X167663809Y-94586190D01*
X167282857Y-94586190D01*
X168759047Y-94062380D02*
X168282857Y-94062380D01*
X168235238Y-94538571D01*
X168282857Y-94490952D01*
X168378095Y-94443333D01*
X168616190Y-94443333D01*
X168711428Y-94490952D01*
X168759047Y-94538571D01*
X168806666Y-94633809D01*
X168806666Y-94871904D01*
X168759047Y-94967142D01*
X168711428Y-95014761D01*
X168616190Y-95062380D01*
X168378095Y-95062380D01*
X168282857Y-95014761D01*
X168235238Y-94967142D01*
X100163333Y-103317380D02*
X99830000Y-102841190D01*
X99591904Y-103317380D02*
X99591904Y-102317380D01*
X99972857Y-102317380D01*
X100068095Y-102365000D01*
X100115714Y-102412619D01*
X100163333Y-102507857D01*
X100163333Y-102650714D01*
X100115714Y-102745952D01*
X100068095Y-102793571D01*
X99972857Y-102841190D01*
X99591904Y-102841190D01*
X101115714Y-103317380D02*
X100544285Y-103317380D01*
X100830000Y-103317380D02*
X100830000Y-102317380D01*
X100734761Y-102460238D01*
X100639523Y-102555476D01*
X100544285Y-102603095D01*
X189103095Y-95967380D02*
X189103095Y-96776904D01*
X189150714Y-96872142D01*
X189198333Y-96919761D01*
X189293571Y-96967380D01*
X189484047Y-96967380D01*
X189579285Y-96919761D01*
X189626904Y-96872142D01*
X189674523Y-96776904D01*
X189674523Y-95967380D01*
X190579285Y-96300714D02*
X190579285Y-96967380D01*
X190341190Y-95919761D02*
X190103095Y-96634047D01*
X190722142Y-96634047D01*
X163028333Y-89987380D02*
X162552142Y-89987380D01*
X162552142Y-88987380D01*
X163885476Y-89987380D02*
X163314047Y-89987380D01*
X163599761Y-89987380D02*
X163599761Y-88987380D01*
X163504523Y-89130238D01*
X163409285Y-89225476D01*
X163314047Y-89273095D01*
X76230642Y-66265142D02*
X76183023Y-66312761D01*
X76040166Y-66360380D01*
X75944928Y-66360380D01*
X75802071Y-66312761D01*
X75706833Y-66217523D01*
X75659214Y-66122285D01*
X75611595Y-65931809D01*
X75611595Y-65788952D01*
X75659214Y-65598476D01*
X75706833Y-65503238D01*
X75802071Y-65408000D01*
X75944928Y-65360380D01*
X76040166Y-65360380D01*
X76183023Y-65408000D01*
X76230642Y-65455619D01*
X77183023Y-66360380D02*
X76611595Y-66360380D01*
X76897309Y-66360380D02*
X76897309Y-65360380D01*
X76802071Y-65503238D01*
X76706833Y-65598476D01*
X76611595Y-65646095D01*
X77802071Y-65360380D02*
X77897309Y-65360380D01*
X77992547Y-65408000D01*
X78040166Y-65455619D01*
X78087785Y-65550857D01*
X78135404Y-65741333D01*
X78135404Y-65979428D01*
X78087785Y-66169904D01*
X78040166Y-66265142D01*
X77992547Y-66312761D01*
X77897309Y-66360380D01*
X77802071Y-66360380D01*
X77706833Y-66312761D01*
X77659214Y-66265142D01*
X77611595Y-66169904D01*
X77563976Y-65979428D01*
X77563976Y-65741333D01*
X77611595Y-65550857D01*
X77659214Y-65455619D01*
X77706833Y-65408000D01*
X77802071Y-65360380D01*
X119888095Y-96602380D02*
X119888095Y-97411904D01*
X119935714Y-97507142D01*
X119983333Y-97554761D01*
X120078571Y-97602380D01*
X120269047Y-97602380D01*
X120364285Y-97554761D01*
X120411904Y-97507142D01*
X120459523Y-97411904D01*
X120459523Y-96602380D01*
X120888095Y-96697619D02*
X120935714Y-96650000D01*
X121030952Y-96602380D01*
X121269047Y-96602380D01*
X121364285Y-96650000D01*
X121411904Y-96697619D01*
X121459523Y-96792857D01*
X121459523Y-96888095D01*
X121411904Y-97030952D01*
X120840476Y-97602380D01*
X121459523Y-97602380D01*
D11*
X116328571Y-106647142D02*
X116542857Y-106718571D01*
X116900000Y-106718571D01*
X117042857Y-106647142D01*
X117114285Y-106575714D01*
X117185714Y-106432857D01*
X117185714Y-106290000D01*
X117114285Y-106147142D01*
X117042857Y-106075714D01*
X116900000Y-106004285D01*
X116614285Y-105932857D01*
X116471428Y-105861428D01*
X116400000Y-105790000D01*
X116328571Y-105647142D01*
X116328571Y-105504285D01*
X116400000Y-105361428D01*
X116471428Y-105290000D01*
X116614285Y-105218571D01*
X116971428Y-105218571D01*
X117185714Y-105290000D01*
X117828571Y-106718571D02*
X117828571Y-105218571D01*
X118185714Y-105218571D01*
X118400000Y-105290000D01*
X118542857Y-105432857D01*
X118614285Y-105575714D01*
X118685714Y-105861428D01*
X118685714Y-106075714D01*
X118614285Y-106361428D01*
X118542857Y-106504285D01*
X118400000Y-106647142D01*
X118185714Y-106718571D01*
X117828571Y-106718571D01*
X121328571Y-106575714D02*
X121257142Y-106647142D01*
X121042857Y-106718571D01*
X120900000Y-106718571D01*
X120685714Y-106647142D01*
X120542857Y-106504285D01*
X120471428Y-106361428D01*
X120400000Y-106075714D01*
X120400000Y-105861428D01*
X120471428Y-105575714D01*
X120542857Y-105432857D01*
X120685714Y-105290000D01*
X120900000Y-105218571D01*
X121042857Y-105218571D01*
X121257142Y-105290000D01*
X121328571Y-105361428D01*
X122614285Y-106718571D02*
X122614285Y-105932857D01*
X122542857Y-105790000D01*
X122400000Y-105718571D01*
X122114285Y-105718571D01*
X121971428Y-105790000D01*
X122614285Y-106647142D02*
X122471428Y-106718571D01*
X122114285Y-106718571D01*
X121971428Y-106647142D01*
X121900000Y-106504285D01*
X121900000Y-106361428D01*
X121971428Y-106218571D01*
X122114285Y-106147142D01*
X122471428Y-106147142D01*
X122614285Y-106075714D01*
X123328571Y-106718571D02*
X123328571Y-105718571D01*
X123328571Y-106004285D02*
X123400000Y-105861428D01*
X123471428Y-105790000D01*
X123614285Y-105718571D01*
X123757142Y-105718571D01*
X124900000Y-106718571D02*
X124900000Y-105218571D01*
X124900000Y-106647142D02*
X124757142Y-106718571D01*
X124471428Y-106718571D01*
X124328571Y-106647142D01*
X124257142Y-106575714D01*
X124185714Y-106432857D01*
X124185714Y-106004285D01*
X124257142Y-105861428D01*
X124328571Y-105790000D01*
X124471428Y-105718571D01*
X124757142Y-105718571D01*
X124900000Y-105790000D01*
X118257142Y-54653571D02*
X118257142Y-53153571D01*
X118257142Y-53867857D02*
X119114285Y-53867857D01*
X119114285Y-54653571D02*
X119114285Y-53153571D01*
X119828571Y-54653571D02*
X119828571Y-53153571D01*
X120185714Y-53153571D01*
X120400000Y-53225000D01*
X120542857Y-53367857D01*
X120614285Y-53510714D01*
X120685714Y-53796428D01*
X120685714Y-54010714D01*
X120614285Y-54296428D01*
X120542857Y-54439285D01*
X120400000Y-54582142D01*
X120185714Y-54653571D01*
X119828571Y-54653571D01*
X121328571Y-54653571D02*
X121328571Y-53153571D01*
X121828571Y-54225000D01*
X122328571Y-53153571D01*
X122328571Y-54653571D01*
X123042857Y-54653571D02*
X123042857Y-53153571D01*
X112042857Y-69658571D02*
X112900000Y-69658571D01*
X112471428Y-71158571D02*
X112471428Y-69658571D01*
X114042857Y-71158571D02*
X114042857Y-70372857D01*
X113971428Y-70230000D01*
X113828571Y-70158571D01*
X113542857Y-70158571D01*
X113400000Y-70230000D01*
X114042857Y-71087142D02*
X113900000Y-71158571D01*
X113542857Y-71158571D01*
X113400000Y-71087142D01*
X113328571Y-70944285D01*
X113328571Y-70801428D01*
X113400000Y-70658571D01*
X113542857Y-70587142D01*
X113900000Y-70587142D01*
X114042857Y-70515714D01*
X114757142Y-70158571D02*
X114757142Y-71158571D01*
X114757142Y-70301428D02*
X114828571Y-70230000D01*
X114971428Y-70158571D01*
X115185714Y-70158571D01*
X115328571Y-70230000D01*
X115400000Y-70372857D01*
X115400000Y-71158571D01*
X116757142Y-70158571D02*
X116757142Y-71372857D01*
X116685714Y-71515714D01*
X116614285Y-71587142D01*
X116471428Y-71658571D01*
X116257142Y-71658571D01*
X116114285Y-71587142D01*
X116757142Y-71087142D02*
X116614285Y-71158571D01*
X116328571Y-71158571D01*
X116185714Y-71087142D01*
X116114285Y-71015714D01*
X116042857Y-70872857D01*
X116042857Y-70444285D01*
X116114285Y-70301428D01*
X116185714Y-70230000D01*
X116328571Y-70158571D01*
X116614285Y-70158571D01*
X116757142Y-70230000D01*
X118614285Y-71158571D02*
X118614285Y-69658571D01*
X119471428Y-71158571D01*
X119471428Y-69658571D01*
X120828571Y-71158571D02*
X120828571Y-70372857D01*
X120757142Y-70230000D01*
X120614285Y-70158571D01*
X120328571Y-70158571D01*
X120185714Y-70230000D01*
X120828571Y-71087142D02*
X120685714Y-71158571D01*
X120328571Y-71158571D01*
X120185714Y-71087142D01*
X120114285Y-70944285D01*
X120114285Y-70801428D01*
X120185714Y-70658571D01*
X120328571Y-70587142D01*
X120685714Y-70587142D01*
X120828571Y-70515714D01*
X121542857Y-70158571D02*
X121542857Y-71158571D01*
X121542857Y-70301428D02*
X121614285Y-70230000D01*
X121757142Y-70158571D01*
X121971428Y-70158571D01*
X122114285Y-70230000D01*
X122185714Y-70372857D01*
X122185714Y-71158571D01*
X123114285Y-71158571D02*
X122971428Y-71087142D01*
X122900000Y-71015714D01*
X122828571Y-70872857D01*
X122828571Y-70444285D01*
X122900000Y-70301428D01*
X122971428Y-70230000D01*
X123114285Y-70158571D01*
X123328571Y-70158571D01*
X123471428Y-70230000D01*
X123542857Y-70301428D01*
X123614285Y-70444285D01*
X123614285Y-70872857D01*
X123542857Y-71015714D01*
X123471428Y-71087142D01*
X123328571Y-71158571D01*
X123114285Y-71158571D01*
X125328571Y-69801428D02*
X125400000Y-69730000D01*
X125542857Y-69658571D01*
X125900000Y-69658571D01*
X126042857Y-69730000D01*
X126114285Y-69801428D01*
X126185714Y-69944285D01*
X126185714Y-70087142D01*
X126114285Y-70301428D01*
X125257142Y-71158571D01*
X126185714Y-71158571D01*
X127114285Y-69658571D02*
X127257142Y-69658571D01*
X127400000Y-69730000D01*
X127471428Y-69801428D01*
X127542857Y-69944285D01*
X127614285Y-70230000D01*
X127614285Y-70587142D01*
X127542857Y-70872857D01*
X127471428Y-71015714D01*
X127400000Y-71087142D01*
X127257142Y-71158571D01*
X127114285Y-71158571D01*
X126971428Y-71087142D01*
X126900000Y-71015714D01*
X126828571Y-70872857D01*
X126757142Y-70587142D01*
X126757142Y-70230000D01*
X126828571Y-69944285D01*
X126900000Y-69801428D01*
X126971428Y-69730000D01*
X127114285Y-69658571D01*
X128257142Y-71158571D02*
X128257142Y-69658571D01*
X129114285Y-71158571D02*
X128471428Y-70301428D01*
X129114285Y-69658571D02*
X128257142Y-70515714D01*
X117078571Y-100143571D02*
X117078571Y-101357857D01*
X117150000Y-101500714D01*
X117221428Y-101572142D01*
X117364285Y-101643571D01*
X117650000Y-101643571D01*
X117792857Y-101572142D01*
X117864285Y-101500714D01*
X117935714Y-101357857D01*
X117935714Y-100143571D01*
X118578571Y-101572142D02*
X118792857Y-101643571D01*
X119150000Y-101643571D01*
X119292857Y-101572142D01*
X119364285Y-101500714D01*
X119435714Y-101357857D01*
X119435714Y-101215000D01*
X119364285Y-101072142D01*
X119292857Y-101000714D01*
X119150000Y-100929285D01*
X118864285Y-100857857D01*
X118721428Y-100786428D01*
X118650000Y-100715000D01*
X118578571Y-100572142D01*
X118578571Y-100429285D01*
X118650000Y-100286428D01*
X118721428Y-100215000D01*
X118864285Y-100143571D01*
X119221428Y-100143571D01*
X119435714Y-100215000D01*
X120578571Y-100857857D02*
X120792857Y-100929285D01*
X120864285Y-101000714D01*
X120935714Y-101143571D01*
X120935714Y-101357857D01*
X120864285Y-101500714D01*
X120792857Y-101572142D01*
X120650000Y-101643571D01*
X120078571Y-101643571D01*
X120078571Y-100143571D01*
X120578571Y-100143571D01*
X120721428Y-100215000D01*
X120792857Y-100286428D01*
X120864285Y-100429285D01*
X120864285Y-100572142D01*
X120792857Y-100715000D01*
X120721428Y-100786428D01*
X120578571Y-100857857D01*
X120078571Y-100857857D01*
X121578571Y-101072142D02*
X122721428Y-101072142D01*
X124292857Y-101500714D02*
X124221428Y-101572142D01*
X124007142Y-101643571D01*
X123864285Y-101643571D01*
X123650000Y-101572142D01*
X123507142Y-101429285D01*
X123435714Y-101286428D01*
X123364285Y-101000714D01*
X123364285Y-100786428D01*
X123435714Y-100500714D01*
X123507142Y-100357857D01*
X123650000Y-100215000D01*
X123864285Y-100143571D01*
X124007142Y-100143571D01*
X124221428Y-100215000D01*
X124292857Y-100286428D01*
D10*
X186356666Y-64217380D02*
X186356666Y-64931666D01*
X186309047Y-65074523D01*
X186213809Y-65169761D01*
X186070952Y-65217380D01*
X185975714Y-65217380D01*
X186880476Y-65217380D02*
X187070952Y-65217380D01*
X187166190Y-65169761D01*
X187213809Y-65122142D01*
X187309047Y-64979285D01*
X187356666Y-64788809D01*
X187356666Y-64407857D01*
X187309047Y-64312619D01*
X187261428Y-64265000D01*
X187166190Y-64217380D01*
X186975714Y-64217380D01*
X186880476Y-64265000D01*
X186832857Y-64312619D01*
X186785238Y-64407857D01*
X186785238Y-64645952D01*
X186832857Y-64741190D01*
X186880476Y-64788809D01*
X186975714Y-64836428D01*
X187166190Y-64836428D01*
X187261428Y-64788809D01*
X187309047Y-64741190D01*
X187356666Y-64645952D01*
X194683142Y-75631380D02*
X194349809Y-75155190D01*
X194111714Y-75631380D02*
X194111714Y-74631380D01*
X194492666Y-74631380D01*
X194587904Y-74679000D01*
X194635523Y-74726619D01*
X194683142Y-74821857D01*
X194683142Y-74964714D01*
X194635523Y-75059952D01*
X194587904Y-75107571D01*
X194492666Y-75155190D01*
X194111714Y-75155190D01*
X195635523Y-75631380D02*
X195064095Y-75631380D01*
X195349809Y-75631380D02*
X195349809Y-74631380D01*
X195254571Y-74774238D01*
X195159333Y-74869476D01*
X195064095Y-74917095D01*
X196492666Y-74631380D02*
X196302190Y-74631380D01*
X196206952Y-74679000D01*
X196159333Y-74726619D01*
X196064095Y-74869476D01*
X196016476Y-75059952D01*
X196016476Y-75440904D01*
X196064095Y-75536142D01*
X196111714Y-75583761D01*
X196206952Y-75631380D01*
X196397428Y-75631380D01*
X196492666Y-75583761D01*
X196540285Y-75536142D01*
X196587904Y-75440904D01*
X196587904Y-75202809D01*
X196540285Y-75107571D01*
X196492666Y-75059952D01*
X196397428Y-75012333D01*
X196206952Y-75012333D01*
X196111714Y-75059952D01*
X196064095Y-75107571D01*
X196016476Y-75202809D01*
X76001666Y-82632380D02*
X76001666Y-83346666D01*
X75954047Y-83489523D01*
X75858809Y-83584761D01*
X75715952Y-83632380D01*
X75620714Y-83632380D01*
X76477857Y-83632380D02*
X76477857Y-82632380D01*
X76858809Y-82632380D01*
X76954047Y-82680000D01*
X77001666Y-82727619D01*
X77049285Y-82822857D01*
X77049285Y-82965714D01*
X77001666Y-83060952D01*
X76954047Y-83108571D01*
X76858809Y-83156190D01*
X76477857Y-83156190D01*
X77382619Y-82632380D02*
X78001666Y-82632380D01*
X77668333Y-83013333D01*
X77811190Y-83013333D01*
X77906428Y-83060952D01*
X77954047Y-83108571D01*
X78001666Y-83203809D01*
X78001666Y-83441904D01*
X77954047Y-83537142D01*
X77906428Y-83584761D01*
X77811190Y-83632380D01*
X77525476Y-83632380D01*
X77430238Y-83584761D01*
X77382619Y-83537142D01*
X158107142Y-81637142D02*
X158059523Y-81684761D01*
X157916666Y-81732380D01*
X157821428Y-81732380D01*
X157678571Y-81684761D01*
X157583333Y-81589523D01*
X157535714Y-81494285D01*
X157488095Y-81303809D01*
X157488095Y-81160952D01*
X157535714Y-80970476D01*
X157583333Y-80875238D01*
X157678571Y-80780000D01*
X157821428Y-80732380D01*
X157916666Y-80732380D01*
X158059523Y-80780000D01*
X158107142Y-80827619D01*
X159059523Y-81732380D02*
X158488095Y-81732380D01*
X158773809Y-81732380D02*
X158773809Y-80732380D01*
X158678571Y-80875238D01*
X158583333Y-80970476D01*
X158488095Y-81018095D01*
X159392857Y-80732380D02*
X160011904Y-80732380D01*
X159678571Y-81113333D01*
X159821428Y-81113333D01*
X159916666Y-81160952D01*
X159964285Y-81208571D01*
X160011904Y-81303809D01*
X160011904Y-81541904D01*
X159964285Y-81637142D01*
X159916666Y-81684761D01*
X159821428Y-81732380D01*
X159535714Y-81732380D01*
X159440476Y-81684761D01*
X159392857Y-81637142D01*
X99528333Y-77772142D02*
X99480714Y-77819761D01*
X99337857Y-77867380D01*
X99242619Y-77867380D01*
X99099761Y-77819761D01*
X99004523Y-77724523D01*
X98956904Y-77629285D01*
X98909285Y-77438809D01*
X98909285Y-77295952D01*
X98956904Y-77105476D01*
X99004523Y-77010238D01*
X99099761Y-76915000D01*
X99242619Y-76867380D01*
X99337857Y-76867380D01*
X99480714Y-76915000D01*
X99528333Y-76962619D01*
X100385476Y-77200714D02*
X100385476Y-77867380D01*
X100147380Y-76819761D02*
X99909285Y-77534047D01*
X100528333Y-77534047D01*
X106981666Y-60407380D02*
X106981666Y-61121666D01*
X106934047Y-61264523D01*
X106838809Y-61359761D01*
X106695952Y-61407380D01*
X106600714Y-61407380D01*
X107886428Y-60407380D02*
X107695952Y-60407380D01*
X107600714Y-60455000D01*
X107553095Y-60502619D01*
X107457857Y-60645476D01*
X107410238Y-60835952D01*
X107410238Y-61216904D01*
X107457857Y-61312142D01*
X107505476Y-61359761D01*
X107600714Y-61407380D01*
X107791190Y-61407380D01*
X107886428Y-61359761D01*
X107934047Y-61312142D01*
X107981666Y-61216904D01*
X107981666Y-60978809D01*
X107934047Y-60883571D01*
X107886428Y-60835952D01*
X107791190Y-60788333D01*
X107600714Y-60788333D01*
X107505476Y-60835952D01*
X107457857Y-60883571D01*
X107410238Y-60978809D01*
X158107142Y-74017142D02*
X158059523Y-74064761D01*
X157916666Y-74112380D01*
X157821428Y-74112380D01*
X157678571Y-74064761D01*
X157583333Y-73969523D01*
X157535714Y-73874285D01*
X157488095Y-73683809D01*
X157488095Y-73540952D01*
X157535714Y-73350476D01*
X157583333Y-73255238D01*
X157678571Y-73160000D01*
X157821428Y-73112380D01*
X157916666Y-73112380D01*
X158059523Y-73160000D01*
X158107142Y-73207619D01*
X159059523Y-74112380D02*
X158488095Y-74112380D01*
X158773809Y-74112380D02*
X158773809Y-73112380D01*
X158678571Y-73255238D01*
X158583333Y-73350476D01*
X158488095Y-73398095D01*
X159916666Y-73445714D02*
X159916666Y-74112380D01*
X159678571Y-73064761D02*
X159440476Y-73779047D01*
X160059523Y-73779047D01*
X166997142Y-89257142D02*
X166949523Y-89304761D01*
X166806666Y-89352380D01*
X166711428Y-89352380D01*
X166568571Y-89304761D01*
X166473333Y-89209523D01*
X166425714Y-89114285D01*
X166378095Y-88923809D01*
X166378095Y-88780952D01*
X166425714Y-88590476D01*
X166473333Y-88495238D01*
X166568571Y-88400000D01*
X166711428Y-88352380D01*
X166806666Y-88352380D01*
X166949523Y-88400000D01*
X166997142Y-88447619D01*
X167949523Y-89352380D02*
X167378095Y-89352380D01*
X167663809Y-89352380D02*
X167663809Y-88352380D01*
X167568571Y-88495238D01*
X167473333Y-88590476D01*
X167378095Y-88638095D01*
X168854285Y-88352380D02*
X168378095Y-88352380D01*
X168330476Y-88828571D01*
X168378095Y-88780952D01*
X168473333Y-88733333D01*
X168711428Y-88733333D01*
X168806666Y-88780952D01*
X168854285Y-88828571D01*
X168901904Y-88923809D01*
X168901904Y-89161904D01*
X168854285Y-89257142D01*
X168806666Y-89304761D01*
X168711428Y-89352380D01*
X168473333Y-89352380D01*
X168378095Y-89304761D01*
X168330476Y-89257142D01*
X88733333Y-103317380D02*
X88400000Y-102841190D01*
X88161904Y-103317380D02*
X88161904Y-102317380D01*
X88542857Y-102317380D01*
X88638095Y-102365000D01*
X88685714Y-102412619D01*
X88733333Y-102507857D01*
X88733333Y-102650714D01*
X88685714Y-102745952D01*
X88638095Y-102793571D01*
X88542857Y-102841190D01*
X88161904Y-102841190D01*
X89590476Y-102650714D02*
X89590476Y-103317380D01*
X89352380Y-102269761D02*
X89114285Y-102984047D01*
X89733333Y-102984047D01*
X170759523Y-105857380D02*
X170426190Y-105381190D01*
X170188095Y-105857380D02*
X170188095Y-104857380D01*
X170569047Y-104857380D01*
X170664285Y-104905000D01*
X170711904Y-104952619D01*
X170759523Y-105047857D01*
X170759523Y-105190714D01*
X170711904Y-105285952D01*
X170664285Y-105333571D01*
X170569047Y-105381190D01*
X170188095Y-105381190D01*
X171188095Y-105857380D02*
X171188095Y-104857380D01*
X171759523Y-105857380D01*
X171759523Y-104857380D01*
X172759523Y-105857380D02*
X172188095Y-105857380D01*
X172473809Y-105857380D02*
X172473809Y-104857380D01*
X172378571Y-105000238D01*
X172283333Y-105095476D01*
X172188095Y-105143095D01*
X153662142Y-70932380D02*
X153328809Y-70456190D01*
X153090714Y-70932380D02*
X153090714Y-69932380D01*
X153471666Y-69932380D01*
X153566904Y-69980000D01*
X153614523Y-70027619D01*
X153662142Y-70122857D01*
X153662142Y-70265714D01*
X153614523Y-70360952D01*
X153566904Y-70408571D01*
X153471666Y-70456190D01*
X153090714Y-70456190D01*
X154614523Y-70932380D02*
X154043095Y-70932380D01*
X154328809Y-70932380D02*
X154328809Y-69932380D01*
X154233571Y-70075238D01*
X154138333Y-70170476D01*
X154043095Y-70218095D01*
X155471666Y-70265714D02*
X155471666Y-70932380D01*
X155233571Y-69884761D02*
X154995476Y-70599047D01*
X155614523Y-70599047D01*
X144581666Y-66122380D02*
X144581666Y-66836666D01*
X144534047Y-66979523D01*
X144438809Y-67074761D01*
X144295952Y-67122380D01*
X144200714Y-67122380D01*
X145057857Y-67122380D02*
X145057857Y-66122380D01*
X145438809Y-66122380D01*
X145534047Y-66170000D01*
X145581666Y-66217619D01*
X145629285Y-66312857D01*
X145629285Y-66455714D01*
X145581666Y-66550952D01*
X145534047Y-66598571D01*
X145438809Y-66646190D01*
X145057857Y-66646190D01*
X146581666Y-67122380D02*
X146010238Y-67122380D01*
X146295952Y-67122380D02*
X146295952Y-66122380D01*
X146200714Y-66265238D01*
X146105476Y-66360476D01*
X146010238Y-66408095D01*
X153662142Y-89982380D02*
X153328809Y-89506190D01*
X153090714Y-89982380D02*
X153090714Y-88982380D01*
X153471666Y-88982380D01*
X153566904Y-89030000D01*
X153614523Y-89077619D01*
X153662142Y-89172857D01*
X153662142Y-89315714D01*
X153614523Y-89410952D01*
X153566904Y-89458571D01*
X153471666Y-89506190D01*
X153090714Y-89506190D01*
X154614523Y-89982380D02*
X154043095Y-89982380D01*
X154328809Y-89982380D02*
X154328809Y-88982380D01*
X154233571Y-89125238D01*
X154138333Y-89220476D01*
X154043095Y-89268095D01*
X154947857Y-88982380D02*
X155614523Y-88982380D01*
X155185952Y-89982380D01*
X175887142Y-89257142D02*
X175839523Y-89304761D01*
X175696666Y-89352380D01*
X175601428Y-89352380D01*
X175458571Y-89304761D01*
X175363333Y-89209523D01*
X175315714Y-89114285D01*
X175268095Y-88923809D01*
X175268095Y-88780952D01*
X175315714Y-88590476D01*
X175363333Y-88495238D01*
X175458571Y-88400000D01*
X175601428Y-88352380D01*
X175696666Y-88352380D01*
X175839523Y-88400000D01*
X175887142Y-88447619D01*
X176839523Y-89352380D02*
X176268095Y-89352380D01*
X176553809Y-89352380D02*
X176553809Y-88352380D01*
X176458571Y-88495238D01*
X176363333Y-88590476D01*
X176268095Y-88638095D01*
X177410952Y-88780952D02*
X177315714Y-88733333D01*
X177268095Y-88685714D01*
X177220476Y-88590476D01*
X177220476Y-88542857D01*
X177268095Y-88447619D01*
X177315714Y-88400000D01*
X177410952Y-88352380D01*
X177601428Y-88352380D01*
X177696666Y-88400000D01*
X177744285Y-88447619D01*
X177791904Y-88542857D01*
X177791904Y-88590476D01*
X177744285Y-88685714D01*
X177696666Y-88733333D01*
X177601428Y-88780952D01*
X177410952Y-88780952D01*
X177315714Y-88828571D01*
X177268095Y-88876190D01*
X177220476Y-88971428D01*
X177220476Y-89161904D01*
X177268095Y-89257142D01*
X177315714Y-89304761D01*
X177410952Y-89352380D01*
X177601428Y-89352380D01*
X177696666Y-89304761D01*
X177744285Y-89257142D01*
X177791904Y-89161904D01*
X177791904Y-88971428D01*
X177744285Y-88876190D01*
X177696666Y-88828571D01*
X177601428Y-88780952D01*
X85391666Y-120732380D02*
X85391666Y-121446666D01*
X85344047Y-121589523D01*
X85248809Y-121684761D01*
X85105952Y-121732380D01*
X85010714Y-121732380D01*
X86391666Y-121732380D02*
X85820238Y-121732380D01*
X86105952Y-121732380D02*
X86105952Y-120732380D01*
X86010714Y-120875238D01*
X85915476Y-120970476D01*
X85820238Y-121018095D01*
X85833333Y-98872380D02*
X85500000Y-98396190D01*
X85261904Y-98872380D02*
X85261904Y-97872380D01*
X85642857Y-97872380D01*
X85738095Y-97920000D01*
X85785714Y-97967619D01*
X85833333Y-98062857D01*
X85833333Y-98205714D01*
X85785714Y-98300952D01*
X85738095Y-98348571D01*
X85642857Y-98396190D01*
X85261904Y-98396190D01*
X86738095Y-97872380D02*
X86261904Y-97872380D01*
X86214285Y-98348571D01*
X86261904Y-98300952D01*
X86357142Y-98253333D01*
X86595238Y-98253333D01*
X86690476Y-98300952D01*
X86738095Y-98348571D01*
X86785714Y-98443809D01*
X86785714Y-98681904D01*
X86738095Y-98777142D01*
X86690476Y-98824761D01*
X86595238Y-98872380D01*
X86357142Y-98872380D01*
X86261904Y-98824761D01*
X86214285Y-98777142D01*
X117187142Y-56412380D02*
X116853809Y-55936190D01*
X116615714Y-56412380D02*
X116615714Y-55412380D01*
X116996666Y-55412380D01*
X117091904Y-55460000D01*
X117139523Y-55507619D01*
X117187142Y-55602857D01*
X117187142Y-55745714D01*
X117139523Y-55840952D01*
X117091904Y-55888571D01*
X116996666Y-55936190D01*
X116615714Y-55936190D01*
X117568095Y-55507619D02*
X117615714Y-55460000D01*
X117710952Y-55412380D01*
X117949047Y-55412380D01*
X118044285Y-55460000D01*
X118091904Y-55507619D01*
X118139523Y-55602857D01*
X118139523Y-55698095D01*
X118091904Y-55840952D01*
X117520476Y-56412380D01*
X118139523Y-56412380D01*
X118472857Y-55412380D02*
X119091904Y-55412380D01*
X118758571Y-55793333D01*
X118901428Y-55793333D01*
X118996666Y-55840952D01*
X119044285Y-55888571D01*
X119091904Y-55983809D01*
X119091904Y-56221904D01*
X119044285Y-56317142D01*
X118996666Y-56364761D01*
X118901428Y-56412380D01*
X118615714Y-56412380D01*
X118520476Y-56364761D01*
X118472857Y-56317142D01*
X171918333Y-82367380D02*
X171442142Y-82367380D01*
X171442142Y-81367380D01*
X172727857Y-81367380D02*
X172251666Y-81367380D01*
X172204047Y-81843571D01*
X172251666Y-81795952D01*
X172346904Y-81748333D01*
X172585000Y-81748333D01*
X172680238Y-81795952D01*
X172727857Y-81843571D01*
X172775476Y-81938809D01*
X172775476Y-82176904D01*
X172727857Y-82272142D01*
X172680238Y-82319761D01*
X172585000Y-82367380D01*
X172346904Y-82367380D01*
X172251666Y-82319761D01*
X172204047Y-82272142D01*
X135556666Y-50882380D02*
X135556666Y-51596666D01*
X135509047Y-51739523D01*
X135413809Y-51834761D01*
X135270952Y-51882380D01*
X135175714Y-51882380D01*
X136461428Y-51215714D02*
X136461428Y-51882380D01*
X136223333Y-50834761D02*
X135985238Y-51549047D01*
X136604285Y-51549047D01*
X179062142Y-74112380D02*
X178728809Y-73636190D01*
X178490714Y-74112380D02*
X178490714Y-73112380D01*
X178871666Y-73112380D01*
X178966904Y-73160000D01*
X179014523Y-73207619D01*
X179062142Y-73302857D01*
X179062142Y-73445714D01*
X179014523Y-73540952D01*
X178966904Y-73588571D01*
X178871666Y-73636190D01*
X178490714Y-73636190D01*
X179443095Y-73207619D02*
X179490714Y-73160000D01*
X179585952Y-73112380D01*
X179824047Y-73112380D01*
X179919285Y-73160000D01*
X179966904Y-73207619D01*
X180014523Y-73302857D01*
X180014523Y-73398095D01*
X179966904Y-73540952D01*
X179395476Y-74112380D01*
X180014523Y-74112380D01*
X180395476Y-73207619D02*
X180443095Y-73160000D01*
X180538333Y-73112380D01*
X180776428Y-73112380D01*
X180871666Y-73160000D01*
X180919285Y-73207619D01*
X180966904Y-73302857D01*
X180966904Y-73398095D01*
X180919285Y-73540952D01*
X180347857Y-74112380D01*
X180966904Y-74112380D01*
X157091142Y-105469642D02*
X157043523Y-105517261D01*
X156900666Y-105564880D01*
X156805428Y-105564880D01*
X156662571Y-105517261D01*
X156567333Y-105422023D01*
X156519714Y-105326785D01*
X156472095Y-105136309D01*
X156472095Y-104993452D01*
X156519714Y-104802976D01*
X156567333Y-104707738D01*
X156662571Y-104612500D01*
X156805428Y-104564880D01*
X156900666Y-104564880D01*
X157043523Y-104612500D01*
X157091142Y-104660119D01*
X157472095Y-104660119D02*
X157519714Y-104612500D01*
X157614952Y-104564880D01*
X157853047Y-104564880D01*
X157948285Y-104612500D01*
X157995904Y-104660119D01*
X158043523Y-104755357D01*
X158043523Y-104850595D01*
X157995904Y-104993452D01*
X157424476Y-105564880D01*
X158043523Y-105564880D01*
X158424476Y-104660119D02*
X158472095Y-104612500D01*
X158567333Y-104564880D01*
X158805428Y-104564880D01*
X158900666Y-104612500D01*
X158948285Y-104660119D01*
X158995904Y-104755357D01*
X158995904Y-104850595D01*
X158948285Y-104993452D01*
X158376857Y-105564880D01*
X158995904Y-105564880D01*
X97623333Y-87442380D02*
X97290000Y-86966190D01*
X97051904Y-87442380D02*
X97051904Y-86442380D01*
X97432857Y-86442380D01*
X97528095Y-86490000D01*
X97575714Y-86537619D01*
X97623333Y-86632857D01*
X97623333Y-86775714D01*
X97575714Y-86870952D01*
X97528095Y-86918571D01*
X97432857Y-86966190D01*
X97051904Y-86966190D01*
X98194761Y-86870952D02*
X98099523Y-86823333D01*
X98051904Y-86775714D01*
X98004285Y-86680476D01*
X98004285Y-86632857D01*
X98051904Y-86537619D01*
X98099523Y-86490000D01*
X98194761Y-86442380D01*
X98385238Y-86442380D01*
X98480476Y-86490000D01*
X98528095Y-86537619D01*
X98575714Y-86632857D01*
X98575714Y-86680476D01*
X98528095Y-86775714D01*
X98480476Y-86823333D01*
X98385238Y-86870952D01*
X98194761Y-86870952D01*
X98099523Y-86918571D01*
X98051904Y-86966190D01*
X98004285Y-87061428D01*
X98004285Y-87251904D01*
X98051904Y-87347142D01*
X98099523Y-87394761D01*
X98194761Y-87442380D01*
X98385238Y-87442380D01*
X98480476Y-87394761D01*
X98528095Y-87347142D01*
X98575714Y-87251904D01*
X98575714Y-87061428D01*
X98528095Y-86966190D01*
X98480476Y-86918571D01*
X98385238Y-86870952D01*
X189095142Y-75758380D02*
X188761809Y-75282190D01*
X188523714Y-75758380D02*
X188523714Y-74758380D01*
X188904666Y-74758380D01*
X188999904Y-74806000D01*
X189047523Y-74853619D01*
X189095142Y-74948857D01*
X189095142Y-75091714D01*
X189047523Y-75186952D01*
X188999904Y-75234571D01*
X188904666Y-75282190D01*
X188523714Y-75282190D01*
X190047523Y-75758380D02*
X189476095Y-75758380D01*
X189761809Y-75758380D02*
X189761809Y-74758380D01*
X189666571Y-74901238D01*
X189571333Y-74996476D01*
X189476095Y-75044095D01*
X190952285Y-74758380D02*
X190476095Y-74758380D01*
X190428476Y-75234571D01*
X190476095Y-75186952D01*
X190571333Y-75139333D01*
X190809428Y-75139333D01*
X190904666Y-75186952D01*
X190952285Y-75234571D01*
X190999904Y-75329809D01*
X190999904Y-75567904D01*
X190952285Y-75663142D01*
X190904666Y-75710761D01*
X190809428Y-75758380D01*
X190571333Y-75758380D01*
X190476095Y-75710761D01*
X190428476Y-75663142D01*
D12*
X157840000Y-86436252D02*
X157840000Y-85013748D01*
X159660000Y-86436252D02*
X159660000Y-85013748D01*
X96510000Y-77470000D02*
X96510000Y-74020000D01*
X87640000Y-77470000D02*
X87640000Y-79420000D01*
X87640000Y-77470000D02*
X87640000Y-75520000D01*
X96510000Y-77470000D02*
X96510000Y-79420000D01*
X166730000Y-78816252D02*
X166730000Y-77393748D01*
X168550000Y-78816252D02*
X168550000Y-77393748D01*
X162592936Y-71480000D02*
X163797064Y-71480000D01*
X162592936Y-73300000D02*
X163797064Y-73300000D01*
X90588752Y-87265000D02*
X89166248Y-87265000D01*
X90588752Y-85445000D02*
X89166248Y-85445000D01*
X80995000Y-61725000D02*
X80995000Y-50725000D01*
X91495000Y-49625000D02*
X91495000Y-50725000D01*
X80995000Y-50725000D02*
X82495000Y-50725000D01*
X92995000Y-50725000D02*
X92995000Y-61725000D01*
X91495000Y-50725000D02*
X92995000Y-50725000D01*
X89995000Y-49625000D02*
X91495000Y-49625000D01*
X82495000Y-50725000D02*
X82495000Y-49625000D01*
X82495000Y-49625000D02*
X83995000Y-49625000D01*
X92995000Y-61725000D02*
X80995000Y-61725000D01*
X77562064Y-70845000D02*
X76107936Y-70845000D01*
X77562064Y-72665000D02*
X76107936Y-72665000D01*
X91800000Y-106767064D02*
X91800000Y-105312936D01*
X93620000Y-106767064D02*
X93620000Y-105312936D01*
X168550000Y-71196252D02*
X168550000Y-69773748D01*
X166730000Y-71196252D02*
X166730000Y-69773748D01*
X153577936Y-75285000D02*
X155032064Y-75285000D01*
X153577936Y-77105000D02*
X155032064Y-77105000D01*
X97430000Y-106767064D02*
X97430000Y-105312936D01*
X95610000Y-106767064D02*
X95610000Y-105312936D01*
X131385000Y-110425000D02*
X132715000Y-110425000D01*
X131385000Y-113025000D02*
X131385000Y-115625000D01*
X131385000Y-115625000D02*
X134045000Y-115625000D01*
X134045000Y-113025000D02*
X134045000Y-115625000D01*
X131385000Y-113025000D02*
X134045000Y-113025000D01*
X131385000Y-111755000D02*
X131385000Y-110425000D01*
X102946252Y-100050000D02*
X101523748Y-100050000D01*
X102946252Y-101870000D02*
X101523748Y-101870000D01*
X162592936Y-79100000D02*
X163797064Y-79100000D01*
X162592936Y-80920000D02*
X163797064Y-80920000D01*
X180615000Y-78832064D02*
X180615000Y-77377936D01*
X178795000Y-78832064D02*
X178795000Y-77377936D01*
X83880000Y-80640000D02*
X83880000Y-81970000D01*
X81220000Y-79370000D02*
X81220000Y-74230000D01*
X83880000Y-79370000D02*
X83880000Y-74230000D01*
X83880000Y-74230000D02*
X81220000Y-74230000D01*
X83880000Y-79370000D02*
X81220000Y-79370000D01*
X83880000Y-81970000D02*
X82550000Y-81970000D01*
X179320000Y-109640662D02*
X179070000Y-110073675D01*
X178820000Y-109640662D02*
X179320000Y-109640662D01*
X179070000Y-110073675D02*
X178820000Y-109640662D01*
X169125000Y-110535000D02*
X200095000Y-110535000D01*
X200095000Y-110535000D02*
X200095000Y-122875000D01*
X169125000Y-122875000D02*
X169125000Y-110535000D01*
X102946252Y-96790000D02*
X101523748Y-96790000D01*
X102946252Y-94970000D02*
X101523748Y-94970000D01*
X89166248Y-82275000D02*
X90588752Y-82275000D01*
X89166248Y-84095000D02*
X90588752Y-84095000D01*
X155555000Y-100965000D02*
X155555000Y-97515000D01*
X145435000Y-100965000D02*
X145435000Y-99015000D01*
X145435000Y-100965000D02*
X145435000Y-102915000D01*
X155555000Y-100965000D02*
X155555000Y-102915000D01*
X99050000Y-98420000D02*
X99050000Y-100370000D01*
X90180000Y-98420000D02*
X90180000Y-100370000D01*
X90180000Y-98420000D02*
X90180000Y-96470000D01*
X99050000Y-98420000D02*
X99050000Y-94970000D01*
X203895000Y-113025000D02*
X203895000Y-115625000D01*
X201235000Y-111755000D02*
X201235000Y-110425000D01*
X201235000Y-110425000D02*
X202565000Y-110425000D01*
X201235000Y-113025000D02*
X203895000Y-113025000D01*
X201235000Y-115625000D02*
X203895000Y-115625000D01*
X201235000Y-113025000D02*
X201235000Y-115625000D01*
X87553748Y-72660000D02*
X88976252Y-72660000D01*
X87553748Y-70840000D02*
X88976252Y-70840000D01*
X178795000Y-86452064D02*
X178795000Y-84997936D01*
X180615000Y-86452064D02*
X180615000Y-84997936D01*
X153577936Y-79095000D02*
X155032064Y-79095000D01*
X153577936Y-80915000D02*
X155032064Y-80915000D01*
X171482936Y-73300000D02*
X172687064Y-73300000D01*
X171482936Y-71480000D02*
X172687064Y-71480000D01*
X151010000Y-49625000D02*
X151010000Y-58725000D01*
X148760000Y-61525000D02*
X141760000Y-61525000D01*
X139510000Y-49625000D02*
X151010000Y-49625000D01*
X139510000Y-58725000D02*
X139510000Y-49625000D01*
X177440000Y-78816252D02*
X177440000Y-77393748D01*
X175620000Y-78816252D02*
X175620000Y-77393748D01*
X81838748Y-68850000D02*
X83261252Y-68850000D01*
X81838748Y-67030000D02*
X83261252Y-67030000D01*
X100406252Y-68855000D02*
X98983748Y-68855000D01*
X100406252Y-67035000D02*
X98983748Y-67035000D01*
X211220000Y-118915000D02*
X211220000Y-120115000D01*
X223980000Y-53795000D02*
X231780000Y-53795000D01*
X211220000Y-120115000D02*
X215580000Y-120115000D01*
X234840000Y-60545000D02*
X234840000Y-56855000D01*
X211220000Y-118915000D02*
X207780000Y-118915000D01*
X232980000Y-91255000D02*
X232980000Y-99375000D01*
X210880000Y-60895000D02*
X210880000Y-62225000D01*
X207780000Y-53795000D02*
X215580000Y-53795000D01*
X205680000Y-60895000D02*
X208280000Y-60895000D01*
X233040000Y-111915000D02*
X234840000Y-111915000D01*
X208280000Y-63495000D02*
X210880000Y-63495000D01*
X234140000Y-71965000D02*
X234840000Y-71965000D01*
X234780000Y-91255000D02*
X232980000Y-91255000D01*
X205680000Y-60895000D02*
X205680000Y-111815000D01*
X209550000Y-60895000D02*
X210880000Y-60895000D01*
X228340000Y-118915000D02*
X231780000Y-118915000D01*
X233040000Y-103795000D02*
X233040000Y-111915000D01*
X208280000Y-60895000D02*
X208280000Y-63495000D01*
X232980000Y-99375000D02*
X234780000Y-99375000D01*
X223980000Y-120115000D02*
X228340000Y-120115000D01*
X234840000Y-60545000D02*
X234140000Y-60545000D01*
X234840000Y-103795000D02*
X233040000Y-103795000D01*
X228340000Y-120115000D02*
X228340000Y-118915000D01*
X234140000Y-60545000D02*
X234140000Y-71965000D01*
X204720000Y-115855000D02*
X204720000Y-56855000D01*
X210880000Y-63495000D02*
X210880000Y-111815000D01*
X205680000Y-111815000D02*
X210880000Y-111815000D01*
X234840000Y-60545000D02*
X234840000Y-115855000D01*
X204720000Y-115855000D02*
G75*
G03*
X207780000Y-118915000I3059999J-1D01*
G01*
X234840000Y-56855000D02*
G75*
G03*
X231780000Y-53795000I-3060000J0D01*
G01*
X207780000Y-53795000D02*
G75*
G03*
X204720000Y-56855000I-1J-3059999D01*
G01*
X231780000Y-118915000D02*
G75*
G03*
X234840000Y-115855000I0J3060000D01*
G01*
X153577936Y-82905000D02*
X155032064Y-82905000D01*
X153577936Y-84725000D02*
X155032064Y-84725000D01*
X94881248Y-84095000D02*
X96303752Y-84095000D01*
X94881248Y-82275000D02*
X96303752Y-82275000D01*
X94707064Y-68850000D02*
X93252936Y-68850000D01*
X94707064Y-67030000D02*
X93252936Y-67030000D01*
X87537936Y-67030000D02*
X88992064Y-67030000D01*
X87537936Y-68850000D02*
X88992064Y-68850000D01*
X122821248Y-58690000D02*
X124243752Y-58690000D01*
X122821248Y-56870000D02*
X124243752Y-56870000D01*
X166440000Y-110530000D02*
X166440000Y-122870000D01*
X145415000Y-110068675D02*
X145165000Y-109635662D01*
X145665000Y-109635662D02*
X145415000Y-110068675D01*
X135470000Y-122870000D02*
X135470000Y-110530000D01*
X135470000Y-110530000D02*
X166440000Y-110530000D01*
X145165000Y-109635662D02*
X145665000Y-109635662D01*
X100406252Y-79100000D02*
X98983748Y-79100000D01*
X100406252Y-80920000D02*
X98983748Y-80920000D01*
X171482936Y-86720000D02*
X172687064Y-86720000D01*
X171482936Y-88540000D02*
X172687064Y-88540000D01*
X107375000Y-84450000D02*
X107375000Y-85780000D01*
X107375000Y-83180000D02*
X107375000Y-80580000D01*
X107375000Y-80580000D02*
X104715000Y-80580000D01*
X107375000Y-83180000D02*
X104715000Y-83180000D01*
X107375000Y-85780000D02*
X106045000Y-85780000D01*
X104715000Y-83180000D02*
X104715000Y-80580000D01*
X191680000Y-61840000D02*
X191680000Y-63560000D01*
X193189000Y-62660000D02*
X191680000Y-62660000D01*
X200080000Y-49660000D02*
X191080000Y-49660000D01*
X199480000Y-52860000D02*
X199480000Y-63560000D01*
X200080000Y-49660000D02*
X200080000Y-61360000D01*
X193149000Y-63560000D02*
X191680000Y-63560000D01*
X200080000Y-52860000D02*
X191080000Y-52860000D01*
X200080000Y-61360000D02*
X191780000Y-61360000D01*
X199480000Y-63560000D02*
X198011000Y-63560000D01*
X199480000Y-62660000D02*
X197971000Y-62660000D01*
X191680000Y-52860000D02*
X191680000Y-58280000D01*
X191080000Y-49660000D02*
X191080000Y-57669000D01*
X201235000Y-62225000D02*
X201235000Y-59625000D01*
X203895000Y-62225000D02*
X203895000Y-59625000D01*
X203895000Y-62225000D02*
X201235000Y-62225000D01*
X203895000Y-63495000D02*
X203895000Y-64825000D01*
X203895000Y-59625000D02*
X201235000Y-59625000D01*
X203895000Y-64825000D02*
X202565000Y-64825000D01*
X81822936Y-70845000D02*
X83277064Y-70845000D01*
X81822936Y-72665000D02*
X83277064Y-72665000D01*
X201235000Y-68575000D02*
X201235000Y-73715000D01*
X201235000Y-73715000D02*
X203895000Y-73715000D01*
X201235000Y-65975000D02*
X202565000Y-65975000D01*
X203895000Y-68575000D02*
X203895000Y-73715000D01*
X201235000Y-68575000D02*
X203895000Y-68575000D01*
X201235000Y-67305000D02*
X201235000Y-65975000D01*
X175620000Y-71196252D02*
X175620000Y-69773748D01*
X177440000Y-71196252D02*
X177440000Y-69773748D01*
X191410000Y-102941252D02*
X191410000Y-101518748D01*
X189590000Y-102941252D02*
X189590000Y-101518748D01*
X198890000Y-64775000D02*
X193690000Y-64775000D01*
X198890000Y-67495000D02*
X198890000Y-64775000D01*
X198890000Y-67495000D02*
X193690000Y-67495000D01*
X100872936Y-89890000D02*
X102327064Y-89890000D01*
X100872936Y-91710000D02*
X102327064Y-91710000D01*
X165270000Y-106550000D02*
X142070000Y-106550000D01*
X142070000Y-106550000D02*
X142070000Y-109350000D01*
X144780000Y-106550000D02*
X144780000Y-109350000D01*
X142070000Y-109350000D02*
X165270000Y-109350000D01*
X165270000Y-109350000D02*
X165270000Y-106550000D01*
X153577936Y-71475000D02*
X155032064Y-71475000D01*
X153577936Y-73295000D02*
X155032064Y-73295000D01*
X107315000Y-110430000D02*
X108645000Y-110430000D01*
X106045000Y-110430000D02*
X106045000Y-113090000D01*
X106045000Y-110430000D02*
X103445000Y-110430000D01*
X103445000Y-110430000D02*
X103445000Y-113090000D01*
X106045000Y-113090000D02*
X103445000Y-113090000D01*
X108645000Y-110430000D02*
X108645000Y-111760000D01*
X159960000Y-103565000D02*
X159960000Y-102235000D01*
X159960000Y-100965000D02*
X159960000Y-98365000D01*
X162560000Y-103565000D02*
X162560000Y-100965000D01*
X162560000Y-103565000D02*
X175320000Y-103565000D01*
X159960000Y-98365000D02*
X175320000Y-98365000D01*
X175320000Y-103565000D02*
X175320000Y-98365000D01*
X161290000Y-103565000D02*
X159960000Y-103565000D01*
X162560000Y-100965000D02*
X159960000Y-100965000D01*
X99420000Y-106767064D02*
X99420000Y-105312936D01*
X101240000Y-106767064D02*
X101240000Y-105312936D01*
X188575000Y-100965000D02*
X188575000Y-97515000D01*
X188575000Y-100965000D02*
X188575000Y-102915000D01*
X178455000Y-100965000D02*
X178455000Y-99015000D01*
X178455000Y-100965000D02*
X178455000Y-102915000D01*
X162592936Y-86720000D02*
X163797064Y-86720000D01*
X162592936Y-88540000D02*
X163797064Y-88540000D01*
X77546252Y-68850000D02*
X76123748Y-68850000D01*
X77546252Y-67030000D02*
X76123748Y-67030000D01*
X113030000Y-61595000D02*
X128270000Y-61595000D01*
X115570000Y-103505000D02*
X115570000Y-99695000D01*
X113030000Y-52705000D02*
X113030000Y-61595000D01*
X128270000Y-61595000D02*
X128270000Y-52705000D01*
X109220000Y-52705000D02*
X132080000Y-52705000D01*
X115570000Y-99695000D02*
X125730000Y-99695000D01*
X109220000Y-103505000D02*
X109220000Y-52705000D01*
X132080000Y-52705000D02*
X132080000Y-103505000D01*
X132080000Y-103505000D02*
X109220000Y-103505000D01*
X125730000Y-99695000D02*
X125730000Y-103505000D01*
X165485000Y-66084338D02*
X165735000Y-65651325D01*
X185535000Y-65720000D02*
X154565000Y-65720000D01*
X185535000Y-50040000D02*
X185535000Y-65720000D01*
X165735000Y-65651325D02*
X165985000Y-66084338D01*
X154565000Y-65720000D02*
X154565000Y-50040000D01*
X165985000Y-66084338D02*
X165485000Y-66084338D01*
X196053064Y-72364000D02*
X194598936Y-72364000D01*
X196053064Y-74184000D02*
X194598936Y-74184000D01*
X78165000Y-74235000D02*
X75505000Y-74235000D01*
X78165000Y-80645000D02*
X78165000Y-81975000D01*
X78165000Y-81975000D02*
X76835000Y-81975000D01*
X75505000Y-79375000D02*
X75505000Y-74235000D01*
X78165000Y-79375000D02*
X78165000Y-74235000D01*
X78165000Y-79375000D02*
X75505000Y-79375000D01*
X159660000Y-78816252D02*
X159660000Y-77393748D01*
X157840000Y-78816252D02*
X157840000Y-77393748D01*
X100406252Y-75840000D02*
X98983748Y-75840000D01*
X100406252Y-74020000D02*
X98983748Y-74020000D01*
D10*
X95330000Y-61525000D02*
X95330000Y-60625000D01*
X105330000Y-49725000D02*
X105330000Y-56025000D01*
X97830000Y-61525000D02*
X102830000Y-61525000D01*
X97830000Y-49725000D02*
X102830000Y-49725000D01*
X95330000Y-49725000D02*
X95330000Y-56025000D01*
X95330000Y-49725000D02*
X96330000Y-49725000D01*
X104330000Y-49725000D02*
X105330000Y-49725000D01*
X104330000Y-61525000D02*
X105330000Y-61525000D01*
X95330000Y-61525000D02*
X96330000Y-61525000D01*
X105330000Y-61525000D02*
X105330000Y-60625000D01*
D12*
X159660000Y-71196252D02*
X159660000Y-69773748D01*
X157840000Y-71196252D02*
X157840000Y-69773748D01*
X166730000Y-86436252D02*
X166730000Y-85013748D01*
X168550000Y-86436252D02*
X168550000Y-85013748D01*
X87990000Y-106767064D02*
X87990000Y-105312936D01*
X89810000Y-106767064D02*
X89810000Y-105312936D01*
X193225000Y-109350000D02*
X193225000Y-106550000D01*
X170025000Y-106550000D02*
X170025000Y-109350000D01*
X190515000Y-109350000D02*
X190515000Y-106550000D01*
X193225000Y-106550000D02*
X170025000Y-106550000D01*
X170025000Y-109350000D02*
X193225000Y-109350000D01*
X153577936Y-67665000D02*
X155032064Y-67665000D01*
X153577936Y-69485000D02*
X155032064Y-69485000D01*
X139640000Y-88320000D02*
X139640000Y-67880000D01*
X147380000Y-67880000D02*
X139640000Y-67880000D01*
X147380000Y-86990000D02*
X147380000Y-88320000D01*
X144780000Y-85720000D02*
X144780000Y-88320000D01*
X147380000Y-88320000D02*
X146050000Y-88320000D01*
X147380000Y-85720000D02*
X147380000Y-67880000D01*
X147380000Y-85720000D02*
X144780000Y-85720000D01*
X144780000Y-88320000D02*
X139640000Y-88320000D01*
X153577936Y-86715000D02*
X155032064Y-86715000D01*
X153577936Y-88535000D02*
X155032064Y-88535000D01*
X175620000Y-86436252D02*
X175620000Y-85013748D01*
X177440000Y-86436252D02*
X177440000Y-85013748D01*
X87865000Y-115349000D02*
X87865000Y-110049000D01*
X101365000Y-123049000D02*
X87865000Y-123049000D01*
X87865000Y-110049000D02*
X101365000Y-110049000D01*
X101365000Y-123049000D02*
X101365000Y-119749000D01*
X101365000Y-115349000D02*
X101365000Y-110049000D01*
X87865000Y-123049000D02*
X87865000Y-119749000D01*
X87630000Y-97692936D02*
X87630000Y-99147064D01*
X89450000Y-97692936D02*
X89450000Y-99147064D01*
X117102936Y-56870000D02*
X118557064Y-56870000D01*
X117102936Y-58690000D02*
X118557064Y-58690000D01*
X171482936Y-79100000D02*
X172687064Y-79100000D01*
X171482936Y-80920000D02*
X172687064Y-80920000D01*
X137220000Y-52640000D02*
X134560000Y-52640000D01*
X137220000Y-100960000D02*
X134560000Y-100960000D01*
X134560000Y-100960000D02*
X134560000Y-52640000D01*
X137220000Y-103560000D02*
X135890000Y-103560000D01*
X137220000Y-102230000D02*
X137220000Y-103560000D01*
X137220000Y-100960000D02*
X137220000Y-52640000D01*
X178795000Y-71212064D02*
X178795000Y-69757936D01*
X180615000Y-71212064D02*
X180615000Y-69757936D01*
X158644000Y-102648752D02*
X158644000Y-101226248D01*
X156824000Y-102648752D02*
X156824000Y-101226248D01*
X100872936Y-86080000D02*
X102327064Y-86080000D01*
X100872936Y-87900000D02*
X102327064Y-87900000D01*
X189010936Y-74184000D02*
X190465064Y-74184000D01*
X189010936Y-72364000D02*
X190465064Y-72364000D01*
%LPC*%
D13*
X158750000Y-87287500D03*
X158750000Y-84162500D03*
D14*
X95885000Y-74995000D03*
X94615000Y-74995000D03*
X93345000Y-74995000D03*
X92075000Y-74995000D03*
X90805000Y-74995000D03*
X89535000Y-74995000D03*
X88265000Y-74995000D03*
X88265000Y-79945000D03*
X89535000Y-79945000D03*
X90805000Y-79945000D03*
X92075000Y-79945000D03*
X93345000Y-79945000D03*
X94615000Y-79945000D03*
X95885000Y-79945000D03*
D13*
X167640000Y-79667500D03*
X167640000Y-76542500D03*
D15*
X161707500Y-72390000D03*
X164682500Y-72390000D03*
D16*
X91440000Y-86355000D03*
X88315000Y-86355000D03*
D17*
X91995000Y-59025000D03*
D18*
X86995000Y-54025000D03*
D17*
X81995000Y-59025000D03*
D19*
X78385000Y-71755000D03*
X75285000Y-71755000D03*
D20*
X92710000Y-107590000D03*
X92710000Y-104490000D03*
D13*
X167640000Y-72047500D03*
X167640000Y-68922500D03*
D21*
X152755000Y-76195000D03*
X155855000Y-76195000D03*
D20*
X96520000Y-107590000D03*
X96520000Y-104490000D03*
D22*
X132715000Y-111755000D03*
D23*
X132715000Y-114295000D03*
D16*
X103797500Y-100960000D03*
X100672500Y-100960000D03*
D15*
X161707500Y-80010000D03*
X164682500Y-80010000D03*
D20*
X179705000Y-79655000D03*
X179705000Y-76555000D03*
D24*
X82550000Y-80640000D03*
D23*
X82550000Y-78100000D03*
X82550000Y-75560000D03*
D25*
X197110000Y-113815000D03*
X172110000Y-113815000D03*
D26*
X179070000Y-112395000D03*
D27*
X181840000Y-112395000D03*
X184610000Y-112395000D03*
X187380000Y-112395000D03*
X190150000Y-112395000D03*
X180455000Y-115235000D03*
X183225000Y-115235000D03*
X185995000Y-115235000D03*
X188765000Y-115235000D03*
D16*
X103797500Y-95880000D03*
X100672500Y-95880000D03*
D28*
X88315000Y-83185000D03*
X91440000Y-83185000D03*
D14*
X154940000Y-98490000D03*
X153670000Y-98490000D03*
X152400000Y-98490000D03*
X151130000Y-98490000D03*
X149860000Y-98490000D03*
X148590000Y-98490000D03*
X147320000Y-98490000D03*
X146050000Y-98490000D03*
X146050000Y-103440000D03*
X147320000Y-103440000D03*
X148590000Y-103440000D03*
X149860000Y-103440000D03*
X151130000Y-103440000D03*
X152400000Y-103440000D03*
X153670000Y-103440000D03*
X154940000Y-103440000D03*
X98425000Y-95945000D03*
X97155000Y-95945000D03*
X95885000Y-95945000D03*
X94615000Y-95945000D03*
X93345000Y-95945000D03*
X92075000Y-95945000D03*
X90805000Y-95945000D03*
X90805000Y-100895000D03*
X92075000Y-100895000D03*
X93345000Y-100895000D03*
X94615000Y-100895000D03*
X95885000Y-100895000D03*
X97155000Y-100895000D03*
X98425000Y-100895000D03*
D22*
X202565000Y-111755000D03*
D23*
X202565000Y-114295000D03*
D28*
X86702500Y-71750000D03*
X89827500Y-71750000D03*
D20*
X179705000Y-87275000D03*
X179705000Y-84175000D03*
D21*
X152755000Y-80005000D03*
X155855000Y-80005000D03*
D15*
X170597500Y-72390000D03*
X173572500Y-72390000D03*
D29*
X140660000Y-60125000D03*
X149860000Y-60125000D03*
X145260000Y-54125000D03*
D30*
X142720000Y-58025000D03*
X145260000Y-58025000D03*
X147800000Y-58025000D03*
D13*
X176530000Y-79667500D03*
X176530000Y-76542500D03*
D28*
X80987500Y-67940000D03*
X84112500Y-67940000D03*
D31*
X219710000Y-119375000D03*
D16*
X101257500Y-67945000D03*
X98132500Y-67945000D03*
D32*
X231280000Y-115355000D03*
X208280000Y-57355000D03*
X208280000Y-115355000D03*
X231280000Y-57355000D03*
D22*
X209550000Y-62225000D03*
D23*
X207010000Y-62225000D03*
X209550000Y-64765000D03*
X207010000Y-64765000D03*
X209550000Y-67305000D03*
X207010000Y-67305000D03*
X209550000Y-69845000D03*
X207010000Y-69845000D03*
X209550000Y-72385000D03*
X207010000Y-72385000D03*
X209550000Y-74925000D03*
X207010000Y-74925000D03*
X209550000Y-77465000D03*
X207010000Y-77465000D03*
X209550000Y-80005000D03*
X207010000Y-80005000D03*
X209550000Y-82545000D03*
X207010000Y-82545000D03*
X209550000Y-85085000D03*
X207010000Y-85085000D03*
X209550000Y-87625000D03*
X207010000Y-87625000D03*
X209550000Y-90165000D03*
X207010000Y-90165000D03*
X209550000Y-92705000D03*
X207010000Y-92705000D03*
X209550000Y-95245000D03*
X207010000Y-95245000D03*
X209550000Y-97785000D03*
X207010000Y-97785000D03*
X209550000Y-100325000D03*
X207010000Y-100325000D03*
X209550000Y-102865000D03*
X207010000Y-102865000D03*
X209550000Y-105405000D03*
X207010000Y-105405000D03*
X209550000Y-107945000D03*
X207010000Y-107945000D03*
X209550000Y-110485000D03*
X207010000Y-110485000D03*
D21*
X152755000Y-83815000D03*
X155855000Y-83815000D03*
D28*
X94030000Y-83185000D03*
X97155000Y-83185000D03*
D19*
X95530000Y-67940000D03*
X92430000Y-67940000D03*
D21*
X86715000Y-67940000D03*
X89815000Y-67940000D03*
D28*
X121970000Y-57780000D03*
X125095000Y-57780000D03*
D25*
X163455000Y-113810000D03*
X138455000Y-113810000D03*
D26*
X145415000Y-112390000D03*
D27*
X148185000Y-112390000D03*
X150955000Y-112390000D03*
X153725000Y-112390000D03*
X156495000Y-112390000D03*
X146800000Y-115230000D03*
X149570000Y-115230000D03*
X152340000Y-115230000D03*
X155110000Y-115230000D03*
D16*
X101257500Y-80010000D03*
X98132500Y-80010000D03*
D15*
X170597500Y-87630000D03*
X173572500Y-87630000D03*
D24*
X106045000Y-84450000D03*
D23*
X106045000Y-81910000D03*
D33*
X195580000Y-63160000D03*
D34*
X190580000Y-60060000D03*
D35*
X195580000Y-56960000D03*
D24*
X202565000Y-63495000D03*
D23*
X202565000Y-60955000D03*
D21*
X81000000Y-71755000D03*
X84100000Y-71755000D03*
D22*
X202565000Y-67305000D03*
D23*
X202565000Y-69845000D03*
X202565000Y-72385000D03*
D13*
X176530000Y-72047500D03*
X176530000Y-68922500D03*
X190500000Y-103792500D03*
X190500000Y-100667500D03*
D36*
X197790000Y-66135000D03*
X193390000Y-66135000D03*
D21*
X100050000Y-90800000D03*
X103150000Y-90800000D03*
D26*
X143510000Y-107950000D03*
D37*
X146050000Y-107950000D03*
X148590000Y-107950000D03*
X151130000Y-107950000D03*
X153670000Y-107950000D03*
X156210000Y-107950000D03*
X158750000Y-107950000D03*
X161290000Y-107950000D03*
X163830000Y-107950000D03*
D21*
X152755000Y-72385000D03*
X155855000Y-72385000D03*
D38*
X107315000Y-111760000D03*
D23*
X104775000Y-111760000D03*
D39*
X161290000Y-102235000D03*
D23*
X161290000Y-99695000D03*
X163830000Y-102235000D03*
X163830000Y-99695000D03*
X166370000Y-102235000D03*
X166370000Y-99695000D03*
X168910000Y-102235000D03*
X168910000Y-99695000D03*
X171450000Y-102235000D03*
X171450000Y-99695000D03*
X173990000Y-102235000D03*
X173990000Y-99695000D03*
D20*
X100330000Y-107590000D03*
X100330000Y-104490000D03*
D14*
X187960000Y-98490000D03*
X186690000Y-98490000D03*
X185420000Y-98490000D03*
X184150000Y-98490000D03*
X182880000Y-98490000D03*
X181610000Y-98490000D03*
X180340000Y-98490000D03*
X179070000Y-98490000D03*
X179070000Y-103440000D03*
X180340000Y-103440000D03*
X181610000Y-103440000D03*
X182880000Y-103440000D03*
X184150000Y-103440000D03*
X185420000Y-103440000D03*
X186690000Y-103440000D03*
X187960000Y-103440000D03*
D31*
X76835000Y-53335000D03*
D15*
X161707500Y-87630000D03*
X164682500Y-87630000D03*
D16*
X78397500Y-67940000D03*
X75272500Y-67940000D03*
D40*
X130810000Y-102235000D03*
X130810000Y-99695000D03*
X130810000Y-97155000D03*
X130810000Y-94615000D03*
X130810000Y-92075000D03*
X130810000Y-89535000D03*
X130810000Y-86995000D03*
X130810000Y-84455000D03*
X130810000Y-81915000D03*
X130810000Y-79375000D03*
X130810000Y-76835000D03*
X130810000Y-74295000D03*
X130810000Y-71755000D03*
X130810000Y-69215000D03*
X130810000Y-66675000D03*
X130810000Y-64135000D03*
X130810000Y-61595000D03*
X130810000Y-59055000D03*
X130810000Y-56515000D03*
X130810000Y-53975000D03*
X110490000Y-53975000D03*
X110490000Y-56515000D03*
X110490000Y-59055000D03*
X110490000Y-61595000D03*
X110490000Y-64135000D03*
X110490000Y-66675000D03*
X110490000Y-69215000D03*
X110490000Y-71755000D03*
X110490000Y-74295000D03*
X110490000Y-76835000D03*
X110490000Y-79375000D03*
X110490000Y-81915000D03*
X110490000Y-84455000D03*
X110490000Y-86995000D03*
X110490000Y-89535000D03*
X110490000Y-92075000D03*
X110490000Y-94615000D03*
X110490000Y-97155000D03*
X110490000Y-99695000D03*
X110490000Y-102235000D03*
D25*
X182550000Y-61010000D03*
X157550000Y-61010000D03*
D41*
X165735000Y-63550000D03*
D27*
X168025000Y-63550000D03*
X170315000Y-63550000D03*
X172605000Y-63550000D03*
X174895000Y-63550000D03*
X164590000Y-61010000D03*
X166880000Y-61010000D03*
X169170000Y-61010000D03*
X171460000Y-61010000D03*
X173750000Y-61010000D03*
X165735000Y-58470000D03*
X168025000Y-58470000D03*
X170315000Y-58470000D03*
X172605000Y-58470000D03*
X174895000Y-58470000D03*
D19*
X196876000Y-73274000D03*
X193776000Y-73274000D03*
D24*
X76835000Y-80645000D03*
D23*
X76835000Y-78105000D03*
X76835000Y-75565000D03*
D13*
X158750000Y-79667500D03*
X158750000Y-76542500D03*
D16*
X101257500Y-74930000D03*
X98132500Y-74930000D03*
D42*
X95330000Y-58325000D03*
X105330000Y-58325000D03*
D43*
X100330000Y-54525000D03*
D31*
X76835000Y-119375000D03*
D13*
X158750000Y-72047500D03*
X158750000Y-68922500D03*
X167640000Y-87287500D03*
X167640000Y-84162500D03*
D20*
X88900000Y-107590000D03*
X88900000Y-104490000D03*
D41*
X191785000Y-107950000D03*
D37*
X189245000Y-107950000D03*
X186705000Y-107950000D03*
X184165000Y-107950000D03*
X181625000Y-107950000D03*
X179085000Y-107950000D03*
X176545000Y-107950000D03*
X174005000Y-107950000D03*
X171465000Y-107950000D03*
D21*
X152755000Y-68575000D03*
X155855000Y-68575000D03*
D24*
X146050000Y-86990000D03*
D23*
X146050000Y-84450000D03*
X146050000Y-81910000D03*
X146050000Y-79370000D03*
X146050000Y-76830000D03*
X146050000Y-74290000D03*
X146050000Y-71750000D03*
X146050000Y-69210000D03*
X143510000Y-86990000D03*
X143510000Y-84450000D03*
X143510000Y-81910000D03*
X143510000Y-79370000D03*
X143510000Y-76830000D03*
X143510000Y-74290000D03*
X143510000Y-71750000D03*
X143510000Y-69210000D03*
X140970000Y-86990000D03*
X140970000Y-84450000D03*
X140970000Y-81910000D03*
X140970000Y-79370000D03*
X140970000Y-76830000D03*
X140970000Y-74290000D03*
X140970000Y-71750000D03*
X140970000Y-69210000D03*
D21*
X152755000Y-87625000D03*
X155855000Y-87625000D03*
D13*
X176530000Y-87287500D03*
X176530000Y-84162500D03*
D44*
X87865000Y-117549000D03*
X101365000Y-117549000D03*
D45*
X94615000Y-118349000D03*
D40*
X95915000Y-114549000D03*
X93315000Y-114549000D03*
X98015000Y-114549000D03*
X91215000Y-114549000D03*
X98015000Y-112049000D03*
X91215000Y-112049000D03*
D46*
X88540000Y-96870000D03*
X88540000Y-99970000D03*
D21*
X116280000Y-57780000D03*
X119380000Y-57780000D03*
D15*
X170597500Y-80010000D03*
X173572500Y-80010000D03*
D24*
X135890000Y-102230000D03*
D23*
X135890000Y-99690000D03*
X135890000Y-97150000D03*
X135890000Y-94610000D03*
X135890000Y-92070000D03*
X135890000Y-89530000D03*
X135890000Y-86990000D03*
X135890000Y-84450000D03*
X135890000Y-81910000D03*
X135890000Y-79370000D03*
X135890000Y-76830000D03*
X135890000Y-74290000D03*
X135890000Y-71750000D03*
X135890000Y-69210000D03*
X135890000Y-66670000D03*
X135890000Y-64130000D03*
X135890000Y-61590000D03*
X135890000Y-59050000D03*
X135890000Y-56510000D03*
X135890000Y-53970000D03*
D20*
X179705000Y-72035000D03*
X179705000Y-68935000D03*
D13*
X157734000Y-103500000D03*
X157734000Y-100375000D03*
D21*
X100050000Y-86990000D03*
X103150000Y-86990000D03*
X188188000Y-73274000D03*
X191288000Y-73274000D03*
D31*
X219710000Y-53335000D03*
M02*
