M48
; DRILL file {KiCad 6.0.10-86aedd382b~118~ubuntu18.04.1} date Thu 01 May 2025 16:39:25 BST
; FORMAT={-:-/ absolute / metric / decimal}
; #@! TF.CreationDate,2025-05-01T16:39:25+01:00
; #@! TF.GenerationSoftware,Kicad,Pcbnew,6.0.10-86aedd382b~118~ubuntu18.04.1
; #@! TF.FileFunction,Plated,1,2,PTH
FMAT,2
METRIC
; #@! TA.AperFunction,Plated,PTH,ViaDrill
T1C0.406
; #@! TA.AperFunction,Plated,PTH,ViaDrill
T2C0.610
; #@! TA.AperFunction,Plated,PTH,ComponentDrill
T3C0.650
; #@! TA.AperFunction,Plated,PTH,ComponentDrill
T4C0.762
; #@! TA.AperFunction,Plated,PTH,ComponentDrill
T5C0.800
; #@! TA.AperFunction,Plated,PTH,ComponentDrill
T6C1.000
; #@! TA.AperFunction,Plated,PTH,ComponentDrill
T7C3.200
%
G90
G05
T1
X85.09Y-88.26
X85.09Y-89.535
X95.25Y-88.26
X95.25Y-89.53
X97.79Y-70.485
X97.79Y-71.755
X97.79Y-73.025
X97.79Y-77.47
X101.6Y-70.485
X101.6Y-71.755
X101.6Y-73.025
X101.6Y-77.47
X113.665Y-99.695
X113.67Y-97.155
X126.365Y-64.13
X126.365Y-97.15
X126.365Y-108.58
X127.635Y-65.4
X127.635Y-98.42
X128.905Y-66.67
X128.905Y-100.96
X142.24Y-99.055
X142.24Y-101.595
X143.355Y-60.955
X143.51Y-66.67
X143.51Y-92.07
X147.32Y-105.405
X152.4Y-100.325
X153.67Y-93.34
X178.435Y-105.405
X181.61Y-64.135
X181.61Y-69.21
X182.88Y-64.765
X182.88Y-76.83
X184.15Y-64.135
X184.15Y-81.91
X185.42Y-96.515
X187.96Y-96.515
X198.12Y-77.465
X198.12Y-88.895
X199.39Y-77.465
X199.39Y-88.895
X200.66Y-77.465
X200.66Y-88.895
X201.93Y-77.465
X201.93Y-88.895
T2
X79.629Y-66.035
X86.36Y-66.035
X86.365Y-83.185
X90.17Y-77.47
X90.805Y-93.848
X102.997Y-74.925
X102.997Y-80.01
X103.797Y-98.42
X127.0Y-57.78
X144.78Y-98.425
X156.185Y-101.849
X157.734Y-98.42
X160.655Y-68.922
X160.655Y-76.542
X160.655Y-84.162
X165.735Y-68.922
X165.735Y-76.542
X165.735Y-84.162
X169.545Y-68.922
X169.545Y-76.542
X169.545Y-84.162
X174.625Y-68.922
X174.625Y-76.542
X174.625Y-84.162
X177.165Y-104.135
X177.8Y-98.425
X180.34Y-105.41
X186.69Y-105.41
X191.135Y-99.185
X201.925Y-52.07
X212.725Y-58.415
T4
X91.215Y-112.049
X91.215Y-114.549
X93.315Y-114.549
X95.915Y-114.549
X98.015Y-112.049
X98.015Y-114.549
X110.49Y-53.975
X110.49Y-56.515
X110.49Y-59.055
X110.49Y-61.595
X110.49Y-64.135
X110.49Y-66.675
X110.49Y-69.215
X110.49Y-71.755
X110.49Y-74.295
X110.49Y-76.835
X110.49Y-79.375
X110.49Y-81.915
X110.49Y-84.455
X110.49Y-86.995
X110.49Y-89.535
X110.49Y-92.075
X110.49Y-94.615
X110.49Y-97.155
X110.49Y-99.695
X110.49Y-102.235
X130.81Y-53.975
X130.81Y-56.515
X130.81Y-59.055
X130.81Y-61.595
X130.81Y-64.135
X130.81Y-66.675
X130.81Y-69.215
X130.81Y-71.755
X130.81Y-74.295
X130.81Y-76.835
X130.81Y-79.375
X130.81Y-81.915
X130.81Y-84.455
X130.81Y-86.995
X130.81Y-89.535
X130.81Y-92.075
X130.81Y-94.615
X130.81Y-97.155
X130.81Y-99.695
X130.81Y-102.235
T5
X142.72Y-58.025
X143.51Y-107.95
X145.26Y-58.025
X146.05Y-107.95
X147.8Y-58.025
X148.59Y-107.95
X151.13Y-107.95
X153.67Y-107.95
X156.21Y-107.95
X158.75Y-107.95
X161.29Y-107.95
X163.83Y-107.95
X171.465Y-107.95
X174.005Y-107.95
X176.545Y-107.95
X179.085Y-107.95
X181.625Y-107.95
X184.165Y-107.95
X186.705Y-107.95
X189.245Y-107.95
X191.785Y-107.95
T6
X76.835Y-75.565
X76.835Y-78.105
X76.835Y-80.645
X82.55Y-75.56
X82.55Y-78.1
X82.55Y-80.64
X104.775Y-111.76
X106.045Y-81.91
X106.045Y-84.45
X107.315Y-111.76
X132.715Y-111.755
X132.715Y-114.295
X135.89Y-53.97
X135.89Y-56.51
X135.89Y-59.05
X135.89Y-61.59
X135.89Y-64.13
X135.89Y-66.67
X135.89Y-69.21
X135.89Y-71.75
X135.89Y-74.29
X135.89Y-76.83
X135.89Y-79.37
X135.89Y-81.91
X135.89Y-84.45
X135.89Y-86.99
X135.89Y-89.53
X135.89Y-92.07
X135.89Y-94.61
X135.89Y-97.15
X135.89Y-99.69
X135.89Y-102.23
X140.97Y-69.21
X140.97Y-71.75
X140.97Y-74.29
X140.97Y-76.83
X140.97Y-79.37
X140.97Y-81.91
X140.97Y-84.45
X140.97Y-86.99
X143.51Y-69.21
X143.51Y-71.75
X143.51Y-74.29
X143.51Y-76.83
X143.51Y-79.37
X143.51Y-81.91
X143.51Y-84.45
X143.51Y-86.99
X145.415Y-112.39
X146.05Y-69.21
X146.05Y-71.75
X146.05Y-74.29
X146.05Y-76.83
X146.05Y-79.37
X146.05Y-81.91
X146.05Y-84.45
X146.05Y-86.99
X146.8Y-115.23
X148.185Y-112.39
X149.57Y-115.23
X150.955Y-112.39
X152.34Y-115.23
X153.725Y-112.39
X155.11Y-115.23
X156.495Y-112.39
X161.29Y-99.695
X161.29Y-102.235
X163.83Y-99.695
X163.83Y-102.235
X164.59Y-61.01
X165.735Y-58.47
X165.735Y-63.55
X166.37Y-99.695
X166.37Y-102.235
X166.88Y-61.01
X168.025Y-58.47
X168.025Y-63.55
X168.91Y-99.695
X168.91Y-102.235
X169.17Y-61.01
X170.315Y-58.47
X170.315Y-63.55
X171.45Y-99.695
X171.45Y-102.235
X171.46Y-61.01
X172.605Y-58.47
X172.605Y-63.55
X173.75Y-61.01
X173.99Y-99.695
X173.99Y-102.235
X174.895Y-58.47
X174.895Y-63.55
X179.07Y-112.395
X180.455Y-115.235
X181.84Y-112.395
X183.225Y-115.235
X184.61Y-112.395
X185.995Y-115.235
X187.38Y-112.395
X188.765Y-115.235
X190.15Y-112.395
X202.565Y-60.955
X202.565Y-63.495
X202.565Y-67.305
X202.565Y-69.845
X202.565Y-72.385
X202.565Y-111.755
X202.565Y-114.295
X207.01Y-62.225
X207.01Y-64.765
X207.01Y-67.305
X207.01Y-69.845
X207.01Y-72.385
X207.01Y-74.925
X207.01Y-77.465
X207.01Y-80.005
X207.01Y-82.545
X207.01Y-85.085
X207.01Y-87.625
X207.01Y-90.165
X207.01Y-92.705
X207.01Y-95.245
X207.01Y-97.785
X207.01Y-100.325
X207.01Y-102.865
X207.01Y-105.405
X207.01Y-107.945
X207.01Y-110.485
X209.55Y-62.225
X209.55Y-64.765
X209.55Y-67.305
X209.55Y-69.845
X209.55Y-72.385
X209.55Y-74.925
X209.55Y-77.465
X209.55Y-80.005
X209.55Y-82.545
X209.55Y-85.085
X209.55Y-87.625
X209.55Y-90.165
X209.55Y-92.705
X209.55Y-95.245
X209.55Y-97.785
X209.55Y-100.325
X209.55Y-102.865
X209.55Y-105.405
X209.55Y-107.945
X209.55Y-110.485
T7
X138.455Y-113.81
X157.55Y-61.01
X163.455Y-113.81
X172.11Y-113.815
X182.55Y-61.01
X197.11Y-113.815
T3
X81.995Y-58.6G85X81.995Y-59.45
G05
X87.42Y-54.025G85X86.57Y-54.025
G05
X91.995Y-59.45G85X91.995Y-58.6
G05
T4
X87.865Y-118.318G85X87.865Y-116.78
G05
X93.846Y-118.349G85X95.384Y-118.349
G05
X101.365Y-118.318G85X101.365Y-116.78
G05
T5
X95.33Y-57.325G85X95.33Y-59.325
G05
X105.33Y-57.325G85X105.33Y-59.325
G05
T6
X99.43Y-54.525G85X101.23Y-54.525
G05
X190.58Y-58.76G85X190.58Y-61.36
G05
X194.28Y-56.96G85X196.88Y-56.96
G05
X196.88Y-63.16G85X194.28Y-63.16
G05
T0
M30
