%TF.GenerationSoftware,KiCad,Pcbnew,6.0.10-86aedd382b~118~ubuntu18.04.1*%
%TF.CreationDate,2025-05-01T16:39:26+01:00*%
%TF.ProjectId,tangnano20k_dock,74616e67-6e61-46e6-9f32-306b5f646f63,rev?*%
%TF.SameCoordinates,Original*%
%TF.FileFunction,Drillmap*%
%TF.FilePolarity,Positive*%
%FSLAX45Y45*%
G04 Gerber Fmt 4.5, Leading zero omitted, Abs format (unit mm)*
G04 Created by KiCad (PCBNEW 6.0.10-86aedd382b~118~ubuntu18.04.1) date 2025-05-01 16:39:26*
%MOMM*%
%LPD*%
G01*
G04 APERTURE LIST*
%ADD10C,0.150000*%
%ADD11C,0.200000*%
%ADD12C,0.040640*%
%ADD13C,0.060960*%
%ADD14C,0.065000*%
%ADD15C,0.076200*%
%ADD16C,0.080000*%
%ADD17C,0.100000*%
%ADD18C,0.320000*%
G04 APERTURE END LIST*
D10*
X7683500Y-4952500D02*
G75*
G03*
X7302500Y-5333500I0J-381000D01*
G01*
X9271000Y-4952500D02*
X23114000Y-4952500D01*
X23114000Y-12318500D02*
X7683500Y-12319000D01*
X23114000Y-12318500D02*
G75*
G03*
X23495000Y-11937500I0J381000D01*
G01*
X7302500Y-5333500D02*
X7302500Y-11937500D01*
X23495000Y-5333500D02*
G75*
G03*
X23114000Y-4952500I-381000J0D01*
G01*
X23495000Y-11937500D02*
X23495000Y-5333500D01*
X7683500Y-4952500D02*
X8128000Y-4952500D01*
X7302500Y-11937500D02*
G75*
G03*
X7683500Y-12319000I381500J0D01*
G01*
D11*
D12*
X8488680Y-8805680D02*
X8529320Y-8846320D01*
X8529320Y-8805680D02*
X8488680Y-8846320D01*
X8488680Y-8933180D02*
X8529320Y-8973820D01*
X8529320Y-8933180D02*
X8488680Y-8973820D01*
X9504680Y-8805680D02*
X9545320Y-8846320D01*
X9545320Y-8805680D02*
X9504680Y-8846320D01*
X9504680Y-8932680D02*
X9545320Y-8973320D01*
X9545320Y-8932680D02*
X9504680Y-8973320D01*
X9758680Y-7028180D02*
X9799320Y-7068820D01*
X9799320Y-7028180D02*
X9758680Y-7068820D01*
X9758680Y-7155180D02*
X9799320Y-7195820D01*
X9799320Y-7155180D02*
X9758680Y-7195820D01*
X9758680Y-7282180D02*
X9799320Y-7322820D01*
X9799320Y-7282180D02*
X9758680Y-7322820D01*
X9758680Y-7726680D02*
X9799320Y-7767320D01*
X9799320Y-7726680D02*
X9758680Y-7767320D01*
X10139680Y-7028180D02*
X10180320Y-7068820D01*
X10180320Y-7028180D02*
X10139680Y-7068820D01*
X10139680Y-7155180D02*
X10180320Y-7195820D01*
X10180320Y-7155180D02*
X10139680Y-7195820D01*
X10139680Y-7282180D02*
X10180320Y-7322820D01*
X10180320Y-7282180D02*
X10139680Y-7322820D01*
X10139680Y-7726680D02*
X10180320Y-7767320D01*
X10180320Y-7726680D02*
X10139680Y-7767320D01*
X11346180Y-9949180D02*
X11386820Y-9989820D01*
X11386820Y-9949180D02*
X11346180Y-9989820D01*
X11346680Y-9695180D02*
X11387320Y-9735820D01*
X11387320Y-9695180D02*
X11346680Y-9735820D01*
X12616180Y-6392680D02*
X12656820Y-6433320D01*
X12656820Y-6392680D02*
X12616180Y-6433320D01*
X12616180Y-9694680D02*
X12656820Y-9735320D01*
X12656820Y-9694680D02*
X12616180Y-9735320D01*
X12616180Y-10837680D02*
X12656820Y-10878320D01*
X12656820Y-10837680D02*
X12616180Y-10878320D01*
X12743180Y-6519680D02*
X12783820Y-6560320D01*
X12783820Y-6519680D02*
X12743180Y-6560320D01*
X12743180Y-9821680D02*
X12783820Y-9862320D01*
X12783820Y-9821680D02*
X12743180Y-9862320D01*
X12870180Y-6646680D02*
X12910820Y-6687320D01*
X12910820Y-6646680D02*
X12870180Y-6687320D01*
X12870180Y-10075680D02*
X12910820Y-10116320D01*
X12910820Y-10075680D02*
X12870180Y-10116320D01*
X14203680Y-9885180D02*
X14244320Y-9925820D01*
X14244320Y-9885180D02*
X14203680Y-9925820D01*
X14203680Y-10139180D02*
X14244320Y-10179820D01*
X14244320Y-10139180D02*
X14203680Y-10179820D01*
X14315180Y-6075180D02*
X14355820Y-6115820D01*
X14355820Y-6075180D02*
X14315180Y-6115820D01*
X14330680Y-6646680D02*
X14371320Y-6687320D01*
X14371320Y-6646680D02*
X14330680Y-6687320D01*
X14330680Y-9186680D02*
X14371320Y-9227320D01*
X14371320Y-9186680D02*
X14330680Y-9227320D01*
X14711680Y-10520180D02*
X14752320Y-10560820D01*
X14752320Y-10520180D02*
X14711680Y-10560820D01*
X15219680Y-10012180D02*
X15260320Y-10052820D01*
X15260320Y-10012180D02*
X15219680Y-10052820D01*
X15346680Y-9313680D02*
X15387320Y-9354320D01*
X15387320Y-9313680D02*
X15346680Y-9354320D01*
X17823180Y-10520180D02*
X17863820Y-10560820D01*
X17863820Y-10520180D02*
X17823180Y-10560820D01*
X18140680Y-6393180D02*
X18181320Y-6433820D01*
X18181320Y-6393180D02*
X18140680Y-6433820D01*
X18140680Y-6900680D02*
X18181320Y-6941320D01*
X18181320Y-6900680D02*
X18140680Y-6941320D01*
X18267680Y-6456180D02*
X18308320Y-6496820D01*
X18308320Y-6456180D02*
X18267680Y-6496820D01*
X18267680Y-7662680D02*
X18308320Y-7703320D01*
X18308320Y-7662680D02*
X18267680Y-7703320D01*
X18394680Y-6393180D02*
X18435320Y-6433820D01*
X18435320Y-6393180D02*
X18394680Y-6433820D01*
X18394680Y-8170680D02*
X18435320Y-8211320D01*
X18435320Y-8170680D02*
X18394680Y-8211320D01*
X18521680Y-9631180D02*
X18562320Y-9671820D01*
X18562320Y-9631180D02*
X18521680Y-9671820D01*
X18775680Y-9631180D02*
X18816320Y-9671820D01*
X18816320Y-9631180D02*
X18775680Y-9671820D01*
X19791680Y-7726180D02*
X19832320Y-7766820D01*
X19832320Y-7726180D02*
X19791680Y-7766820D01*
X19791680Y-8869180D02*
X19832320Y-8909820D01*
X19832320Y-8869180D02*
X19791680Y-8909820D01*
X19918680Y-7726180D02*
X19959320Y-7766820D01*
X19959320Y-7726180D02*
X19918680Y-7766820D01*
X19918680Y-8869180D02*
X19959320Y-8909820D01*
X19959320Y-8869180D02*
X19918680Y-8909820D01*
X20045680Y-7726180D02*
X20086320Y-7766820D01*
X20086320Y-7726180D02*
X20045680Y-7766820D01*
X20045680Y-8869180D02*
X20086320Y-8909820D01*
X20086320Y-8869180D02*
X20045680Y-8909820D01*
X20172680Y-7726180D02*
X20213320Y-7766820D01*
X20213320Y-7726180D02*
X20172680Y-7766820D01*
X20172680Y-8869180D02*
X20213320Y-8909820D01*
X20213320Y-8869180D02*
X20172680Y-8909820D01*
D13*
X7993380Y-6603500D02*
G75*
G03*
X7993380Y-6603500I-30480J0D01*
G01*
X8666480Y-6603500D02*
G75*
G03*
X8666480Y-6603500I-30480J0D01*
G01*
X8666980Y-8318500D02*
G75*
G03*
X8666980Y-8318500I-30480J0D01*
G01*
X9047480Y-7747000D02*
G75*
G03*
X9047480Y-7747000I-30480J0D01*
G01*
X9110980Y-9384800D02*
G75*
G03*
X9110980Y-9384800I-30480J0D01*
G01*
X10330180Y-7492500D02*
G75*
G03*
X10330180Y-7492500I-30480J0D01*
G01*
X10330180Y-8001000D02*
G75*
G03*
X10330180Y-8001000I-30480J0D01*
G01*
X10410230Y-9842000D02*
G75*
G03*
X10410230Y-9842000I-30480J0D01*
G01*
X12730480Y-5778000D02*
G75*
G03*
X12730480Y-5778000I-30480J0D01*
G01*
X14508480Y-9842500D02*
G75*
G03*
X14508480Y-9842500I-30480J0D01*
G01*
X15648940Y-10184900D02*
G75*
G03*
X15648940Y-10184900I-30480J0D01*
G01*
X15803880Y-9842000D02*
G75*
G03*
X15803880Y-9842000I-30480J0D01*
G01*
X16095980Y-6892250D02*
G75*
G03*
X16095980Y-6892250I-30480J0D01*
G01*
X16095980Y-7654250D02*
G75*
G03*
X16095980Y-7654250I-30480J0D01*
G01*
X16095980Y-8416250D02*
G75*
G03*
X16095980Y-8416250I-30480J0D01*
G01*
X16603980Y-6892250D02*
G75*
G03*
X16603980Y-6892250I-30480J0D01*
G01*
X16603980Y-7654250D02*
G75*
G03*
X16603980Y-7654250I-30480J0D01*
G01*
X16603980Y-8416250D02*
G75*
G03*
X16603980Y-8416250I-30480J0D01*
G01*
X16984980Y-6892250D02*
G75*
G03*
X16984980Y-6892250I-30480J0D01*
G01*
X16984980Y-7654250D02*
G75*
G03*
X16984980Y-7654250I-30480J0D01*
G01*
X16984980Y-8416250D02*
G75*
G03*
X16984980Y-8416250I-30480J0D01*
G01*
X17492980Y-6892250D02*
G75*
G03*
X17492980Y-6892250I-30480J0D01*
G01*
X17492980Y-7654250D02*
G75*
G03*
X17492980Y-7654250I-30480J0D01*
G01*
X17492980Y-8416250D02*
G75*
G03*
X17492980Y-8416250I-30480J0D01*
G01*
X17746980Y-10413500D02*
G75*
G03*
X17746980Y-10413500I-30480J0D01*
G01*
X17810480Y-9842500D02*
G75*
G03*
X17810480Y-9842500I-30480J0D01*
G01*
X18064480Y-10541000D02*
G75*
G03*
X18064480Y-10541000I-30480J0D01*
G01*
X18699480Y-10541000D02*
G75*
G03*
X18699480Y-10541000I-30480J0D01*
G01*
X19143980Y-9918500D02*
G75*
G03*
X19143980Y-9918500I-30480J0D01*
G01*
X20222980Y-5207000D02*
G75*
G03*
X20222980Y-5207000I-30480J0D01*
G01*
X21302980Y-5841500D02*
G75*
G03*
X21302980Y-5841500I-30480J0D01*
G01*
D14*
X8199500Y-5870000D02*
X8199500Y-5935000D01*
X8167000Y-5902500D02*
X8232000Y-5902500D01*
D11*
X8167000Y-5860000D02*
X8167000Y-5945000D01*
X8232000Y-5860000D02*
X8232000Y-5945000D01*
X8167000Y-5945000D02*
G75*
G03*
X8232000Y-5945000I32500J0D01*
G01*
X8232000Y-5860000D02*
G75*
G03*
X8167000Y-5860000I-32500J0D01*
G01*
D14*
X8699500Y-5370000D02*
X8699500Y-5435000D01*
X8667000Y-5402500D02*
X8732000Y-5402500D01*
D11*
X8742000Y-5370000D02*
X8657000Y-5370000D01*
X8742000Y-5435000D02*
X8657000Y-5435000D01*
X8657000Y-5370000D02*
G75*
G03*
X8657000Y-5435000I0J-32500D01*
G01*
X8742000Y-5435000D02*
G75*
G03*
X8742000Y-5370000I0J32500D01*
G01*
D14*
X9199500Y-5870000D02*
X9199500Y-5935000D01*
X9167000Y-5902500D02*
X9232000Y-5902500D01*
D11*
X9232000Y-5945000D02*
X9232000Y-5860000D01*
X9167000Y-5945000D02*
X9167000Y-5860000D01*
X9232000Y-5860000D02*
G75*
G03*
X9167000Y-5860000I-32500J0D01*
G01*
X9167000Y-5945000D02*
G75*
G03*
X9232000Y-5945000I32500J0D01*
G01*
D15*
X8813441Y-11781841D02*
X8813441Y-11727959D01*
X8759559Y-11727959D01*
X8759559Y-11781841D01*
X8813441Y-11781841D01*
D11*
X8824600Y-11831800D02*
X8824600Y-11678000D01*
X8748400Y-11831800D02*
X8748400Y-11678000D01*
X8824600Y-11678000D02*
G75*
G03*
X8748400Y-11678000I-38100J0D01*
G01*
X8748400Y-11831800D02*
G75*
G03*
X8824600Y-11831800I38100J0D01*
G01*
D15*
X9148441Y-11231841D02*
X9148441Y-11177959D01*
X9094559Y-11177959D01*
X9094559Y-11231841D01*
X9148441Y-11231841D01*
X9148441Y-11481841D02*
X9148441Y-11427959D01*
X9094559Y-11427959D01*
X9094559Y-11481841D01*
X9148441Y-11481841D01*
X9358441Y-11481841D02*
X9358441Y-11427959D01*
X9304559Y-11427959D01*
X9304559Y-11481841D01*
X9358441Y-11481841D01*
X9488441Y-11861841D02*
X9488441Y-11807959D01*
X9434559Y-11807959D01*
X9434559Y-11861841D01*
X9488441Y-11861841D01*
D11*
X9384600Y-11873000D02*
X9538400Y-11873000D01*
X9384600Y-11796800D02*
X9538400Y-11796800D01*
X9538400Y-11873000D02*
G75*
G03*
X9538400Y-11796800I0J38100D01*
G01*
X9384600Y-11796800D02*
G75*
G03*
X9384600Y-11873000I0J-38100D01*
G01*
D15*
X9618441Y-11481841D02*
X9618441Y-11427959D01*
X9564559Y-11427959D01*
X9564559Y-11481841D01*
X9618441Y-11481841D01*
X9828441Y-11231841D02*
X9828441Y-11177959D01*
X9774559Y-11177959D01*
X9774559Y-11231841D01*
X9828441Y-11231841D01*
X9828441Y-11481841D02*
X9828441Y-11427959D01*
X9774559Y-11427959D01*
X9774559Y-11481841D01*
X9828441Y-11481841D01*
X10163441Y-11781841D02*
X10163441Y-11727959D01*
X10109559Y-11727959D01*
X10109559Y-11781841D01*
X10163441Y-11781841D01*
D11*
X10174600Y-11831800D02*
X10174600Y-11678000D01*
X10098400Y-11831800D02*
X10098400Y-11678000D01*
X10174600Y-11678000D02*
G75*
G03*
X10098400Y-11678000I-38100J0D01*
G01*
X10098400Y-11831800D02*
G75*
G03*
X10174600Y-11831800I38100J0D01*
G01*
D15*
X11075941Y-5424441D02*
X11075941Y-5370559D01*
X11022059Y-5370559D01*
X11022059Y-5424441D01*
X11075941Y-5424441D01*
X11075941Y-5678441D02*
X11075941Y-5624559D01*
X11022059Y-5624559D01*
X11022059Y-5678441D01*
X11075941Y-5678441D01*
X11075941Y-5932441D02*
X11075941Y-5878559D01*
X11022059Y-5878559D01*
X11022059Y-5932441D01*
X11075941Y-5932441D01*
X11075941Y-6186441D02*
X11075941Y-6132559D01*
X11022059Y-6132559D01*
X11022059Y-6186441D01*
X11075941Y-6186441D01*
X11075941Y-6440441D02*
X11075941Y-6386559D01*
X11022059Y-6386559D01*
X11022059Y-6440441D01*
X11075941Y-6440441D01*
X11075941Y-6694441D02*
X11075941Y-6640559D01*
X11022059Y-6640559D01*
X11022059Y-6694441D01*
X11075941Y-6694441D01*
X11075941Y-6948441D02*
X11075941Y-6894559D01*
X11022059Y-6894559D01*
X11022059Y-6948441D01*
X11075941Y-6948441D01*
X11075941Y-7202441D02*
X11075941Y-7148559D01*
X11022059Y-7148559D01*
X11022059Y-7202441D01*
X11075941Y-7202441D01*
X11075941Y-7456441D02*
X11075941Y-7402559D01*
X11022059Y-7402559D01*
X11022059Y-7456441D01*
X11075941Y-7456441D01*
X11075941Y-7710441D02*
X11075941Y-7656559D01*
X11022059Y-7656559D01*
X11022059Y-7710441D01*
X11075941Y-7710441D01*
X11075941Y-7964441D02*
X11075941Y-7910559D01*
X11022059Y-7910559D01*
X11022059Y-7964441D01*
X11075941Y-7964441D01*
X11075941Y-8218441D02*
X11075941Y-8164559D01*
X11022059Y-8164559D01*
X11022059Y-8218441D01*
X11075941Y-8218441D01*
X11075941Y-8472441D02*
X11075941Y-8418559D01*
X11022059Y-8418559D01*
X11022059Y-8472441D01*
X11075941Y-8472441D01*
X11075941Y-8726441D02*
X11075941Y-8672559D01*
X11022059Y-8672559D01*
X11022059Y-8726441D01*
X11075941Y-8726441D01*
X11075941Y-8980441D02*
X11075941Y-8926559D01*
X11022059Y-8926559D01*
X11022059Y-8980441D01*
X11075941Y-8980441D01*
X11075941Y-9234441D02*
X11075941Y-9180559D01*
X11022059Y-9180559D01*
X11022059Y-9234441D01*
X11075941Y-9234441D01*
X11075941Y-9488441D02*
X11075941Y-9434559D01*
X11022059Y-9434559D01*
X11022059Y-9488441D01*
X11075941Y-9488441D01*
X11075941Y-9742441D02*
X11075941Y-9688559D01*
X11022059Y-9688559D01*
X11022059Y-9742441D01*
X11075941Y-9742441D01*
X11075941Y-9996441D02*
X11075941Y-9942559D01*
X11022059Y-9942559D01*
X11022059Y-9996441D01*
X11075941Y-9996441D01*
X11075941Y-10250441D02*
X11075941Y-10196559D01*
X11022059Y-10196559D01*
X11022059Y-10250441D01*
X11075941Y-10250441D01*
X13107941Y-5424441D02*
X13107941Y-5370559D01*
X13054059Y-5370559D01*
X13054059Y-5424441D01*
X13107941Y-5424441D01*
X13107941Y-5678441D02*
X13107941Y-5624559D01*
X13054059Y-5624559D01*
X13054059Y-5678441D01*
X13107941Y-5678441D01*
X13107941Y-5932441D02*
X13107941Y-5878559D01*
X13054059Y-5878559D01*
X13054059Y-5932441D01*
X13107941Y-5932441D01*
X13107941Y-6186441D02*
X13107941Y-6132559D01*
X13054059Y-6132559D01*
X13054059Y-6186441D01*
X13107941Y-6186441D01*
X13107941Y-6440441D02*
X13107941Y-6386559D01*
X13054059Y-6386559D01*
X13054059Y-6440441D01*
X13107941Y-6440441D01*
X13107941Y-6694441D02*
X13107941Y-6640559D01*
X13054059Y-6640559D01*
X13054059Y-6694441D01*
X13107941Y-6694441D01*
X13107941Y-6948441D02*
X13107941Y-6894559D01*
X13054059Y-6894559D01*
X13054059Y-6948441D01*
X13107941Y-6948441D01*
X13107941Y-7202441D02*
X13107941Y-7148559D01*
X13054059Y-7148559D01*
X13054059Y-7202441D01*
X13107941Y-7202441D01*
X13107941Y-7456441D02*
X13107941Y-7402559D01*
X13054059Y-7402559D01*
X13054059Y-7456441D01*
X13107941Y-7456441D01*
X13107941Y-7710441D02*
X13107941Y-7656559D01*
X13054059Y-7656559D01*
X13054059Y-7710441D01*
X13107941Y-7710441D01*
X13107941Y-7964441D02*
X13107941Y-7910559D01*
X13054059Y-7910559D01*
X13054059Y-7964441D01*
X13107941Y-7964441D01*
X13107941Y-8218441D02*
X13107941Y-8164559D01*
X13054059Y-8164559D01*
X13054059Y-8218441D01*
X13107941Y-8218441D01*
X13107941Y-8472441D02*
X13107941Y-8418559D01*
X13054059Y-8418559D01*
X13054059Y-8472441D01*
X13107941Y-8472441D01*
X13107941Y-8726441D02*
X13107941Y-8672559D01*
X13054059Y-8672559D01*
X13054059Y-8726441D01*
X13107941Y-8726441D01*
X13107941Y-8980441D02*
X13107941Y-8926559D01*
X13054059Y-8926559D01*
X13054059Y-8980441D01*
X13107941Y-8980441D01*
X13107941Y-9234441D02*
X13107941Y-9180559D01*
X13054059Y-9180559D01*
X13054059Y-9234441D01*
X13107941Y-9234441D01*
X13107941Y-9488441D02*
X13107941Y-9434559D01*
X13054059Y-9434559D01*
X13054059Y-9488441D01*
X13107941Y-9488441D01*
X13107941Y-9742441D02*
X13107941Y-9688559D01*
X13054059Y-9688559D01*
X13054059Y-9742441D01*
X13107941Y-9742441D01*
X13107941Y-9996441D02*
X13107941Y-9942559D01*
X13054059Y-9942559D01*
X13054059Y-9996441D01*
X13107941Y-9996441D01*
X13107941Y-10250441D02*
X13107941Y-10196559D01*
X13054059Y-10196559D01*
X13054059Y-10250441D01*
X13107941Y-10250441D01*
D16*
X9533000Y-5872500D02*
X9573000Y-5832500D01*
X9533000Y-5792500D01*
X9493000Y-5832500D01*
X9533000Y-5872500D01*
D11*
X9493000Y-5732500D02*
X9493000Y-5932500D01*
X9573000Y-5732500D02*
X9573000Y-5932500D01*
X9493000Y-5932500D02*
G75*
G03*
X9573000Y-5932500I40000J0D01*
G01*
X9573000Y-5732500D02*
G75*
G03*
X9493000Y-5732500I-40000J0D01*
G01*
D16*
X10533000Y-5872500D02*
X10573000Y-5832500D01*
X10533000Y-5792500D01*
X10493000Y-5832500D01*
X10533000Y-5872500D01*
D11*
X10493000Y-5732500D02*
X10493000Y-5932500D01*
X10573000Y-5732500D02*
X10573000Y-5932500D01*
X10493000Y-5932500D02*
G75*
G03*
X10573000Y-5932500I40000J0D01*
G01*
X10573000Y-5732500D02*
G75*
G03*
X10493000Y-5732500I-40000J0D01*
G01*
D16*
X14272000Y-5842500D02*
X14312000Y-5802500D01*
X14272000Y-5762500D01*
X14232000Y-5802500D01*
X14272000Y-5842500D01*
X14351000Y-10835000D02*
X14391000Y-10795000D01*
X14351000Y-10755000D01*
X14311000Y-10795000D01*
X14351000Y-10835000D01*
X14526000Y-5842500D02*
X14566000Y-5802500D01*
X14526000Y-5762500D01*
X14486000Y-5802500D01*
X14526000Y-5842500D01*
X14605000Y-10835000D02*
X14645000Y-10795000D01*
X14605000Y-10755000D01*
X14565000Y-10795000D01*
X14605000Y-10835000D01*
X14780000Y-5842500D02*
X14820000Y-5802500D01*
X14780000Y-5762500D01*
X14740000Y-5802500D01*
X14780000Y-5842500D01*
X14859000Y-10835000D02*
X14899000Y-10795000D01*
X14859000Y-10755000D01*
X14819000Y-10795000D01*
X14859000Y-10835000D01*
X15113000Y-10835000D02*
X15153000Y-10795000D01*
X15113000Y-10755000D01*
X15073000Y-10795000D01*
X15113000Y-10835000D01*
X15367000Y-10835000D02*
X15407000Y-10795000D01*
X15367000Y-10755000D01*
X15327000Y-10795000D01*
X15367000Y-10835000D01*
X15621000Y-10835000D02*
X15661000Y-10795000D01*
X15621000Y-10755000D01*
X15581000Y-10795000D01*
X15621000Y-10835000D01*
X15875000Y-10835000D02*
X15915000Y-10795000D01*
X15875000Y-10755000D01*
X15835000Y-10795000D01*
X15875000Y-10835000D01*
X16129000Y-10835000D02*
X16169000Y-10795000D01*
X16129000Y-10755000D01*
X16089000Y-10795000D01*
X16129000Y-10835000D01*
X16383000Y-10835000D02*
X16423000Y-10795000D01*
X16383000Y-10755000D01*
X16343000Y-10795000D01*
X16383000Y-10835000D01*
X17146500Y-10835000D02*
X17186500Y-10795000D01*
X17146500Y-10755000D01*
X17106500Y-10795000D01*
X17146500Y-10835000D01*
X17400500Y-10835000D02*
X17440500Y-10795000D01*
X17400500Y-10755000D01*
X17360500Y-10795000D01*
X17400500Y-10835000D01*
X17654500Y-10835000D02*
X17694500Y-10795000D01*
X17654500Y-10755000D01*
X17614500Y-10795000D01*
X17654500Y-10835000D01*
X17908500Y-10835000D02*
X17948500Y-10795000D01*
X17908500Y-10755000D01*
X17868500Y-10795000D01*
X17908500Y-10835000D01*
X18162500Y-10835000D02*
X18202500Y-10795000D01*
X18162500Y-10755000D01*
X18122500Y-10795000D01*
X18162500Y-10835000D01*
X18416500Y-10835000D02*
X18456500Y-10795000D01*
X18416500Y-10755000D01*
X18376500Y-10795000D01*
X18416500Y-10835000D01*
X18670500Y-10835000D02*
X18710500Y-10795000D01*
X18670500Y-10755000D01*
X18630500Y-10795000D01*
X18670500Y-10835000D01*
X18924500Y-10835000D02*
X18964500Y-10795000D01*
X18924500Y-10755000D01*
X18884500Y-10795000D01*
X18924500Y-10835000D01*
X19178500Y-10835000D02*
X19218500Y-10795000D01*
X19178500Y-10755000D01*
X19138500Y-10795000D01*
X19178500Y-10835000D01*
D17*
X7633500Y-7506500D02*
X7733500Y-7606500D01*
X7733500Y-7506500D02*
X7633500Y-7606500D01*
X7733500Y-7556500D02*
G75*
G03*
X7733500Y-7556500I-50000J0D01*
G01*
X7633500Y-7760500D02*
X7733500Y-7860500D01*
X7733500Y-7760500D02*
X7633500Y-7860500D01*
X7733500Y-7810500D02*
G75*
G03*
X7733500Y-7810500I-50000J0D01*
G01*
X7633500Y-8014500D02*
X7733500Y-8114500D01*
X7733500Y-8014500D02*
X7633500Y-8114500D01*
X7733500Y-8064500D02*
G75*
G03*
X7733500Y-8064500I-50000J0D01*
G01*
X8205000Y-7506000D02*
X8305000Y-7606000D01*
X8305000Y-7506000D02*
X8205000Y-7606000D01*
X8305000Y-7556000D02*
G75*
G03*
X8305000Y-7556000I-50000J0D01*
G01*
X8205000Y-7760000D02*
X8305000Y-7860000D01*
X8305000Y-7760000D02*
X8205000Y-7860000D01*
X8305000Y-7810000D02*
G75*
G03*
X8305000Y-7810000I-50000J0D01*
G01*
X8205000Y-8014000D02*
X8305000Y-8114000D01*
X8305000Y-8014000D02*
X8205000Y-8114000D01*
X8305000Y-8064000D02*
G75*
G03*
X8305000Y-8064000I-50000J0D01*
G01*
X9983000Y-5402500D02*
X10083000Y-5502500D01*
X10083000Y-5402500D02*
X9983000Y-5502500D01*
X10083000Y-5452500D02*
G75*
G03*
X10083000Y-5452500I-50000J0D01*
G01*
D11*
X9943000Y-5502500D02*
X10123000Y-5502500D01*
X9943000Y-5402500D02*
X10123000Y-5402500D01*
X10123000Y-5502500D02*
G75*
G03*
X10123000Y-5402500I0J50000D01*
G01*
X9943000Y-5402500D02*
G75*
G03*
X9943000Y-5502500I0J-50000D01*
G01*
D17*
X10427500Y-11126000D02*
X10527500Y-11226000D01*
X10527500Y-11126000D02*
X10427500Y-11226000D01*
X10527500Y-11176000D02*
G75*
G03*
X10527500Y-11176000I-50000J0D01*
G01*
X10554500Y-8141000D02*
X10654500Y-8241000D01*
X10654500Y-8141000D02*
X10554500Y-8241000D01*
X10654500Y-8191000D02*
G75*
G03*
X10654500Y-8191000I-50000J0D01*
G01*
X10554500Y-8395000D02*
X10654500Y-8495000D01*
X10654500Y-8395000D02*
X10554500Y-8495000D01*
X10654500Y-8445000D02*
G75*
G03*
X10654500Y-8445000I-50000J0D01*
G01*
X10681500Y-11126000D02*
X10781500Y-11226000D01*
X10781500Y-11126000D02*
X10681500Y-11226000D01*
X10781500Y-11176000D02*
G75*
G03*
X10781500Y-11176000I-50000J0D01*
G01*
X13221500Y-11125500D02*
X13321500Y-11225500D01*
X13321500Y-11125500D02*
X13221500Y-11225500D01*
X13321500Y-11175500D02*
G75*
G03*
X13321500Y-11175500I-50000J0D01*
G01*
X13221500Y-11379500D02*
X13321500Y-11479500D01*
X13321500Y-11379500D02*
X13221500Y-11479500D01*
X13321500Y-11429500D02*
G75*
G03*
X13321500Y-11429500I-50000J0D01*
G01*
X13539000Y-5347000D02*
X13639000Y-5447000D01*
X13639000Y-5347000D02*
X13539000Y-5447000D01*
X13639000Y-5397000D02*
G75*
G03*
X13639000Y-5397000I-50000J0D01*
G01*
X13539000Y-5601000D02*
X13639000Y-5701000D01*
X13639000Y-5601000D02*
X13539000Y-5701000D01*
X13639000Y-5651000D02*
G75*
G03*
X13639000Y-5651000I-50000J0D01*
G01*
X13539000Y-5855000D02*
X13639000Y-5955000D01*
X13639000Y-5855000D02*
X13539000Y-5955000D01*
X13639000Y-5905000D02*
G75*
G03*
X13639000Y-5905000I-50000J0D01*
G01*
X13539000Y-6109000D02*
X13639000Y-6209000D01*
X13639000Y-6109000D02*
X13539000Y-6209000D01*
X13639000Y-6159000D02*
G75*
G03*
X13639000Y-6159000I-50000J0D01*
G01*
X13539000Y-6363000D02*
X13639000Y-6463000D01*
X13639000Y-6363000D02*
X13539000Y-6463000D01*
X13639000Y-6413000D02*
G75*
G03*
X13639000Y-6413000I-50000J0D01*
G01*
X13539000Y-6617000D02*
X13639000Y-6717000D01*
X13639000Y-6617000D02*
X13539000Y-6717000D01*
X13639000Y-6667000D02*
G75*
G03*
X13639000Y-6667000I-50000J0D01*
G01*
X13539000Y-6871000D02*
X13639000Y-6971000D01*
X13639000Y-6871000D02*
X13539000Y-6971000D01*
X13639000Y-6921000D02*
G75*
G03*
X13639000Y-6921000I-50000J0D01*
G01*
X13539000Y-7125000D02*
X13639000Y-7225000D01*
X13639000Y-7125000D02*
X13539000Y-7225000D01*
X13639000Y-7175000D02*
G75*
G03*
X13639000Y-7175000I-50000J0D01*
G01*
X13539000Y-7379000D02*
X13639000Y-7479000D01*
X13639000Y-7379000D02*
X13539000Y-7479000D01*
X13639000Y-7429000D02*
G75*
G03*
X13639000Y-7429000I-50000J0D01*
G01*
X13539000Y-7633000D02*
X13639000Y-7733000D01*
X13639000Y-7633000D02*
X13539000Y-7733000D01*
X13639000Y-7683000D02*
G75*
G03*
X13639000Y-7683000I-50000J0D01*
G01*
X13539000Y-7887000D02*
X13639000Y-7987000D01*
X13639000Y-7887000D02*
X13539000Y-7987000D01*
X13639000Y-7937000D02*
G75*
G03*
X13639000Y-7937000I-50000J0D01*
G01*
X13539000Y-8141000D02*
X13639000Y-8241000D01*
X13639000Y-8141000D02*
X13539000Y-8241000D01*
X13639000Y-8191000D02*
G75*
G03*
X13639000Y-8191000I-50000J0D01*
G01*
X13539000Y-8395000D02*
X13639000Y-8495000D01*
X13639000Y-8395000D02*
X13539000Y-8495000D01*
X13639000Y-8445000D02*
G75*
G03*
X13639000Y-8445000I-50000J0D01*
G01*
X13539000Y-8649000D02*
X13639000Y-8749000D01*
X13639000Y-8649000D02*
X13539000Y-8749000D01*
X13639000Y-8699000D02*
G75*
G03*
X13639000Y-8699000I-50000J0D01*
G01*
X13539000Y-8903000D02*
X13639000Y-9003000D01*
X13639000Y-8903000D02*
X13539000Y-9003000D01*
X13639000Y-8953000D02*
G75*
G03*
X13639000Y-8953000I-50000J0D01*
G01*
X13539000Y-9157000D02*
X13639000Y-9257000D01*
X13639000Y-9157000D02*
X13539000Y-9257000D01*
X13639000Y-9207000D02*
G75*
G03*
X13639000Y-9207000I-50000J0D01*
G01*
X13539000Y-9411000D02*
X13639000Y-9511000D01*
X13639000Y-9411000D02*
X13539000Y-9511000D01*
X13639000Y-9461000D02*
G75*
G03*
X13639000Y-9461000I-50000J0D01*
G01*
X13539000Y-9665000D02*
X13639000Y-9765000D01*
X13639000Y-9665000D02*
X13539000Y-9765000D01*
X13639000Y-9715000D02*
G75*
G03*
X13639000Y-9715000I-50000J0D01*
G01*
X13539000Y-9919000D02*
X13639000Y-10019000D01*
X13639000Y-9919000D02*
X13539000Y-10019000D01*
X13639000Y-9969000D02*
G75*
G03*
X13639000Y-9969000I-50000J0D01*
G01*
X13539000Y-10173000D02*
X13639000Y-10273000D01*
X13639000Y-10173000D02*
X13539000Y-10273000D01*
X13639000Y-10223000D02*
G75*
G03*
X13639000Y-10223000I-50000J0D01*
G01*
X14047000Y-6871000D02*
X14147000Y-6971000D01*
X14147000Y-6871000D02*
X14047000Y-6971000D01*
X14147000Y-6921000D02*
G75*
G03*
X14147000Y-6921000I-50000J0D01*
G01*
X14047000Y-7125000D02*
X14147000Y-7225000D01*
X14147000Y-7125000D02*
X14047000Y-7225000D01*
X14147000Y-7175000D02*
G75*
G03*
X14147000Y-7175000I-50000J0D01*
G01*
X14047000Y-7379000D02*
X14147000Y-7479000D01*
X14147000Y-7379000D02*
X14047000Y-7479000D01*
X14147000Y-7429000D02*
G75*
G03*
X14147000Y-7429000I-50000J0D01*
G01*
X14047000Y-7633000D02*
X14147000Y-7733000D01*
X14147000Y-7633000D02*
X14047000Y-7733000D01*
X14147000Y-7683000D02*
G75*
G03*
X14147000Y-7683000I-50000J0D01*
G01*
X14047000Y-7887000D02*
X14147000Y-7987000D01*
X14147000Y-7887000D02*
X14047000Y-7987000D01*
X14147000Y-7937000D02*
G75*
G03*
X14147000Y-7937000I-50000J0D01*
G01*
X14047000Y-8141000D02*
X14147000Y-8241000D01*
X14147000Y-8141000D02*
X14047000Y-8241000D01*
X14147000Y-8191000D02*
G75*
G03*
X14147000Y-8191000I-50000J0D01*
G01*
X14047000Y-8395000D02*
X14147000Y-8495000D01*
X14147000Y-8395000D02*
X14047000Y-8495000D01*
X14147000Y-8445000D02*
G75*
G03*
X14147000Y-8445000I-50000J0D01*
G01*
X14047000Y-8649000D02*
X14147000Y-8749000D01*
X14147000Y-8649000D02*
X14047000Y-8749000D01*
X14147000Y-8699000D02*
G75*
G03*
X14147000Y-8699000I-50000J0D01*
G01*
X14301000Y-6871000D02*
X14401000Y-6971000D01*
X14401000Y-6871000D02*
X14301000Y-6971000D01*
X14401000Y-6921000D02*
G75*
G03*
X14401000Y-6921000I-50000J0D01*
G01*
X14301000Y-7125000D02*
X14401000Y-7225000D01*
X14401000Y-7125000D02*
X14301000Y-7225000D01*
X14401000Y-7175000D02*
G75*
G03*
X14401000Y-7175000I-50000J0D01*
G01*
X14301000Y-7379000D02*
X14401000Y-7479000D01*
X14401000Y-7379000D02*
X14301000Y-7479000D01*
X14401000Y-7429000D02*
G75*
G03*
X14401000Y-7429000I-50000J0D01*
G01*
X14301000Y-7633000D02*
X14401000Y-7733000D01*
X14401000Y-7633000D02*
X14301000Y-7733000D01*
X14401000Y-7683000D02*
G75*
G03*
X14401000Y-7683000I-50000J0D01*
G01*
X14301000Y-7887000D02*
X14401000Y-7987000D01*
X14401000Y-7887000D02*
X14301000Y-7987000D01*
X14401000Y-7937000D02*
G75*
G03*
X14401000Y-7937000I-50000J0D01*
G01*
X14301000Y-8141000D02*
X14401000Y-8241000D01*
X14401000Y-8141000D02*
X14301000Y-8241000D01*
X14401000Y-8191000D02*
G75*
G03*
X14401000Y-8191000I-50000J0D01*
G01*
X14301000Y-8395000D02*
X14401000Y-8495000D01*
X14401000Y-8395000D02*
X14301000Y-8495000D01*
X14401000Y-8445000D02*
G75*
G03*
X14401000Y-8445000I-50000J0D01*
G01*
X14301000Y-8649000D02*
X14401000Y-8749000D01*
X14401000Y-8649000D02*
X14301000Y-8749000D01*
X14401000Y-8699000D02*
G75*
G03*
X14401000Y-8699000I-50000J0D01*
G01*
X14491500Y-11189000D02*
X14591500Y-11289000D01*
X14591500Y-11189000D02*
X14491500Y-11289000D01*
X14591500Y-11239000D02*
G75*
G03*
X14591500Y-11239000I-50000J0D01*
G01*
X14555000Y-6871000D02*
X14655000Y-6971000D01*
X14655000Y-6871000D02*
X14555000Y-6971000D01*
X14655000Y-6921000D02*
G75*
G03*
X14655000Y-6921000I-50000J0D01*
G01*
X14555000Y-7125000D02*
X14655000Y-7225000D01*
X14655000Y-7125000D02*
X14555000Y-7225000D01*
X14655000Y-7175000D02*
G75*
G03*
X14655000Y-7175000I-50000J0D01*
G01*
X14555000Y-7379000D02*
X14655000Y-7479000D01*
X14655000Y-7379000D02*
X14555000Y-7479000D01*
X14655000Y-7429000D02*
G75*
G03*
X14655000Y-7429000I-50000J0D01*
G01*
X14555000Y-7633000D02*
X14655000Y-7733000D01*
X14655000Y-7633000D02*
X14555000Y-7733000D01*
X14655000Y-7683000D02*
G75*
G03*
X14655000Y-7683000I-50000J0D01*
G01*
X14555000Y-7887000D02*
X14655000Y-7987000D01*
X14655000Y-7887000D02*
X14555000Y-7987000D01*
X14655000Y-7937000D02*
G75*
G03*
X14655000Y-7937000I-50000J0D01*
G01*
X14555000Y-8141000D02*
X14655000Y-8241000D01*
X14655000Y-8141000D02*
X14555000Y-8241000D01*
X14655000Y-8191000D02*
G75*
G03*
X14655000Y-8191000I-50000J0D01*
G01*
X14555000Y-8395000D02*
X14655000Y-8495000D01*
X14655000Y-8395000D02*
X14555000Y-8495000D01*
X14655000Y-8445000D02*
G75*
G03*
X14655000Y-8445000I-50000J0D01*
G01*
X14555000Y-8649000D02*
X14655000Y-8749000D01*
X14655000Y-8649000D02*
X14555000Y-8749000D01*
X14655000Y-8699000D02*
G75*
G03*
X14655000Y-8699000I-50000J0D01*
G01*
X14630000Y-11473000D02*
X14730000Y-11573000D01*
X14730000Y-11473000D02*
X14630000Y-11573000D01*
X14730000Y-11523000D02*
G75*
G03*
X14730000Y-11523000I-50000J0D01*
G01*
X14768500Y-11189000D02*
X14868500Y-11289000D01*
X14868500Y-11189000D02*
X14768500Y-11289000D01*
X14868500Y-11239000D02*
G75*
G03*
X14868500Y-11239000I-50000J0D01*
G01*
X14907000Y-11473000D02*
X15007000Y-11573000D01*
X15007000Y-11473000D02*
X14907000Y-11573000D01*
X15007000Y-11523000D02*
G75*
G03*
X15007000Y-11523000I-50000J0D01*
G01*
X15045500Y-11189000D02*
X15145500Y-11289000D01*
X15145500Y-11189000D02*
X15045500Y-11289000D01*
X15145500Y-11239000D02*
G75*
G03*
X15145500Y-11239000I-50000J0D01*
G01*
X15184000Y-11473000D02*
X15284000Y-11573000D01*
X15284000Y-11473000D02*
X15184000Y-11573000D01*
X15284000Y-11523000D02*
G75*
G03*
X15284000Y-11523000I-50000J0D01*
G01*
X15322500Y-11189000D02*
X15422500Y-11289000D01*
X15422500Y-11189000D02*
X15322500Y-11289000D01*
X15422500Y-11239000D02*
G75*
G03*
X15422500Y-11239000I-50000J0D01*
G01*
X15461000Y-11473000D02*
X15561000Y-11573000D01*
X15561000Y-11473000D02*
X15461000Y-11573000D01*
X15561000Y-11523000D02*
G75*
G03*
X15561000Y-11523000I-50000J0D01*
G01*
X15599500Y-11189000D02*
X15699500Y-11289000D01*
X15699500Y-11189000D02*
X15599500Y-11289000D01*
X15699500Y-11239000D02*
G75*
G03*
X15699500Y-11239000I-50000J0D01*
G01*
X16079000Y-9919500D02*
X16179000Y-10019500D01*
X16179000Y-9919500D02*
X16079000Y-10019500D01*
X16179000Y-9969500D02*
G75*
G03*
X16179000Y-9969500I-50000J0D01*
G01*
X16079000Y-10173500D02*
X16179000Y-10273500D01*
X16179000Y-10173500D02*
X16079000Y-10273500D01*
X16179000Y-10223500D02*
G75*
G03*
X16179000Y-10223500I-50000J0D01*
G01*
X16333000Y-9919500D02*
X16433000Y-10019500D01*
X16433000Y-9919500D02*
X16333000Y-10019500D01*
X16433000Y-9969500D02*
G75*
G03*
X16433000Y-9969500I-50000J0D01*
G01*
X16333000Y-10173500D02*
X16433000Y-10273500D01*
X16433000Y-10173500D02*
X16333000Y-10273500D01*
X16433000Y-10223500D02*
G75*
G03*
X16433000Y-10223500I-50000J0D01*
G01*
X16409000Y-6051000D02*
X16509000Y-6151000D01*
X16509000Y-6051000D02*
X16409000Y-6151000D01*
X16509000Y-6101000D02*
G75*
G03*
X16509000Y-6101000I-50000J0D01*
G01*
X16523500Y-5797000D02*
X16623500Y-5897000D01*
X16623500Y-5797000D02*
X16523500Y-5897000D01*
X16623500Y-5847000D02*
G75*
G03*
X16623500Y-5847000I-50000J0D01*
G01*
X16523500Y-6305000D02*
X16623500Y-6405000D01*
X16623500Y-6305000D02*
X16523500Y-6405000D01*
X16623500Y-6355000D02*
G75*
G03*
X16623500Y-6355000I-50000J0D01*
G01*
X16587000Y-9919500D02*
X16687000Y-10019500D01*
X16687000Y-9919500D02*
X16587000Y-10019500D01*
X16687000Y-9969500D02*
G75*
G03*
X16687000Y-9969500I-50000J0D01*
G01*
X16587000Y-10173500D02*
X16687000Y-10273500D01*
X16687000Y-10173500D02*
X16587000Y-10273500D01*
X16687000Y-10223500D02*
G75*
G03*
X16687000Y-10223500I-50000J0D01*
G01*
X16638000Y-6051000D02*
X16738000Y-6151000D01*
X16738000Y-6051000D02*
X16638000Y-6151000D01*
X16738000Y-6101000D02*
G75*
G03*
X16738000Y-6101000I-50000J0D01*
G01*
X16752500Y-5797000D02*
X16852500Y-5897000D01*
X16852500Y-5797000D02*
X16752500Y-5897000D01*
X16852500Y-5847000D02*
G75*
G03*
X16852500Y-5847000I-50000J0D01*
G01*
X16752500Y-6305000D02*
X16852500Y-6405000D01*
X16852500Y-6305000D02*
X16752500Y-6405000D01*
X16852500Y-6355000D02*
G75*
G03*
X16852500Y-6355000I-50000J0D01*
G01*
X16841000Y-9919500D02*
X16941000Y-10019500D01*
X16941000Y-9919500D02*
X16841000Y-10019500D01*
X16941000Y-9969500D02*
G75*
G03*
X16941000Y-9969500I-50000J0D01*
G01*
X16841000Y-10173500D02*
X16941000Y-10273500D01*
X16941000Y-10173500D02*
X16841000Y-10273500D01*
X16941000Y-10223500D02*
G75*
G03*
X16941000Y-10223500I-50000J0D01*
G01*
X16867000Y-6051000D02*
X16967000Y-6151000D01*
X16967000Y-6051000D02*
X16867000Y-6151000D01*
X16967000Y-6101000D02*
G75*
G03*
X16967000Y-6101000I-50000J0D01*
G01*
X16981500Y-5797000D02*
X17081500Y-5897000D01*
X17081500Y-5797000D02*
X16981500Y-5897000D01*
X17081500Y-5847000D02*
G75*
G03*
X17081500Y-5847000I-50000J0D01*
G01*
X16981500Y-6305000D02*
X17081500Y-6405000D01*
X17081500Y-6305000D02*
X16981500Y-6405000D01*
X17081500Y-6355000D02*
G75*
G03*
X17081500Y-6355000I-50000J0D01*
G01*
X17095000Y-9919500D02*
X17195000Y-10019500D01*
X17195000Y-9919500D02*
X17095000Y-10019500D01*
X17195000Y-9969500D02*
G75*
G03*
X17195000Y-9969500I-50000J0D01*
G01*
X17095000Y-10173500D02*
X17195000Y-10273500D01*
X17195000Y-10173500D02*
X17095000Y-10273500D01*
X17195000Y-10223500D02*
G75*
G03*
X17195000Y-10223500I-50000J0D01*
G01*
X17096000Y-6051000D02*
X17196000Y-6151000D01*
X17196000Y-6051000D02*
X17096000Y-6151000D01*
X17196000Y-6101000D02*
G75*
G03*
X17196000Y-6101000I-50000J0D01*
G01*
X17210500Y-5797000D02*
X17310500Y-5897000D01*
X17310500Y-5797000D02*
X17210500Y-5897000D01*
X17310500Y-5847000D02*
G75*
G03*
X17310500Y-5847000I-50000J0D01*
G01*
X17210500Y-6305000D02*
X17310500Y-6405000D01*
X17310500Y-6305000D02*
X17210500Y-6405000D01*
X17310500Y-6355000D02*
G75*
G03*
X17310500Y-6355000I-50000J0D01*
G01*
X17325000Y-6051000D02*
X17425000Y-6151000D01*
X17425000Y-6051000D02*
X17325000Y-6151000D01*
X17425000Y-6101000D02*
G75*
G03*
X17425000Y-6101000I-50000J0D01*
G01*
X17349000Y-9919500D02*
X17449000Y-10019500D01*
X17449000Y-9919500D02*
X17349000Y-10019500D01*
X17449000Y-9969500D02*
G75*
G03*
X17449000Y-9969500I-50000J0D01*
G01*
X17349000Y-10173500D02*
X17449000Y-10273500D01*
X17449000Y-10173500D02*
X17349000Y-10273500D01*
X17449000Y-10223500D02*
G75*
G03*
X17449000Y-10223500I-50000J0D01*
G01*
X17439500Y-5797000D02*
X17539500Y-5897000D01*
X17539500Y-5797000D02*
X17439500Y-5897000D01*
X17539500Y-5847000D02*
G75*
G03*
X17539500Y-5847000I-50000J0D01*
G01*
X17439500Y-6305000D02*
X17539500Y-6405000D01*
X17539500Y-6305000D02*
X17439500Y-6405000D01*
X17539500Y-6355000D02*
G75*
G03*
X17539500Y-6355000I-50000J0D01*
G01*
X17857000Y-11189500D02*
X17957000Y-11289500D01*
X17957000Y-11189500D02*
X17857000Y-11289500D01*
X17957000Y-11239500D02*
G75*
G03*
X17957000Y-11239500I-50000J0D01*
G01*
X17995500Y-11473500D02*
X18095500Y-11573500D01*
X18095500Y-11473500D02*
X17995500Y-11573500D01*
X18095500Y-11523500D02*
G75*
G03*
X18095500Y-11523500I-50000J0D01*
G01*
X18134000Y-11189500D02*
X18234000Y-11289500D01*
X18234000Y-11189500D02*
X18134000Y-11289500D01*
X18234000Y-11239500D02*
G75*
G03*
X18234000Y-11239500I-50000J0D01*
G01*
X18272500Y-11473500D02*
X18372500Y-11573500D01*
X18372500Y-11473500D02*
X18272500Y-11573500D01*
X18372500Y-11523500D02*
G75*
G03*
X18372500Y-11523500I-50000J0D01*
G01*
X18411000Y-11189500D02*
X18511000Y-11289500D01*
X18511000Y-11189500D02*
X18411000Y-11289500D01*
X18511000Y-11239500D02*
G75*
G03*
X18511000Y-11239500I-50000J0D01*
G01*
X18549500Y-11473500D02*
X18649500Y-11573500D01*
X18649500Y-11473500D02*
X18549500Y-11573500D01*
X18649500Y-11523500D02*
G75*
G03*
X18649500Y-11523500I-50000J0D01*
G01*
X18688000Y-11189500D02*
X18788000Y-11289500D01*
X18788000Y-11189500D02*
X18688000Y-11289500D01*
X18788000Y-11239500D02*
G75*
G03*
X18788000Y-11239500I-50000J0D01*
G01*
X18826500Y-11473500D02*
X18926500Y-11573500D01*
X18926500Y-11473500D02*
X18826500Y-11573500D01*
X18926500Y-11523500D02*
G75*
G03*
X18926500Y-11523500I-50000J0D01*
G01*
X18965000Y-11189500D02*
X19065000Y-11289500D01*
X19065000Y-11189500D02*
X18965000Y-11289500D01*
X19065000Y-11239500D02*
G75*
G03*
X19065000Y-11239500I-50000J0D01*
G01*
X19008000Y-5956000D02*
X19108000Y-6056000D01*
X19108000Y-5956000D02*
X19008000Y-6056000D01*
X19108000Y-6006000D02*
G75*
G03*
X19108000Y-6006000I-50000J0D01*
G01*
D11*
X19008000Y-5876000D02*
X19008000Y-6136000D01*
X19108000Y-5876000D02*
X19108000Y-6136000D01*
X19008000Y-6136000D02*
G75*
G03*
X19108000Y-6136000I50000J0D01*
G01*
X19108000Y-5876000D02*
G75*
G03*
X19008000Y-5876000I-50000J0D01*
G01*
D17*
X19508000Y-5646000D02*
X19608000Y-5746000D01*
X19608000Y-5646000D02*
X19508000Y-5746000D01*
X19608000Y-5696000D02*
G75*
G03*
X19608000Y-5696000I-50000J0D01*
G01*
D11*
X19428000Y-5746000D02*
X19688000Y-5746000D01*
X19428000Y-5646000D02*
X19688000Y-5646000D01*
X19688000Y-5746000D02*
G75*
G03*
X19688000Y-5646000I0J50000D01*
G01*
X19428000Y-5646000D02*
G75*
G03*
X19428000Y-5746000I0J-50000D01*
G01*
D17*
X19508000Y-6266000D02*
X19608000Y-6366000D01*
X19608000Y-6266000D02*
X19508000Y-6366000D01*
X19608000Y-6316000D02*
G75*
G03*
X19608000Y-6316000I-50000J0D01*
G01*
D11*
X19688000Y-6266000D02*
X19428000Y-6266000D01*
X19688000Y-6366000D02*
X19428000Y-6366000D01*
X19428000Y-6266000D02*
G75*
G03*
X19428000Y-6366000I0J-50000D01*
G01*
X19688000Y-6366000D02*
G75*
G03*
X19688000Y-6266000I0J50000D01*
G01*
D17*
X20206500Y-6045500D02*
X20306500Y-6145500D01*
X20306500Y-6045500D02*
X20206500Y-6145500D01*
X20306500Y-6095500D02*
G75*
G03*
X20306500Y-6095500I-50000J0D01*
G01*
X20206500Y-6299500D02*
X20306500Y-6399500D01*
X20306500Y-6299500D02*
X20206500Y-6399500D01*
X20306500Y-6349500D02*
G75*
G03*
X20306500Y-6349500I-50000J0D01*
G01*
X20206500Y-6680500D02*
X20306500Y-6780500D01*
X20306500Y-6680500D02*
X20206500Y-6780500D01*
X20306500Y-6730500D02*
G75*
G03*
X20306500Y-6730500I-50000J0D01*
G01*
X20206500Y-6934500D02*
X20306500Y-7034500D01*
X20306500Y-6934500D02*
X20206500Y-7034500D01*
X20306500Y-6984500D02*
G75*
G03*
X20306500Y-6984500I-50000J0D01*
G01*
X20206500Y-7188500D02*
X20306500Y-7288500D01*
X20306500Y-7188500D02*
X20206500Y-7288500D01*
X20306500Y-7238500D02*
G75*
G03*
X20306500Y-7238500I-50000J0D01*
G01*
X20206500Y-11125500D02*
X20306500Y-11225500D01*
X20306500Y-11125500D02*
X20206500Y-11225500D01*
X20306500Y-11175500D02*
G75*
G03*
X20306500Y-11175500I-50000J0D01*
G01*
X20206500Y-11379500D02*
X20306500Y-11479500D01*
X20306500Y-11379500D02*
X20206500Y-11479500D01*
X20306500Y-11429500D02*
G75*
G03*
X20306500Y-11429500I-50000J0D01*
G01*
X20651000Y-6172500D02*
X20751000Y-6272500D01*
X20751000Y-6172500D02*
X20651000Y-6272500D01*
X20751000Y-6222500D02*
G75*
G03*
X20751000Y-6222500I-50000J0D01*
G01*
X20651000Y-6426500D02*
X20751000Y-6526500D01*
X20751000Y-6426500D02*
X20651000Y-6526500D01*
X20751000Y-6476500D02*
G75*
G03*
X20751000Y-6476500I-50000J0D01*
G01*
X20651000Y-6680500D02*
X20751000Y-6780500D01*
X20751000Y-6680500D02*
X20651000Y-6780500D01*
X20751000Y-6730500D02*
G75*
G03*
X20751000Y-6730500I-50000J0D01*
G01*
X20651000Y-6934500D02*
X20751000Y-7034500D01*
X20751000Y-6934500D02*
X20651000Y-7034500D01*
X20751000Y-6984500D02*
G75*
G03*
X20751000Y-6984500I-50000J0D01*
G01*
X20651000Y-7188500D02*
X20751000Y-7288500D01*
X20751000Y-7188500D02*
X20651000Y-7288500D01*
X20751000Y-7238500D02*
G75*
G03*
X20751000Y-7238500I-50000J0D01*
G01*
X20651000Y-7442500D02*
X20751000Y-7542500D01*
X20751000Y-7442500D02*
X20651000Y-7542500D01*
X20751000Y-7492500D02*
G75*
G03*
X20751000Y-7492500I-50000J0D01*
G01*
X20651000Y-7696500D02*
X20751000Y-7796500D01*
X20751000Y-7696500D02*
X20651000Y-7796500D01*
X20751000Y-7746500D02*
G75*
G03*
X20751000Y-7746500I-50000J0D01*
G01*
X20651000Y-7950500D02*
X20751000Y-8050500D01*
X20751000Y-7950500D02*
X20651000Y-8050500D01*
X20751000Y-8000500D02*
G75*
G03*
X20751000Y-8000500I-50000J0D01*
G01*
X20651000Y-8204500D02*
X20751000Y-8304500D01*
X20751000Y-8204500D02*
X20651000Y-8304500D01*
X20751000Y-8254500D02*
G75*
G03*
X20751000Y-8254500I-50000J0D01*
G01*
X20651000Y-8458500D02*
X20751000Y-8558500D01*
X20751000Y-8458500D02*
X20651000Y-8558500D01*
X20751000Y-8508500D02*
G75*
G03*
X20751000Y-8508500I-50000J0D01*
G01*
X20651000Y-8712500D02*
X20751000Y-8812500D01*
X20751000Y-8712500D02*
X20651000Y-8812500D01*
X20751000Y-8762500D02*
G75*
G03*
X20751000Y-8762500I-50000J0D01*
G01*
X20651000Y-8966500D02*
X20751000Y-9066500D01*
X20751000Y-8966500D02*
X20651000Y-9066500D01*
X20751000Y-9016500D02*
G75*
G03*
X20751000Y-9016500I-50000J0D01*
G01*
X20651000Y-9220500D02*
X20751000Y-9320500D01*
X20751000Y-9220500D02*
X20651000Y-9320500D01*
X20751000Y-9270500D02*
G75*
G03*
X20751000Y-9270500I-50000J0D01*
G01*
X20651000Y-9474500D02*
X20751000Y-9574500D01*
X20751000Y-9474500D02*
X20651000Y-9574500D01*
X20751000Y-9524500D02*
G75*
G03*
X20751000Y-9524500I-50000J0D01*
G01*
X20651000Y-9728500D02*
X20751000Y-9828500D01*
X20751000Y-9728500D02*
X20651000Y-9828500D01*
X20751000Y-9778500D02*
G75*
G03*
X20751000Y-9778500I-50000J0D01*
G01*
X20651000Y-9982500D02*
X20751000Y-10082500D01*
X20751000Y-9982500D02*
X20651000Y-10082500D01*
X20751000Y-10032500D02*
G75*
G03*
X20751000Y-10032500I-50000J0D01*
G01*
X20651000Y-10236500D02*
X20751000Y-10336500D01*
X20751000Y-10236500D02*
X20651000Y-10336500D01*
X20751000Y-10286500D02*
G75*
G03*
X20751000Y-10286500I-50000J0D01*
G01*
X20651000Y-10490500D02*
X20751000Y-10590500D01*
X20751000Y-10490500D02*
X20651000Y-10590500D01*
X20751000Y-10540500D02*
G75*
G03*
X20751000Y-10540500I-50000J0D01*
G01*
X20651000Y-10744500D02*
X20751000Y-10844500D01*
X20751000Y-10744500D02*
X20651000Y-10844500D01*
X20751000Y-10794500D02*
G75*
G03*
X20751000Y-10794500I-50000J0D01*
G01*
X20651000Y-10998500D02*
X20751000Y-11098500D01*
X20751000Y-10998500D02*
X20651000Y-11098500D01*
X20751000Y-11048500D02*
G75*
G03*
X20751000Y-11048500I-50000J0D01*
G01*
X20905000Y-6172500D02*
X21005000Y-6272500D01*
X21005000Y-6172500D02*
X20905000Y-6272500D01*
X21005000Y-6222500D02*
G75*
G03*
X21005000Y-6222500I-50000J0D01*
G01*
X20905000Y-6426500D02*
X21005000Y-6526500D01*
X21005000Y-6426500D02*
X20905000Y-6526500D01*
X21005000Y-6476500D02*
G75*
G03*
X21005000Y-6476500I-50000J0D01*
G01*
X20905000Y-6680500D02*
X21005000Y-6780500D01*
X21005000Y-6680500D02*
X20905000Y-6780500D01*
X21005000Y-6730500D02*
G75*
G03*
X21005000Y-6730500I-50000J0D01*
G01*
X20905000Y-6934500D02*
X21005000Y-7034500D01*
X21005000Y-6934500D02*
X20905000Y-7034500D01*
X21005000Y-6984500D02*
G75*
G03*
X21005000Y-6984500I-50000J0D01*
G01*
X20905000Y-7188500D02*
X21005000Y-7288500D01*
X21005000Y-7188500D02*
X20905000Y-7288500D01*
X21005000Y-7238500D02*
G75*
G03*
X21005000Y-7238500I-50000J0D01*
G01*
X20905000Y-7442500D02*
X21005000Y-7542500D01*
X21005000Y-7442500D02*
X20905000Y-7542500D01*
X21005000Y-7492500D02*
G75*
G03*
X21005000Y-7492500I-50000J0D01*
G01*
X20905000Y-7696500D02*
X21005000Y-7796500D01*
X21005000Y-7696500D02*
X20905000Y-7796500D01*
X21005000Y-7746500D02*
G75*
G03*
X21005000Y-7746500I-50000J0D01*
G01*
X20905000Y-7950500D02*
X21005000Y-8050500D01*
X21005000Y-7950500D02*
X20905000Y-8050500D01*
X21005000Y-8000500D02*
G75*
G03*
X21005000Y-8000500I-50000J0D01*
G01*
X20905000Y-8204500D02*
X21005000Y-8304500D01*
X21005000Y-8204500D02*
X20905000Y-8304500D01*
X21005000Y-8254500D02*
G75*
G03*
X21005000Y-8254500I-50000J0D01*
G01*
X20905000Y-8458500D02*
X21005000Y-8558500D01*
X21005000Y-8458500D02*
X20905000Y-8558500D01*
X21005000Y-8508500D02*
G75*
G03*
X21005000Y-8508500I-50000J0D01*
G01*
X20905000Y-8712500D02*
X21005000Y-8812500D01*
X21005000Y-8712500D02*
X20905000Y-8812500D01*
X21005000Y-8762500D02*
G75*
G03*
X21005000Y-8762500I-50000J0D01*
G01*
X20905000Y-8966500D02*
X21005000Y-9066500D01*
X21005000Y-8966500D02*
X20905000Y-9066500D01*
X21005000Y-9016500D02*
G75*
G03*
X21005000Y-9016500I-50000J0D01*
G01*
X20905000Y-9220500D02*
X21005000Y-9320500D01*
X21005000Y-9220500D02*
X20905000Y-9320500D01*
X21005000Y-9270500D02*
G75*
G03*
X21005000Y-9270500I-50000J0D01*
G01*
X20905000Y-9474500D02*
X21005000Y-9574500D01*
X21005000Y-9474500D02*
X20905000Y-9574500D01*
X21005000Y-9524500D02*
G75*
G03*
X21005000Y-9524500I-50000J0D01*
G01*
X20905000Y-9728500D02*
X21005000Y-9828500D01*
X21005000Y-9728500D02*
X20905000Y-9828500D01*
X21005000Y-9778500D02*
G75*
G03*
X21005000Y-9778500I-50000J0D01*
G01*
X20905000Y-9982500D02*
X21005000Y-10082500D01*
X21005000Y-9982500D02*
X20905000Y-10082500D01*
X21005000Y-10032500D02*
G75*
G03*
X21005000Y-10032500I-50000J0D01*
G01*
X20905000Y-10236500D02*
X21005000Y-10336500D01*
X21005000Y-10236500D02*
X20905000Y-10336500D01*
X21005000Y-10286500D02*
G75*
G03*
X21005000Y-10286500I-50000J0D01*
G01*
X20905000Y-10490500D02*
X21005000Y-10590500D01*
X21005000Y-10490500D02*
X20905000Y-10590500D01*
X21005000Y-10540500D02*
G75*
G03*
X21005000Y-10540500I-50000J0D01*
G01*
X20905000Y-10744500D02*
X21005000Y-10844500D01*
X21005000Y-10744500D02*
X20905000Y-10844500D01*
X21005000Y-10794500D02*
G75*
G03*
X21005000Y-10794500I-50000J0D01*
G01*
X20905000Y-10998500D02*
X21005000Y-11098500D01*
X21005000Y-10998500D02*
X20905000Y-11098500D01*
X21005000Y-11048500D02*
G75*
G03*
X21005000Y-11048500I-50000J0D01*
G01*
D18*
X13685500Y-11221000D02*
X14005500Y-11541000D01*
X14005500Y-11221000D02*
X13685500Y-11541000D01*
X13845500Y-11221000D02*
X13845500Y-11541000D01*
X13685500Y-11381000D02*
X14005500Y-11381000D01*
X15595000Y-5941000D02*
X15915000Y-6261000D01*
X15915000Y-5941000D02*
X15595000Y-6261000D01*
X15755000Y-5941000D02*
X15755000Y-6261000D01*
X15595000Y-6101000D02*
X15915000Y-6101000D01*
X16185500Y-11221000D02*
X16505500Y-11541000D01*
X16505500Y-11221000D02*
X16185500Y-11541000D01*
X16345500Y-11221000D02*
X16345500Y-11541000D01*
X16185500Y-11381000D02*
X16505500Y-11381000D01*
X17051000Y-11221500D02*
X17371000Y-11541500D01*
X17371000Y-11221500D02*
X17051000Y-11541500D01*
X17211000Y-11221500D02*
X17211000Y-11541500D01*
X17051000Y-11381500D02*
X17371000Y-11381500D01*
X18095000Y-5941000D02*
X18415000Y-6261000D01*
X18415000Y-5941000D02*
X18095000Y-6261000D01*
X18255000Y-5941000D02*
X18255000Y-6261000D01*
X18095000Y-6101000D02*
X18415000Y-6101000D01*
X19551000Y-11221500D02*
X19871000Y-11541500D01*
X19871000Y-11221500D02*
X19551000Y-11541500D01*
X19711000Y-11221500D02*
X19711000Y-11541500D01*
X19551000Y-11381500D02*
X19871000Y-11381500D01*
D11*
X7552619Y-12636976D02*
X7552619Y-12436976D01*
X7600238Y-12436976D01*
X7628809Y-12446500D01*
X7647857Y-12465548D01*
X7657381Y-12484595D01*
X7666905Y-12522690D01*
X7666905Y-12551262D01*
X7657381Y-12589357D01*
X7647857Y-12608405D01*
X7628809Y-12627452D01*
X7600238Y-12636976D01*
X7552619Y-12636976D01*
X7752619Y-12636976D02*
X7752619Y-12503643D01*
X7752619Y-12541738D02*
X7762143Y-12522690D01*
X7771667Y-12513167D01*
X7790714Y-12503643D01*
X7809762Y-12503643D01*
X7876428Y-12636976D02*
X7876428Y-12503643D01*
X7876428Y-12436976D02*
X7866905Y-12446500D01*
X7876428Y-12456024D01*
X7885952Y-12446500D01*
X7876428Y-12436976D01*
X7876428Y-12456024D01*
X8000238Y-12636976D02*
X7981190Y-12627452D01*
X7971667Y-12608405D01*
X7971667Y-12436976D01*
X8105000Y-12636976D02*
X8085952Y-12627452D01*
X8076428Y-12608405D01*
X8076428Y-12436976D01*
X8333571Y-12636976D02*
X8333571Y-12436976D01*
X8400238Y-12579833D01*
X8466905Y-12436976D01*
X8466905Y-12636976D01*
X8647857Y-12636976D02*
X8647857Y-12532214D01*
X8638333Y-12513167D01*
X8619286Y-12503643D01*
X8581190Y-12503643D01*
X8562143Y-12513167D01*
X8647857Y-12627452D02*
X8628810Y-12636976D01*
X8581190Y-12636976D01*
X8562143Y-12627452D01*
X8552619Y-12608405D01*
X8552619Y-12589357D01*
X8562143Y-12570309D01*
X8581190Y-12560786D01*
X8628810Y-12560786D01*
X8647857Y-12551262D01*
X8743095Y-12503643D02*
X8743095Y-12703643D01*
X8743095Y-12513167D02*
X8762143Y-12503643D01*
X8800238Y-12503643D01*
X8819286Y-12513167D01*
X8828810Y-12522690D01*
X8838333Y-12541738D01*
X8838333Y-12598881D01*
X8828810Y-12617928D01*
X8819286Y-12627452D01*
X8800238Y-12636976D01*
X8762143Y-12636976D01*
X8743095Y-12627452D01*
X8924048Y-12617928D02*
X8933571Y-12627452D01*
X8924048Y-12636976D01*
X8914524Y-12627452D01*
X8924048Y-12617928D01*
X8924048Y-12636976D01*
X8924048Y-12513167D02*
X8933571Y-12522690D01*
X8924048Y-12532214D01*
X8914524Y-12522690D01*
X8924048Y-12513167D01*
X8924048Y-12532214D01*
D12*
X7254360Y-12946180D02*
X7295000Y-12986820D01*
X7295000Y-12946180D02*
X7254360Y-12986820D01*
D11*
X7590714Y-12856976D02*
X7609762Y-12856976D01*
X7628809Y-12866500D01*
X7638333Y-12876024D01*
X7647857Y-12895071D01*
X7657381Y-12933167D01*
X7657381Y-12980786D01*
X7647857Y-13018881D01*
X7638333Y-13037928D01*
X7628809Y-13047452D01*
X7609762Y-13056976D01*
X7590714Y-13056976D01*
X7571667Y-13047452D01*
X7562143Y-13037928D01*
X7552619Y-13018881D01*
X7543095Y-12980786D01*
X7543095Y-12933167D01*
X7552619Y-12895071D01*
X7562143Y-12876024D01*
X7571667Y-12866500D01*
X7590714Y-12856976D01*
X7743095Y-13037928D02*
X7752619Y-13047452D01*
X7743095Y-13056976D01*
X7733571Y-13047452D01*
X7743095Y-13037928D01*
X7743095Y-13056976D01*
X7924048Y-12923643D02*
X7924048Y-13056976D01*
X7876428Y-12847452D02*
X7828809Y-12990309D01*
X7952619Y-12990309D01*
X8066905Y-12856976D02*
X8085952Y-12856976D01*
X8105000Y-12866500D01*
X8114524Y-12876024D01*
X8124048Y-12895071D01*
X8133571Y-12933167D01*
X8133571Y-12980786D01*
X8124048Y-13018881D01*
X8114524Y-13037928D01*
X8105000Y-13047452D01*
X8085952Y-13056976D01*
X8066905Y-13056976D01*
X8047857Y-13047452D01*
X8038333Y-13037928D01*
X8028809Y-13018881D01*
X8019286Y-12980786D01*
X8019286Y-12933167D01*
X8028809Y-12895071D01*
X8038333Y-12876024D01*
X8047857Y-12866500D01*
X8066905Y-12856976D01*
X8305000Y-12856976D02*
X8266905Y-12856976D01*
X8247857Y-12866500D01*
X8238333Y-12876024D01*
X8219286Y-12904595D01*
X8209762Y-12942690D01*
X8209762Y-13018881D01*
X8219286Y-13037928D01*
X8228809Y-13047452D01*
X8247857Y-13056976D01*
X8285952Y-13056976D01*
X8305000Y-13047452D01*
X8314524Y-13037928D01*
X8324048Y-13018881D01*
X8324048Y-12971262D01*
X8314524Y-12952214D01*
X8305000Y-12942690D01*
X8285952Y-12933167D01*
X8247857Y-12933167D01*
X8228809Y-12942690D01*
X8219286Y-12952214D01*
X8209762Y-12971262D01*
X8409762Y-13056976D02*
X8409762Y-12923643D01*
X8409762Y-12942690D02*
X8419286Y-12933167D01*
X8438333Y-12923643D01*
X8466905Y-12923643D01*
X8485952Y-12933167D01*
X8495476Y-12952214D01*
X8495476Y-13056976D01*
X8495476Y-12952214D02*
X8505000Y-12933167D01*
X8524048Y-12923643D01*
X8552619Y-12923643D01*
X8571667Y-12933167D01*
X8581190Y-12952214D01*
X8581190Y-13056976D01*
X8676429Y-13056976D02*
X8676429Y-12923643D01*
X8676429Y-12942690D02*
X8685952Y-12933167D01*
X8705000Y-12923643D01*
X8733571Y-12923643D01*
X8752619Y-12933167D01*
X8762143Y-12952214D01*
X8762143Y-13056976D01*
X8762143Y-12952214D02*
X8771667Y-12933167D01*
X8790714Y-12923643D01*
X8819286Y-12923643D01*
X8838333Y-12933167D01*
X8847857Y-12952214D01*
X8847857Y-13056976D01*
X9238333Y-12847452D02*
X9066905Y-13104595D01*
X9495476Y-12856976D02*
X9514524Y-12856976D01*
X9533571Y-12866500D01*
X9543095Y-12876024D01*
X9552619Y-12895071D01*
X9562143Y-12933167D01*
X9562143Y-12980786D01*
X9552619Y-13018881D01*
X9543095Y-13037928D01*
X9533571Y-13047452D01*
X9514524Y-13056976D01*
X9495476Y-13056976D01*
X9476429Y-13047452D01*
X9466905Y-13037928D01*
X9457381Y-13018881D01*
X9447857Y-12980786D01*
X9447857Y-12933167D01*
X9457381Y-12895071D01*
X9466905Y-12876024D01*
X9476429Y-12866500D01*
X9495476Y-12856976D01*
X9647857Y-13037928D02*
X9657381Y-13047452D01*
X9647857Y-13056976D01*
X9638333Y-13047452D01*
X9647857Y-13037928D01*
X9647857Y-13056976D01*
X9781190Y-12856976D02*
X9800238Y-12856976D01*
X9819286Y-12866500D01*
X9828810Y-12876024D01*
X9838333Y-12895071D01*
X9847857Y-12933167D01*
X9847857Y-12980786D01*
X9838333Y-13018881D01*
X9828810Y-13037928D01*
X9819286Y-13047452D01*
X9800238Y-13056976D01*
X9781190Y-13056976D01*
X9762143Y-13047452D01*
X9752619Y-13037928D01*
X9743095Y-13018881D01*
X9733571Y-12980786D01*
X9733571Y-12933167D01*
X9743095Y-12895071D01*
X9752619Y-12876024D01*
X9762143Y-12866500D01*
X9781190Y-12856976D01*
X10038333Y-13056976D02*
X9924048Y-13056976D01*
X9981190Y-13056976D02*
X9981190Y-12856976D01*
X9962143Y-12885548D01*
X9943095Y-12904595D01*
X9924048Y-12914119D01*
X10209762Y-12856976D02*
X10171667Y-12856976D01*
X10152619Y-12866500D01*
X10143095Y-12876024D01*
X10124048Y-12904595D01*
X10114524Y-12942690D01*
X10114524Y-13018881D01*
X10124048Y-13037928D01*
X10133571Y-13047452D01*
X10152619Y-13056976D01*
X10190714Y-13056976D01*
X10209762Y-13047452D01*
X10219286Y-13037928D01*
X10228810Y-13018881D01*
X10228810Y-12971262D01*
X10219286Y-12952214D01*
X10209762Y-12942690D01*
X10190714Y-12933167D01*
X10152619Y-12933167D01*
X10133571Y-12942690D01*
X10124048Y-12952214D01*
X10114524Y-12971262D01*
X10352619Y-12856976D02*
X10371667Y-12856976D01*
X10390714Y-12866500D01*
X10400238Y-12876024D01*
X10409762Y-12895071D01*
X10419286Y-12933167D01*
X10419286Y-12980786D01*
X10409762Y-13018881D01*
X10400238Y-13037928D01*
X10390714Y-13047452D01*
X10371667Y-13056976D01*
X10352619Y-13056976D01*
X10333571Y-13047452D01*
X10324048Y-13037928D01*
X10314524Y-13018881D01*
X10305000Y-12980786D01*
X10305000Y-12933167D01*
X10314524Y-12895071D01*
X10324048Y-12876024D01*
X10333571Y-12866500D01*
X10352619Y-12856976D01*
X10495476Y-12856976D02*
X10495476Y-12895071D01*
X10571667Y-12856976D02*
X10571667Y-12895071D01*
X10866905Y-13133167D02*
X10857381Y-13123643D01*
X10838333Y-13095071D01*
X10828810Y-13076024D01*
X10819286Y-13047452D01*
X10809762Y-12999833D01*
X10809762Y-12961738D01*
X10819286Y-12914119D01*
X10828810Y-12885548D01*
X10838333Y-12866500D01*
X10857381Y-12837928D01*
X10866905Y-12828405D01*
X11028810Y-12923643D02*
X11028810Y-13056976D01*
X10981190Y-12847452D02*
X10933571Y-12990309D01*
X11057381Y-12990309D01*
X11219286Y-12856976D02*
X11181190Y-12856976D01*
X11162143Y-12866500D01*
X11152619Y-12876024D01*
X11133571Y-12904595D01*
X11124048Y-12942690D01*
X11124048Y-13018881D01*
X11133571Y-13037928D01*
X11143095Y-13047452D01*
X11162143Y-13056976D01*
X11200238Y-13056976D01*
X11219286Y-13047452D01*
X11228809Y-13037928D01*
X11238333Y-13018881D01*
X11238333Y-12971262D01*
X11228809Y-12952214D01*
X11219286Y-12942690D01*
X11200238Y-12933167D01*
X11162143Y-12933167D01*
X11143095Y-12942690D01*
X11133571Y-12952214D01*
X11124048Y-12971262D01*
X11476428Y-13056976D02*
X11476428Y-12856976D01*
X11562143Y-13056976D02*
X11562143Y-12952214D01*
X11552619Y-12933167D01*
X11533571Y-12923643D01*
X11505000Y-12923643D01*
X11485952Y-12933167D01*
X11476428Y-12942690D01*
X11685952Y-13056976D02*
X11666905Y-13047452D01*
X11657381Y-13037928D01*
X11647857Y-13018881D01*
X11647857Y-12961738D01*
X11657381Y-12942690D01*
X11666905Y-12933167D01*
X11685952Y-12923643D01*
X11714524Y-12923643D01*
X11733571Y-12933167D01*
X11743095Y-12942690D01*
X11752619Y-12961738D01*
X11752619Y-13018881D01*
X11743095Y-13037928D01*
X11733571Y-13047452D01*
X11714524Y-13056976D01*
X11685952Y-13056976D01*
X11866905Y-13056976D02*
X11847857Y-13047452D01*
X11838333Y-13028405D01*
X11838333Y-12856976D01*
X12019286Y-13047452D02*
X12000238Y-13056976D01*
X11962143Y-13056976D01*
X11943095Y-13047452D01*
X11933571Y-13028405D01*
X11933571Y-12952214D01*
X11943095Y-12933167D01*
X11962143Y-12923643D01*
X12000238Y-12923643D01*
X12019286Y-12933167D01*
X12028809Y-12952214D01*
X12028809Y-12971262D01*
X11933571Y-12990309D01*
X12105000Y-13047452D02*
X12124048Y-13056976D01*
X12162143Y-13056976D01*
X12181190Y-13047452D01*
X12190714Y-13028405D01*
X12190714Y-13018881D01*
X12181190Y-12999833D01*
X12162143Y-12990309D01*
X12133571Y-12990309D01*
X12114524Y-12980786D01*
X12105000Y-12961738D01*
X12105000Y-12952214D01*
X12114524Y-12933167D01*
X12133571Y-12923643D01*
X12162143Y-12923643D01*
X12181190Y-12933167D01*
X12257381Y-13133167D02*
X12266905Y-13123643D01*
X12285952Y-13095071D01*
X12295476Y-13076024D01*
X12305000Y-13047452D01*
X12314524Y-12999833D01*
X12314524Y-12961738D01*
X12305000Y-12914119D01*
X12295476Y-12885548D01*
X12285952Y-12866500D01*
X12266905Y-12837928D01*
X12257381Y-12828405D01*
D13*
X7295000Y-13230500D02*
G75*
G03*
X7295000Y-13230500I-30480J0D01*
G01*
D11*
X7590714Y-13120976D02*
X7609762Y-13120976D01*
X7628809Y-13130500D01*
X7638333Y-13140024D01*
X7647857Y-13159071D01*
X7657381Y-13197167D01*
X7657381Y-13244786D01*
X7647857Y-13282881D01*
X7638333Y-13301928D01*
X7628809Y-13311452D01*
X7609762Y-13320976D01*
X7590714Y-13320976D01*
X7571667Y-13311452D01*
X7562143Y-13301928D01*
X7552619Y-13282881D01*
X7543095Y-13244786D01*
X7543095Y-13197167D01*
X7552619Y-13159071D01*
X7562143Y-13140024D01*
X7571667Y-13130500D01*
X7590714Y-13120976D01*
X7743095Y-13301928D02*
X7752619Y-13311452D01*
X7743095Y-13320976D01*
X7733571Y-13311452D01*
X7743095Y-13301928D01*
X7743095Y-13320976D01*
X7924048Y-13120976D02*
X7885952Y-13120976D01*
X7866905Y-13130500D01*
X7857381Y-13140024D01*
X7838333Y-13168595D01*
X7828809Y-13206690D01*
X7828809Y-13282881D01*
X7838333Y-13301928D01*
X7847857Y-13311452D01*
X7866905Y-13320976D01*
X7905000Y-13320976D01*
X7924048Y-13311452D01*
X7933571Y-13301928D01*
X7943095Y-13282881D01*
X7943095Y-13235262D01*
X7933571Y-13216214D01*
X7924048Y-13206690D01*
X7905000Y-13197167D01*
X7866905Y-13197167D01*
X7847857Y-13206690D01*
X7838333Y-13216214D01*
X7828809Y-13235262D01*
X8133571Y-13320976D02*
X8019286Y-13320976D01*
X8076428Y-13320976D02*
X8076428Y-13120976D01*
X8057381Y-13149548D01*
X8038333Y-13168595D01*
X8019286Y-13178119D01*
X8257381Y-13120976D02*
X8276428Y-13120976D01*
X8295476Y-13130500D01*
X8305000Y-13140024D01*
X8314524Y-13159071D01*
X8324048Y-13197167D01*
X8324048Y-13244786D01*
X8314524Y-13282881D01*
X8305000Y-13301928D01*
X8295476Y-13311452D01*
X8276428Y-13320976D01*
X8257381Y-13320976D01*
X8238333Y-13311452D01*
X8228809Y-13301928D01*
X8219286Y-13282881D01*
X8209762Y-13244786D01*
X8209762Y-13197167D01*
X8219286Y-13159071D01*
X8228809Y-13140024D01*
X8238333Y-13130500D01*
X8257381Y-13120976D01*
X8409762Y-13320976D02*
X8409762Y-13187643D01*
X8409762Y-13206690D02*
X8419286Y-13197167D01*
X8438333Y-13187643D01*
X8466905Y-13187643D01*
X8485952Y-13197167D01*
X8495476Y-13216214D01*
X8495476Y-13320976D01*
X8495476Y-13216214D02*
X8505000Y-13197167D01*
X8524048Y-13187643D01*
X8552619Y-13187643D01*
X8571667Y-13197167D01*
X8581190Y-13216214D01*
X8581190Y-13320976D01*
X8676429Y-13320976D02*
X8676429Y-13187643D01*
X8676429Y-13206690D02*
X8685952Y-13197167D01*
X8705000Y-13187643D01*
X8733571Y-13187643D01*
X8752619Y-13197167D01*
X8762143Y-13216214D01*
X8762143Y-13320976D01*
X8762143Y-13216214D02*
X8771667Y-13197167D01*
X8790714Y-13187643D01*
X8819286Y-13187643D01*
X8838333Y-13197167D01*
X8847857Y-13216214D01*
X8847857Y-13320976D01*
X9238333Y-13111452D02*
X9066905Y-13368595D01*
X9495476Y-13120976D02*
X9514524Y-13120976D01*
X9533571Y-13130500D01*
X9543095Y-13140024D01*
X9552619Y-13159071D01*
X9562143Y-13197167D01*
X9562143Y-13244786D01*
X9552619Y-13282881D01*
X9543095Y-13301928D01*
X9533571Y-13311452D01*
X9514524Y-13320976D01*
X9495476Y-13320976D01*
X9476429Y-13311452D01*
X9466905Y-13301928D01*
X9457381Y-13282881D01*
X9447857Y-13244786D01*
X9447857Y-13197167D01*
X9457381Y-13159071D01*
X9466905Y-13140024D01*
X9476429Y-13130500D01*
X9495476Y-13120976D01*
X9647857Y-13301928D02*
X9657381Y-13311452D01*
X9647857Y-13320976D01*
X9638333Y-13311452D01*
X9647857Y-13301928D01*
X9647857Y-13320976D01*
X9781190Y-13120976D02*
X9800238Y-13120976D01*
X9819286Y-13130500D01*
X9828810Y-13140024D01*
X9838333Y-13159071D01*
X9847857Y-13197167D01*
X9847857Y-13244786D01*
X9838333Y-13282881D01*
X9828810Y-13301928D01*
X9819286Y-13311452D01*
X9800238Y-13320976D01*
X9781190Y-13320976D01*
X9762143Y-13311452D01*
X9752619Y-13301928D01*
X9743095Y-13282881D01*
X9733571Y-13244786D01*
X9733571Y-13197167D01*
X9743095Y-13159071D01*
X9752619Y-13140024D01*
X9762143Y-13130500D01*
X9781190Y-13120976D01*
X9924048Y-13140024D02*
X9933571Y-13130500D01*
X9952619Y-13120976D01*
X10000238Y-13120976D01*
X10019286Y-13130500D01*
X10028810Y-13140024D01*
X10038333Y-13159071D01*
X10038333Y-13178119D01*
X10028810Y-13206690D01*
X9914524Y-13320976D01*
X10038333Y-13320976D01*
X10209762Y-13187643D02*
X10209762Y-13320976D01*
X10162143Y-13111452D02*
X10114524Y-13254309D01*
X10238333Y-13254309D01*
X10352619Y-13120976D02*
X10371667Y-13120976D01*
X10390714Y-13130500D01*
X10400238Y-13140024D01*
X10409762Y-13159071D01*
X10419286Y-13197167D01*
X10419286Y-13244786D01*
X10409762Y-13282881D01*
X10400238Y-13301928D01*
X10390714Y-13311452D01*
X10371667Y-13320976D01*
X10352619Y-13320976D01*
X10333571Y-13311452D01*
X10324048Y-13301928D01*
X10314524Y-13282881D01*
X10305000Y-13244786D01*
X10305000Y-13197167D01*
X10314524Y-13159071D01*
X10324048Y-13140024D01*
X10333571Y-13130500D01*
X10352619Y-13120976D01*
X10495476Y-13120976D02*
X10495476Y-13159071D01*
X10571667Y-13120976D02*
X10571667Y-13159071D01*
X10866905Y-13397167D02*
X10857381Y-13387643D01*
X10838333Y-13359071D01*
X10828810Y-13340024D01*
X10819286Y-13311452D01*
X10809762Y-13263833D01*
X10809762Y-13225738D01*
X10819286Y-13178119D01*
X10828810Y-13149548D01*
X10838333Y-13130500D01*
X10857381Y-13101928D01*
X10866905Y-13092405D01*
X10924048Y-13120976D02*
X11047857Y-13120976D01*
X10981190Y-13197167D01*
X11009762Y-13197167D01*
X11028810Y-13206690D01*
X11038333Y-13216214D01*
X11047857Y-13235262D01*
X11047857Y-13282881D01*
X11038333Y-13301928D01*
X11028810Y-13311452D01*
X11009762Y-13320976D01*
X10952619Y-13320976D01*
X10933571Y-13311452D01*
X10924048Y-13301928D01*
X11238333Y-13320976D02*
X11124048Y-13320976D01*
X11181190Y-13320976D02*
X11181190Y-13120976D01*
X11162143Y-13149548D01*
X11143095Y-13168595D01*
X11124048Y-13178119D01*
X11476428Y-13320976D02*
X11476428Y-13120976D01*
X11562143Y-13320976D02*
X11562143Y-13216214D01*
X11552619Y-13197167D01*
X11533571Y-13187643D01*
X11505000Y-13187643D01*
X11485952Y-13197167D01*
X11476428Y-13206690D01*
X11685952Y-13320976D02*
X11666905Y-13311452D01*
X11657381Y-13301928D01*
X11647857Y-13282881D01*
X11647857Y-13225738D01*
X11657381Y-13206690D01*
X11666905Y-13197167D01*
X11685952Y-13187643D01*
X11714524Y-13187643D01*
X11733571Y-13197167D01*
X11743095Y-13206690D01*
X11752619Y-13225738D01*
X11752619Y-13282881D01*
X11743095Y-13301928D01*
X11733571Y-13311452D01*
X11714524Y-13320976D01*
X11685952Y-13320976D01*
X11866905Y-13320976D02*
X11847857Y-13311452D01*
X11838333Y-13292405D01*
X11838333Y-13120976D01*
X12019286Y-13311452D02*
X12000238Y-13320976D01*
X11962143Y-13320976D01*
X11943095Y-13311452D01*
X11933571Y-13292405D01*
X11933571Y-13216214D01*
X11943095Y-13197167D01*
X11962143Y-13187643D01*
X12000238Y-13187643D01*
X12019286Y-13197167D01*
X12028809Y-13216214D01*
X12028809Y-13235262D01*
X11933571Y-13254309D01*
X12105000Y-13311452D02*
X12124048Y-13320976D01*
X12162143Y-13320976D01*
X12181190Y-13311452D01*
X12190714Y-13292405D01*
X12190714Y-13282881D01*
X12181190Y-13263833D01*
X12162143Y-13254309D01*
X12133571Y-13254309D01*
X12114524Y-13244786D01*
X12105000Y-13225738D01*
X12105000Y-13216214D01*
X12114524Y-13197167D01*
X12133571Y-13187643D01*
X12162143Y-13187643D01*
X12181190Y-13197167D01*
X12257381Y-13397167D02*
X12266905Y-13387643D01*
X12285952Y-13359071D01*
X12295476Y-13340024D01*
X12305000Y-13311452D01*
X12314524Y-13263833D01*
X12314524Y-13225738D01*
X12305000Y-13178119D01*
X12295476Y-13149548D01*
X12285952Y-13130500D01*
X12266905Y-13101928D01*
X12257381Y-13092405D01*
D14*
X7262500Y-13462000D02*
X7262500Y-13527000D01*
X7230000Y-13494500D02*
X7295000Y-13494500D01*
D11*
X7590714Y-13384976D02*
X7609762Y-13384976D01*
X7628809Y-13394500D01*
X7638333Y-13404024D01*
X7647857Y-13423071D01*
X7657381Y-13461167D01*
X7657381Y-13508786D01*
X7647857Y-13546881D01*
X7638333Y-13565928D01*
X7628809Y-13575452D01*
X7609762Y-13584976D01*
X7590714Y-13584976D01*
X7571667Y-13575452D01*
X7562143Y-13565928D01*
X7552619Y-13546881D01*
X7543095Y-13508786D01*
X7543095Y-13461167D01*
X7552619Y-13423071D01*
X7562143Y-13404024D01*
X7571667Y-13394500D01*
X7590714Y-13384976D01*
X7743095Y-13565928D02*
X7752619Y-13575452D01*
X7743095Y-13584976D01*
X7733571Y-13575452D01*
X7743095Y-13565928D01*
X7743095Y-13584976D01*
X7924048Y-13384976D02*
X7885952Y-13384976D01*
X7866905Y-13394500D01*
X7857381Y-13404024D01*
X7838333Y-13432595D01*
X7828809Y-13470690D01*
X7828809Y-13546881D01*
X7838333Y-13565928D01*
X7847857Y-13575452D01*
X7866905Y-13584976D01*
X7905000Y-13584976D01*
X7924048Y-13575452D01*
X7933571Y-13565928D01*
X7943095Y-13546881D01*
X7943095Y-13499262D01*
X7933571Y-13480214D01*
X7924048Y-13470690D01*
X7905000Y-13461167D01*
X7866905Y-13461167D01*
X7847857Y-13470690D01*
X7838333Y-13480214D01*
X7828809Y-13499262D01*
X8124048Y-13384976D02*
X8028809Y-13384976D01*
X8019286Y-13480214D01*
X8028809Y-13470690D01*
X8047857Y-13461167D01*
X8095476Y-13461167D01*
X8114524Y-13470690D01*
X8124048Y-13480214D01*
X8133571Y-13499262D01*
X8133571Y-13546881D01*
X8124048Y-13565928D01*
X8114524Y-13575452D01*
X8095476Y-13584976D01*
X8047857Y-13584976D01*
X8028809Y-13575452D01*
X8019286Y-13565928D01*
X8257381Y-13384976D02*
X8276428Y-13384976D01*
X8295476Y-13394500D01*
X8305000Y-13404024D01*
X8314524Y-13423071D01*
X8324048Y-13461167D01*
X8324048Y-13508786D01*
X8314524Y-13546881D01*
X8305000Y-13565928D01*
X8295476Y-13575452D01*
X8276428Y-13584976D01*
X8257381Y-13584976D01*
X8238333Y-13575452D01*
X8228809Y-13565928D01*
X8219286Y-13546881D01*
X8209762Y-13508786D01*
X8209762Y-13461167D01*
X8219286Y-13423071D01*
X8228809Y-13404024D01*
X8238333Y-13394500D01*
X8257381Y-13384976D01*
X8409762Y-13584976D02*
X8409762Y-13451643D01*
X8409762Y-13470690D02*
X8419286Y-13461167D01*
X8438333Y-13451643D01*
X8466905Y-13451643D01*
X8485952Y-13461167D01*
X8495476Y-13480214D01*
X8495476Y-13584976D01*
X8495476Y-13480214D02*
X8505000Y-13461167D01*
X8524048Y-13451643D01*
X8552619Y-13451643D01*
X8571667Y-13461167D01*
X8581190Y-13480214D01*
X8581190Y-13584976D01*
X8676429Y-13584976D02*
X8676429Y-13451643D01*
X8676429Y-13470690D02*
X8685952Y-13461167D01*
X8705000Y-13451643D01*
X8733571Y-13451643D01*
X8752619Y-13461167D01*
X8762143Y-13480214D01*
X8762143Y-13584976D01*
X8762143Y-13480214D02*
X8771667Y-13461167D01*
X8790714Y-13451643D01*
X8819286Y-13451643D01*
X8838333Y-13461167D01*
X8847857Y-13480214D01*
X8847857Y-13584976D01*
X9238333Y-13375452D02*
X9066905Y-13632595D01*
X9495476Y-13384976D02*
X9514524Y-13384976D01*
X9533571Y-13394500D01*
X9543095Y-13404024D01*
X9552619Y-13423071D01*
X9562143Y-13461167D01*
X9562143Y-13508786D01*
X9552619Y-13546881D01*
X9543095Y-13565928D01*
X9533571Y-13575452D01*
X9514524Y-13584976D01*
X9495476Y-13584976D01*
X9476429Y-13575452D01*
X9466905Y-13565928D01*
X9457381Y-13546881D01*
X9447857Y-13508786D01*
X9447857Y-13461167D01*
X9457381Y-13423071D01*
X9466905Y-13404024D01*
X9476429Y-13394500D01*
X9495476Y-13384976D01*
X9647857Y-13565928D02*
X9657381Y-13575452D01*
X9647857Y-13584976D01*
X9638333Y-13575452D01*
X9647857Y-13565928D01*
X9647857Y-13584976D01*
X9781190Y-13384976D02*
X9800238Y-13384976D01*
X9819286Y-13394500D01*
X9828810Y-13404024D01*
X9838333Y-13423071D01*
X9847857Y-13461167D01*
X9847857Y-13508786D01*
X9838333Y-13546881D01*
X9828810Y-13565928D01*
X9819286Y-13575452D01*
X9800238Y-13584976D01*
X9781190Y-13584976D01*
X9762143Y-13575452D01*
X9752619Y-13565928D01*
X9743095Y-13546881D01*
X9733571Y-13508786D01*
X9733571Y-13461167D01*
X9743095Y-13423071D01*
X9752619Y-13404024D01*
X9762143Y-13394500D01*
X9781190Y-13384976D01*
X9924048Y-13404024D02*
X9933571Y-13394500D01*
X9952619Y-13384976D01*
X10000238Y-13384976D01*
X10019286Y-13394500D01*
X10028810Y-13404024D01*
X10038333Y-13423071D01*
X10038333Y-13442119D01*
X10028810Y-13470690D01*
X9914524Y-13584976D01*
X10038333Y-13584976D01*
X10219286Y-13384976D02*
X10124048Y-13384976D01*
X10114524Y-13480214D01*
X10124048Y-13470690D01*
X10143095Y-13461167D01*
X10190714Y-13461167D01*
X10209762Y-13470690D01*
X10219286Y-13480214D01*
X10228810Y-13499262D01*
X10228810Y-13546881D01*
X10219286Y-13565928D01*
X10209762Y-13575452D01*
X10190714Y-13584976D01*
X10143095Y-13584976D01*
X10124048Y-13575452D01*
X10114524Y-13565928D01*
X10400238Y-13384976D02*
X10362143Y-13384976D01*
X10343095Y-13394500D01*
X10333571Y-13404024D01*
X10314524Y-13432595D01*
X10305000Y-13470690D01*
X10305000Y-13546881D01*
X10314524Y-13565928D01*
X10324048Y-13575452D01*
X10343095Y-13584976D01*
X10381190Y-13584976D01*
X10400238Y-13575452D01*
X10409762Y-13565928D01*
X10419286Y-13546881D01*
X10419286Y-13499262D01*
X10409762Y-13480214D01*
X10400238Y-13470690D01*
X10381190Y-13461167D01*
X10343095Y-13461167D01*
X10324048Y-13470690D01*
X10314524Y-13480214D01*
X10305000Y-13499262D01*
X10495476Y-13384976D02*
X10495476Y-13423071D01*
X10571667Y-13384976D02*
X10571667Y-13423071D01*
X10866905Y-13661167D02*
X10857381Y-13651643D01*
X10838333Y-13623071D01*
X10828810Y-13604024D01*
X10819286Y-13575452D01*
X10809762Y-13527833D01*
X10809762Y-13489738D01*
X10819286Y-13442119D01*
X10828810Y-13413548D01*
X10838333Y-13394500D01*
X10857381Y-13365928D01*
X10866905Y-13356405D01*
X10981190Y-13384976D02*
X11000238Y-13384976D01*
X11019286Y-13394500D01*
X11028810Y-13404024D01*
X11038333Y-13423071D01*
X11047857Y-13461167D01*
X11047857Y-13508786D01*
X11038333Y-13546881D01*
X11028810Y-13565928D01*
X11019286Y-13575452D01*
X11000238Y-13584976D01*
X10981190Y-13584976D01*
X10962143Y-13575452D01*
X10952619Y-13565928D01*
X10943095Y-13546881D01*
X10933571Y-13508786D01*
X10933571Y-13461167D01*
X10943095Y-13423071D01*
X10952619Y-13404024D01*
X10962143Y-13394500D01*
X10981190Y-13384976D01*
X11285952Y-13584976D02*
X11285952Y-13384976D01*
X11371667Y-13584976D02*
X11371667Y-13480214D01*
X11362143Y-13461167D01*
X11343095Y-13451643D01*
X11314524Y-13451643D01*
X11295476Y-13461167D01*
X11285952Y-13470690D01*
X11495476Y-13584976D02*
X11476428Y-13575452D01*
X11466905Y-13565928D01*
X11457381Y-13546881D01*
X11457381Y-13489738D01*
X11466905Y-13470690D01*
X11476428Y-13461167D01*
X11495476Y-13451643D01*
X11524048Y-13451643D01*
X11543095Y-13461167D01*
X11552619Y-13470690D01*
X11562143Y-13489738D01*
X11562143Y-13546881D01*
X11552619Y-13565928D01*
X11543095Y-13575452D01*
X11524048Y-13584976D01*
X11495476Y-13584976D01*
X11676428Y-13584976D02*
X11657381Y-13575452D01*
X11647857Y-13556405D01*
X11647857Y-13384976D01*
X11828809Y-13575452D02*
X11809762Y-13584976D01*
X11771667Y-13584976D01*
X11752619Y-13575452D01*
X11743095Y-13556405D01*
X11743095Y-13480214D01*
X11752619Y-13461167D01*
X11771667Y-13451643D01*
X11809762Y-13451643D01*
X11828809Y-13461167D01*
X11838333Y-13480214D01*
X11838333Y-13499262D01*
X11743095Y-13518309D01*
X11914524Y-13575452D02*
X11933571Y-13584976D01*
X11971667Y-13584976D01*
X11990714Y-13575452D01*
X12000238Y-13556405D01*
X12000238Y-13546881D01*
X11990714Y-13527833D01*
X11971667Y-13518309D01*
X11943095Y-13518309D01*
X11924048Y-13508786D01*
X11914524Y-13489738D01*
X11914524Y-13480214D01*
X11924048Y-13461167D01*
X11943095Y-13451643D01*
X11971667Y-13451643D01*
X11990714Y-13461167D01*
X12238333Y-13508786D02*
X12390714Y-13508786D01*
X12314524Y-13584976D02*
X12314524Y-13432595D01*
X12619286Y-13384976D02*
X12743095Y-13384976D01*
X12676428Y-13461167D01*
X12705000Y-13461167D01*
X12724048Y-13470690D01*
X12733571Y-13480214D01*
X12743095Y-13499262D01*
X12743095Y-13546881D01*
X12733571Y-13565928D01*
X12724048Y-13575452D01*
X12705000Y-13584976D01*
X12647857Y-13584976D01*
X12628809Y-13575452D01*
X12619286Y-13565928D01*
X12971667Y-13575452D02*
X12990714Y-13584976D01*
X13028809Y-13584976D01*
X13047857Y-13575452D01*
X13057381Y-13556405D01*
X13057381Y-13546881D01*
X13047857Y-13527833D01*
X13028809Y-13518309D01*
X13000238Y-13518309D01*
X12981190Y-13508786D01*
X12971667Y-13489738D01*
X12971667Y-13480214D01*
X12981190Y-13461167D01*
X13000238Y-13451643D01*
X13028809Y-13451643D01*
X13047857Y-13461167D01*
X13171667Y-13584976D02*
X13152619Y-13575452D01*
X13143095Y-13556405D01*
X13143095Y-13384976D01*
X13276428Y-13584976D02*
X13257381Y-13575452D01*
X13247857Y-13565928D01*
X13238333Y-13546881D01*
X13238333Y-13489738D01*
X13247857Y-13470690D01*
X13257381Y-13461167D01*
X13276428Y-13451643D01*
X13305000Y-13451643D01*
X13324048Y-13461167D01*
X13333571Y-13470690D01*
X13343095Y-13489738D01*
X13343095Y-13546881D01*
X13333571Y-13565928D01*
X13324048Y-13575452D01*
X13305000Y-13584976D01*
X13276428Y-13584976D01*
X13400238Y-13451643D02*
X13476428Y-13451643D01*
X13428809Y-13384976D02*
X13428809Y-13556405D01*
X13438333Y-13575452D01*
X13457381Y-13584976D01*
X13476428Y-13584976D01*
X13533571Y-13575452D02*
X13552619Y-13584976D01*
X13590714Y-13584976D01*
X13609762Y-13575452D01*
X13619286Y-13556405D01*
X13619286Y-13546881D01*
X13609762Y-13527833D01*
X13590714Y-13518309D01*
X13562143Y-13518309D01*
X13543095Y-13508786D01*
X13533571Y-13489738D01*
X13533571Y-13480214D01*
X13543095Y-13461167D01*
X13562143Y-13451643D01*
X13590714Y-13451643D01*
X13609762Y-13461167D01*
X13685952Y-13661167D02*
X13695476Y-13651643D01*
X13714524Y-13623071D01*
X13724048Y-13604024D01*
X13733571Y-13575452D01*
X13743095Y-13527833D01*
X13743095Y-13489738D01*
X13733571Y-13442119D01*
X13724048Y-13413548D01*
X13714524Y-13394500D01*
X13695476Y-13365928D01*
X13685952Y-13356405D01*
D15*
X7283841Y-13785441D02*
X7283841Y-13731559D01*
X7229959Y-13731559D01*
X7229959Y-13785441D01*
X7283841Y-13785441D01*
D11*
X7590714Y-13648976D02*
X7609762Y-13648976D01*
X7628809Y-13658500D01*
X7638333Y-13668024D01*
X7647857Y-13687071D01*
X7657381Y-13725167D01*
X7657381Y-13772786D01*
X7647857Y-13810881D01*
X7638333Y-13829928D01*
X7628809Y-13839452D01*
X7609762Y-13848976D01*
X7590714Y-13848976D01*
X7571667Y-13839452D01*
X7562143Y-13829928D01*
X7552619Y-13810881D01*
X7543095Y-13772786D01*
X7543095Y-13725167D01*
X7552619Y-13687071D01*
X7562143Y-13668024D01*
X7571667Y-13658500D01*
X7590714Y-13648976D01*
X7743095Y-13829928D02*
X7752619Y-13839452D01*
X7743095Y-13848976D01*
X7733571Y-13839452D01*
X7743095Y-13829928D01*
X7743095Y-13848976D01*
X7819286Y-13648976D02*
X7952619Y-13648976D01*
X7866905Y-13848976D01*
X8114524Y-13648976D02*
X8076428Y-13648976D01*
X8057381Y-13658500D01*
X8047857Y-13668024D01*
X8028809Y-13696595D01*
X8019286Y-13734690D01*
X8019286Y-13810881D01*
X8028809Y-13829928D01*
X8038333Y-13839452D01*
X8057381Y-13848976D01*
X8095476Y-13848976D01*
X8114524Y-13839452D01*
X8124048Y-13829928D01*
X8133571Y-13810881D01*
X8133571Y-13763262D01*
X8124048Y-13744214D01*
X8114524Y-13734690D01*
X8095476Y-13725167D01*
X8057381Y-13725167D01*
X8038333Y-13734690D01*
X8028809Y-13744214D01*
X8019286Y-13763262D01*
X8209762Y-13668024D02*
X8219286Y-13658500D01*
X8238333Y-13648976D01*
X8285952Y-13648976D01*
X8305000Y-13658500D01*
X8314524Y-13668024D01*
X8324048Y-13687071D01*
X8324048Y-13706119D01*
X8314524Y-13734690D01*
X8200238Y-13848976D01*
X8324048Y-13848976D01*
X8409762Y-13848976D02*
X8409762Y-13715643D01*
X8409762Y-13734690D02*
X8419286Y-13725167D01*
X8438333Y-13715643D01*
X8466905Y-13715643D01*
X8485952Y-13725167D01*
X8495476Y-13744214D01*
X8495476Y-13848976D01*
X8495476Y-13744214D02*
X8505000Y-13725167D01*
X8524048Y-13715643D01*
X8552619Y-13715643D01*
X8571667Y-13725167D01*
X8581190Y-13744214D01*
X8581190Y-13848976D01*
X8676429Y-13848976D02*
X8676429Y-13715643D01*
X8676429Y-13734690D02*
X8685952Y-13725167D01*
X8705000Y-13715643D01*
X8733571Y-13715643D01*
X8752619Y-13725167D01*
X8762143Y-13744214D01*
X8762143Y-13848976D01*
X8762143Y-13744214D02*
X8771667Y-13725167D01*
X8790714Y-13715643D01*
X8819286Y-13715643D01*
X8838333Y-13725167D01*
X8847857Y-13744214D01*
X8847857Y-13848976D01*
X9238333Y-13639452D02*
X9066905Y-13896595D01*
X9495476Y-13648976D02*
X9514524Y-13648976D01*
X9533571Y-13658500D01*
X9543095Y-13668024D01*
X9552619Y-13687071D01*
X9562143Y-13725167D01*
X9562143Y-13772786D01*
X9552619Y-13810881D01*
X9543095Y-13829928D01*
X9533571Y-13839452D01*
X9514524Y-13848976D01*
X9495476Y-13848976D01*
X9476429Y-13839452D01*
X9466905Y-13829928D01*
X9457381Y-13810881D01*
X9447857Y-13772786D01*
X9447857Y-13725167D01*
X9457381Y-13687071D01*
X9466905Y-13668024D01*
X9476429Y-13658500D01*
X9495476Y-13648976D01*
X9647857Y-13829928D02*
X9657381Y-13839452D01*
X9647857Y-13848976D01*
X9638333Y-13839452D01*
X9647857Y-13829928D01*
X9647857Y-13848976D01*
X9781190Y-13648976D02*
X9800238Y-13648976D01*
X9819286Y-13658500D01*
X9828810Y-13668024D01*
X9838333Y-13687071D01*
X9847857Y-13725167D01*
X9847857Y-13772786D01*
X9838333Y-13810881D01*
X9828810Y-13829928D01*
X9819286Y-13839452D01*
X9800238Y-13848976D01*
X9781190Y-13848976D01*
X9762143Y-13839452D01*
X9752619Y-13829928D01*
X9743095Y-13810881D01*
X9733571Y-13772786D01*
X9733571Y-13725167D01*
X9743095Y-13687071D01*
X9752619Y-13668024D01*
X9762143Y-13658500D01*
X9781190Y-13648976D01*
X9914524Y-13648976D02*
X10038333Y-13648976D01*
X9971667Y-13725167D01*
X10000238Y-13725167D01*
X10019286Y-13734690D01*
X10028810Y-13744214D01*
X10038333Y-13763262D01*
X10038333Y-13810881D01*
X10028810Y-13829928D01*
X10019286Y-13839452D01*
X10000238Y-13848976D01*
X9943095Y-13848976D01*
X9924048Y-13839452D01*
X9914524Y-13829928D01*
X10162143Y-13648976D02*
X10181190Y-13648976D01*
X10200238Y-13658500D01*
X10209762Y-13668024D01*
X10219286Y-13687071D01*
X10228810Y-13725167D01*
X10228810Y-13772786D01*
X10219286Y-13810881D01*
X10209762Y-13829928D01*
X10200238Y-13839452D01*
X10181190Y-13848976D01*
X10162143Y-13848976D01*
X10143095Y-13839452D01*
X10133571Y-13829928D01*
X10124048Y-13810881D01*
X10114524Y-13772786D01*
X10114524Y-13725167D01*
X10124048Y-13687071D01*
X10133571Y-13668024D01*
X10143095Y-13658500D01*
X10162143Y-13648976D01*
X10352619Y-13648976D02*
X10371667Y-13648976D01*
X10390714Y-13658500D01*
X10400238Y-13668024D01*
X10409762Y-13687071D01*
X10419286Y-13725167D01*
X10419286Y-13772786D01*
X10409762Y-13810881D01*
X10400238Y-13829928D01*
X10390714Y-13839452D01*
X10371667Y-13848976D01*
X10352619Y-13848976D01*
X10333571Y-13839452D01*
X10324048Y-13829928D01*
X10314524Y-13810881D01*
X10305000Y-13772786D01*
X10305000Y-13725167D01*
X10314524Y-13687071D01*
X10324048Y-13668024D01*
X10333571Y-13658500D01*
X10352619Y-13648976D01*
X10495476Y-13648976D02*
X10495476Y-13687071D01*
X10571667Y-13648976D02*
X10571667Y-13687071D01*
X10866905Y-13925167D02*
X10857381Y-13915643D01*
X10838333Y-13887071D01*
X10828810Y-13868024D01*
X10819286Y-13839452D01*
X10809762Y-13791833D01*
X10809762Y-13753738D01*
X10819286Y-13706119D01*
X10828810Y-13677548D01*
X10838333Y-13658500D01*
X10857381Y-13629928D01*
X10866905Y-13620405D01*
X11028810Y-13715643D02*
X11028810Y-13848976D01*
X10981190Y-13639452D02*
X10933571Y-13782309D01*
X11057381Y-13782309D01*
X11219286Y-13648976D02*
X11181190Y-13648976D01*
X11162143Y-13658500D01*
X11152619Y-13668024D01*
X11133571Y-13696595D01*
X11124048Y-13734690D01*
X11124048Y-13810881D01*
X11133571Y-13829928D01*
X11143095Y-13839452D01*
X11162143Y-13848976D01*
X11200238Y-13848976D01*
X11219286Y-13839452D01*
X11228809Y-13829928D01*
X11238333Y-13810881D01*
X11238333Y-13763262D01*
X11228809Y-13744214D01*
X11219286Y-13734690D01*
X11200238Y-13725167D01*
X11162143Y-13725167D01*
X11143095Y-13734690D01*
X11133571Y-13744214D01*
X11124048Y-13763262D01*
X11476428Y-13848976D02*
X11476428Y-13648976D01*
X11562143Y-13848976D02*
X11562143Y-13744214D01*
X11552619Y-13725167D01*
X11533571Y-13715643D01*
X11505000Y-13715643D01*
X11485952Y-13725167D01*
X11476428Y-13734690D01*
X11685952Y-13848976D02*
X11666905Y-13839452D01*
X11657381Y-13829928D01*
X11647857Y-13810881D01*
X11647857Y-13753738D01*
X11657381Y-13734690D01*
X11666905Y-13725167D01*
X11685952Y-13715643D01*
X11714524Y-13715643D01*
X11733571Y-13725167D01*
X11743095Y-13734690D01*
X11752619Y-13753738D01*
X11752619Y-13810881D01*
X11743095Y-13829928D01*
X11733571Y-13839452D01*
X11714524Y-13848976D01*
X11685952Y-13848976D01*
X11866905Y-13848976D02*
X11847857Y-13839452D01*
X11838333Y-13820405D01*
X11838333Y-13648976D01*
X12019286Y-13839452D02*
X12000238Y-13848976D01*
X11962143Y-13848976D01*
X11943095Y-13839452D01*
X11933571Y-13820405D01*
X11933571Y-13744214D01*
X11943095Y-13725167D01*
X11962143Y-13715643D01*
X12000238Y-13715643D01*
X12019286Y-13725167D01*
X12028809Y-13744214D01*
X12028809Y-13763262D01*
X11933571Y-13782309D01*
X12105000Y-13839452D02*
X12124048Y-13848976D01*
X12162143Y-13848976D01*
X12181190Y-13839452D01*
X12190714Y-13820405D01*
X12190714Y-13810881D01*
X12181190Y-13791833D01*
X12162143Y-13782309D01*
X12133571Y-13782309D01*
X12114524Y-13772786D01*
X12105000Y-13753738D01*
X12105000Y-13744214D01*
X12114524Y-13725167D01*
X12133571Y-13715643D01*
X12162143Y-13715643D01*
X12181190Y-13725167D01*
X12428809Y-13772786D02*
X12581190Y-13772786D01*
X12505000Y-13848976D02*
X12505000Y-13696595D01*
X12809762Y-13648976D02*
X12933571Y-13648976D01*
X12866905Y-13725167D01*
X12895476Y-13725167D01*
X12914524Y-13734690D01*
X12924048Y-13744214D01*
X12933571Y-13763262D01*
X12933571Y-13810881D01*
X12924048Y-13829928D01*
X12914524Y-13839452D01*
X12895476Y-13848976D01*
X12838333Y-13848976D01*
X12819286Y-13839452D01*
X12809762Y-13829928D01*
X13162143Y-13839452D02*
X13181190Y-13848976D01*
X13219286Y-13848976D01*
X13238333Y-13839452D01*
X13247857Y-13820405D01*
X13247857Y-13810881D01*
X13238333Y-13791833D01*
X13219286Y-13782309D01*
X13190714Y-13782309D01*
X13171667Y-13772786D01*
X13162143Y-13753738D01*
X13162143Y-13744214D01*
X13171667Y-13725167D01*
X13190714Y-13715643D01*
X13219286Y-13715643D01*
X13238333Y-13725167D01*
X13362143Y-13848976D02*
X13343095Y-13839452D01*
X13333571Y-13820405D01*
X13333571Y-13648976D01*
X13466905Y-13848976D02*
X13447857Y-13839452D01*
X13438333Y-13829928D01*
X13428809Y-13810881D01*
X13428809Y-13753738D01*
X13438333Y-13734690D01*
X13447857Y-13725167D01*
X13466905Y-13715643D01*
X13495476Y-13715643D01*
X13514524Y-13725167D01*
X13524048Y-13734690D01*
X13533571Y-13753738D01*
X13533571Y-13810881D01*
X13524048Y-13829928D01*
X13514524Y-13839452D01*
X13495476Y-13848976D01*
X13466905Y-13848976D01*
X13590714Y-13715643D02*
X13666905Y-13715643D01*
X13619286Y-13648976D02*
X13619286Y-13820405D01*
X13628809Y-13839452D01*
X13647857Y-13848976D01*
X13666905Y-13848976D01*
X13724048Y-13839452D02*
X13743095Y-13848976D01*
X13781190Y-13848976D01*
X13800238Y-13839452D01*
X13809762Y-13820405D01*
X13809762Y-13810881D01*
X13800238Y-13791833D01*
X13781190Y-13782309D01*
X13752619Y-13782309D01*
X13733571Y-13772786D01*
X13724048Y-13753738D01*
X13724048Y-13744214D01*
X13733571Y-13725167D01*
X13752619Y-13715643D01*
X13781190Y-13715643D01*
X13800238Y-13725167D01*
X13876428Y-13925167D02*
X13885952Y-13915643D01*
X13905000Y-13887071D01*
X13914524Y-13868024D01*
X13924048Y-13839452D01*
X13933571Y-13791833D01*
X13933571Y-13753738D01*
X13924048Y-13706119D01*
X13914524Y-13677548D01*
X13905000Y-13658500D01*
X13885952Y-13629928D01*
X13876428Y-13620405D01*
D16*
X7255000Y-14062500D02*
X7295000Y-14022500D01*
X7255000Y-13982500D01*
X7215000Y-14022500D01*
X7255000Y-14062500D01*
D11*
X7590714Y-13912976D02*
X7609762Y-13912976D01*
X7628809Y-13922500D01*
X7638333Y-13932024D01*
X7647857Y-13951071D01*
X7657381Y-13989167D01*
X7657381Y-14036786D01*
X7647857Y-14074881D01*
X7638333Y-14093928D01*
X7628809Y-14103452D01*
X7609762Y-14112976D01*
X7590714Y-14112976D01*
X7571667Y-14103452D01*
X7562143Y-14093928D01*
X7552619Y-14074881D01*
X7543095Y-14036786D01*
X7543095Y-13989167D01*
X7552619Y-13951071D01*
X7562143Y-13932024D01*
X7571667Y-13922500D01*
X7590714Y-13912976D01*
X7743095Y-14093928D02*
X7752619Y-14103452D01*
X7743095Y-14112976D01*
X7733571Y-14103452D01*
X7743095Y-14093928D01*
X7743095Y-14112976D01*
X7866905Y-13998690D02*
X7847857Y-13989167D01*
X7838333Y-13979643D01*
X7828809Y-13960595D01*
X7828809Y-13951071D01*
X7838333Y-13932024D01*
X7847857Y-13922500D01*
X7866905Y-13912976D01*
X7905000Y-13912976D01*
X7924048Y-13922500D01*
X7933571Y-13932024D01*
X7943095Y-13951071D01*
X7943095Y-13960595D01*
X7933571Y-13979643D01*
X7924048Y-13989167D01*
X7905000Y-13998690D01*
X7866905Y-13998690D01*
X7847857Y-14008214D01*
X7838333Y-14017738D01*
X7828809Y-14036786D01*
X7828809Y-14074881D01*
X7838333Y-14093928D01*
X7847857Y-14103452D01*
X7866905Y-14112976D01*
X7905000Y-14112976D01*
X7924048Y-14103452D01*
X7933571Y-14093928D01*
X7943095Y-14074881D01*
X7943095Y-14036786D01*
X7933571Y-14017738D01*
X7924048Y-14008214D01*
X7905000Y-13998690D01*
X8066905Y-13912976D02*
X8085952Y-13912976D01*
X8105000Y-13922500D01*
X8114524Y-13932024D01*
X8124048Y-13951071D01*
X8133571Y-13989167D01*
X8133571Y-14036786D01*
X8124048Y-14074881D01*
X8114524Y-14093928D01*
X8105000Y-14103452D01*
X8085952Y-14112976D01*
X8066905Y-14112976D01*
X8047857Y-14103452D01*
X8038333Y-14093928D01*
X8028809Y-14074881D01*
X8019286Y-14036786D01*
X8019286Y-13989167D01*
X8028809Y-13951071D01*
X8038333Y-13932024D01*
X8047857Y-13922500D01*
X8066905Y-13912976D01*
X8257381Y-13912976D02*
X8276428Y-13912976D01*
X8295476Y-13922500D01*
X8305000Y-13932024D01*
X8314524Y-13951071D01*
X8324048Y-13989167D01*
X8324048Y-14036786D01*
X8314524Y-14074881D01*
X8305000Y-14093928D01*
X8295476Y-14103452D01*
X8276428Y-14112976D01*
X8257381Y-14112976D01*
X8238333Y-14103452D01*
X8228809Y-14093928D01*
X8219286Y-14074881D01*
X8209762Y-14036786D01*
X8209762Y-13989167D01*
X8219286Y-13951071D01*
X8228809Y-13932024D01*
X8238333Y-13922500D01*
X8257381Y-13912976D01*
X8409762Y-14112976D02*
X8409762Y-13979643D01*
X8409762Y-13998690D02*
X8419286Y-13989167D01*
X8438333Y-13979643D01*
X8466905Y-13979643D01*
X8485952Y-13989167D01*
X8495476Y-14008214D01*
X8495476Y-14112976D01*
X8495476Y-14008214D02*
X8505000Y-13989167D01*
X8524048Y-13979643D01*
X8552619Y-13979643D01*
X8571667Y-13989167D01*
X8581190Y-14008214D01*
X8581190Y-14112976D01*
X8676429Y-14112976D02*
X8676429Y-13979643D01*
X8676429Y-13998690D02*
X8685952Y-13989167D01*
X8705000Y-13979643D01*
X8733571Y-13979643D01*
X8752619Y-13989167D01*
X8762143Y-14008214D01*
X8762143Y-14112976D01*
X8762143Y-14008214D02*
X8771667Y-13989167D01*
X8790714Y-13979643D01*
X8819286Y-13979643D01*
X8838333Y-13989167D01*
X8847857Y-14008214D01*
X8847857Y-14112976D01*
X9238333Y-13903452D02*
X9066905Y-14160595D01*
X9495476Y-13912976D02*
X9514524Y-13912976D01*
X9533571Y-13922500D01*
X9543095Y-13932024D01*
X9552619Y-13951071D01*
X9562143Y-13989167D01*
X9562143Y-14036786D01*
X9552619Y-14074881D01*
X9543095Y-14093928D01*
X9533571Y-14103452D01*
X9514524Y-14112976D01*
X9495476Y-14112976D01*
X9476429Y-14103452D01*
X9466905Y-14093928D01*
X9457381Y-14074881D01*
X9447857Y-14036786D01*
X9447857Y-13989167D01*
X9457381Y-13951071D01*
X9466905Y-13932024D01*
X9476429Y-13922500D01*
X9495476Y-13912976D01*
X9647857Y-14093928D02*
X9657381Y-14103452D01*
X9647857Y-14112976D01*
X9638333Y-14103452D01*
X9647857Y-14093928D01*
X9647857Y-14112976D01*
X9781190Y-13912976D02*
X9800238Y-13912976D01*
X9819286Y-13922500D01*
X9828810Y-13932024D01*
X9838333Y-13951071D01*
X9847857Y-13989167D01*
X9847857Y-14036786D01*
X9838333Y-14074881D01*
X9828810Y-14093928D01*
X9819286Y-14103452D01*
X9800238Y-14112976D01*
X9781190Y-14112976D01*
X9762143Y-14103452D01*
X9752619Y-14093928D01*
X9743095Y-14074881D01*
X9733571Y-14036786D01*
X9733571Y-13989167D01*
X9743095Y-13951071D01*
X9752619Y-13932024D01*
X9762143Y-13922500D01*
X9781190Y-13912976D01*
X9914524Y-13912976D02*
X10038333Y-13912976D01*
X9971667Y-13989167D01*
X10000238Y-13989167D01*
X10019286Y-13998690D01*
X10028810Y-14008214D01*
X10038333Y-14027262D01*
X10038333Y-14074881D01*
X10028810Y-14093928D01*
X10019286Y-14103452D01*
X10000238Y-14112976D01*
X9943095Y-14112976D01*
X9924048Y-14103452D01*
X9914524Y-14093928D01*
X10228810Y-14112976D02*
X10114524Y-14112976D01*
X10171667Y-14112976D02*
X10171667Y-13912976D01*
X10152619Y-13941548D01*
X10133571Y-13960595D01*
X10114524Y-13970119D01*
X10409762Y-13912976D02*
X10314524Y-13912976D01*
X10305000Y-14008214D01*
X10314524Y-13998690D01*
X10333571Y-13989167D01*
X10381190Y-13989167D01*
X10400238Y-13998690D01*
X10409762Y-14008214D01*
X10419286Y-14027262D01*
X10419286Y-14074881D01*
X10409762Y-14093928D01*
X10400238Y-14103452D01*
X10381190Y-14112976D01*
X10333571Y-14112976D01*
X10314524Y-14103452D01*
X10305000Y-14093928D01*
X10495476Y-13912976D02*
X10495476Y-13951071D01*
X10571667Y-13912976D02*
X10571667Y-13951071D01*
X10866905Y-14189167D02*
X10857381Y-14179643D01*
X10838333Y-14151071D01*
X10828810Y-14132024D01*
X10819286Y-14103452D01*
X10809762Y-14055833D01*
X10809762Y-14017738D01*
X10819286Y-13970119D01*
X10828810Y-13941548D01*
X10838333Y-13922500D01*
X10857381Y-13893928D01*
X10866905Y-13884405D01*
X10933571Y-13932024D02*
X10943095Y-13922500D01*
X10962143Y-13912976D01*
X11009762Y-13912976D01*
X11028810Y-13922500D01*
X11038333Y-13932024D01*
X11047857Y-13951071D01*
X11047857Y-13970119D01*
X11038333Y-13998690D01*
X10924048Y-14112976D01*
X11047857Y-14112976D01*
X11238333Y-14112976D02*
X11124048Y-14112976D01*
X11181190Y-14112976D02*
X11181190Y-13912976D01*
X11162143Y-13941548D01*
X11143095Y-13960595D01*
X11124048Y-13970119D01*
X11476428Y-14112976D02*
X11476428Y-13912976D01*
X11562143Y-14112976D02*
X11562143Y-14008214D01*
X11552619Y-13989167D01*
X11533571Y-13979643D01*
X11505000Y-13979643D01*
X11485952Y-13989167D01*
X11476428Y-13998690D01*
X11685952Y-14112976D02*
X11666905Y-14103452D01*
X11657381Y-14093928D01*
X11647857Y-14074881D01*
X11647857Y-14017738D01*
X11657381Y-13998690D01*
X11666905Y-13989167D01*
X11685952Y-13979643D01*
X11714524Y-13979643D01*
X11733571Y-13989167D01*
X11743095Y-13998690D01*
X11752619Y-14017738D01*
X11752619Y-14074881D01*
X11743095Y-14093928D01*
X11733571Y-14103452D01*
X11714524Y-14112976D01*
X11685952Y-14112976D01*
X11866905Y-14112976D02*
X11847857Y-14103452D01*
X11838333Y-14084405D01*
X11838333Y-13912976D01*
X12019286Y-14103452D02*
X12000238Y-14112976D01*
X11962143Y-14112976D01*
X11943095Y-14103452D01*
X11933571Y-14084405D01*
X11933571Y-14008214D01*
X11943095Y-13989167D01*
X11962143Y-13979643D01*
X12000238Y-13979643D01*
X12019286Y-13989167D01*
X12028809Y-14008214D01*
X12028809Y-14027262D01*
X11933571Y-14046309D01*
X12105000Y-14103452D02*
X12124048Y-14112976D01*
X12162143Y-14112976D01*
X12181190Y-14103452D01*
X12190714Y-14084405D01*
X12190714Y-14074881D01*
X12181190Y-14055833D01*
X12162143Y-14046309D01*
X12133571Y-14046309D01*
X12114524Y-14036786D01*
X12105000Y-14017738D01*
X12105000Y-14008214D01*
X12114524Y-13989167D01*
X12133571Y-13979643D01*
X12162143Y-13979643D01*
X12181190Y-13989167D01*
X12428809Y-14036786D02*
X12581190Y-14036786D01*
X12505000Y-14112976D02*
X12505000Y-13960595D01*
X12819286Y-13932024D02*
X12828809Y-13922500D01*
X12847857Y-13912976D01*
X12895476Y-13912976D01*
X12914524Y-13922500D01*
X12924048Y-13932024D01*
X12933571Y-13951071D01*
X12933571Y-13970119D01*
X12924048Y-13998690D01*
X12809762Y-14112976D01*
X12933571Y-14112976D01*
X13162143Y-14103452D02*
X13181190Y-14112976D01*
X13219286Y-14112976D01*
X13238333Y-14103452D01*
X13247857Y-14084405D01*
X13247857Y-14074881D01*
X13238333Y-14055833D01*
X13219286Y-14046309D01*
X13190714Y-14046309D01*
X13171667Y-14036786D01*
X13162143Y-14017738D01*
X13162143Y-14008214D01*
X13171667Y-13989167D01*
X13190714Y-13979643D01*
X13219286Y-13979643D01*
X13238333Y-13989167D01*
X13362143Y-14112976D02*
X13343095Y-14103452D01*
X13333571Y-14084405D01*
X13333571Y-13912976D01*
X13466905Y-14112976D02*
X13447857Y-14103452D01*
X13438333Y-14093928D01*
X13428809Y-14074881D01*
X13428809Y-14017738D01*
X13438333Y-13998690D01*
X13447857Y-13989167D01*
X13466905Y-13979643D01*
X13495476Y-13979643D01*
X13514524Y-13989167D01*
X13524048Y-13998690D01*
X13533571Y-14017738D01*
X13533571Y-14074881D01*
X13524048Y-14093928D01*
X13514524Y-14103452D01*
X13495476Y-14112976D01*
X13466905Y-14112976D01*
X13590714Y-13979643D02*
X13666905Y-13979643D01*
X13619286Y-13912976D02*
X13619286Y-14084405D01*
X13628809Y-14103452D01*
X13647857Y-14112976D01*
X13666905Y-14112976D01*
X13724048Y-14103452D02*
X13743095Y-14112976D01*
X13781190Y-14112976D01*
X13800238Y-14103452D01*
X13809762Y-14084405D01*
X13809762Y-14074881D01*
X13800238Y-14055833D01*
X13781190Y-14046309D01*
X13752619Y-14046309D01*
X13733571Y-14036786D01*
X13724048Y-14017738D01*
X13724048Y-14008214D01*
X13733571Y-13989167D01*
X13752619Y-13979643D01*
X13781190Y-13979643D01*
X13800238Y-13989167D01*
X13876428Y-14189167D02*
X13885952Y-14179643D01*
X13905000Y-14151071D01*
X13914524Y-14132024D01*
X13924048Y-14103452D01*
X13933571Y-14055833D01*
X13933571Y-14017738D01*
X13924048Y-13970119D01*
X13914524Y-13941548D01*
X13905000Y-13922500D01*
X13885952Y-13893928D01*
X13876428Y-13884405D01*
D17*
X7195000Y-14236500D02*
X7295000Y-14336500D01*
X7295000Y-14236500D02*
X7195000Y-14336500D01*
X7295000Y-14286500D02*
G75*
G03*
X7295000Y-14286500I-50000J0D01*
G01*
D11*
X7657381Y-14376976D02*
X7543095Y-14376976D01*
X7600238Y-14376976D02*
X7600238Y-14176976D01*
X7581190Y-14205548D01*
X7562143Y-14224595D01*
X7543095Y-14234119D01*
X7743095Y-14357928D02*
X7752619Y-14367452D01*
X7743095Y-14376976D01*
X7733571Y-14367452D01*
X7743095Y-14357928D01*
X7743095Y-14376976D01*
X7876428Y-14176976D02*
X7895476Y-14176976D01*
X7914524Y-14186500D01*
X7924048Y-14196024D01*
X7933571Y-14215071D01*
X7943095Y-14253167D01*
X7943095Y-14300786D01*
X7933571Y-14338881D01*
X7924048Y-14357928D01*
X7914524Y-14367452D01*
X7895476Y-14376976D01*
X7876428Y-14376976D01*
X7857381Y-14367452D01*
X7847857Y-14357928D01*
X7838333Y-14338881D01*
X7828809Y-14300786D01*
X7828809Y-14253167D01*
X7838333Y-14215071D01*
X7847857Y-14196024D01*
X7857381Y-14186500D01*
X7876428Y-14176976D01*
X8066905Y-14176976D02*
X8085952Y-14176976D01*
X8105000Y-14186500D01*
X8114524Y-14196024D01*
X8124048Y-14215071D01*
X8133571Y-14253167D01*
X8133571Y-14300786D01*
X8124048Y-14338881D01*
X8114524Y-14357928D01*
X8105000Y-14367452D01*
X8085952Y-14376976D01*
X8066905Y-14376976D01*
X8047857Y-14367452D01*
X8038333Y-14357928D01*
X8028809Y-14338881D01*
X8019286Y-14300786D01*
X8019286Y-14253167D01*
X8028809Y-14215071D01*
X8038333Y-14196024D01*
X8047857Y-14186500D01*
X8066905Y-14176976D01*
X8257381Y-14176976D02*
X8276428Y-14176976D01*
X8295476Y-14186500D01*
X8305000Y-14196024D01*
X8314524Y-14215071D01*
X8324048Y-14253167D01*
X8324048Y-14300786D01*
X8314524Y-14338881D01*
X8305000Y-14357928D01*
X8295476Y-14367452D01*
X8276428Y-14376976D01*
X8257381Y-14376976D01*
X8238333Y-14367452D01*
X8228809Y-14357928D01*
X8219286Y-14338881D01*
X8209762Y-14300786D01*
X8209762Y-14253167D01*
X8219286Y-14215071D01*
X8228809Y-14196024D01*
X8238333Y-14186500D01*
X8257381Y-14176976D01*
X8409762Y-14376976D02*
X8409762Y-14243643D01*
X8409762Y-14262690D02*
X8419286Y-14253167D01*
X8438333Y-14243643D01*
X8466905Y-14243643D01*
X8485952Y-14253167D01*
X8495476Y-14272214D01*
X8495476Y-14376976D01*
X8495476Y-14272214D02*
X8505000Y-14253167D01*
X8524048Y-14243643D01*
X8552619Y-14243643D01*
X8571667Y-14253167D01*
X8581190Y-14272214D01*
X8581190Y-14376976D01*
X8676429Y-14376976D02*
X8676429Y-14243643D01*
X8676429Y-14262690D02*
X8685952Y-14253167D01*
X8705000Y-14243643D01*
X8733571Y-14243643D01*
X8752619Y-14253167D01*
X8762143Y-14272214D01*
X8762143Y-14376976D01*
X8762143Y-14272214D02*
X8771667Y-14253167D01*
X8790714Y-14243643D01*
X8819286Y-14243643D01*
X8838333Y-14253167D01*
X8847857Y-14272214D01*
X8847857Y-14376976D01*
X9238333Y-14167452D02*
X9066905Y-14424595D01*
X9495476Y-14176976D02*
X9514524Y-14176976D01*
X9533571Y-14186500D01*
X9543095Y-14196024D01*
X9552619Y-14215071D01*
X9562143Y-14253167D01*
X9562143Y-14300786D01*
X9552619Y-14338881D01*
X9543095Y-14357928D01*
X9533571Y-14367452D01*
X9514524Y-14376976D01*
X9495476Y-14376976D01*
X9476429Y-14367452D01*
X9466905Y-14357928D01*
X9457381Y-14338881D01*
X9447857Y-14300786D01*
X9447857Y-14253167D01*
X9457381Y-14215071D01*
X9466905Y-14196024D01*
X9476429Y-14186500D01*
X9495476Y-14176976D01*
X9647857Y-14357928D02*
X9657381Y-14367452D01*
X9647857Y-14376976D01*
X9638333Y-14367452D01*
X9647857Y-14357928D01*
X9647857Y-14376976D01*
X9781190Y-14176976D02*
X9800238Y-14176976D01*
X9819286Y-14186500D01*
X9828810Y-14196024D01*
X9838333Y-14215071D01*
X9847857Y-14253167D01*
X9847857Y-14300786D01*
X9838333Y-14338881D01*
X9828810Y-14357928D01*
X9819286Y-14367452D01*
X9800238Y-14376976D01*
X9781190Y-14376976D01*
X9762143Y-14367452D01*
X9752619Y-14357928D01*
X9743095Y-14338881D01*
X9733571Y-14300786D01*
X9733571Y-14253167D01*
X9743095Y-14215071D01*
X9752619Y-14196024D01*
X9762143Y-14186500D01*
X9781190Y-14176976D01*
X9914524Y-14176976D02*
X10038333Y-14176976D01*
X9971667Y-14253167D01*
X10000238Y-14253167D01*
X10019286Y-14262690D01*
X10028810Y-14272214D01*
X10038333Y-14291262D01*
X10038333Y-14338881D01*
X10028810Y-14357928D01*
X10019286Y-14367452D01*
X10000238Y-14376976D01*
X9943095Y-14376976D01*
X9924048Y-14367452D01*
X9914524Y-14357928D01*
X10133571Y-14376976D02*
X10171667Y-14376976D01*
X10190714Y-14367452D01*
X10200238Y-14357928D01*
X10219286Y-14329357D01*
X10228810Y-14291262D01*
X10228810Y-14215071D01*
X10219286Y-14196024D01*
X10209762Y-14186500D01*
X10190714Y-14176976D01*
X10152619Y-14176976D01*
X10133571Y-14186500D01*
X10124048Y-14196024D01*
X10114524Y-14215071D01*
X10114524Y-14262690D01*
X10124048Y-14281738D01*
X10133571Y-14291262D01*
X10152619Y-14300786D01*
X10190714Y-14300786D01*
X10209762Y-14291262D01*
X10219286Y-14281738D01*
X10228810Y-14262690D01*
X10400238Y-14243643D02*
X10400238Y-14376976D01*
X10352619Y-14167452D02*
X10305000Y-14310309D01*
X10428810Y-14310309D01*
X10495476Y-14176976D02*
X10495476Y-14215071D01*
X10571667Y-14176976D02*
X10571667Y-14215071D01*
X10866905Y-14453167D02*
X10857381Y-14443643D01*
X10838333Y-14415071D01*
X10828810Y-14396024D01*
X10819286Y-14367452D01*
X10809762Y-14319833D01*
X10809762Y-14281738D01*
X10819286Y-14234119D01*
X10828810Y-14205548D01*
X10838333Y-14186500D01*
X10857381Y-14157928D01*
X10866905Y-14148405D01*
X11047857Y-14376976D02*
X10933571Y-14376976D01*
X10990714Y-14376976D02*
X10990714Y-14176976D01*
X10971667Y-14205548D01*
X10952619Y-14224595D01*
X10933571Y-14234119D01*
X11219286Y-14243643D02*
X11219286Y-14376976D01*
X11171667Y-14167452D02*
X11124048Y-14310309D01*
X11247857Y-14310309D01*
X11352619Y-14262690D02*
X11333571Y-14253167D01*
X11324048Y-14243643D01*
X11314524Y-14224595D01*
X11314524Y-14215071D01*
X11324048Y-14196024D01*
X11333571Y-14186500D01*
X11352619Y-14176976D01*
X11390714Y-14176976D01*
X11409762Y-14186500D01*
X11419286Y-14196024D01*
X11428809Y-14215071D01*
X11428809Y-14224595D01*
X11419286Y-14243643D01*
X11409762Y-14253167D01*
X11390714Y-14262690D01*
X11352619Y-14262690D01*
X11333571Y-14272214D01*
X11324048Y-14281738D01*
X11314524Y-14300786D01*
X11314524Y-14338881D01*
X11324048Y-14357928D01*
X11333571Y-14367452D01*
X11352619Y-14376976D01*
X11390714Y-14376976D01*
X11409762Y-14367452D01*
X11419286Y-14357928D01*
X11428809Y-14338881D01*
X11428809Y-14300786D01*
X11419286Y-14281738D01*
X11409762Y-14272214D01*
X11390714Y-14262690D01*
X11666905Y-14376976D02*
X11666905Y-14176976D01*
X11752619Y-14376976D02*
X11752619Y-14272214D01*
X11743095Y-14253167D01*
X11724048Y-14243643D01*
X11695476Y-14243643D01*
X11676428Y-14253167D01*
X11666905Y-14262690D01*
X11876428Y-14376976D02*
X11857381Y-14367452D01*
X11847857Y-14357928D01*
X11838333Y-14338881D01*
X11838333Y-14281738D01*
X11847857Y-14262690D01*
X11857381Y-14253167D01*
X11876428Y-14243643D01*
X11905000Y-14243643D01*
X11924048Y-14253167D01*
X11933571Y-14262690D01*
X11943095Y-14281738D01*
X11943095Y-14338881D01*
X11933571Y-14357928D01*
X11924048Y-14367452D01*
X11905000Y-14376976D01*
X11876428Y-14376976D01*
X12057381Y-14376976D02*
X12038333Y-14367452D01*
X12028809Y-14348405D01*
X12028809Y-14176976D01*
X12209762Y-14367452D02*
X12190714Y-14376976D01*
X12152619Y-14376976D01*
X12133571Y-14367452D01*
X12124048Y-14348405D01*
X12124048Y-14272214D01*
X12133571Y-14253167D01*
X12152619Y-14243643D01*
X12190714Y-14243643D01*
X12209762Y-14253167D01*
X12219286Y-14272214D01*
X12219286Y-14291262D01*
X12124048Y-14310309D01*
X12295476Y-14367452D02*
X12314524Y-14376976D01*
X12352619Y-14376976D01*
X12371667Y-14367452D01*
X12381190Y-14348405D01*
X12381190Y-14338881D01*
X12371667Y-14319833D01*
X12352619Y-14310309D01*
X12324048Y-14310309D01*
X12305000Y-14300786D01*
X12295476Y-14281738D01*
X12295476Y-14272214D01*
X12305000Y-14253167D01*
X12324048Y-14243643D01*
X12352619Y-14243643D01*
X12371667Y-14253167D01*
X12619286Y-14300786D02*
X12771667Y-14300786D01*
X12695476Y-14376976D02*
X12695476Y-14224595D01*
X13105000Y-14243643D02*
X13105000Y-14376976D01*
X13057381Y-14167452D02*
X13009762Y-14310309D01*
X13133571Y-14310309D01*
X13352619Y-14367452D02*
X13371667Y-14376976D01*
X13409762Y-14376976D01*
X13428809Y-14367452D01*
X13438333Y-14348405D01*
X13438333Y-14338881D01*
X13428809Y-14319833D01*
X13409762Y-14310309D01*
X13381190Y-14310309D01*
X13362143Y-14300786D01*
X13352619Y-14281738D01*
X13352619Y-14272214D01*
X13362143Y-14253167D01*
X13381190Y-14243643D01*
X13409762Y-14243643D01*
X13428809Y-14253167D01*
X13552619Y-14376976D02*
X13533571Y-14367452D01*
X13524048Y-14348405D01*
X13524048Y-14176976D01*
X13657381Y-14376976D02*
X13638333Y-14367452D01*
X13628809Y-14357928D01*
X13619286Y-14338881D01*
X13619286Y-14281738D01*
X13628809Y-14262690D01*
X13638333Y-14253167D01*
X13657381Y-14243643D01*
X13685952Y-14243643D01*
X13705000Y-14253167D01*
X13714524Y-14262690D01*
X13724048Y-14281738D01*
X13724048Y-14338881D01*
X13714524Y-14357928D01*
X13705000Y-14367452D01*
X13685952Y-14376976D01*
X13657381Y-14376976D01*
X13781190Y-14243643D02*
X13857381Y-14243643D01*
X13809762Y-14176976D02*
X13809762Y-14348405D01*
X13819286Y-14367452D01*
X13838333Y-14376976D01*
X13857381Y-14376976D01*
X13914524Y-14367452D02*
X13933571Y-14376976D01*
X13971667Y-14376976D01*
X13990714Y-14367452D01*
X14000238Y-14348405D01*
X14000238Y-14338881D01*
X13990714Y-14319833D01*
X13971667Y-14310309D01*
X13943095Y-14310309D01*
X13924048Y-14300786D01*
X13914524Y-14281738D01*
X13914524Y-14272214D01*
X13924048Y-14253167D01*
X13943095Y-14243643D01*
X13971667Y-14243643D01*
X13990714Y-14253167D01*
X14066905Y-14453167D02*
X14076428Y-14443643D01*
X14095476Y-14415071D01*
X14105000Y-14396024D01*
X14114524Y-14367452D01*
X14124048Y-14319833D01*
X14124048Y-14281738D01*
X14114524Y-14234119D01*
X14105000Y-14205548D01*
X14095476Y-14186500D01*
X14076428Y-14157928D01*
X14066905Y-14148405D01*
X7095000Y-14450500D02*
X7295000Y-14650500D01*
X7295000Y-14450500D02*
X7095000Y-14650500D01*
X7195000Y-14450500D02*
X7195000Y-14650500D01*
X7095000Y-14550500D02*
X7295000Y-14550500D01*
X7533571Y-14440976D02*
X7657381Y-14440976D01*
X7590714Y-14517167D01*
X7619286Y-14517167D01*
X7638333Y-14526690D01*
X7647857Y-14536214D01*
X7657381Y-14555262D01*
X7657381Y-14602881D01*
X7647857Y-14621928D01*
X7638333Y-14631452D01*
X7619286Y-14640976D01*
X7562143Y-14640976D01*
X7543095Y-14631452D01*
X7533571Y-14621928D01*
X7743095Y-14621928D02*
X7752619Y-14631452D01*
X7743095Y-14640976D01*
X7733571Y-14631452D01*
X7743095Y-14621928D01*
X7743095Y-14640976D01*
X7828809Y-14460024D02*
X7838333Y-14450500D01*
X7857381Y-14440976D01*
X7905000Y-14440976D01*
X7924048Y-14450500D01*
X7933571Y-14460024D01*
X7943095Y-14479071D01*
X7943095Y-14498119D01*
X7933571Y-14526690D01*
X7819286Y-14640976D01*
X7943095Y-14640976D01*
X8066905Y-14440976D02*
X8085952Y-14440976D01*
X8105000Y-14450500D01*
X8114524Y-14460024D01*
X8124048Y-14479071D01*
X8133571Y-14517167D01*
X8133571Y-14564786D01*
X8124048Y-14602881D01*
X8114524Y-14621928D01*
X8105000Y-14631452D01*
X8085952Y-14640976D01*
X8066905Y-14640976D01*
X8047857Y-14631452D01*
X8038333Y-14621928D01*
X8028809Y-14602881D01*
X8019286Y-14564786D01*
X8019286Y-14517167D01*
X8028809Y-14479071D01*
X8038333Y-14460024D01*
X8047857Y-14450500D01*
X8066905Y-14440976D01*
X8257381Y-14440976D02*
X8276428Y-14440976D01*
X8295476Y-14450500D01*
X8305000Y-14460024D01*
X8314524Y-14479071D01*
X8324048Y-14517167D01*
X8324048Y-14564786D01*
X8314524Y-14602881D01*
X8305000Y-14621928D01*
X8295476Y-14631452D01*
X8276428Y-14640976D01*
X8257381Y-14640976D01*
X8238333Y-14631452D01*
X8228809Y-14621928D01*
X8219286Y-14602881D01*
X8209762Y-14564786D01*
X8209762Y-14517167D01*
X8219286Y-14479071D01*
X8228809Y-14460024D01*
X8238333Y-14450500D01*
X8257381Y-14440976D01*
X8409762Y-14640976D02*
X8409762Y-14507643D01*
X8409762Y-14526690D02*
X8419286Y-14517167D01*
X8438333Y-14507643D01*
X8466905Y-14507643D01*
X8485952Y-14517167D01*
X8495476Y-14536214D01*
X8495476Y-14640976D01*
X8495476Y-14536214D02*
X8505000Y-14517167D01*
X8524048Y-14507643D01*
X8552619Y-14507643D01*
X8571667Y-14517167D01*
X8581190Y-14536214D01*
X8581190Y-14640976D01*
X8676429Y-14640976D02*
X8676429Y-14507643D01*
X8676429Y-14526690D02*
X8685952Y-14517167D01*
X8705000Y-14507643D01*
X8733571Y-14507643D01*
X8752619Y-14517167D01*
X8762143Y-14536214D01*
X8762143Y-14640976D01*
X8762143Y-14536214D02*
X8771667Y-14517167D01*
X8790714Y-14507643D01*
X8819286Y-14507643D01*
X8838333Y-14517167D01*
X8847857Y-14536214D01*
X8847857Y-14640976D01*
X9238333Y-14431452D02*
X9066905Y-14688595D01*
X9495476Y-14440976D02*
X9514524Y-14440976D01*
X9533571Y-14450500D01*
X9543095Y-14460024D01*
X9552619Y-14479071D01*
X9562143Y-14517167D01*
X9562143Y-14564786D01*
X9552619Y-14602881D01*
X9543095Y-14621928D01*
X9533571Y-14631452D01*
X9514524Y-14640976D01*
X9495476Y-14640976D01*
X9476429Y-14631452D01*
X9466905Y-14621928D01*
X9457381Y-14602881D01*
X9447857Y-14564786D01*
X9447857Y-14517167D01*
X9457381Y-14479071D01*
X9466905Y-14460024D01*
X9476429Y-14450500D01*
X9495476Y-14440976D01*
X9647857Y-14621928D02*
X9657381Y-14631452D01*
X9647857Y-14640976D01*
X9638333Y-14631452D01*
X9647857Y-14621928D01*
X9647857Y-14640976D01*
X9847857Y-14640976D02*
X9733571Y-14640976D01*
X9790714Y-14640976D02*
X9790714Y-14440976D01*
X9771667Y-14469548D01*
X9752619Y-14488595D01*
X9733571Y-14498119D01*
X9924048Y-14460024D02*
X9933571Y-14450500D01*
X9952619Y-14440976D01*
X10000238Y-14440976D01*
X10019286Y-14450500D01*
X10028810Y-14460024D01*
X10038333Y-14479071D01*
X10038333Y-14498119D01*
X10028810Y-14526690D01*
X9914524Y-14640976D01*
X10038333Y-14640976D01*
X10209762Y-14440976D02*
X10171667Y-14440976D01*
X10152619Y-14450500D01*
X10143095Y-14460024D01*
X10124048Y-14488595D01*
X10114524Y-14526690D01*
X10114524Y-14602881D01*
X10124048Y-14621928D01*
X10133571Y-14631452D01*
X10152619Y-14640976D01*
X10190714Y-14640976D01*
X10209762Y-14631452D01*
X10219286Y-14621928D01*
X10228810Y-14602881D01*
X10228810Y-14555262D01*
X10219286Y-14536214D01*
X10209762Y-14526690D01*
X10190714Y-14517167D01*
X10152619Y-14517167D01*
X10133571Y-14526690D01*
X10124048Y-14536214D01*
X10114524Y-14555262D01*
X10352619Y-14440976D02*
X10371667Y-14440976D01*
X10390714Y-14450500D01*
X10400238Y-14460024D01*
X10409762Y-14479071D01*
X10419286Y-14517167D01*
X10419286Y-14564786D01*
X10409762Y-14602881D01*
X10400238Y-14621928D01*
X10390714Y-14631452D01*
X10371667Y-14640976D01*
X10352619Y-14640976D01*
X10333571Y-14631452D01*
X10324048Y-14621928D01*
X10314524Y-14602881D01*
X10305000Y-14564786D01*
X10305000Y-14517167D01*
X10314524Y-14479071D01*
X10324048Y-14460024D01*
X10333571Y-14450500D01*
X10352619Y-14440976D01*
X10495476Y-14440976D02*
X10495476Y-14479071D01*
X10571667Y-14440976D02*
X10571667Y-14479071D01*
X10866905Y-14717167D02*
X10857381Y-14707643D01*
X10838333Y-14679071D01*
X10828810Y-14660024D01*
X10819286Y-14631452D01*
X10809762Y-14583833D01*
X10809762Y-14545738D01*
X10819286Y-14498119D01*
X10828810Y-14469548D01*
X10838333Y-14450500D01*
X10857381Y-14421928D01*
X10866905Y-14412405D01*
X11028810Y-14440976D02*
X10990714Y-14440976D01*
X10971667Y-14450500D01*
X10962143Y-14460024D01*
X10943095Y-14488595D01*
X10933571Y-14526690D01*
X10933571Y-14602881D01*
X10943095Y-14621928D01*
X10952619Y-14631452D01*
X10971667Y-14640976D01*
X11009762Y-14640976D01*
X11028810Y-14631452D01*
X11038333Y-14621928D01*
X11047857Y-14602881D01*
X11047857Y-14555262D01*
X11038333Y-14536214D01*
X11028810Y-14526690D01*
X11009762Y-14517167D01*
X10971667Y-14517167D01*
X10952619Y-14526690D01*
X10943095Y-14536214D01*
X10933571Y-14555262D01*
X11285952Y-14640976D02*
X11285952Y-14440976D01*
X11371667Y-14640976D02*
X11371667Y-14536214D01*
X11362143Y-14517167D01*
X11343095Y-14507643D01*
X11314524Y-14507643D01*
X11295476Y-14517167D01*
X11285952Y-14526690D01*
X11495476Y-14640976D02*
X11476428Y-14631452D01*
X11466905Y-14621928D01*
X11457381Y-14602881D01*
X11457381Y-14545738D01*
X11466905Y-14526690D01*
X11476428Y-14517167D01*
X11495476Y-14507643D01*
X11524048Y-14507643D01*
X11543095Y-14517167D01*
X11552619Y-14526690D01*
X11562143Y-14545738D01*
X11562143Y-14602881D01*
X11552619Y-14621928D01*
X11543095Y-14631452D01*
X11524048Y-14640976D01*
X11495476Y-14640976D01*
X11676428Y-14640976D02*
X11657381Y-14631452D01*
X11647857Y-14612405D01*
X11647857Y-14440976D01*
X11828809Y-14631452D02*
X11809762Y-14640976D01*
X11771667Y-14640976D01*
X11752619Y-14631452D01*
X11743095Y-14612405D01*
X11743095Y-14536214D01*
X11752619Y-14517167D01*
X11771667Y-14507643D01*
X11809762Y-14507643D01*
X11828809Y-14517167D01*
X11838333Y-14536214D01*
X11838333Y-14555262D01*
X11743095Y-14574309D01*
X11914524Y-14631452D02*
X11933571Y-14640976D01*
X11971667Y-14640976D01*
X11990714Y-14631452D01*
X12000238Y-14612405D01*
X12000238Y-14602881D01*
X11990714Y-14583833D01*
X11971667Y-14574309D01*
X11943095Y-14574309D01*
X11924048Y-14564786D01*
X11914524Y-14545738D01*
X11914524Y-14536214D01*
X11924048Y-14517167D01*
X11943095Y-14507643D01*
X11971667Y-14507643D01*
X11990714Y-14517167D01*
X12066905Y-14717167D02*
X12076428Y-14707643D01*
X12095476Y-14679071D01*
X12105000Y-14660024D01*
X12114524Y-14631452D01*
X12124048Y-14583833D01*
X12124048Y-14545738D01*
X12114524Y-14498119D01*
X12105000Y-14469548D01*
X12095476Y-14450500D01*
X12076428Y-14421928D01*
X12066905Y-14412405D01*
M02*
