G04 #@! TF.GenerationSoftware,KiCad,Pcbnew,6.0.10-86aedd382b~118~ubuntu18.04.1*
G04 #@! TF.CreationDate,2025-05-01T16:39:22+01:00*
G04 #@! TF.ProjectId,tangnano20k_dock,74616e67-6e61-46e6-9f32-306b5f646f63,rev?*
G04 #@! TF.SameCoordinates,Original*
G04 #@! TF.FileFunction,Soldermask,Bot*
G04 #@! TF.FilePolarity,Negative*
%FSLAX46Y46*%
G04 Gerber Fmt 4.6, Leading zero omitted, Abs format (unit mm)*
G04 Created by KiCad (PCBNEW 6.0.10-86aedd382b~118~ubuntu18.04.1) date 2025-05-01 16:39:22*
%MOMM*%
%LPD*%
G01*
G04 APERTURE LIST*
G04 Aperture macros list*
%AMRoundRect*
0 Rectangle with rounded corners*
0 $1 Rounding radius*
0 $2 $3 $4 $5 $6 $7 $8 $9 X,Y pos of 4 corners*
0 Add a 4 corners polygon primitive as box body*
4,1,4,$2,$3,$4,$5,$6,$7,$8,$9,$2,$3,0*
0 Add four circle primitives for the rounded corners*
1,1,$1+$1,$2,$3*
1,1,$1+$1,$4,$5*
1,1,$1+$1,$6,$7*
1,1,$1+$1,$8,$9*
0 Add four rect primitives between the rounded corners*
20,1,$1+$1,$2,$3,$4,$5,0*
20,1,$1+$1,$4,$5,$6,$7,0*
20,1,$1+$1,$6,$7,$8,$9,0*
20,1,$1+$1,$8,$9,$2,$3,0*%
G04 Aperture macros list end*
%ADD10O,1.426000X2.276000*%
%ADD11O,2.276000X1.426000*%
%ADD12RoundRect,0.038000X-0.850000X-0.850000X0.850000X-0.850000X0.850000X0.850000X-0.850000X0.850000X0*%
%ADD13O,1.776000X1.776000*%
%ADD14RoundRect,0.038000X0.850000X0.850000X-0.850000X0.850000X-0.850000X-0.850000X0.850000X-0.850000X0*%
%ADD15C,4.076000*%
%ADD16RoundRect,0.038000X-0.800000X-0.800000X0.800000X-0.800000X0.800000X0.800000X-0.800000X0.800000X0*%
%ADD17C,1.676000*%
%ADD18C,2.000000*%
%ADD19C,1.776000*%
%ADD20C,6.800000*%
%ADD21C,6.000000*%
%ADD22RoundRect,0.952000X1.300000X0.000000X-1.300000X0.000000X-1.300000X0.000000X1.300000X0.000000X0*%
%ADD23RoundRect,0.952000X0.000000X1.300000X0.000000X-1.300000X0.000000X-1.300000X0.000000X1.300000X0*%
%ADD24RoundRect,0.952000X-1.300000X0.000000X1.300000X0.000000X1.300000X0.000000X-1.300000X0.000000X0*%
%ADD25O,1.676000X1.676000*%
%ADD26RoundRect,0.038000X-0.850000X0.850000X-0.850000X-0.850000X0.850000X-0.850000X0.850000X0.850000X0*%
%ADD27RoundRect,0.038000X0.850000X-0.850000X0.850000X0.850000X-0.850000X0.850000X-0.850000X-0.850000X0*%
%ADD28C,1.600000*%
%ADD29RoundRect,0.038000X0.800000X0.800000X-0.800000X0.800000X-0.800000X-0.800000X0.800000X-0.800000X0*%
%ADD30O,2.076000X4.076000*%
%ADD31O,4.076000X2.276000*%
%ADD32O,2.362000X3.900000*%
%ADD33O,3.900000X2.362000*%
G04 APERTURE END LIST*
D10*
X91995000Y-59025000D03*
D11*
X86995000Y-54025000D03*
D10*
X81995000Y-59025000D03*
D12*
X132715000Y-111755000D03*
D13*
X132715000Y-114295000D03*
D14*
X82550000Y-80640000D03*
D13*
X82550000Y-78100000D03*
X82550000Y-75560000D03*
D15*
X197110000Y-113815000D03*
X172110000Y-113815000D03*
D16*
X179070000Y-112395000D03*
D17*
X181840000Y-112395000D03*
X184610000Y-112395000D03*
X187380000Y-112395000D03*
X190150000Y-112395000D03*
X180455000Y-115235000D03*
X183225000Y-115235000D03*
X185995000Y-115235000D03*
X188765000Y-115235000D03*
D12*
X202565000Y-111755000D03*
D13*
X202565000Y-114295000D03*
D18*
X140660000Y-60125000D03*
X149860000Y-60125000D03*
X145260000Y-54125000D03*
D19*
X142720000Y-58025000D03*
X145260000Y-58025000D03*
X147800000Y-58025000D03*
D20*
X219710000Y-119375000D03*
D21*
X231280000Y-115355000D03*
X208280000Y-57355000D03*
X208280000Y-115355000D03*
X231280000Y-57355000D03*
D12*
X209550000Y-62225000D03*
D13*
X207010000Y-62225000D03*
X209550000Y-64765000D03*
X207010000Y-64765000D03*
X209550000Y-67305000D03*
X207010000Y-67305000D03*
X209550000Y-69845000D03*
X207010000Y-69845000D03*
X209550000Y-72385000D03*
X207010000Y-72385000D03*
X209550000Y-74925000D03*
X207010000Y-74925000D03*
X209550000Y-77465000D03*
X207010000Y-77465000D03*
X209550000Y-80005000D03*
X207010000Y-80005000D03*
X209550000Y-82545000D03*
X207010000Y-82545000D03*
X209550000Y-85085000D03*
X207010000Y-85085000D03*
X209550000Y-87625000D03*
X207010000Y-87625000D03*
X209550000Y-90165000D03*
X207010000Y-90165000D03*
X209550000Y-92705000D03*
X207010000Y-92705000D03*
X209550000Y-95245000D03*
X207010000Y-95245000D03*
X209550000Y-97785000D03*
X207010000Y-97785000D03*
X209550000Y-100325000D03*
X207010000Y-100325000D03*
X209550000Y-102865000D03*
X207010000Y-102865000D03*
X209550000Y-105405000D03*
X207010000Y-105405000D03*
X209550000Y-107945000D03*
X207010000Y-107945000D03*
X209550000Y-110485000D03*
X207010000Y-110485000D03*
D15*
X163455000Y-113810000D03*
X138455000Y-113810000D03*
D16*
X145415000Y-112390000D03*
D17*
X148185000Y-112390000D03*
X150955000Y-112390000D03*
X153725000Y-112390000D03*
X156495000Y-112390000D03*
X146800000Y-115230000D03*
X149570000Y-115230000D03*
X152340000Y-115230000D03*
X155110000Y-115230000D03*
D14*
X106045000Y-84450000D03*
D13*
X106045000Y-81910000D03*
D22*
X195580000Y-63160000D03*
D23*
X190580000Y-60060000D03*
D24*
X195580000Y-56960000D03*
D14*
X202565000Y-63495000D03*
D13*
X202565000Y-60955000D03*
D12*
X202565000Y-67305000D03*
D13*
X202565000Y-69845000D03*
X202565000Y-72385000D03*
D16*
X143510000Y-107950000D03*
D25*
X146050000Y-107950000D03*
X148590000Y-107950000D03*
X151130000Y-107950000D03*
X153670000Y-107950000D03*
X156210000Y-107950000D03*
X158750000Y-107950000D03*
X161290000Y-107950000D03*
X163830000Y-107950000D03*
D26*
X107315000Y-111760000D03*
D13*
X104775000Y-111760000D03*
D27*
X161290000Y-102235000D03*
D13*
X161290000Y-99695000D03*
X163830000Y-102235000D03*
X163830000Y-99695000D03*
X166370000Y-102235000D03*
X166370000Y-99695000D03*
X168910000Y-102235000D03*
X168910000Y-99695000D03*
X171450000Y-102235000D03*
X171450000Y-99695000D03*
X173990000Y-102235000D03*
X173990000Y-99695000D03*
D20*
X76835000Y-53335000D03*
D28*
X130810000Y-102235000D03*
X130810000Y-99695000D03*
X130810000Y-97155000D03*
X130810000Y-94615000D03*
X130810000Y-92075000D03*
X130810000Y-89535000D03*
X130810000Y-86995000D03*
X130810000Y-84455000D03*
X130810000Y-81915000D03*
X130810000Y-79375000D03*
X130810000Y-76835000D03*
X130810000Y-74295000D03*
X130810000Y-71755000D03*
X130810000Y-69215000D03*
X130810000Y-66675000D03*
X130810000Y-64135000D03*
X130810000Y-61595000D03*
X130810000Y-59055000D03*
X130810000Y-56515000D03*
X130810000Y-53975000D03*
X110490000Y-53975000D03*
X110490000Y-56515000D03*
X110490000Y-59055000D03*
X110490000Y-61595000D03*
X110490000Y-64135000D03*
X110490000Y-66675000D03*
X110490000Y-69215000D03*
X110490000Y-71755000D03*
X110490000Y-74295000D03*
X110490000Y-76835000D03*
X110490000Y-79375000D03*
X110490000Y-81915000D03*
X110490000Y-84455000D03*
X110490000Y-86995000D03*
X110490000Y-89535000D03*
X110490000Y-92075000D03*
X110490000Y-94615000D03*
X110490000Y-97155000D03*
X110490000Y-99695000D03*
X110490000Y-102235000D03*
D15*
X182550000Y-61010000D03*
X157550000Y-61010000D03*
D29*
X165735000Y-63550000D03*
D17*
X168025000Y-63550000D03*
X170315000Y-63550000D03*
X172605000Y-63550000D03*
X174895000Y-63550000D03*
X164590000Y-61010000D03*
X166880000Y-61010000D03*
X169170000Y-61010000D03*
X171460000Y-61010000D03*
X173750000Y-61010000D03*
X165735000Y-58470000D03*
X168025000Y-58470000D03*
X170315000Y-58470000D03*
X172605000Y-58470000D03*
X174895000Y-58470000D03*
D14*
X76835000Y-80645000D03*
D13*
X76835000Y-78105000D03*
X76835000Y-75565000D03*
D30*
X95330000Y-58325000D03*
X105330000Y-58325000D03*
D31*
X100330000Y-54525000D03*
D20*
X76835000Y-119375000D03*
D29*
X191785000Y-107950000D03*
D25*
X189245000Y-107950000D03*
X186705000Y-107950000D03*
X184165000Y-107950000D03*
X181625000Y-107950000D03*
X179085000Y-107950000D03*
X176545000Y-107950000D03*
X174005000Y-107950000D03*
X171465000Y-107950000D03*
D14*
X146050000Y-86990000D03*
D13*
X146050000Y-84450000D03*
X146050000Y-81910000D03*
X146050000Y-79370000D03*
X146050000Y-76830000D03*
X146050000Y-74290000D03*
X146050000Y-71750000D03*
X146050000Y-69210000D03*
X143510000Y-86990000D03*
X143510000Y-84450000D03*
X143510000Y-81910000D03*
X143510000Y-79370000D03*
X143510000Y-76830000D03*
X143510000Y-74290000D03*
X143510000Y-71750000D03*
X143510000Y-69210000D03*
X140970000Y-86990000D03*
X140970000Y-84450000D03*
X140970000Y-81910000D03*
X140970000Y-79370000D03*
X140970000Y-76830000D03*
X140970000Y-74290000D03*
X140970000Y-71750000D03*
X140970000Y-69210000D03*
D32*
X87865000Y-117549000D03*
X101365000Y-117549000D03*
D33*
X94615000Y-118349000D03*
D28*
X95915000Y-114549000D03*
X93315000Y-114549000D03*
X98015000Y-114549000D03*
X91215000Y-114549000D03*
X98015000Y-112049000D03*
X91215000Y-112049000D03*
D14*
X135890000Y-102230000D03*
D13*
X135890000Y-99690000D03*
X135890000Y-97150000D03*
X135890000Y-94610000D03*
X135890000Y-92070000D03*
X135890000Y-89530000D03*
X135890000Y-86990000D03*
X135890000Y-84450000D03*
X135890000Y-81910000D03*
X135890000Y-79370000D03*
X135890000Y-76830000D03*
X135890000Y-74290000D03*
X135890000Y-71750000D03*
X135890000Y-69210000D03*
X135890000Y-66670000D03*
X135890000Y-64130000D03*
X135890000Y-61590000D03*
X135890000Y-59050000D03*
X135890000Y-56510000D03*
X135890000Y-53970000D03*
D20*
X219710000Y-53335000D03*
M02*
